<svg viewBox="0 0 441 87" xmlns="http://www.w3.org/2000/svg" fill-rule="evenodd" clip-rule="evenodd" stroke-linejoin="round" stroke-miterlimit="2"><path d="M13.387 7.212c-4.62.528-7.363 6.75-12.878 6.745-6.826-.005-6.448 13.806-.456 13.935 2.647.057 5.603 1.648 8.15 4.897 5.118 6.528 6.745 14.603 7.009 22.544.168 5.051 1.36 8.587 3.481 11.708 2.135 3.14 6.504 5.158 10.361 4.156 3.904-1.014 6.051-4.85 7.02-8.456 2.266-8.43.098-6.22 2.997-14.486.281-.802.634-1.63 1.345-2.165 2.354-1.766 5.611 1.106 6.492 3.772.88 2.667 1.682 6.086 4.657 6.673 2.987.59 5.329-2.324 6.427-4.933 1.099-2.609 2.279-5.738 5.222-6.488 3.37-.859 6.516 2.213 7.431 5.304.914 3.09.559 6.441 1.766 9.446 1.206 3.006 5.098 5.578 8.109 3.95 1.819-.986 2.508-3.058 2.887-4.96 1.298-6.515 1.22-14.165 6.844-18.33 4.541-3.363 12.003-2.669 15.712 1.461 3.625 4.037 7.867 9.69 7.994 14.913.184 7.57-1.652.941.845 8.16.823 2.377 2.091 5.017 4.695 5.753 2.689.761 5.842-.69 7.238-2.967 1.36-2.215 2.296-4.094 3.566-7.927 1.264-3.818 2.271-7.578 5.501-10.297 3.23-2.719 9.118-3.046 11.606.262 1.32 1.755 2.236 4.6 4.542 4.31.823-.105 1.492-.645 2.074-1.187 4.018-3.748 7.549-9.335 13.28-9.11 6.155.242 9.076 7.035 9.782 12.638.695 5.52.758 11.255 3.248 16.323 2.489 5.067 8.359 9.326 14.284 8.116 6.265-1.28 9.461-7.769 10.196-13.606.735-5.837.028-11.995 2.639-17.363.539-1.107 1.297-2.23 2.522-2.69 2.401-.904 4.882 1.198 6.092 3.301 1.209 2.103 2.182 4.637 4.565 5.58 2.823 1.116 6.075-.712 7.868-2.999 1.793-2.285 2.78-5.066 4.793-7.198 3.115-3.297 12.33-4.074 15.577-.663 1.488 1.564 1.96 3.712 2.293 5.764 1.21 7.457 1.932 16.112 8.674 20.442 1.843 1.184 4.179 1.928 6.359 1.414 2.194-.516 3.845-2.207 4.902-4.04 2.954-5.12 2.137-11.29 3.085-17.016.802-4.846 2.94-9.5 6.161-13.416 1.629-1.98 4.541-3.915 6.793-2.54 1.949 1.19 2.077 4.277 4.329 4.872 3.37.89 4.466-4.74 7.848-5.593 2.198-.554 4.261 1.18 5.574 2.886 2.203 2.865 3.797 6.121 4.666 9.532.902 3.54 1.621 7.948 5.359 9.175 3.599 1.182 7.4-1.787 8.693-5.08 1.293-3.295 1.035-6.93 1.954-10.327.919-3.398 3.767-6.888 7.588-6.756 3.847.132 6.401 3.856 7.002 7.337.601 3.48-3.295 12.242 3.749 13.86 7.044 1.617 7.595-8.476 11.205-12.689.736-.859 1.445-1.778 2.461-2.347 2.223-1.246 5.326-.339 6.962 1.518 1.637 1.857 2.062 4.384 1.964 6.768-.196 4.771 2.27 7.846 1.775 12.6-.661 6.34.699 3.264 5.16 8.153 3.959 4.337 5.899 8.52 11.159 5.561 3.791-2.133 5.564-.919 6.29-4.937 1.785-9.885 2.685-16.182 8.514-24.662.872-1.268 2.076-2.574 3.709-2.677 2.006-.127 5.257 1.921 6.456 3.346 5.248 6.238 7.065 6.815 15.747 3.8 7.503-2.608 6.311-2.063 9.632-9.584 3.599-8.149 2.295-12.618 5.656-12.707 1.557-.04 1.588-13.869-.003-13.884-8.118-.074-13.278-3.294-19.258-5.222-13.413-4.324-12.962-3.176-27.043-3.847a154.721 154.721 0 00-31.674 1.763c-6.507 1.038-12.916 2.691-19.504 3.138-24.578 1.667-48.486-13.506-72.668-9.15-6.382 1.15-12.378 3.621-18.61 5.323-11.117 3.035-22.835 3.584-34.421 4.114-7.062.322-12.562-6.453-19.348-8.274-2.307-.619-4.781-.462-7.146-.068-14.6 2.435-27.298 13.565-42.039 12.005-12.987-1.374-23.682-12.5-36.701-11.419-4.473.371-8.625 2.188-12.725 3.867-15.833 6.483-33.345 11.363-50.386 8.41-4.671-.81-9.197-2.194-13.706-3.573-6.477-1.98-14.805-4.78-21.97-3.962" fill="#c9e0e4" fill-rule="nonzero"/><path d="M433.517 38.913c-.95 1.994-2.287 5.55-5.211 6.224-10.012 2.313-16.699-12.439-26.968-12.828-4.92-.186-9.422 3.193-11.984 7.398-2.561 4.205-3.551 9.152-4.496 13.985-2.526.976-5.326-1.062-6.495-3.504-1.17-2.442-1.296-5.244-2.11-7.826-2.518-7.987-12.491-12.664-20.242-9.493-4.545 1.86-9.09 5.993-13.634 4.13.759-4.429-2.306-9.18-6.654-10.315-4.347-1.136-9.343 1.511-10.847 5.745-.769 2.17-.831 4.814-2.624 6.256-2.911 2.341-7.129-.718-8.992-3.955-1.864-3.237-3.611-7.33-7.292-7.966-2.973-.512-5.676 1.57-8.264 3.121-2.587 1.55-8.329 2.201-10.322-.063-5.434-1.525-10.211 3.913-12.693 8.982-1.132 2.313-4.806 12.826-8.018 12.402-2.601-.342-3.729-6.026-4.718-7.918-1.961-3.746-5.089-6.892-8.92-8.709-6.353-3.014-14.34-2.229-19.985 1.964-2.174 1.614-4.014 3.683-6.351 5.052-2.337 1.368-5.478 1.898-7.666.302-1.221-.89-1.964-2.306-3.135-3.26-3.697-3.015-9.526.116-11.643 4.391-2.118 4.274-2.077 9.295-3.646 13.8-1.568 4.505-6.046 8.827-10.59 7.376-3.087-.986-4.856-4.258-5.597-7.413-.74-3.155-.782-6.485-1.956-9.506-1.56-4.013-3.937-8.15-7.841-9.967-5.741-2.672-12.985-1.733-17.855 2.314-1.657 1.377-3.29 3.178-5.444 3.213-2.604.043-4.453-2.496-6.86-3.489-3.476-1.433-7.534.678-9.831 3.654-2.297 2.976-3.387 6.682-5.046 10.056-1.785 3.632-6.232 7.285-9.398 4.766-1.316-1.047-1.783-2.803-2.222-4.426-1.875-6.936-4.814-13.942-10.376-18.49-5.563-4.55-14.31-5.82-19.851-1.246-2.176 1.797-3.676 4.29-5.764 6.187-2.089 1.9-5.241 3.154-7.722 1.81-2.821-1.53-3.542-5.71-6.53-6.878-3.282-1.282-6.446 1.885-8.776 4.528s-6.378 5.187-9.031 2.867c-1.927-1.684-1.572-4.845-3.026-6.95-2.016-2.922-6.824-2.467-9.326.051-2.501 2.518-3.234 6.265-3.598 9.796-.364 3.531-.515 7.22-2.213 10.335-1.412 2.59-5.202 4.548-7.157 2.34-.584-.66-.834-1.544-1.048-2.4-1.479-5.903-2.076-12.043-4.174-17.755-2.099-5.713-6.602-8.176-12.069-10.85-2.913-1.426-5.748-.256-7.243-.427-2.707-.31-3.963 1.685-.037 1.62 3.884-.067 5.484 2.886 7.65 5.223 5.638 6.083 6.591 14.267 6.139 22.2-.452 7.931 2.696 12.57 5.019 14.16 3.134 2.145 6.503 5.158 10.361 4.156 3.903-1.014 6.051-4.85 7.02-8.456 2.266-8.43-.044-8.706 2.855-16.972.282-.802.634-1.63 1.346-2.165 2.353-1.766 5.61 1.106 6.491 3.772.881 2.666 1.683 6.086 4.658 6.673 2.986.59 5.329-2.324 6.427-4.933 1.098-2.609 2.279-5.738 5.222-6.488 3.37-.859 6.516 2.213 7.43 5.304.915 3.09.56 6.441 1.766 9.447 1.206 3.005 5.099 5.577 8.11 3.948 1.819-.985 2.508-3.057 2.887-4.96 1.298-6.514 1.22-14.164 6.844-18.329 4.54-3.363 12.003-2.669 15.712 1.462 3.625 4.036 5.895 18.097 8.392 25.315.823 2.378 2.091 5.018 4.694 5.754 2.689.761 5.558-.893 7.238-2.967 3.325-4.106 3.864-6.436 4.661-9.549.997-3.896 1.623-8.2 4.854-10.919 3.23-2.719 9.117-3.046 11.606.262 1.32 1.755 2.236 4.6 4.542 4.31.823-.106 1.492-.645 2.074-1.187 4.017-3.748 7.549-9.336 13.279-9.11 6.156.242 9.077 7.035 9.782 12.638.695 5.52.759 11.255 3.248 16.322 2.49 5.068 8.36 9.327 14.285 8.117 6.265-1.28 9.46-7.769 10.195-13.606.735-5.837.028-11.995 2.64-17.363.538-1.107 1.297-2.23 2.522-2.69 2.401-.904 4.882 1.198 6.091 3.301 1.21 2.103 2.182 4.637 4.566 5.58 2.823 1.116 6.074-.713 7.868-2.999 1.793-2.285 2.78-5.066 4.792-7.198 3.116-3.297 12.331-4.074 15.578-.663 1.488 1.564 1.96 3.712 2.293 5.764 1.209 7.457 1.932 16.112 8.674 20.442 1.843 1.184 4.179 1.928 6.359 1.414 2.193-.516 3.844-2.207 4.902-4.04 2.953-5.12 2.137-11.29 3.085-17.016.802-4.846 2.94-9.5 6.161-13.416 1.628-1.98 4.54-3.914 6.793-2.54 1.949 1.19 2.077 4.278 4.328 4.872 3.371.89 4.467-4.74 7.848-5.593 2.199-.554 4.261 1.18 5.574 2.886 2.204 2.865 3.797 6.121 4.667 9.532.902 3.54 1.621 7.947 5.359 9.175 3.599 1.182 7.399-1.787 8.693-5.08 1.293-3.295 1.035-6.93 1.954-10.327.919-3.397 3.766-6.888 7.588-6.756 3.847.132 6.401 3.856 7.002 7.337.6 3.48-3.296 12.242 3.749 13.86 7.044 1.617 7.595-8.476 11.205-12.689.735-.859 1.445-1.778 2.461-2.347 2.223-1.246 5.326-.339 6.962 1.518 1.636 1.857 2.062 4.384 1.964 6.768-.196 4.771.001-.289-.495 4.464-.66 6.342 1.557 12.893 6.019 17.782 3.958 4.336 11.016 7.354 16.276 4.395 3.791-2.133 5.183-6.507 5.909-10.525 1.786-9.885-.64-10.92 5.189-19.4.871-1.269 2.076-2.575 3.708-2.678 2.007-.127 3.558 1.64 4.207 3.385 2.567 6.897 7.661 7.34 16.344 4.324 3.07-1.066 7.477-1.765 9.249-4.286 4.463-6.347 3.943-18.725 7.856-18.64 8.752.19 1.354-.536-.019-1.499-4.961-.283-6.116 11.096-7.217 12.493" fill="#9ec2cc" fill-rule="nonzero"/><path d="M26.548 30.246c2.586.65 4.418-2.316 6.276-4.227 3.23-3.32 8.93-3.847 12.712-1.174 1.574 1.112 2.886 2.721 4.746 3.23 3.547.967 6.696-2.45 10.257-3.367 3.417-.879 6.934.615 10.418 1.171 6.447 1.03 14.113-2.288 15.486-8.67-5.407-2.203-11.293 1.067-16.805 2.995-15.17 5.304-32.033.205-46.31-7.174-3.654-1.889-7.925-3.97-11.676-2.283-.906.408-1.769 1.1-2.003 2.065-.382 1.576 1.08 3.046 2.612 3.576 1.533.53 3.222.496 4.735 1.077 3.601 1.382 5.037 5.577 6.46 9.161.608 1.535 1.49 3.218 3.092 3.62M179.225 23.931c2.571-1.854 4.805-4.334 7.815-5.327 1.916-.633 3.984-.6 5.958-1.013 1.975-.413 4.029-1.462 4.716-3.358.796-2.198-.658-4.728-2.727-5.814-2.069-1.086-4.549-1.028-6.857-.66-10.744 1.71-19.924 9.374-30.735 10.59-15.78 1.774-30.242-10.505-46.119-10.24a30.005 30.005 0 00-17.405 5.978c-2.08 1.24-.999 4.8 1.232 5.74 2.23.942 4.766.208 7.118-.368 2.351-.575 5.092-.9 6.966.632.922.755 1.482 1.853 2.009 2.922 1.448 2.938 2.898 5.983 5.318 8.19 2.421 2.207 6.101 3.387 9.041 1.943 3.501-1.719 4.659-6.3 7.882-8.498 3.923-2.672 9.189-.927 13.684.598 10.548 3.578 23.07 5.2 32.104-1.315M253.241 23.767c3.153.78 5.128 4.205 8.288 4.96 2.503.598 5.116-.674 7.005-2.424 1.889-1.748 3.283-3.96 5.039-5.844 4.362-4.68 11.03-7.099 17.379-6.306 2.621.328 5.259 1.166 7.852.661 2.593-.505 5.054-3.117 4.143-5.596-.689-1.876-2.855-2.687-4.792-3.177-13.032-3.295-27.153-2.107-39.451 3.32-4.098 1.808-8.021 4.078-12.327 5.31-3.641 1.042-7.457 1.31-11.243 1.373a108.13 108.13 0 01-15.751-.888c-5.188-.674-10.932-1.606-15.265 1.326-.775.525-1.531 1.274-1.553 2.21-.032 1.36 1.43 2.223 2.718 2.663a23.448 23.448 0 009.984 1.133c3.552-.37 7.091-1.553 10.621-1.015 5.584.85 10.308 5.893 15.913 5.194 3.962-.494 7.563-3.86 11.44-2.9M393.217 20.209c3.344-2.194 7.793-2.921 11.421-1.238 2.318 1.075 4.144 3.013 6.438 4.138 2.758 1.351 5.947 1.42 9.018 1.445 2.01.018 4.221-.043 5.719-1.381 2.367-2.113 1.398-6.312-1.096-8.273-2.493-1.962-5.861-2.289-9.027-2.489a300.94 300.94 0 00-51.675 1.186c-6.928.757-13.861 1.758-20.829 1.615-7.036-.145-13.994-1.454-20.875-2.93-3.275-.702-7.247-1.236-9.474 1.266-2.258 2.536-.483 7.341 2.882 7.8 3.722.507 6.522-3.282 10.036-4.61 4.23-1.602 8.893.545 12.777 2.862 3.885 2.317 8.071 4.963 12.556 4.375 5.121-.672 9.436-5.494 14.54-4.702 5.681.882 8.761 8.29 14.49 8.76 5.205.427 8.732-4.96 13.099-7.825" fill="#ebeef8" fill-rule="nonzero"/><path d="M278.704 6.367c-4.045-.207-8.359 1.285-12.169 2.52-3.03.985-6.442 2.394-8.438 4.954-.813.509-.271 2.084.886 1.835 3.359-.724 6.498-2.465 9.882-3.322 3.572-.905 7.41-1.004 10.746-2.64 1.708-.836.752-3.262-.907-3.347M290.302 7.424c-.437-.569-.822-.969-1.531-1.178-.429-.126-.859-.245-1.282-.388-.878-.296-1.855.332-2.09 1.187-.266.964.325 1.752 1.186 2.09.358.14.72.266 1.084.39.618.21 1.126.192 1.758.051.846-.19 1.445-1.41.875-2.152M183.036 12.443c-2.19-.019-4.543 1.034-6.454 2.039-1.551.813-.467 3.485 1.204 2.854 2.07-.782 4.674-.779 6.23-2.526.793-.887.278-2.356-.98-2.367M115.468 11.6c-2.117-.405-4.218-.2-6.343.098-2.619.367-4.917 1.536-7.488 2.015-1.664.31-1.287 3.087.4 2.954 2.28-.179 4.416-.98 6.679-1.274 2.264-.295 4.544-.014 6.752-.667 1.45-.428 1.645-2.81 0-3.126M128.13 16.053c-.68-1.208-2.013-1.113-3.157-1.536-1.083-.4-1.803 1.342-.782 1.857.938.473 1.96.648 2.945.97.758.247 1.355-.646.993-1.29M30.11 18.899a5.936 5.936 0 00-1.498-.694 5.991 5.991 0 01-.325-.12c.136.063.108.05-.082-.034-.225-.1-.45-.203-.673-.304-.816-.366-1.757-.243-2.245.589a1.657 1.657 0 00.589 2.244c.463.27.92.55 1.406.78.845.399 1.579.544 2.478.216 1.189-.433 1.469-1.962.35-2.677M417.651 15.81c-.762-2.22-3.156-1.566-4.947-1.464-1.905.109-1.922 2.9 0 2.969.636.023 1.272-.03 1.908-.017.606.012 1.072.16 1.758.194.831.04 1.554-.884 1.281-1.681M383.754 15.103c-1.941-.36-3.723-.165-5.672.065-2.247.264-4.468.027-6.712.136-.797.04-1.247 1.2-.434 1.601 3.847 1.905 8.695 1.801 12.818.985 1.376-.272 1.393-2.528 0-2.787M394.786 13.882c-.574-.311-1.114-.446-1.763-.317a85.623 85.623 0 01-.899.174c-.214.032-.243.039-.087.02-.94.122-1.738.698-1.738 1.738 0 .872.794 1.838 1.738 1.738 1.096-.115 2.257-.17 3.049-1.022.632-.68.568-1.86-.3-2.331" fill="#fff" fill-rule="nonzero"/><path d="M25.323 61.544c-1.37-1.754-2.968-3.01-3.985-5.053-1.002-2.01-1.012-4.182-1.41-6.332-.229-1.233-2.195-1.198-2.449 0-.938 4.423 1.338 12.766 6.533 13.637 1.388.233 2.157-1.17 1.311-2.252M31.502 62.13c-.528-.27-.989-.466-1.599-.501-.392-.022-.806.035-1.199.05-.989.044-1.817.796-1.817 1.818s.828 1.774 1.817 1.816l1.199.052c.599.026 1.089-.24 1.599-.502 1.031-.53 1.031-2.202 0-2.732M78.261 45.493c-.16-.584-.654-.877-1.224-.932-.925-.09-4.632-.79-4.162 1.165.204.847 1.193 1.127 1.911 1.416 1.036.418 1.914.276 2.892-.215.504-.254.727-.912.583-1.434M126.208 60.001c-.426.356-.811.756-1.241 1.11.164-.135-.203.124-.19.116-.03.02-.419.182-.15.085-.459.166-.773.294-1.127.648-.45.45-.506 1.3 0 1.74.419.365 1.069.728 1.649.49.51-.21.885-.432 1.305-.79.337-.288.601-.665.87-1.013.194-.252.429-.59.541-.728.955-1.17-.489-2.635-1.657-1.658M188.719 65.708c-.839-1.21-2.017-1.975-3.064-2.994-1.046-1.018-1.671-2.206-2.405-3.443-.624-1.05-2.456-.66-2.382.645.18 3.173 2.774 7.473 6.087 8.087 1.217.226 2.621-1.06 1.764-2.295M197.037 65.658c-.147.008-.294-.007-.441-.003.294.047.209.038-.255-.029a2.583 2.583 0 00-.683.085 1.67 1.67 0 00-.099.018c-.109.011-.219.02-.329.03-.296.023-.59.062-.885.105-1.298.19-1.285 2.397 0 2.6.625.097 1.226.268 1.862.307.879.055 1.828-.786 1.96-1.629.11-.706-.3-1.53-1.13-1.484M268.582 54.148c-1.238.566-2.56-.215-3.4-1.083-1.042-1.075-1.594-2.174-3.063-2.741-1.181-.457-2.161.869-1.922 1.922.909 3.994 6.34 7.265 9.962 4.6 1.624-1.195.268-3.542-1.577-2.698M259.352 42.728c-.665-.978-1.966-.978-2.631 0-.581.854-.547 1.784-.462 2.769.083.965.746 1.777 1.778 1.777 1.031 0 1.694-.812 1.777-1.777.085-.985.119-1.915-.462-2.769M380.921 56.946c-1.277-1.21-2.905-1.886-4.142-3.168-1.56-1.616-3.015-4.02-3.373-6.234-.194-1.2-2.174-.912-2.11.286.23 4.301 3.773 10.474 8.409 11.205 1.144.181 2.208-1.148 1.216-2.089M386.601 56.932c-.443-.476-.933-.605-1.564-.606-1.94 0-1.94 3.008 0 3.008.631 0 1.121-.13 1.565-.605a1.293 1.293 0 00-.001-1.797M419.961 45.679c-.502-.18-.93-.313-1.474-.311-.051 0-.44-.03-.471-.024a5.412 5.412 0 01-.675-.168c-.824-.252-1.722.292-1.946 1.105-.251.912.31 1.613 1.105 1.946.447.188.896.315 1.375.387.32.047.639.088.962.106.39.022.774-.185 1.124-.33 1.285-.527 1.382-2.215 0-2.711" fill="#c9e0e4" fill-rule="nonzero"/></svg>