<?xml version="1.0" encoding="UTF-8" standalone="no"?>
<!DOCTYPE svg PUBLIC "-//W3C//DTD SVG 1.1//EN" "http://www.w3.org/Graphics/SVG/1.1/DTD/svg11.dtd">
<svg width="100%" height="100%" viewBox="0 0 1274 238" version="1.1" xmlns="http://www.w3.org/2000/svg" xmlns:xlink="http://www.w3.org/1999/xlink" xml:space="preserve" xmlns:serif="http://www.serif.com/" style="fill-rule:evenodd;clip-rule:evenodd;stroke-linejoin:round;stroke-miterlimit:2;">
    <g transform="matrix(1.05558,0,0,1,-27.2803,0)">
        <path d="M853.03,122.6C832.27,123.07 821.89,123.3 815.85,126.32C805.56,131.46 801.7,138.47 783.63,147.39C774.45,151.92 771.92,151.85 770,151.11C760.87,147.58 766.1,129.28 755.13,118.89C747.81,111.96 737.27,112.32 726.63,112.69C701.53,113.56 698.94,126.2 675.82,126.32C655.77,126.42 641.12,120.12 641.12,120.12C633.6,116.89 628.99,113.37 621.29,113.92C615.11,114.37 611.48,117.11 602.7,122.59C595.93,126.82 583.71,134.45 576.68,137.46C573.49,138.83 565.62,141.71 534.55,136.22C518.42,133.37 511.47,130.99 470.11,120.11C449.3,114.64 445.18,113.69 439.13,112.67C439.13,112.67 438.23,112.52 437.29,112.38C412.81,108.71 396.5,109.93 396.5,109.93C386.58,110.67 381.63,111.05 375.01,113.56C362.95,118.15 352.38,126.3 352.38,126.3C345.97,131.24 343.86,134.25 340.46,133.58C335.27,132.56 331.21,123.79 330.07,121.34C328.66,118.3 327.93,115.53 324.98,113.33C323.21,112.01 321.33,111.4 320.05,110.98C316.56,109.85 313.68,109.89 312.18,109.93C308.6,110.02 305.94,110.83 305.13,111.1C305.13,111.1 300.73,112.53 297.38,115.33C290.27,121.26 294.35,129.93 287.94,139.94C286.38,142.37 281.87,149.36 275.55,149.85C267.4,150.48 259.81,139.74 252,128.78C245.22,119.27 242.66,112.78 235.35,110.87C234.38,110.62 230.62,109.69 226.38,111.08C218.23,113.76 218.69,121.59 209.87,130.01C209.17,130.68 197.19,141.26 188.8,138.68C183.99,137.2 181.35,132.83 178.89,128.77C178.58,128.26 178.54,128.15 178.22,127.54C178.22,127.54 178.13,127.35 177.62,126.42C172.97,117.8 158.91,113.88 158.91,113.88C151.15,111.71 144.75,112.08 143.47,112.15C114.69,113.74 114.14,109.29 87.21,111.99C68.27,113.89 64.87,114 55.43,113.7C50.61,113.55 47.14,113.32 44.48,113.15C40.27,112.88 35.884,109.21 24.489,108.889C24.469,89.369 16.581,76.377 16.561,56.857C20.245,55.956 21.028,54.634 25.763,54.515C45.989,54.008 159.511,22.526 160.4,25.7C161.89,30.97 39.82,68.34 42.56,79.2C43.79,84.09 71,84.04 87.17,82.92C134.09,79.66 110.43,84.86 155.33,82.92C162.87,82.59 169.65,82.18 175.16,86.64C186.07,95.46 180.43,113.97 187.55,116.38C190.03,117.22 192.17,115.47 212.33,100.27C219.44,94.91 223.05,92.22 225.96,91.6C235.47,89.55 245.93,94.95 251.98,101.51C259.41,109.58 262.72,122.17 263.13,123.82C264.54,129.38 264.99,134.76 269.33,137.45C269.76,137.72 273.38,139.9 276.77,138.69C282.99,136.47 279.09,124.94 286.68,113.91C287.54,112.65 292.33,105.92 301.13,102.87C308.77,100.23 315.58,101.7 320.14,102.76C330.05,105.04 331.85,108.89 338.24,110.63C349.49,113.69 358.39,105.73 369.71,100.28C389.41,90.81 408.44,92.77 431.67,95.32C453.04,97.67 469.37,103.83 486.2,110.19C509.67,119.05 511.97,123.2 528.33,126.3C541.81,128.86 557.64,131.86 574.18,125.06C586.23,120.11 588.77,114.02 606.4,107.71C612.69,105.46 618.99,103.26 627.47,102.75C640.76,101.96 643.74,106.29 660.93,108.95C666.29,109.78 680.86,111.92 698.11,108.95C712.72,106.43 711.57,103.29 725.37,101.51C731.96,100.66 751.54,98.14 762.55,107.71C769.15,113.45 771.22,117.62 771.22,117.62C772.63,120.46 773.28,123.22 776.18,126.29C777.43,127.62 778.97,129.26 781.14,130.01C785.81,131.63 790.33,128.04 796.01,125.05C796.48,124.8 802.52,122.82 814.6,118.85C872.84,99.73 907.54,115.13 907.54,115.13C927.31,123.9 937.28,133.72 937.28,133.72C941.62,140.78 947.32,147.75 953.17,147.13C960.36,146.36 960.61,134.88 970.74,130C980.48,125.31 993.92,129.32 1001.72,136.2C1007.05,140.9 1009.48,148.49 1014.11,163.46C1020.05,182.64 1022.14,197.11 1024.02,196.92C1024.77,196.84 1025.1,194.48 1025.26,193.2C1027.36,176.88 1025.3,168.03 1026.5,158.5C1027.05,154.16 1028.35,143.78 1036.41,136.19C1037.39,135.26 1047.65,125.86 1057.48,128.75C1068.43,131.97 1071.43,148.28 1074.83,147.34C1076.82,146.79 1075.69,141.22 1077.31,133.71C1079.13,125.29 1085.32,110.04 1097.14,107.69C1104.02,106.32 1111.33,109.62 1115.73,113.89C1123.98,121.89 1121.3,132.62 1125.64,133.72C1130.38,134.92 1133.52,122.15 1146.71,110.17C1161.09,97.12 1178.99,92.67 1183.89,91.58C1197.15,88.63 1202.4,90.68 1203.72,87.86C1208.81,77 1130.62,36.61 1134.08,28.6C1135.91,24.35 1200.5,50.355 1232.12,54.263C1249.84,56.453 1233.15,109.065 1233.15,109.065C1209.49,108.885 1174.6,110.2 1165.3,118.83C1163.49,120.51 1163.01,120.52 1152.47,134.86C1150.45,137.61 1147.85,140.86 1144.23,144.85C1132.3,157.99 1127.96,158.54 1125.64,158.48C1118.45,158.28 1111.18,151.64 1109.53,144.85C1108.65,141.22 1110.14,140.71 1109.53,133.7C1109.06,128.31 1108.54,122.26 1104.57,120.07C1102.7,119.03 1099.48,118.54 1097.13,120.07C1091.82,123.54 1092.63,136.32 1093.41,148.57C1093.67,152.7 1094.03,155.52 1092.17,157.24C1089.22,159.98 1082.65,158.1 1078.54,156C1067.51,150.37 1068.82,140.44 1058.71,136.17C1057.92,135.84 1050.46,132.81 1045.08,136.17C1040.71,138.9 1039.49,144.72 1038.88,154.76C1037.17,182.86 1043.31,192.74 1036.4,205.57C1035.3,207.61 1031.17,215.3 1025.25,215.48C1022.89,215.55 1018.82,214.48 1011.62,203.09C1004.29,191.48 1002.16,182.53 995.51,163.43C988.83,144.24 986.66,140.86 983.12,139.88C975.14,137.68 965.53,149.08 962.05,153.51C961.24,153.91 959.96,154.45 958.33,154.75C947.14,156.81 939.18,143.88 924.87,134.92C916.18,129.48 908.85,127.83 896.37,125.01C886.73,122.83 871.73,120.61 853.02,122.6L853.03,122.6Z" style="fill:rgb(169,197,234);fill-rule:nonzero;"/>
    </g>
    <g transform="matrix(1.05558,0,0,1,-27.2803,0)">
        <path d="M1240.38,81.451C1242.68,88.421 1237.92,99.284 1232.84,99.911C1217.23,101.843 1174.01,91.87 1147.97,113.92C1136.38,123.74 1133.68,137.36 1126.9,136.23C1118.62,134.85 1120.13,114.22 1108.31,110.21C1100.81,107.67 1091.19,112.9 1086,118.88C1075.55,130.95 1080.91,148.66 1076.09,149.86C1071.05,151.11 1066.49,131.48 1055.02,130.03C1047.17,129.04 1038.21,136.83 1033.95,144.9C1024.7,162.43 1032.79,190.36 1027.75,196.95C1027.22,197.64 1025.68,199.66 1024.03,199.43C1023.8,199.4 1022.63,199.19 1021.55,196.95C1017.56,188.69 1010.21,143.43 993.05,133.75C985.43,129.45 974.62,131.46 968.27,134.99C959.59,139.81 959.64,147.23 953.4,148.62C944.93,150.51 940.07,137.91 924.9,127.55C909.94,117.33 894.42,115.74 876.57,113.92C865.14,112.75 852.57,111.47 836.91,115.16C812.85,120.84 800.82,123.67 789.82,130.03C787.7,131.25 783.02,134.09 778.67,132.51C773.69,130.7 773.48,124.69 770,118.88C761.92,105.42 742.35,103.27 737.78,102.77C731.18,102.04 722.64,103.94 705.56,107.73C691.16,110.92 686.6,112.97 677.06,112.69C669.68,112.47 667.91,111.11 657.23,108.97C640.75,105.67 627.18,102.95 613.86,106.49C601.27,109.83 602.56,115.13 586.6,122.6C585.57,123.08 567.34,131.4 545.71,131.27C528.88,131.17 525.24,126.06 491.18,113.92C466.92,105.28 449.24,99.09 425.5,96.57C403.25,94.2 392.13,93.02 379.65,97.81C361.08,104.93 348.89,120.14 337.52,115.16C334.2,113.7 335.3,112.43 330.08,108.96C321.91,103.53 308.18,99.32 297.86,105.24C293.57,107.7 291.08,111.22 289.19,113.91C285.13,119.67 283.62,125.35 282.99,128.78C282.99,129.4 282.87,135.6 278.03,138.69C277.4,139.09 273.85,141.26 270.59,139.93C267.26,138.57 266.15,134.33 265.63,132.49C262.66,121.94 257.16,111.6 254.48,107.71C247.92,98.2 233.76,91.9 223.5,95.32C215.67,97.93 210.46,106.08 208.63,108.95C203.86,116.42 203.21,123.15 197.48,125.06C195.22,125.82 193.11,125.51 191.99,125.25C191.99,125.25 191.64,125.17 191.28,125.06C187.4,123.89 170.34,105.39 160.17,100.01C157.95,98.84 155.51,97.99 139.05,97.96C118.18,97.92 105.93,99.24 91.97,100.07C61.77,101.85 37.829,100.846 26.203,100.093C-11.719,97.636 2.17,76.914 5.69,67.104C7.672,61.561 8.137,54.694 25.847,54.57C40.581,54.467 57.44,49.989 62.84,53.56C66.09,55.71 66.51,58.47 68.13,61.09C81.08,82.07 142.64,49.73 175.15,74.24C187.91,83.87 191.7,98.89 202.41,97.79C211.3,96.88 213.88,86 224.72,85.4C227.81,85.23 233.43,88.17 244.55,94.07C263.61,104.19 267.51,106.3 273.05,105.22C276.86,104.48 279.94,102.52 285.44,99.02C292.27,94.68 293.95,91.89 299.07,90.35C303.33,89.07 306.61,89.66 311.46,90.35C325.9,92.42 337.26,94.04 348.64,92.83C353.78,92.28 357.85,91.23 365.99,89.11C376.52,86.38 383.98,83.58 385.82,82.91C402.31,76.96 432.22,74.99 458.93,77.95C467.12,78.86 483.81,83.1 517.17,91.58C523.6,93.21 555.98,101.49 574.17,96.54C583.89,93.89 590.28,91.58 590.28,91.58C597.62,88.92 599.19,87.79 603.91,86.62C605.81,86.15 611.62,84.84 621.26,85.38C630.17,85.88 635.59,87.59 646.04,90.34C678.28,98.8 684.42,97.67 688.17,96.54C688.9,96.32 688.04,96.55 703.04,89.1C718.85,81.25 722.12,79.86 726.59,79.19C731.54,78.45 736.57,79.51 746.42,81.67C768.82,86.58 771.85,90.85 786.08,91.58C794.5,92.02 801.74,90.95 805.91,90.34C815.41,88.95 816.71,87.58 826.98,85.38C839.27,82.75 848.89,82.26 860.44,81.66C866.66,81.34 873.48,81.19 881.51,81.66C889.8,82.15 893.9,82.97 897.62,84.14C900.03,84.89 904.16,86.22 908.77,89.1C916.44,93.89 916.11,97.18 926.12,105.21C929.69,108.07 932.74,110.07 934.79,111.41C940.24,114.96 942.96,116.73 945.94,117.61C951.93,119.37 957.29,117.42 963.29,115.13C970.78,112.28 972.28,110.04 988.07,100.26C996.33,95.15 999.11,93.79 1002.94,92.82C1006.29,91.98 1014.01,90.15 1020.29,94.06C1022.24,95.27 1022,95.76 1025.25,99.02C1028.67,102.45 1034.91,108.59 1043.84,111.41C1046.92,112.38 1050.46,113.46 1054.99,112.65C1057.19,112.26 1061.39,111.1 1064.9,107.69C1068.14,104.54 1067.59,102.58 1071.1,97.78C1073.95,93.87 1077.09,91.36 1078.54,90.34C1084.83,85.91 1091.86,86.61 1098.37,86.62C1106.61,86.62 1114.19,84.98 1129.35,81.66C1141.6,78.98 1151.74,75.5 1161.57,69.27C1169.37,64.33 1170.89,61.51 1171.48,59.36C1174.31,49.04 1157.43,39.82 1159.09,37.05C1161.79,32.55 1220.11,54.373 1232.89,54.409C1243.67,54.439 1240.38,81.451 1240.38,81.451Z" style="fill:rgb(223,233,245);fill-rule:nonzero;"/>
    </g>
    <g transform="matrix(1.05558,0,0,1,-27.2803,0)">
        <path d="M1171.51,58.16C1169.82,69.1 1153.53,74.73 1140.53,79.23C1104.66,91.63 1084.23,81.46 1072.37,96.58C1067.68,102.57 1066.51,109.73 1058.74,112.69C1051.87,115.31 1044.87,112.73 1041.39,111.45C1026.45,105.95 1026.78,95.45 1015.37,92.86C1006.55,90.86 998.02,95.24 990.59,99.06C982.64,103.14 982.68,105.45 972,111.45C963.41,116.28 958.59,118.91 952.17,118.89C945.26,118.87 940.34,115.79 933.58,111.45C918.8,101.96 917.97,95.29 907.56,89.14C900.16,84.77 893.54,84.16 880.3,82.94C860.88,81.15 845.41,83.71 828.25,86.66C803.39,90.93 802.05,93.76 789.83,92.86C776.31,91.86 760.3,87.1 758.85,86.66C746.87,83.05 745.34,81.11 737.78,80.46C724.94,79.37 714.49,83.71 710.52,85.42C698.67,90.49 700.08,94.17 689.45,97.81C686.31,98.88 674.89,102.63 662.19,99.05C656.69,97.5 657.7,96.48 648.56,92.85C642.63,90.5 634.98,87.53 625.01,86.65C615.43,85.81 607.93,87.28 605.18,87.89C592.15,90.78 589.4,95.8 577.92,99.04C573.16,100.38 567.04,101.39 553.14,100.28C529.91,98.43 515.71,93.15 494.9,87.89C472.26,82.17 457.51,78.44 437.9,77.98C414.8,77.43 395.66,81.67 384.61,84.18C352.79,91.41 350.09,98.54 332.56,96.57C316.85,94.81 308.64,87.92 296.62,92.85C286.01,97.21 287.81,104.47 279.27,107.72C258.87,115.49 231.32,80.57 218.55,89.13C214.51,91.84 214.9,96.93 207.4,101.52C206.27,102.21 200.45,105.77 195.01,105.24C183.86,104.14 183.99,86.78 172.7,76.74C156.92,62.69 136.47,76.48 88.43,71.78C83.26,71.27 42.05,67.25 41.34,58.15C40.65,49.3 78.58,39.84 109.5,32.13C155.9,20.56 179.69,15.07 209.86,20.98C225.97,24.14 222.74,26.36 254.47,34.61C285,42.55 300.64,46.48 318.91,44.52C338.51,42.42 338.28,36.75 366,32.13C377.11,30.28 392.47,27.71 410.61,29.65C440.64,32.86 442.94,44.63 471.33,49.48C493.83,53.32 511.98,49.27 533.29,44.52C565.52,37.34 564.68,30.56 594.01,24.69C627.27,18.04 655.47,21.34 662.17,22.21C680.72,24.61 683.53,27.65 709.26,30.88C730.85,33.59 741.65,34.95 753.87,33.36C780.37,29.91 784.46,19.15 807.16,19.73C816.6,19.97 814.2,21.79 839.38,27.17C865.9,32.83 879.15,35.66 895.15,33.37C913.04,30.8 912.57,25.24 928.61,23.46C945.64,21.57 954.13,26.96 979.42,34.61C1016.06,45.71 1034.38,51.25 1052.53,47C1075.66,41.58 1074.47,28.48 1100.86,23.45C1107.04,22.27 1129.78,18.27 1150.43,30.89C1153.13,32.54 1173.53,45 1171.5,58.15L1171.51,58.15L1171.51,58.16Z" style="fill:rgb(253,253,253);fill-rule:nonzero;"/>
    </g>
</svg>
