<svg xmlns="http://www.w3.org/2000/svg" width="150" height="150" viewBox="0 0 150 150">
  <path fill="#FFF" d="M75.0044304,112 C39.2243405,112 9,95.5170034 9,76 C9,56.4829966 39.2243405,40 75.0044304,40 C110.78452,40 141,56.4829966 141,76 C141,95.5170034 110.77566,112 75.0044304,112 Z M127.041086,42.3695731 C114.177394,34.9621306 97.4872157,30.6183145 79.6420384,30.0091208 L79.6420384,15 L70.3226944,15 L70.3226944,30.0091208 C52.4775172,30.6536301 35.7873391,34.9974462 22.9236466,42.3695731 C8.12026098,50.8894564 0,62.5082816 0,75.0806275 C0,87.6529734 8.14671134,99.2629697 22.9236466,107.747537 C35.7873391,115.15498 52.4775172,119.498796 70.3226944,120.10799 L70.3226944,136 L79.6773056,136 L79.6773056,120.10799 C97.5224828,119.46348 114.212661,115.119664 127.076353,107.747537 C141.879739,99.2276541 150,87.6088289 150,75.0806275 C150,62.5524261 141.844472,50.8894564 127.041086,42.3695731 L127.041086,42.3695731 Z"/>
</svg>
