<?xml version="1.0" encoding="UTF-8"?>
<svg id="Ebene_2" data-name="Ebene 2" xmlns="http://www.w3.org/2000/svg" viewBox="0 0 180 143">
  <defs>
    <style>
      .cls-1 {
        stroke-width: 3px;
      }

      .cls-1, .cls-2 {
        fill: none;
        stroke: #000;
        stroke-miterlimit: 10;
      }

      .cls-2 {
        stroke-dasharray: 0 0 4 4;
        stroke-width: 4px;
      }
    </style>
  </defs>
  <g id="Ebene_2-2" data-name="Ebene 2">
    <path class="cls-1" d="m.5,27.5h169.31c4.8,0,8.69,3.89,8.69,8.69v96.62c0,4.8-3.89,8.69-8.69,8.69H10.19c-4.8,0-8.69-3.89-8.69-8.69V7.52C1.5,4.2,4.2,1.5,7.52,1.5h33.06c3.79,0,7.43,1.51,10.11,4.19l7.31,7.31h98.81c4.8,0,8.69,3.89,8.69,8.69v5.81"/>
    <polygon class="cls-1" points="61.83 46.48 98.83 46.48 117.83 64.48 117.83 109.48 61.83 109.48 61.83 46.48"/>
    <polyline class="cls-1" points="97.33 46.48 97.33 64.48 117.83 64.48"/>
    <line class="cls-2" x1="165.33" y1="30.98" x2="165.33" y2="131.98"/>
    <line class="cls-2" x1="159.35" y1="128.98" x2="3.12" y2="128.98"/>
  </g>
</svg>