<?xml version="1.0" encoding="utf-8"?>
<!-- Generator: Adobe Illustrator 19.2.1, SVG Export Plug-In . SVG Version: 6.00 Build 0)  -->
<svg version="1.1" id="Ebene_1" xmlns="http://www.w3.org/2000/svg" xmlns:xlink="http://www.w3.org/1999/xlink" x="0px" y="0px"
	 width="330px" height="62.6px" viewBox="0 0 330 62.6" style="enable-background:new 0 0 330 62.6;" xml:space="preserve">
<style type="text/css">
	.st0{fill:#1A1A18;}
</style>
<g>
	<path class="st0" d="M10.6,0.6v30c3.8-3,7.4-5.5,12.5-5.5c1.7,0,5.1,0.4,8.5,3.4c5,4.5,5.4,10.8,5.4,12.9c0,3.5-1,6.3-1.4,7.5
		c-3,7.8-9.7,13.2-18.3,13.2c-3.6,0-7-1.2-10.4-2.4L4,61.2c-0.5-0.2-0.6-0.3-0.6-0.7c0.2-3,0.6-6,0.6-9c0.2-2.1,0.2-4.2,0.2-6.2
		V11.5c0-4.1-0.5-4.7-4.2-6.1v-1C4.3,3,6.1,2.3,10,0.2L10.6,0.6z M10.2,50c0.2,2.2,0.3,4.3,1.4,6.1c0.9,1.3,3.1,3.8,7.2,3.8
		c0.9,0,2.6-0.1,4.7-1.2c4.8-2.5,6.9-7.8,7-13c0-2.1-0.4-9.4-5.9-13.8c-0.9-0.6-3.5-2.6-6.9-2.6c-2.7,0-5,1.6-7.5,3.4
		C10.2,32.7,10.2,50,10.2,50z"/>
	<path class="st0" d="M46.2,35c-0.1-2.4-0.2-3.4-4.2-4.7V29c4.6-1.9,5.8-2.6,10-5.2l0.6,0.5v8.5c0.9-1.2,1.8-2.3,2.7-3.4
		c0.5-0.6,3.8-4.6,7.8-4.5c1,0,4.6,0.4,4.6,3.9c-0.1,2.3-1.8,4.2-4,4.2c-1.2,0-1.4-0.6-2.4-1.2c-0.4-0.2-1.3-0.7-2.5-0.7
		c-1.1,0-3.5,0.4-5.1,3c-1.3,2-1.3,4.1-1.3,6.3v13c0,0.4-0.3,4.2,2.4,5.1c1,0.4,3.3,0.5,6.2,0.6v2.1H40v-2c4.8-0.2,6.1-0.9,6.2-5.9
		V35z"/>
	<path class="st0" d="M90.3,41.5v-5.9c0-0.9,0-1.4-0.2-2.2c-0.8-3-3.7-4.8-6.8-4.8c-1.1,0-5,0.4-6.2,3.9c-0.6,2.1-0.2,3.5-2.2,4.4
		c-0.6,0.2-1.8,0.6-2.4,0.6c-1,0-1.4-0.6-1.4-1.7c0-0.8,0.4-2.6,1.8-4.2c1.3-1.4,3.3-2.5,7-4.5l3.4-1.6c0.5-0.2,2.2-0.9,3.8-0.9
		c1.6,0,4.7,0.9,6.2,1.8c3.3,1.9,3.3,5.4,3.4,6.6v20.5c0,1.1,0,1.5,0.2,2c0.2,0.9,0.8,2.4,3.3,2.4c0.7,0,1.4-0.2,2.7-0.6l0.2,1
		c-2.1,1.6-4.8,3.8-7.7,3.8c-1.3,0-2.3-0.6-2.7-0.9c-1.8-1.3-2.2-2.9-2.6-5c-0.3,0.3-0.7,0.6-1,1c-1.3,1-5.7,4.9-11.4,4.9
		c-0.6,0-1.9-0.1-3.3-0.6c-2.8-1.1-4.9-4.3-4.9-7.3c0-1.4,0.6-2.8,1.4-4c1.8-2.4,4.6-3.4,10.4-5.8L90.3,41.5z M90.3,43.4l-5.9,1.8
		c-2.7,1-5.4,1.8-7.2,4.1c-0.4,0.4-1.4,1.6-1.4,3.3c0,0.3,0.1,1.2,0.5,2.1c1,2.3,3.5,3.7,6,3.7c0.4,0,1.3,0,2.2-0.4
		c1.5-0.6,3.1-2,5.8-4.3V43.4z"/>
	<path class="st0" d="M109.8,34.6c-0.5-3.5-1.1-4.1-4.3-5.4V28c5.7-1.8,6.9-2.5,9.9-3.8l0.8,0.3v6.2c4.2-2.7,9.1-5.8,14.5-5.8
		c2.7,0,5.4,0.9,7,3.3c1.6,2.3,1.7,5,1.8,7.7v20.2c0.2,3,0.6,2.8,5.1,3.3v1.8h-17v-1.9c5.5-0.5,5-0.2,5.4-5.7V37.4
		c0-0.5-0.1-2.5-0.6-3.9c-1-2.8-3.7-4.4-6.7-4.4c-3.7,0-6.7,2-9.6,3.8v21.8c0,2.5,0.2,3.4,1.4,3.9c0.7,0.3,3.4,0.6,4.3,0.7v1.8
		h-17.5v-1.9c1-0.1,2-0.2,3-0.3c2-0.3,2.3-1,2.4-4.4L109.8,34.6L109.8,34.6z"/>
	<path class="st0" d="M176.2,10.7c0-0.2,0.1-1-0.2-1.7c-0.6-2.3-3.2-3.1-5.1-3.7V4c5.1-1.2,6.4-1.6,11.3-3.8l0.5,0.6v54.4
		c0.2,2.7,0.7,2.7,2.2,2.7h3.3v1.6c-2.1,0.4-4.2,0.9-6.2,1.4c-1.7,0.5-3.4,1-5.1,1.5l-0.6-0.4v-5.6c-0.8,0.7-1.6,1.4-2.4,2
		c-1.4,1-5,3.8-10.2,3.8c-3.5,0-6.3-1.4-7.3-2.1c-6.9-4.2-7.4-12.3-7.4-14.6c0-3.1,0.6-6,1.9-8.7c3.2-6.8,10.6-11.7,18.3-11.7
		c2.9,0,4.3,0.5,6.9,1.4V10.7H176.2z M176.5,33.4c-0.3-0.6-0.6-1.1-1-1.6c-0.8-1.5-2.7-4.5-7.6-4.5c-1,0.1-3,0.2-5.1,1.4
		c-2.7,1.5-7,5.5-7,13.4c0,7.6,3.8,11.7,6.3,13.4c2.7,1.9,5,2.2,6.3,2.2c2.7,0,6.2-1.2,7.4-3.9c0.4-0.7,0.6-1.5,0.6-3.3V33.4H176.5z
		"/>
	<path class="st0" d="M206.5,39.1v2.6c0.3,3.5,0.6,5.2,1.1,6.8c0.7,2.2,3.5,9.2,11.3,9.2c4.5,0,7.4-2.4,10.6-5.2l0.8,1.4
		c-2.6,3-3.8,4.2-5.4,5.5c-1.4,1-4.6,3.2-9.6,3.2c-6,0-9.5-3.1-10.9-4.7c-4.1-4.6-4.4-12-4.4-13.4c0-2.7,0.7-12.5,9-17.1
		c3.6-1.9,7-2.2,8.5-2.2c1.3,0,4.8,0.1,7.8,2.4c3.6,2.8,4.4,6.4,4.6,7.8c0.1,0.3,0.2,1.6,0.2,2c0,0.1,0,1.3-0.7,1.6
		c-0.3,0.2-0.9,0.2-1,0.2L206.5,39.1L206.5,39.1z M220.9,36.8c1.8-0.2,2.6-0.5,2.6-2.3c0-3.9-3.1-7.3-7.1-7.3c-1,0-2.6,0.2-4.5,1.4
		c-3.2,1.9-4.2,4.9-5.3,8.2H220.9z"/>
	<path class="st0" d="M239.9,34.8c-0.2-1.6-0.3-2.9-1.4-3.9c-0.6-0.6-1.4-1.1-3-2v-1.1c4.9-1.4,5.8-1.8,10.2-3.9l0.6,0.5v30.5
		c0,0.4-0.4,3.2,1.4,4c0.6,0.2,2.1,0.4,4.1,0.6v1.8h-17.7l0.1-1.8c2.1-0.2,3.8-0.2,4.4-0.6c1.2-0.6,1.3-2.4,1.3-3.6L239.9,34.8
		L239.9,34.8z M243.4,4.4c2.1,0,3.8,1.7,3.8,3.8c0,2.2-2,3.7-4.1,3.7c-0.7,0-1.2-0.1-1.8-0.5c-1.3-0.8-2-2.6-1.6-4.2
		C240.1,5.4,241.5,4.4,243.4,4.4z"/>
	<path class="st0" d="M259.2,34.6c-0.5-3.5-1.1-4.1-4.3-5.4V28c5.7-1.8,6.9-2.5,9.9-3.8l0.8,0.3v6.2c4.2-2.7,9.1-5.8,14.5-5.8
		c2.7,0,5.4,0.9,7,3.3c1.6,2.3,1.7,5,1.8,7.7v20.2c0.2,3,0.6,2.8,5.1,3.3v1.8h-17v-1.9c5.5-0.5,5-0.2,5.4-5.7V37.4
		c0-0.5-0.1-2.5-0.6-3.9c-1-2.8-3.7-4.4-6.7-4.4c-3.7,0-6.7,2-9.6,3.8v21.8c0,2.5,0.2,3.4,1.4,3.9c0.7,0.3,3.4,0.6,4.3,0.7v1.8
		h-17.5v-1.9c1-0.1,2-0.2,3-0.3c2-0.3,2.3-1,2.4-4.4V34.6H259.2z"/>
	<path class="st0" d="M321.5,35.1l-1.4-0.1c-0.2-0.7-0.4-1.5-0.6-2.2c-0.3-1-1.3-3.4-3.9-5c-1.8-1-3.4-1-4.2-1c-0.3,0-1.4,0-2.4,0.4
		c-2.2,0.8-3.9,3-3.9,5.2c0.1,2.5,1.8,4.2,2.5,4.7c2,1.9,4.2,2.6,6.6,3.6c1.4,0.6,2.5,1.1,3.8,1.9c1.5,1,5.3,3.7,5.3,9
		c0,0.8-0.1,2.5-1,4.3c-1.3,2.5-5.2,6.5-12.6,6.5c-4.2,0-6.6-1-10-3l-0.8-9.2l1.4-0.3c1,3.5,2.2,7.1,5.7,9c2,1.1,3.8,1.2,4.6,1.2
		c3.4,0,5.1-1.9,5.8-3.1c0.2-0.4,0.8-1.6,0.8-3.1c0-0.2-0.1-1.4-0.4-2.3c-1-2.6-3.4-3.7-5.8-4.8c-0.8-0.4-3-1.2-5.1-2.6
		c-1.4-0.8-6-3.7-6-9.1c0-2.9,1.3-5.8,3.3-7.5c3.3-2.8,8.2-2.9,9.4-2.9c2.6,0,4.5,0.4,9.1,1.9v8.5H321.5z"/>
</g>
</svg>
