<svg viewBox="0 0 960 540" fill="none" stroke-linecap="square" stroke-miterlimit="10" xmlns="http://www.w3.org/2000/svg"><clipPath id="a"><path d="M0 0h960v540H0V0z"/></clipPath><g clip-path="url(#a)"><path fill="#fff" d="M0 0h960v540H0z" fill-rule="evenodd"/><path fill="none" d="M16.236 108.332c0-44.644 36.192-80.836 80.836-80.836h765.855a80.836 80.836 0 0180.837 80.836v323.336c0 44.644-36.192 80.836-80.837 80.836H97.072c-44.644 0-80.836-36.192-80.836-80.836z"/><path stroke="#34b255" stroke-width="2" stroke-linejoin="round" stroke-linecap="butt" stroke-dasharray="8.0,6.0" d="M16.236 108.332h0c0-44.644 36.192-80.836 80.836-80.836h765.855a80.836 80.836 0 0180.837 80.836v323.336c0 44.644-36.192 80.836-80.837 80.836H97.072c-44.644 0-80.836-36.192-80.836-80.836z"/><path fill="#d3ff19" d="M425.937 55.306h120.126v69.07H425.937z" fill-rule="evenodd"/><path stroke="#fff" stroke-width="2" stroke-linejoin="round" stroke-linecap="butt" d="M425.937 55.306h120.126v69.07H425.937z"/><path fill="#595959" d="M473.713 94.277h6.172v2.484h-9.39V84.45h3.218v9.828zm12.997-3.422q0-.656-.375-1.031-.36-.39-.97-.39-.609 0-1.062.312-.437.296-.593 1.078l-2.688-.625q.266-1.344 1.375-2.14 1.125-.813 3.156-.813 1.36 0 2.313.406.969.39 1.484 1.187.516.797.516 1.953V94.2q0 .734.656.734.328 0 .531-.078l-.187 1.812q-.563.266-1.36.266-.734 0-1.296-.234-.547-.235-.875-.703-.313-.485-.313-1.22v-.109l.36-.125q0 .797-.485 1.344-.469.547-1.234.813-.75.25-1.563.25-.953 0-1.672-.297-.703-.297-1.093-.86-.375-.578-.375-1.421 0-1 .609-1.657.61-.672 1.906-.937l3.531-.719-.015 1.672-1.797.375q-.563.11-.828.328-.266.219-.266.64 0 .407.297.626.297.203.703.203.328 0 .61-.094.296-.094.515-.281.219-.203.344-.5.14-.313.14-.719v-2.453zm11.583 6.094q-.906 0-1.61-.407-.703-.421-1.156-1.14-.437-.719-.578-1.625l.297-.39-.156 3.374h-2.782V83.48h3.172v6.875l-.297-.438q.25-1.156 1.047-1.906.813-.765 2.172-.765 1.094 0 1.938.578.843.578 1.312 1.672.485 1.093.485 2.64 0 1.516-.485 2.594-.484 1.078-1.344 1.656-.859.563-2.015.563zm-1.094-2.328q.813 0 1.281-.61.469-.61.469-1.922 0-1.297-.469-1.906-.468-.61-1.281-.61-.547 0-.937.313-.375.313-.579.875-.203.547-.203 1.36 0 .796.203 1.359.204.562.594.86.39.28.922.28z"/><path fill="#d3ff19" d="M687.832 55.306h120.126v69.07H687.832z" fill-rule="evenodd"/><path stroke="#fff" stroke-width="2" stroke-linejoin="round" stroke-linecap="butt" d="M687.832 55.306h120.126v69.07H687.832z"/><path fill="#595959" d="M721.441 84.449q1.516 0 2.578.484 1.063.484 1.61 1.406.562.907.562 2.22 0 1.296-.562 2.218-.547.906-1.61 1.39-1.062.485-2.578.485h-2.437v4.11h-3.219V84.448h5.656zm-.5 5.797q1 0 1.516-.407.516-.422.516-1.28 0-.86-.516-1.282-.516-.422-1.516-.422h-1.937v3.39h1.937zm12.29.609q0-.656-.374-1.031-.36-.39-.969-.39-.61 0-1.062.312-.438.296-.594 1.078l-2.688-.625q.266-1.344 1.375-2.14 1.125-.813 3.157-.813 1.359 0 2.312.406.969.39 1.485 1.187.515.797.515 1.953V94.2q0 .734.656.734.329 0 .532-.078l-.188 1.812q-.562.266-1.36.266-.734 0-1.296-.234-.547-.235-.875-.703-.313-.485-.313-1.22v-.109l.36-.125q0 .797-.485 1.344-.468.547-1.234.813-.75.25-1.562.25-.954 0-1.672-.297-.703-.297-1.094-.86-.375-.578-.375-1.421 0-1 .61-1.657.609-.672 1.906-.937l3.53-.719-.015 1.672-1.797.375q-.562.11-.828.328-.265.219-.265.64 0 .407.296.626.297.203.704.203.328 0 .609-.094.297-.094.516-.281.218-.203.343-.5.14-.313.14-.719v-2.453zm9.117-6.39v8.968q0 .672.328.969.328.281.906.281.453 0 .782-.094.328-.109.578-.312l.343 1.969q-.468.328-1.187.515-.703.188-1.453.188-1.063 0-1.844-.297-.766-.297-1.187-.953-.407-.657-.438-1.735V85.34l3.172-.875zm2.781 2.968v2.25h-7.547v-2.25h7.547zm3.06-1.078q-.97 0-1.407-.36-.437-.374-.437-1.156 0-.797.437-1.156.438-.375 1.406-.375.953 0 1.407.375.453.36.453 1.156 0 .782-.453 1.157-.454.359-1.407.359zm1.593 1.078v9.328h-3.172v-9.328h3.172zm6.804 9.516q-1.547 0-2.672-.578-1.125-.579-1.75-1.657-.61-1.093-.61-2.625 0-1.515.61-2.593.625-1.094 1.735-1.672 1.109-.578 2.546-.578 1.47 0 2.5.578 1.032.562 1.579 1.562.546 1 .546 2.281 0 .344-.03.688-.016.328-.048.547h-7.39v-1.703h5.984l-1.5.578q0-1.11-.406-1.703-.406-.61-1.235-.61-.609 0-1.03.282-.407.28-.626.875-.219.593-.219 1.53 0 .923.235 1.485.25.563.703.828.453.25 1.078.25.719 0 1.125-.28.422-.282.625-.782l2.547.828q-.266.812-.906 1.36-.641.546-1.532.827-.89.282-1.859.282zm6.255-.188v-9.328h2.828l.172 3.203-.36-.344q.188-1.015.657-1.687.484-.672 1.203-1.016.719-.343 1.61-.343.984 0 1.687.375.719.375 1.125 1.109.422.719.422 1.812v6.22h-3.172v-5.376q0-.969-.375-1.344-.375-.375-.953-.375-.438 0-.844.22-.39.218-.61.687-.218.453-.218 1.25v4.937h-3.172zm15.402-12.297v8.97q0 .671.328.968.328.281.906.281.453 0 .781-.094.328-.109.578-.312l.344 1.969q-.469.328-1.187.515-.704.188-1.454.188-1.062 0-1.843-.297-.766-.297-1.188-.953-.406-.657-.437-1.735V85.34l3.172-.875zm2.78 2.97v2.25h-7.546v-2.25h7.547z"/><path fill="#d3ff19" d="M164.042 55.306h120.126v69.07H164.042z" fill-rule="evenodd"/><path stroke="#fff" stroke-width="2" stroke-linejoin="round" stroke-linecap="butt" d="M164.042 55.306h120.126v69.07H164.042z"/><path fill="#595959" d="M196.99 84.449q2.906 0 4.438 1.61 1.546 1.593 1.546 4.546 0 2.953-1.546 4.562-1.532 1.594-4.438 1.594h-5.219V84.45h5.219zm-.313 9.89q1.563 0 2.282-.937.719-.953.719-2.797 0-1.844-.72-2.781-.718-.953-2.28-.953h-1.688v7.468h1.688zm12.818 2.61q-1.547 0-2.672-.578-1.125-.579-1.75-1.657-.61-1.093-.61-2.625 0-1.515.61-2.593.625-1.094 1.734-1.672 1.11-.578 2.547-.578 1.469 0 2.5.578 1.031.562 1.578 1.562.547 1 .547 2.281 0 .344-.031.688-.016.328-.047.547h-7.39v-1.703h5.984l-1.5.578q0-1.11-.407-1.703-.406-.61-1.234-.61-.61 0-1.031.282-.407.28-.625.875-.22.593-.22 1.53 0 .923.235 1.485.25.563.703.828.454.25 1.079.25.718 0 1.125-.28.421-.282.625-.782l2.546.828q-.265.812-.906 1.36-.64.546-1.531.827-.89.282-1.86.282zm6.255-.188v-9.328h2.828l.172 3.203-.36-.344q.188-1.015.657-1.687.484-.672 1.203-1.016.718-.343 1.609-.343.984 0 1.688.375.718.375 1.125 1.109.421.719.421 1.812v6.22h-3.171v-5.376q0-.969-.375-1.344-.375-.375-.954-.375-.437 0-.843.22-.391.218-.61.687-.218.453-.218 1.25v4.937h-3.172zm15.401-12.297v8.97q0 .671.328.968.328.281.907.281.453 0 .78-.094.329-.109.579-.312l.344 1.969q-.47.328-1.188.515-.703.188-1.453.188-1.062 0-1.844-.297-.765-.297-1.187-.953-.406-.657-.438-1.735V85.34l3.172-.875zm2.781 2.97v2.25h-7.546v-2.25h7.546zm3.06-1.079q-.97 0-1.407-.36-.437-.374-.437-1.156 0-.797.437-1.156.438-.375 1.406-.375.954 0 1.407.375.453.36.453 1.156 0 .782-.453 1.157-.453.359-1.407.359zm1.593 1.078v9.328h-3.172v-9.328h3.172zm6.18 9.516q-1.407 0-2.61-.453-1.203-.47-1.985-1.313l1.485-1.766q.469.594 1.234 1 .781.407 1.735.407.578 0 .953-.172t.375-.516q0-.265-.188-.422-.187-.156-.75-.28l-1.297-.25q-1.765-.36-2.5-1.048-.734-.703-.734-1.844 0-.765.469-1.468.468-.703 1.437-1.14.969-.438 2.485-.438 1.406 0 2.484.421 1.094.407 1.734 1.188l-1.515 1.719q-.453-.563-1.172-.875-.703-.328-1.406-.328-.454 0-.766.093-.297.078-.453.235-.14.14-.14.36 0 .25.234.437.234.171.859.296l1.703.329q1.438.265 2.063.953.64.687.64 1.672 0 .906-.484 1.64-.485.719-1.453 1.14-.97.423-2.438.423zm9.912-12.485v8.97q0 .671.328.968.328.281.906.281.453 0 .781-.094.328-.109.578-.312l.344 1.969q-.469.328-1.187.515-.703.188-1.453.188-1.063 0-1.844-.297-.766-.297-1.188-.953-.406-.657-.437-1.735V85.34l3.172-.875zm2.781 2.97v2.25h-7.547v-2.25h7.547z"/><path fill="#fff" d="M290.597 242.177h85.575v83.087h-85.575z" fill-rule="evenodd"/><path stroke="#d3ff19" stroke-width="2" stroke-linejoin="round" stroke-linecap="butt" d="M290.597 242.177h85.575v83.087h-85.575z"/><path fill="#595959" d="M316.33 263.724q2.062 0 3.156 1.156 1.11 1.14 1.11 3.25 0 2.094-1.11 3.25-1.094 1.14-3.156 1.14h-3.735v-8.796h3.735zm-.22 7.062q1.11 0 1.626-.672.515-.672.515-1.984 0-1.328-.515-2-.516-.672-1.625-.672h-1.219v5.328h1.219zm9.149 1.875q-1.11 0-1.922-.406-.797-.422-1.235-1.188-.437-.78-.437-1.875 0-1.093.437-1.859.438-.781 1.235-1.188.797-.421 1.812-.421 1.063 0 1.797.406t1.125 1.125q.39.703.39 1.625 0 .234-.015.484-.016.235-.047.39h-5.265v-1.202h4.265l-1.078.406q0-.797-.281-1.219-.281-.437-.89-.437-.423 0-.72.203-.296.203-.453.64-.156.422-.156 1.079 0 .656.172 1.062t.484.594q.328.172.782.172.515 0 .812-.188.297-.203.438-.562l1.812.593q-.187.579-.64.97-.454.39-1.094.593-.625.203-1.328.203zm4.467-.14v-6.657h2.03l.11 2.281-.25-.25q.14-.718.469-1.187.344-.484.86-.734.515-.25 1.156-.25.687 0 1.203.265.515.266.797.797.296.516.296 1.297v4.437h-2.265v-3.843q0-.688-.266-.953-.265-.266-.672-.266-.328 0-.61.156-.265.14-.437.485-.156.328-.156.89v3.531h-2.265zm11.004-8.782v6.406q0 .485.235.688.234.203.656.203.312 0 .547-.062.234-.079.422-.22l.234 1.391q-.328.235-.844.375-.5.141-1.031.141-.766 0-1.313-.219-.546-.218-.859-.672-.297-.468-.312-1.25v-6.156l2.265-.625zm1.985 2.125v1.61h-5.391v-1.61h5.39zm4.884 2.438q0-.469-.266-.735-.25-.28-.687-.28-.454 0-.766.218-.313.219-.422.781l-1.922-.453q.188-.969.985-1.531.796-.578 2.25-.578.968 0 1.656.296.687.282 1.047.844.375.563.375 1.39v2.438q0 .516.468.516.235 0 .391-.047l-.14 1.297q-.391.187-.97.187-.515 0-.921-.171-.39-.172-.625-.5-.219-.344-.219-.86v-.094l.25-.093q0 .578-.344.968-.343.391-.89.579-.532.187-1.11.187-.687 0-1.203-.219-.5-.218-.781-.625-.266-.406-.266-1 0-.718.438-1.187.437-.485 1.36-.672l2.53-.516-.015 1.203-1.281.266q-.407.078-.594.234-.188.157-.188.454 0 .296.203.453.22.14.516.14.219 0 .422-.062.219-.078.375-.219.156-.14.25-.344.094-.218.094-.515v-1.75zm6.232-5.266v7.219q0 .437.14.625.157.187.5.187.204 0 .329-.015.14-.032.328-.094l-.14 1.36q-.25.156-.641.25-.375.093-.75.093-1.063 0-1.547-.5t-.484-1.61v-7.515h2.265zM311.826 288.52v-6.656h2.031l.063 1.281q.312-.703.89-1.062.594-.36 1.344-.36.75 0 1.297.344.547.328.812.97.22-.438.547-.72.344-.297.782-.437.437-.156.906-.156.672 0 1.172.265.515.25.812.781.297.532.297 1.313v4.437h-2.266V284.6q0-.641-.25-.891-.234-.25-.656-.25-.328 0-.61.172-.265.156-.421.5-.14.328-.14.828v3.562h-2.266V284.6q0-.641-.25-.891t-.657-.25q-.312 0-.578.156-.265.156-.437.5-.156.344-.156.89v3.516h-2.266zm13.682-7.437q-.703 0-1.015-.25-.313-.266-.313-.828 0-.578.313-.828.312-.266 1.015-.266.672 0 .985.266.328.25.328.828 0 .562-.328.828-.313.25-.985.25zm1.125.781v6.656h-2.265v-6.656h2.265zm3.848-2.828v7.219q0 .437.14.625.156.187.5.187.203 0 .328-.015.14-.032.328-.094l-.14 1.36q-.25.156-.64.25-.376.093-.75.093-1.063 0-1.548-.5-.484-.5-.484-1.61v-7.515h2.266zm4.358 0v7.219q0 .437.14.625.157.187.5.187.204 0 .329-.015.14-.032.328-.094l-.141 1.36q-.25.156-.64.25-.376.093-.75.093-1.063 0-1.547-.5-.485-.5-.485-1.61v-7.515h2.266zm3.264 2.047q-.703 0-1.015-.25-.313-.266-.313-.828 0-.578.313-.828.312-.266 1.015-.266.672 0 .985.266.328.25.328.828 0 .562-.328.828-.313.25-.985.25zm1.125.781v6.656h-2.265v-6.656h2.265zm1.613 6.656v-6.656h2.031l.11 2.281-.25-.25q.14-.718.469-1.187.343-.484.859-.734t1.156-.25q.688 0 1.203.265.516.266.797.797.297.516.297 1.297v4.437h-2.266v-3.843q0-.688-.265-.953-.266-.266-.672-.266-.328 0-.61.156-.265.14-.437.485-.156.328-.156.89v3.531h-2.266zm14.717-8.453l.187 1.516q-.078-.016-.172-.016-.078-.015-.156-.015-.578 0-.875.297-.281.28-.281.703l-.797-.297q0-.547.203-1.047.203-.516.61-.828.421-.328 1.062-.328h.094q.062 0 .125.015zm-2.297 6.97q1.156 0 1.781.5.625.483.625 1.39 0 .812-.453 1.36-.453.546-1.281.812-.813.28-1.938.28-1.812 0-2.61-.452-.796-.453-.796-1.219 0-.563.453-.906.453-.344 1.5-.375l-.047.218q-.812-.109-1.219-.484-.39-.375-.39-1.016 0-.64.5-1.03.5-.407 1.344-.454l.828.39h-.22q-.515.032-.733.188-.204.14-.204.344 0 .234.188.344.187.11.562.11h2.11zm-1.25 2.89q.64 0 1.062-.094.422-.094.625-.25.22-.14.22-.344 0-.203-.157-.312-.14-.11-.531-.11h-2.375q-.25 0-.407.125-.156.141-.156.344 0 .297.453.469t1.266.172zm.078-8.203q1.016 0 1.734.265.72.266 1.094.766.39.5.39 1.234 0 .719-.39 1.235-.375.5-1.094.765-.718.25-1.734.25-1.578 0-2.406-.578-.813-.594-.813-1.672 0-.734.375-1.234t1.094-.766q.719-.265 1.75-.265zm0 1.296q-.438 0-.719.25-.265.25-.265.72 0 .452.265.702.281.25.719.25.422 0 .703-.25.281-.25.281-.703 0-.469-.28-.719-.282-.25-.704-.25zM306.255 304.52v-6.656h2.031l.063 1.281q.312-.703.89-1.062.594-.36 1.344-.36.75 0 1.297.344.547.328.812.97.219-.438.547-.72.344-.297.781-.437.438-.156.907-.156.672 0 1.172.265.515.25.812.781.297.532.297 1.313v4.437h-2.266V300.6q0-.641-.25-.891-.234-.25-.656-.25-.328 0-.61.172-.265.156-.421.5-.14.328-.14.828v3.562h-2.266V300.6q0-.641-.25-.891t-.657-.25q-.312 0-.578.156-.265.156-.437.5-.157.344-.157.89v3.516h-2.265zm16.26-4.218q0-.469-.265-.735-.25-.28-.688-.28-.453 0-.765.218-.313.219-.422.781l-1.922-.453q.187-.969.984-1.531.797-.578 2.25-.578.969 0 1.656.296.688.282 1.047.844.375.563.375 1.39v2.438q0 .516.469.516.234 0 .39-.047l-.14 1.297q-.39.187-.969.187-.515 0-.922-.171-.39-.172-.625-.5-.218-.344-.218-.86v-.094l.25-.093q0 .578-.344.968-.344.391-.89.579-.532.187-1.11.187-.688 0-1.203-.219-.5-.218-.781-.625-.266-.406-.266-1 0-.718.437-1.187.438-.485 1.36-.672l2.531-.516-.016 1.203-1.28.266q-.407.078-.595.234-.187.157-.187.454 0 .296.203.453.219.14.516.14.218 0 .422-.062.218-.078.375-.219.156-.14.25-.344.093-.218.093-.515v-1.75zm7.101-2.578q1.016 0 1.688.296.672.282 1.047.75.39.47.484 1.016l-2.094.703q-.093-.578-.343-.86-.25-.296-.72-.296-.421 0-.718.203-.281.188-.422.61-.14.421-.14 1.062 0 .656.156 1.062.156.407.453.594.297.172.688.172.343 0 .562-.125.219-.125.36-.36.156-.25.187-.593l2.047.656q-.094.594-.5 1.047-.406.453-1.078.734-.672.266-1.563.266-1.094 0-1.906-.406-.813-.422-1.25-1.188-.438-.78-.438-1.875 0-1.093.438-1.875.437-.78 1.234-1.187.797-.406 1.828-.406zm4.401 6.796v-9.484h2.266v4.031q.297-.672.844-1 .546-.343 1.265-.343.688 0 1.203.265.516.266.797.797.297.516.297 1.297v4.437h-2.266v-3.812q0-.719-.265-.984-.25-.282-.672-.282-.328 0-.61.157-.265.156-.437.515-.156.344-.156.906v3.5h-2.266zm9.404-7.437q-.703 0-1.015-.25-.313-.266-.313-.828 0-.578.313-.828.312-.266 1.015-.266.672 0 .985.266.328.25.328.828 0 .562-.328.828-.313.25-.985.25zm1.125.781v6.656h-2.265v-6.656h2.265zm1.613 6.656v-6.656h2.031l.11 2.281-.25-.25q.14-.718.468-1.187.344-.484.86-.734.515-.25 1.156-.25.688 0 1.203.265.516.266.797.797.297.516.297 1.297v4.437h-2.266v-3.843q0-.688-.265-.953-.266-.266-.672-.266-.328 0-.61.156-.265.14-.437.485-.156.328-.156.89v3.531h-2.266zm11.513.141q-1.109 0-1.921-.406-.797-.422-1.235-1.188-.437-.78-.437-1.875 0-1.093.437-1.859.438-.781 1.235-1.188.796-.421 1.812-.421 1.063 0 1.797.406t1.125 1.125q.39.703.39 1.625 0 .234-.015.484-.016.235-.047.39h-5.266v-1.202h4.266l-1.078.406q0-.797-.281-1.219-.282-.437-.89-.437-.423 0-.72.203t-.453.64q-.156.422-.156 1.079 0 .656.172 1.062t.484.594q.328.172.781.172.516 0 .813-.188.297-.203.437-.562l1.813.593q-.188.579-.64.97-.454.39-1.094.593-.625.203-1.329.203z"/><path fill="#fff" d="M392.34 242.177h85.576v83.087H392.34z" fill-rule="evenodd"/><path stroke="#d3ff19" stroke-width="2" stroke-linejoin="round" stroke-linecap="butt" d="M392.34 242.177h85.576v83.087H392.34z"/><path fill="#595959" d="M409.752 271.724v8.796h-2.297v-8.796h2.297zm1.758 8.796v-6.656h2.032l.109 2.281-.25-.25q.14-.718.469-1.187.343-.484.86-.734.515-.25 1.155-.25.688 0 1.203.265.516.266.797.797.297.516.297 1.297v4.437h-2.265v-3.843q0-.688-.266-.953-.266-.266-.672-.266-.328 0-.61.156-.265.14-.437.485-.156.328-.156.89v3.531h-2.266zm11.005-8.78v6.405q0 .485.234.688.235.203.657.203.312 0 .547-.062.234-.079.421-.22l.235 1.391q-.328.235-.844.375-.5.141-1.031.141-.766 0-1.313-.219-.547-.218-.86-.672-.296-.468-.312-1.25v-6.156l2.266-.625zm1.984 2.124v1.61h-5.39v-1.61h5.39zm1.06 6.656v-6.656h2l.093 1.438q.25-.75.75-1.157.5-.421 1.281-.421.25 0 .422.046.188.032.297.094l-.234 1.875q-.125-.062-.344-.094-.203-.03-.5-.03-.39 0-.75.171-.344.172-.547.516-.203.343-.203.86v3.358h-2.266zm9.369-4.218q0-.469-.266-.735-.25-.28-.687-.28-.453 0-.766.218-.312.219-.422.781l-1.922-.453q.188-.969.985-1.531.797-.578 2.25-.578.969 0 1.656.296.688.282 1.047.844.375.563.375 1.39v2.438q0 .516.469.516.234 0 .39-.047l-.14 1.297q-.39.187-.969.187-.516 0-.922-.171-.39-.172-.625-.5-.219-.344-.219-.86v-.094l.25-.093q0 .578-.343.968-.344.391-.891.579-.531.187-1.11.187-.687 0-1.203-.219-.5-.218-.78-.625-.266-.406-.266-1 0-.718.437-1.187.438-.485 1.36-.672l2.53-.516-.015 1.203-1.281.266q-.406.078-.594.234-.187.157-.187.454 0 .296.203.453.218.14.515.14.22 0 .422-.062.219-.078.375-.219.156-.14.25-.344.094-.218.094-.515v-1.75zm7.117-2.578q1.047 0 1.843.406.797.406 1.235 1.187.453.782.453 1.875 0 1.094-.453 1.875-.438.766-1.235 1.188-.796.406-1.843.406-1.032 0-1.828-.406-.797-.422-1.25-1.188-.438-.78-.438-1.875 0-1.093.438-1.875.453-.78 1.25-1.187.796-.406 1.828-.406zm0 1.609q-.39 0-.672.187-.281.188-.422.61-.14.406-.14 1.062 0 .657.14 1.063.14.406.422.594.281.187.672.187.406 0 .672-.187.28-.188.421-.594.157-.406.157-1.063 0-.656-.157-1.062-.14-.422-.421-.61-.266-.187-.672-.187zm4.811 5.187v-6.656h2l.094 1.438q.25-.75.75-1.157.5-.421 1.281-.421.25 0 .422.046.188.032.297.094l-.234 1.875q-.125-.062-.344-.094-.203-.03-.5-.03-.39 0-.75.171-.344.172-.547.516-.203.343-.203.86v3.358h-2.266zm9.37-4.218q0-.469-.265-.735-.25-.28-.688-.28-.453 0-.766.218-.312.219-.421.781l-1.922-.453q.187-.969.984-1.531.797-.578 2.25-.578.969 0 1.656.296.688.282 1.047.844.375.563.375 1.39v2.438q0 .516.469.516.234 0 .39-.047l-.14 1.297q-.39.187-.969.187-.515 0-.922-.171-.39-.172-.625-.5-.218-.344-.218-.86v-.094l.25-.093q0 .578-.344.968-.344.391-.89.579-.532.187-1.11.187-.688 0-1.203-.219-.5-.218-.782-.625-.265-.406-.265-1 0-.718.437-1.187.438-.485 1.36-.672l2.53-.516-.015 1.203-1.28.266q-.407.078-.595.234-.187.157-.187.454 0 .296.203.453.219.14.516.14.218 0 .421-.062.22-.078.375-.219.157-.14.25-.344.094-.218.094-.515v-1.75zm6.233-5.266v7.219q0 .437.14.625.157.187.5.187.204 0 .329-.015.14-.032.328-.094l-.141 1.36q-.25.156-.64.25-.376.093-.75.093-1.063 0-1.547-.5-.485-.5-.485-1.61v-7.515h2.266zM423.467 287.583q1.235 0 2.172.39.938.376 1.625 1.11l-1.093 1.484q-.579-.609-1.235-.906-.656-.297-1.5-.297-.5 0-.812.11-.297.109-.438.296-.125.172-.125.422 0 .282.25.47.266.187.86.327l1.468.328q1.328.313 1.938.907.61.578.61 1.546 0 .938-.485 1.594-.469.64-1.313.969-.843.328-1.922.328-.875 0-1.671-.187-.797-.204-1.438-.563-.64-.36-1.078-.828l1.094-1.531q.343.39.828.687.484.297 1.062.469.578.172 1.188.172.453 0 .765-.094.329-.094.47-.281.14-.188.14-.438 0-.28-.203-.468-.188-.204-.75-.329l-1.625-.359q-.75-.172-1.328-.453-.579-.297-.922-.781-.328-.485-.328-1.219 0-.828.453-1.469.453-.656 1.297-1.031.859-.375 2.046-.375zm8.16 2.14q1.015 0 1.687.297.672.282 1.047.75.39.47.484 1.016l-2.093.703q-.094-.578-.344-.86-.25-.296-.719-.296-.422 0-.719.203-.28.188-.422.61-.14.421-.14 1.062 0 .656.156 1.062.156.407.453.594.297.172.688.172.343 0 .562-.125.219-.125.36-.36.156-.25.187-.593l2.047.656q-.094.594-.5 1.047-.406.453-1.078.734-.672.266-1.563.266-1.093 0-1.906-.406-.812-.422-1.25-1.188-.437-.78-.437-1.875 0-1.093.437-1.875.438-.78 1.234-1.187.797-.406 1.829-.406zm8.12 2.579q0-.469-.267-.735-.25-.28-.687-.28-.453 0-.766.218-.312.219-.422.781l-1.921-.453q.187-.969.984-1.531.797-.578 2.25-.578.969 0 1.656.296.688.282 1.047.844.375.563.375 1.39v2.438q0 .516.469.516.234 0 .39-.047l-.14 1.297q-.39.187-.969.187-.516 0-.922-.171-.39-.172-.625-.5-.219-.344-.219-.86v-.094l.25-.093q0 .578-.343.968-.344.391-.89.579-.532.187-1.11.187-.688 0-1.203-.219-.5-.218-.782-.625-.265-.406-.265-1 0-.718.437-1.187.438-.485 1.36-.672l2.53-.516-.015 1.203-1.281.266q-.406.078-.594.234-.187.157-.187.454 0 .296.203.453.219.14.515.14.22 0 .422-.062.22-.078.375-.219.157-.14.25-.344.094-.218.094-.515v-1.75zm3.997 4.218v-6.656h2.032l.109 2.281-.25-.25q.14-.718.469-1.187.343-.484.859-.734t1.156-.25q.688 0 1.203.265.516.266.797.797.297.516.297 1.297v4.437h-2.265v-3.843q0-.688-.266-.953-.266-.266-.672-.266-.328 0-.61.156-.265.14-.437.485-.156.328-.156.89v3.531h-2.266z"/><path fill="#fff" d="M494.084 242.177h85.575v83.087h-85.575z" fill-rule="evenodd"/><path stroke="#d3ff19" stroke-width="2" stroke-linejoin="round" stroke-linecap="butt" d="M494.084 242.177h85.575v83.087h-85.575z"/><path fill="#595959" d="M532.15 280.661q-1.421 0-2.358-.547-.938-.562-1.297-1.64l2.109-.907q.063.485.234.782.188.28.485.406.312.125.734.125.375 0 .625-.125.266-.125.406-.36.157-.25.157-.578 0-.343-.141-.562-.14-.219-.406-.313-.25-.093-.625-.093-.172 0-.328.015-.141 0-.328.031v-1.5q.109.016.203.032h.265q.625 0 .89-.25.282-.266.282-.828 0-.485-.281-.735-.266-.25-.766-.25-.515 0-.86.281-.327.266-.421.922l-2-.703q.14-.734.61-1.234.484-.5 1.203-.766.734-.281 1.625-.281 1 0 1.687.297.703.297 1.063.844.359.546.359 1.28 0 .579-.188.97-.171.375-.453.625-.265.234-.547.343-.28.11-.468.141v.047q.25 0 .547.094.312.078.609.296.297.204.484.563.188.36.188.89 0 .829-.438 1.438-.422.594-1.172.922-.75.328-1.687.328zm8.592-8.937q2.062 0 3.156 1.156 1.11 1.14 1.11 3.25 0 2.094-1.11 3.25-1.094 1.14-3.156 1.14h-3.734v-8.796h3.734zm-.219 7.062q1.11 0 1.625-.672.516-.672.516-1.984 0-1.328-.516-2-.515-.672-1.625-.672h-1.219v5.328h1.22zM515.804 287.724q1.079 0 1.829.343.765.344 1.156 1 .406.657.406 1.594 0 .922-.406 1.578-.39.656-1.156 1-.75.344-1.829.344h-1.75v2.937h-2.296v-8.796h4.046zm-.359 4.14q.719 0 1.078-.297.375-.297.375-.906 0-.625-.375-.922-.36-.297-1.078-.297h-1.39v2.422h1.39zm5.06 4.656v-6.656h2l.093 1.438q.25-.75.75-1.157.5-.421 1.281-.421.25 0 .422.046.188.032.297.094l-.234 1.875q-.125-.062-.344-.094-.203-.03-.5-.03-.39 0-.75.171-.344.172-.547.516-.203.343-.203.86v3.358h-2.266zm6.871-7.437q-.703 0-1.016-.25-.312-.266-.312-.828 0-.578.312-.828.313-.266 1.016-.266.672 0 .984.266.329.25.329.828 0 .562-.329.828-.312.25-.984.25zm1.125.781v6.656h-2.266v-6.656h2.266zm1.613 6.656v-6.656h2.031l.11 2.281-.25-.25q.14-.718.468-1.187.344-.484.86-.734.515-.25 1.156-.25.687 0 1.203.265.516.266.797.797.297.516.297 1.297v4.437h-2.266v-3.843q0-.688-.265-.953-.266-.266-.672-.266-.328 0-.61.156-.265.14-.437.485-.156.328-.156.89v3.531h-2.266zm11.005-8.78v6.405q0 .485.234.688.234.203.656.203.313 0 .547-.062.234-.079.422-.22l.234 1.391q-.328.235-.843.375-.5.141-1.032.141-.765 0-1.312-.219-.547-.218-.86-.672-.296-.468-.312-1.25v-6.156l2.266-.625zm1.984 2.124v1.61h-5.39v-1.61h5.39zm2.2-.781q-.704 0-1.016-.25-.313-.266-.313-.828 0-.578.313-.828.312-.266 1.015-.266.672 0 .985.266.328.25.328.828 0 .562-.328.828-.313.25-.985.25zm1.124.781v6.656h-2.265v-6.656h2.265zm1.613 6.656v-6.656h2.031l.11 2.281-.25-.25q.14-.718.469-1.187.343-.484.859-.734t1.156-.25q.688 0 1.203.265.516.266.797.797.297.516.297 1.297v4.437h-2.266v-3.843q0-.688-.265-.953-.266-.266-.672-.266-.328 0-.61.156-.265.14-.437.485-.156.328-.156.89v3.531h-2.266zm14.717-8.453l.187 1.516q-.078-.016-.172-.016-.078-.015-.156-.015-.578 0-.875.297-.281.28-.281.703l-.797-.297q0-.547.203-1.047.203-.516.61-.828.421-.328 1.062-.328h.094q.062 0 .125.015zm-2.297 6.97q1.156 0 1.781.5.625.483.625 1.39 0 .812-.453 1.36-.453.546-1.281.812-.813.28-1.938.28-1.812 0-2.61-.452-.796-.453-.796-1.219 0-.563.453-.906.453-.344 1.5-.375l-.047.218q-.812-.109-1.219-.484-.39-.375-.39-1.016 0-.64.5-1.03.5-.407 1.344-.454l.828.39h-.219q-.516.032-.734.188-.204.14-.204.344 0 .234.188.344.187.11.563.11h2.109zm-1.25 2.89q.64 0 1.062-.094.422-.094.625-.25.22-.14.22-.344 0-.203-.157-.312-.14-.11-.531-.11h-2.375q-.25 0-.407.125-.156.141-.156.344 0 .297.453.469t1.266.172zm.078-8.203q1.016 0 1.734.265.72.266 1.094.766.39.5.39 1.234 0 .719-.39 1.235-.375.5-1.094.765-.718.25-1.734.25-1.578 0-2.406-.578-.813-.594-.813-1.672 0-.734.375-1.234t1.094-.766q.719-.265 1.75-.265zm0 1.296q-.437 0-.719.25-.265.25-.265.72 0 .452.265.702.282.25.719.25.422 0 .703-.25.281-.25.281-.703 0-.469-.28-.719-.282-.25-.704-.25z"/><path fill="#fff" d="M595.828 242.177h85.575v83.087h-85.575z" fill-rule="evenodd"/><path stroke="#d3ff19" stroke-width="2" stroke-linejoin="round" stroke-linecap="butt" d="M595.828 242.177h85.575v83.087h-85.575z"/><path fill="#595959" d="M630.236 288.661q-1.11 0-1.922-.406-.797-.422-1.234-1.188-.438-.78-.438-1.875 0-1.093.438-1.859.437-.781 1.234-1.188.797-.421 1.813-.421 1.062 0 1.797.406.734.406 1.125 1.125.39.703.39 1.625 0 .234-.015.484-.016.235-.047.39h-5.266v-1.202h4.266l-1.078.406q0-.797-.282-1.219-.28-.437-.89-.437-.422 0-.719.203t-.453.64q-.156.422-.156 1.079 0 .656.172 1.062.171.406.484.594.328.172.781.172.516 0 .813-.188.297-.203.437-.562l1.813.593q-.188.579-.641.97-.453.39-1.094.593-.625.203-1.328.203zm7.168-8.922v6.406q0 .485.235.688.234.203.656.203.312 0 .547-.062.234-.079.422-.22l.234 1.391q-.328.235-.844.375-.5.141-1.03.141-.767 0-1.313-.219-.547-.218-.86-.672-.297-.468-.312-1.25v-6.156l2.265-.625zm1.985 2.125v1.61h-5.39v-1.61h5.39zm4.215-.14q1.015 0 1.687.296.672.282 1.047.75.39.47.484 1.016l-2.093.703q-.094-.578-.344-.86-.25-.296-.719-.296-.422 0-.719.203-.28.188-.421.61-.141.421-.141 1.062 0 .656.156 1.062.156.407.453.594.297.172.688.172.344 0 .562-.125.22-.125.36-.36.156-.25.187-.593l2.047.656q-.094.594-.5 1.047-.406.453-1.078.734-.672.266-1.563.266-1.093 0-1.906-.406-.812-.422-1.25-1.188-.437-.78-.437-1.875 0-1.093.437-1.875.438-.78 1.235-1.187.796-.406 1.828-.406zm5.526 4.5q.625 0 .968.328.36.312.36.89 0 .563-.36.891-.343.312-.968.312t-.985-.312q-.36-.328-.36-.89 0-.579.36-.891.36-.328.985-.328z"/><path fill="none" d="M288.551 206.374H683.45v20.756H288.55z"/><path fill="#595959" d="M428.251 226.688q-.281 1-.89 1.657-.61.656-1.47.953-.843.297-1.874.297-1.47 0-2.547-.594-1.063-.594-1.64-1.703-.563-1.11-.563-2.688 0-1.562.562-2.672.578-1.109 1.64-1.703 1.079-.593 2.532-.593 1.016 0 1.86.28.859.282 1.437.876.594.578.844 1.5l-2.22.89q-.202-.906-.671-1.234-.453-.344-1.156-.344-.688 0-1.203.344-.5.328-.782 1-.265.672-.265 1.656 0 .985.25 1.672.25.672.75 1.016.515.328 1.265.328.704 0 1.188-.39.5-.391.672-1.204l2.281.656zm3.7-7.671v7.953q0 .468.156.687.156.203.547.203.219 0 .36-.031.155-.031.359-.094l-.172 1.5q-.25.157-.688.25-.422.11-.828.11-1.172 0-1.703-.532-.531-.546-.531-1.78v-8.266h2.5zm5.808 2.968q1.172 0 2.031.453.875.438 1.36 1.297.5.86.5 2.047 0 1.203-.5 2.063-.485.859-1.36 1.312-.86.438-2.031.438-1.125 0-2-.438-.875-.453-1.375-1.312-.484-.86-.484-2.063 0-1.187.484-2.047.5-.86 1.375-1.297.875-.453 2-.453zm0 1.766q-.422 0-.734.203-.297.203-.47.672-.155.453-.155 1.156 0 .719.156 1.172.172.453.469.672.312.203.734.203.453 0 .75-.203.312-.219.469-.672.172-.453.172-1.172 0-.703-.172-1.156-.157-.469-.469-.672-.297-.203-.75-.203zm7.78 5.844q-.75 0-1.313-.25t-.891-.828q-.328-.579-.328-1.5v-4.891h2.5v4.312q0 .704.281.985.281.265.781.265.266 0 .5-.093.235-.094.407-.282.187-.203.28-.515.095-.313.095-.75v-3.922h2.484v7.328h-2.219l-.078-1.375q-.344.781-.984 1.156-.625.36-1.516.36zm9.29 0q-.906 0-1.594-.438-.687-.453-1.062-1.297-.36-.86-.36-2.047 0-1.218.375-2.062.391-.86 1.079-1.313.703-.453 1.625-.453.984 0 1.593.61.61.593.782 1.547l-.235.296v-5.421h2.5v10.437h-2.234l-.156-2.484.296.218q-.093.735-.453 1.282-.359.53-.906.828-.547.297-1.25.297zm.86-1.828q.421 0 .718-.22.313-.234.469-.687.156-.453.156-1.11 0-.624-.156-1.046-.14-.437-.453-.656-.297-.235-.719-.235-.64 0-1.016.485-.375.469-.375 1.484 0 1.031.36 1.516.375.469 1.015.469zm13.912-2.954q0-.515-.297-.812-.281-.313-.766-.313-.484 0-.828.25-.343.235-.468.86l-2.11-.5q.203-1.063 1.078-1.688.89-.625 2.485-.625 1.062 0 1.812.313.766.312 1.156.937.407.625.407 1.532v2.671q0 .579.515.579.266 0 .422-.063l-.14 1.422q-.438.203-1.063.203-.578 0-1.016-.172-.437-.187-.687-.562-.25-.375-.25-.938v-.094l.281-.109q0 .64-.375 1.063-.375.421-.969.625-.593.203-1.234.203-.75 0-1.312-.235-.563-.234-.86-.672-.297-.453-.297-1.109 0-.797.469-1.312.484-.516 1.516-.72l2.765-.577-.015 1.312-1.407.297q-.437.094-.656.266-.203.156-.203.5 0 .328.234.484.235.156.547.156.25 0 .469-.062.234-.078.406-.235.188-.156.282-.39.109-.235.109-.563v-1.922zm4.392 7.72v-10.407h2.25l.125 2.656-.297-.312q.11-.735.453-1.282.36-.562.907-.875.562-.328 1.28-.328.907 0 1.58.453.687.438 1.062 1.282.375.843.375 2.047 0 1.203-.391 2.062-.375.86-1.063 1.313-.671.453-1.593.453-.985 0-1.61-.594-.61-.594-.812-1.5l.234-.344v5.375h-2.5zm3.844-4.766q.64 0 1-.47.375-.484.375-1.515 0-1.015-.36-1.484-.359-.485-1-.485-.406 0-.718.235-.313.219-.485.656-.156.438-.156 1.078 0 .625.14 1.078.157.438.47.672.312.235.734.235zm5.346 4.765v-10.406h2.25l.125 2.656-.297-.312q.11-.735.453-1.282.36-.562.906-.875.563-.328 1.281-.328.907 0 1.579.453.687.438 1.062 1.282.375.843.375 2.047 0 1.203-.39 2.062-.376.86-1.063 1.313-.672.453-1.594.453-.984 0-1.61-.594-.609-.594-.812-1.5l.235-.344v5.375h-2.5zm3.843-4.765q.641 0 1-.47.375-.484.375-1.515 0-1.015-.359-1.484-.36-.485-1-.485-.406 0-.719.235-.312.219-.484.656-.156.438-.156 1.078 0 .625.14 1.078.157.438.47.672.312.235.733.235zm7.815-8.75v7.953q0 .468.156.687.156.203.547.203.219 0 .36-.031.156-.031.359-.094l-.172 1.5q-.25.157-.688.25-.421.11-.828.11-1.172 0-1.703-.532-.531-.546-.531-1.78v-8.266h2.5zm3.574 2.265q-.766 0-1.11-.281-.343-.297-.343-.906 0-.641.343-.922.344-.281 1.11-.281.75 0 1.094.28.359.282.359.923 0 .609-.36.906-.343.281-1.093.281zm1.25.844v7.328h-2.5v-7.328h2.5zm5.25-.14q1.109 0 1.843.312.75.312 1.156.844.422.515.531 1.109l-2.312.766q-.094-.641-.375-.954-.266-.312-.781-.312-.47 0-.782.219-.312.203-.484.672-.156.453-.156 1.171 0 .72.172 1.172.187.453.5.657.328.187.765.187.375 0 .61-.14.25-.141.406-.407.156-.265.203-.64l2.25.718q-.11.64-.562 1.157-.438.5-1.172.796-.735.282-1.72.282-1.202 0-2.093-.438-.89-.453-1.375-1.312-.484-.86-.484-2.063 0-1.187.484-2.047.485-.86 1.344-1.297.875-.453 2.031-.453zm8.919 2.827q0-.515-.297-.812-.281-.313-.766-.313-.484 0-.828.25-.344.235-.469.86l-2.11-.5q.204-1.063 1.079-1.688.89-.625 2.484-.625 1.063 0 1.813.313.766.312 1.156.937.406.625.406 1.532v2.671q0 .579.516.579.266 0 .422-.063l-.14 1.422q-.438.203-1.063.203-.578 0-1.016-.172-.437-.187-.687-.562-.25-.375-.25-.938v-.094l.28-.109q0 .64-.374 1.063-.375.421-.969.625-.594.203-1.234.203-.75 0-1.313-.235-.562-.234-.86-.672-.296-.453-.296-1.109 0-.797.469-1.312.484-.516 1.515-.72l2.766-.577-.016 1.312-1.406.297q-.437.094-.656.266-.203.156-.203.5 0 .328.234.484.235.156.547.156.25 0 .469-.062.234-.078.406-.235.188-.156.281-.39.11-.235.11-.563v-1.922zm7.161-5.015v7.047q0 .53.25.765.266.219.719.219.36 0 .61-.078.265-.078.468-.25l.266 1.547q-.375.265-.938.406-.547.14-1.14.14-.829 0-1.438-.234-.61-.234-.938-.734-.328-.516-.343-1.375v-6.766l2.484-.687zm2.188 2.328v1.766h-5.938v-1.766h5.938zm2.404-.844q-.765 0-1.109-.281-.344-.297-.344-.906 0-.641.344-.922t1.11-.281q.75 0 1.093.28.36.282.36.923 0 .609-.36.906-.344.281-1.094.281zm1.25.844v7.328h-2.5v-7.328h2.5zm5.25-.14q1.172 0 2.031.452.875.438 1.36 1.297.5.86.5 2.047 0 1.203-.5 2.063-.485.859-1.36 1.312-.86.438-2.031.438-1.125 0-2-.438-.875-.453-1.375-1.312-.485-.86-.485-2.063 0-1.187.485-2.047.5-.86 1.375-1.297.875-.453 2-.453zm0 1.765q-.422 0-.735.203-.297.203-.468.672-.157.453-.157 1.156 0 .719.157 1.172.171.453.468.672.313.203.735.203.453 0 .75-.203.312-.219.468-.672.172-.453.172-1.172 0-.703-.172-1.156-.156-.469-.468-.672-.297-.203-.75-.203zm5.294 5.703v-7.328h2.235l.125 2.516-.281-.266q.156-.797.53-1.328.376-.531.938-.797.563-.266 1.266-.266.766 0 1.328.297.563.281.875.86.328.562.328 1.437v4.875h-2.484v-4.219q0-.765-.297-1.047-.297-.296-.75-.296-.344 0-.656.171-.313.157-.485.532-.172.359-.172.968v3.891h-2.5zm12.166.14q-1.094 0-2.047-.359-.938-.36-1.563-1.031l1.172-1.375q.375.469.984.781.61.313 1.36.313.453 0 .734-.125.297-.125.297-.406 0-.204-.156-.329-.14-.125-.578-.218l-1.016-.203q-1.39-.282-1.969-.829-.578-.546-.578-1.437 0-.61.36-1.156.375-.547 1.14-.891.766-.344 1.953-.344 1.11 0 1.953.328.86.313 1.36.922l-1.188 1.36q-.36-.453-.922-.688-.546-.25-1.109-.25-.344 0-.594.063-.234.062-.36.187-.108.11-.108.281 0 .188.171.329.188.14.688.25l1.344.265q1.125.203 1.625.75.5.531.5 1.297 0 .719-.39 1.297-.376.562-1.142.89-.765.329-1.921.329z"/><path fill="none" d="M180.047 438.264a9.286 9.286 0 019.287-9.286h581.333a9.286 9.286 0 019.286 9.286v37.144a9.286 9.286 0 01-9.286 9.286H189.334a9.286 9.286 0 01-9.287-9.286z"/><path stroke="#34b255" stroke-width="2" stroke-linejoin="round" stroke-linecap="butt" stroke-dasharray="8.0,6.0" d="M180.047 438.264h0a9.286 9.286 0 019.287-9.286h581.333a9.286 9.286 0 019.286 9.286v37.144a9.286 9.286 0 01-9.286 9.286H189.334h0a9.286 9.286 0 01-9.287-9.286z"/><path fill="#595959" d="M465.668 460.225q-.36 1.297-1.14 2.125-.782.828-1.876 1.218-1.078.375-2.375.375-1.875 0-3.234-.75-1.36-.765-2.094-2.171-.718-1.422-.718-3.422t.718-3.407q.735-1.421 2.094-2.171 1.36-.766 3.203-.766 1.297 0 2.375.375 1.078.36 1.828 1.11.75.734 1.063 1.906l-2.813 1.14q-.265-1.156-.859-1.578-.578-.437-1.469-.437-.89 0-1.531.437-.64.422-.984 1.281-.344.844-.344 2.11 0 1.25.312 2.11.313.858.953 1.296.657.422 1.61.422.89 0 1.515-.5.625-.5.844-1.516l2.922.813zm4.69-9.75v10.11q0 .608.202.874.22.266.704.266.28 0 .468-.032.188-.046.438-.125l-.203 1.907q-.328.203-.875.328-.547.14-1.063.14-1.5 0-2.172-.687-.672-.688-.672-2.266v-10.515h3.172zm7.412 3.765q1.47 0 2.579.578 1.109.563 1.734 1.657.625 1.093.625 2.61 0 1.53-.625 2.624t-1.734 1.672q-1.11.562-2.579.562-1.437 0-2.562-.562-1.11-.578-1.734-1.672-.625-1.094-.625-2.625 0-1.516.625-2.61.625-1.093 1.734-1.656 1.125-.578 2.562-.578zm0 2.266q-.546 0-.937.266-.39.25-.594.828-.203.578-.203 1.484 0 .922.203 1.5.203.563.594.828.39.266.937.266.563 0 .954-.266.39-.265.593-.828.203-.578.203-1.5 0-.906-.203-1.484t-.593-.828q-.391-.266-.954-.266zm9.894 7.437q-.953 0-1.672-.328-.718-.328-1.14-1.047-.406-.734-.406-1.906v-6.234h3.171v5.484q0 .89.36 1.25t1 .36q.344 0 .64-.125.297-.125.516-.375.234-.25.344-.641.125-.406.125-.953v-5h3.172v9.328h-2.828l-.094-1.75q-.453.984-1.266 1.469-.797.468-1.922.468zm11.83 0q-1.156 0-2.031-.562-.875-.578-1.344-1.656-.469-1.078-.469-2.594 0-1.563.484-2.64.5-1.094 1.375-1.673.891-.578 2.047-.578 1.266 0 2.047.782.781.765 1 1.968l-.297.39v-6.905h3.172v13.28h-2.844l-.203-3.17.375.28q-.11.938-.578 1.625-.453.688-1.156 1.078-.688.375-1.578.375zm1.094-2.328q.546 0 .921-.28.391-.298.594-.876.203-.578.203-1.422 0-.781-.203-1.328-.187-.562-.578-.844-.375-.297-.922-.297-.812 0-1.297.61-.468.61-.468 1.906 0 1.313.453 1.922.468.61 1.297.61z"/><path fill="none" d="M210.488 163.697a7.428 7.428 0 017.428-7.428h536.168a7.428 7.428 0 017.428 7.428v29.711a7.428 7.428 0 01-7.428 7.428H217.916a7.428 7.428 0 01-7.428-7.428z"/><path stroke="#34b255" stroke-width="2" stroke-linejoin="round" stroke-linecap="butt" stroke-dasharray="8.0,6.0" d="M210.488 163.697h0a7.428 7.428 0 017.428-7.428h536.168a7.428 7.428 0 017.428 7.428v29.711a7.428 7.428 0 01-7.428 7.428H217.916a7.428 7.428 0 01-7.428-7.428z"/><path fill="#000" d="M433.652 173.052q2.907 0 4.438 1.61 1.547 1.593 1.547 4.546 0 2.953-1.547 4.563-1.531 1.594-4.438 1.594h-5.218v-12.313h5.218zm-.312 9.89q1.563 0 2.281-.937.719-.953.719-2.797 0-1.843-.719-2.78-.719-.954-2.281-.954h-1.688v7.469h1.688zm13.361-3.484q0-.656-.375-1.03-.36-.392-.968-.392-.61 0-1.063.313-.437.297-.594 1.078l-2.687-.625q.265-1.344 1.375-2.14 1.125-.813 3.156-.813 1.36 0 2.313.406.968.39 1.484 1.188.516.797.516 1.953v3.406q0 .734.656.734.328 0 .531-.078l-.187 1.813q-.563.265-1.36.265-.734 0-1.297-.234-.547-.234-.875-.703-.312-.484-.312-1.219v-.11l.36-.124q0 .797-.485 1.344-.469.546-1.235.812-.75.25-1.562.25-.953 0-1.672-.297-.703-.297-1.094-.86-.375-.577-.375-1.421 0-1 .61-1.656.609-.672 1.906-.938l3.531-.719-.015 1.672-1.797.375q-.563.11-.828.328-.266.22-.266.641 0 .406.297.625.297.203.703.203.328 0 .61-.094.296-.093.515-.28.219-.204.344-.5.14-.313.14-.72v-2.453zm9.116-6.39v8.968q0 .672.329.97.328.28.906.28.453 0 .781-.093.328-.11.578-.313l.344 1.969q-.469.328-1.188.516-.703.187-1.453.187-1.062 0-1.843-.297-.766-.297-1.188-.953-.406-.656-.437-1.734v-8.625l3.171-.875zm2.782 2.968v2.25h-7.547v-2.25h7.547zm6.833 3.422q0-.656-.375-1.03-.36-.392-.969-.392-.61 0-1.062.313-.438.297-.594 1.078l-2.687-.625q.265-1.344 1.375-2.14 1.125-.813 3.156-.813 1.36 0 2.312.406.97.39 1.485 1.188.515.797.515 1.953v3.406q0 .734.657.734.328 0 .53-.078l-.187 1.813q-.562.265-1.36.265-.733 0-1.296-.234-.547-.234-.875-.703-.312-.484-.312-1.219v-.11l.359-.124q0 .797-.484 1.344-.47.546-1.235.812-.75.25-1.562.25-.953 0-1.672-.297-.703-.297-1.094-.86-.375-.577-.375-1.421 0-1 .61-1.656.609-.672 1.906-.938l3.53-.719-.015 1.672-1.797.375q-.562.11-.828.328-.265.22-.265.641 0 .406.297.625.296.203.703.203.328 0 .61-.094.296-.093.515-.28.218-.204.343-.5.141-.313.141-.72v-2.453zm15.798-6.593q1.719 0 3.031.53 1.313.532 2.297 1.563l-1.563 2.063q-.796-.828-1.718-1.25-.922-.422-2.094-.422-.703 0-1.125.156-.422.14-.61.406-.187.25-.187.594 0 .39.36.672.359.266 1.187.438l2.062.468q1.844.438 2.704 1.266.859.812.859 2.172 0 1.312-.672 2.219-.672.89-1.844 1.359-1.172.453-2.687.453-1.235 0-2.36-.266-1.109-.28-2-.78-.89-.5-1.515-1.157l1.547-2.14q.468.53 1.14.952.688.422 1.5.672.813.235 1.657.235.656 0 1.093-.125.438-.14.641-.39.203-.267.203-.626 0-.39-.281-.656t-1.063-.453l-2.28-.516q-1.032-.234-1.845-.625-.812-.406-1.28-1.094-.47-.687-.47-1.703 0-1.156.625-2.062.641-.907 1.828-1.422 1.204-.531 2.86-.531zm7.002 12.5v-13.282h3.172v5.657q.406-.938 1.172-1.407.765-.484 1.765-.484.985 0 1.688.375.719.375 1.125 1.11.422.718.422 1.812v6.219h-3.172v-5.329q0-1.015-.375-1.39-.36-.39-.953-.39-.438 0-.844.234-.39.218-.61.703-.218.484-.218 1.265v4.907h-3.172zm16.77-5.907q0-.656-.375-1.03-.36-.392-.969-.392-.61 0-1.062.313-.438.297-.594 1.078l-2.688-.625q.266-1.344 1.375-2.14 1.125-.813 3.157-.813 1.359 0 2.312.406.969.39 1.485 1.188.515.797.515 1.953v3.406q0 .734.656.734.329 0 .532-.078l-.188 1.813q-.562.265-1.36.265-.734 0-1.296-.234-.547-.234-.875-.703-.313-.484-.313-1.219v-.11l.36-.124q0 .797-.485 1.344-.468.546-1.234.812-.75.25-1.562.25-.954 0-1.672-.297-.703-.297-1.094-.86-.375-.577-.375-1.421 0-1 .61-1.656.609-.672 1.906-.938l3.53-.719-.015 1.672-1.797.375q-.562.11-.828.328-.265.22-.265.641 0 .406.296.625.297.203.704.203.328 0 .609-.094.297-.093.516-.28.218-.204.343-.5.14-.313.14-.72v-2.453zm5.599 5.907v-9.329h2.797l.125 2.016q.359-1.047 1.062-1.625.703-.578 1.781-.578.344 0 .594.062.266.047.406.141l-.312 2.61q-.188-.063-.485-.11-.28-.047-.687-.047-.563 0-1.047.25-.484.235-.781.719-.281.469-.281 1.187v4.704H510.6zm9.6-10.407q-.969 0-1.406-.359-.438-.375-.438-1.156 0-.797.438-1.157.437-.375 1.406-.375.953 0 1.406.375.453.36.453 1.157 0 .781-.453 1.156-.453.36-1.406.36zm1.594 1.078v9.329h-3.172v-9.329h3.172zm2.257 9.329v-9.329h2.828l.172 3.204-.36-.344q.188-1.016.657-1.688.484-.672 1.203-1.015.719-.344 1.61-.344.984 0 1.687.375.719.375 1.125 1.11.422.718.422 1.812v6.219h-3.172v-5.375q0-.97-.375-1.344-.375-.375-.953-.375-.438 0-.844.219-.39.218-.61.687-.218.453-.218 1.25v4.938h-3.172zm20.598-11.829l.25 2.125q-.11-.03-.219-.03-.11-.016-.218-.016-.829 0-1.235.406-.39.39-.39.984l-1.125-.406q0-.766.28-1.469.282-.719.86-1.156.594-.453 1.5-.453h.125q.094 0 .172.015zm-3.219 9.75q1.625 0 2.485.688.875.687.875 1.953 0 1.156-.641 1.922-.625.766-1.781 1.14-1.14.391-2.703.391-2.532 0-3.657-.64-1.125-.625-1.125-1.72 0-.78.625-1.265.641-.484 2.125-.515l-.078.296q-1.14-.156-1.703-.671-.547-.532-.547-1.422 0-.89.703-1.453.704-.563 1.891-.625l1.156.546h-.312q-.719.032-1.016.25-.297.204-.297.5 0 .313.25.47.266.155.797.155h2.953zm-1.75 4.032q.89 0 1.485-.125.593-.11.89-.328.297-.22.297-.5 0-.266-.203-.438-.203-.156-.75-.156h-3.344q-.343 0-.562.187-.219.188-.219.47 0 .437.625.655.64.235 1.781.235zm.11-11.469q1.422 0 2.422.375 1.015.375 1.546 1.078.532.688.532 1.719 0 1.015-.532 1.719-.53.703-1.546 1.078-1 .36-2.422.36-2.22 0-3.375-.813-1.141-.829-1.141-2.344 0-1.031.531-1.719.532-.703 1.532-1.078 1.015-.375 2.453-.375zm0 1.812q-.61 0-1 .36-.375.344-.375 1 0 .64.375 1 .39.344 1 .344.593 0 .984-.344.406-.36.406-1 0-.656-.406-1-.39-.36-.984-.36z"/><path fill="#d3ff19" d="M35.307 356.555a9.286 9.286 0 019.286-9.286h870.814a9.286 9.286 0 019.286 9.286V393.7a9.286 9.286 0 01-9.286 9.287H44.593a9.286 9.286 0 01-9.286-9.287z" fill-rule="evenodd"/><path stroke="#34b255" stroke-width="2" stroke-linejoin="round" stroke-linecap="butt" stroke-dasharray="8.0,6.0" d="M35.307 356.555h0a9.286 9.286 0 019.286-9.286h870.814a9.286 9.286 0 019.286 9.286V393.7a9.286 9.286 0 01-9.286 9.287H44.593a9.286 9.286 0 01-9.286-9.287z"/><path fill="#595959" d="M449.956 369.735q2.906 0 4.437 1.61 1.547 1.593 1.547 4.546 0 2.953-1.547 4.563-1.53 1.593-4.437 1.593h-5.219v-12.312h5.219zm-.313 9.89q1.563 0 2.282-.937.718-.953.718-2.797 0-1.844-.718-2.781-.719-.953-2.282-.953h-1.687v7.468h1.687zm13.19-10.078q1.719 0 3.031.532 1.313.53 2.297 1.562l-1.562 2.063q-.797-.829-1.72-1.25-.921-.422-2.093-.422-.703 0-1.125.156-.422.14-.61.406-.187.25-.187.594 0 .39.36.672.359.265 1.187.437l2.063.469q1.843.438 2.703 1.266.859.812.859 2.172 0 1.312-.672 2.218-.672.89-1.844 1.36-1.171.453-2.687.453-1.234 0-2.36-.266-1.109-.281-2-.781-.89-.5-1.515-1.156l1.547-2.14q.469.53 1.14.952.688.422 1.5.672.813.234 1.657.234.656 0 1.093-.125.438-.14.641-.39.203-.266.203-.625 0-.39-.281-.656t-1.063-.454l-2.28-.515q-1.032-.235-1.845-.625-.812-.406-1.28-1.094-.47-.687-.47-1.703 0-1.156.625-2.063.641-.906 1.829-1.421 1.203-.532 2.859-.532zm23.478 8.969q-.36 1.297-1.14 2.125-.782.828-1.875 1.219-1.079.375-2.375.375-1.875 0-3.235-.75-1.36-.766-2.094-2.172-.718-1.422-.718-3.422t.718-3.406q.735-1.422 2.094-2.172 1.36-.766 3.203-.766 1.297 0 2.375.375 1.078.36 1.828 1.11.75.734 1.063 1.906l-2.813 1.14q-.265-1.156-.859-1.578-.578-.437-1.469-.437-.89 0-1.53.437-.642.422-.985 1.282-.344.843-.344 2.11 0 1.25.312 2.108.313.86.954 1.297.656.422 1.609.422.89 0 1.516-.5.625-.5.843-1.515l2.922.812zm6.002-5.984q1.469 0 2.578.578 1.11.562 1.735 1.656.625 1.094.625 2.61 0 1.53-.625 2.624t-1.735 1.672q-1.11.563-2.578.563-1.437 0-2.562-.563-1.11-.578-1.735-1.672-.625-1.093-.625-2.625 0-1.515.625-2.609t1.735-1.656q1.125-.578 2.562-.578zm0 2.265q-.547 0-.937.266-.391.25-.594.828-.203.578-.203 1.484 0 .922.203 1.5.203.563.594.829.39.265.937.265.563 0 .953-.265.39-.266.594-.829.203-.578.203-1.5 0-.906-.203-1.484t-.594-.828q-.39-.266-.953-.266zm6.738 7.25v-9.328h2.797l.125 2.016q.359-1.047 1.062-1.625.703-.578 1.781-.578.344 0 .594.062.266.047.406.14l-.312 2.61q-.188-.062-.485-.11-.28-.046-.687-.046-.563 0-1.047.25-.484.234-.781.719-.281.468-.281 1.187v4.703h-3.172zm12.457.188q-1.547 0-2.672-.578-1.125-.578-1.75-1.657-.61-1.093-.61-2.625 0-1.515.61-2.593.625-1.094 1.734-1.672 1.11-.578 2.547-.578 1.469 0 2.5.578 1.031.562 1.578 1.562.547 1 .547 2.282 0 .343-.031.687-.016.328-.047.547h-7.39v-1.703h5.984l-1.5.578q0-1.11-.407-1.703-.406-.61-1.234-.61-.61 0-1.031.282-.406.28-.625.875-.219.593-.219 1.53 0 .923.234 1.485.25.563.704.828.453.25 1.078.25.718 0 1.125-.28.422-.282.625-.782l2.547.828q-.266.813-.907 1.36-.64.546-1.53.828-.892.28-1.86.28z"/></g></svg>