<svg viewBox="0 0 958 222" xmlns="http://www.w3.org/2000/svg" fill-rule="evenodd" clip-rule="evenodd" stroke-linejoin="round" stroke-miterlimit="10"><g transform="matrix(.994 0 0 .94486 1.656 -152.649)"><path fill="none" d="M-1.666 161.557h963.445v234H-1.666z"/><clipPath id="a"><path d="M-1.666 161.557h963.445v234H-1.666z"/></clipPath><g clip-path="url(#a)"><g transform="matrix(1.00603 0 0 1.05835 -2.257 -16.867)"><clipPath id="b"><path d="M0 0h960v540H0z"/></clipPath><g clip-path="url(#b)"><path fill="#fff" d="M0 162.778h960v232.003H0z"/><path d="M67.407 220.841c0-24.405 20.102-44.189 44.898-44.189h44.898v44.189c0 24.405-20.102 44.189-44.898 44.189-24.796 0-44.898-19.784-44.898-44.189z" fill="#34b255"/><path d="M67.407 220.841c0-24.405 20.102-44.189 44.898-44.189h44.898v44.189c0 24.405-20.102 44.189-44.898 44.189-24.796 0-44.898-19.784-44.898-44.189z" fill="none" stroke="#34b255"/><path fill="none" d="M-18.42 287.294h264.409v41.921H-18.42z"/><path d="M42.846 301.901c1.01 0 1.869.162 2.578.485.708.322 1.244.791 1.609 1.406.375.604.563 1.344.563 2.219 0 .864-.188 1.604-.563 2.218-.365.604-.901 1.068-1.609 1.391-.709.323-1.568.484-2.578.484h-2.438v4.11h-3.219v-12.313h5.657zm-.5 5.797c.666 0 1.171-.135 1.515-.406.344-.281.516-.709.516-1.281 0-.573-.172-1-.516-1.282-.344-.281-.849-.422-1.515-.422h-1.938v3.391h1.938zm7.087 6.516v-9.328h2.797l.125 2.015c.239-.698.593-1.239 1.062-1.625.469-.385 1.063-.578 1.781-.578.23 0 .428.021.594.063.177.031.313.078.406.14l-.312 2.61a3.024 3.024 0 00-.484-.11 4.306 4.306 0 00-.688-.047c-.375 0-.724.084-1.047.25a1.855 1.855 0 00-.781.719c-.188.313-.281.708-.281 1.188v4.703h-3.172zm12.348-9.516c.979 0 1.838.193 2.578.578a4.095 4.095 0 011.734 1.656c.417.73.625 1.599.625 2.61 0 1.021-.208 1.896-.625 2.625a4.2 4.2 0 01-1.734 1.672c-.74.375-1.599.562-2.578.562-.959 0-1.813-.187-2.563-.562a4.188 4.188 0 01-1.734-1.672c-.417-.729-.625-1.604-.625-2.625 0-1.011.208-1.88.625-2.61a4.084 4.084 0 011.734-1.656c.75-.385 1.604-.578 2.563-.578zm0 2.266c-.365 0-.678.088-.938.265-.26.167-.458.443-.594.828-.135.386-.203.881-.203 1.485 0 .614.068 1.114.203 1.5.136.375.334.651.594.828.26.177.573.266.938.266.375 0 .692-.089.953-.266.26-.177.458-.453.593-.828.136-.386.204-.886.204-1.5 0-.604-.068-1.099-.204-1.485-.135-.385-.333-.661-.593-.828-.261-.177-.578-.265-.953-.265zm11.175-2.266c.979 0 1.838.193 2.578.578a4.095 4.095 0 011.734 1.656c.417.73.625 1.599.625 2.61 0 1.021-.208 1.896-.625 2.625a4.2 4.2 0 01-1.734 1.672c-.74.375-1.599.562-2.578.562-.959 0-1.813-.187-2.563-.562a4.194 4.194 0 01-1.734-1.672c-.417-.729-.625-1.604-.625-2.625 0-1.011.208-1.88.625-2.61a4.09 4.09 0 011.734-1.656c.75-.385 1.604-.578 2.563-.578zm0 2.266c-.365 0-.677.088-.938.265-.26.167-.458.443-.594.828-.135.386-.203.881-.203 1.485 0 .614.068 1.114.203 1.5.136.375.334.651.594.828.261.177.573.266.938.266.375 0 .692-.089.953-.266.26-.177.458-.453.594-.828.135-.386.203-.886.203-1.5 0-.604-.068-1.099-.203-1.485-.136-.385-.334-.661-.594-.828-.261-.177-.578-.265-.953-.265zm11.006-6.297c.511 0 .959.052 1.344.156.386.104.672.229.859.375l-.312 1.969a2.22 2.22 0 00-.484-.203 2.201 2.201 0 00-.641-.078c-.438 0-.797.098-1.078.296-.281.198-.422.547-.422 1.047v1.219l.187.516v8.25h-3.171v-10.188c0-.594.093-1.099.281-1.515.198-.428.469-.777.812-1.047a3.373 3.373 0 011.203-.61 5.268 5.268 0 011.422-.187zm2.11 4.219v2.25h-7.313v-2.25h7.313zm10.763-.188c.98 0 1.839.193 2.579.578a4.095 4.095 0 011.734 1.656c.417.73.625 1.599.625 2.61 0 1.021-.208 1.896-.625 2.625a4.2 4.2 0 01-1.734 1.672c-.74.375-1.599.562-2.579.562-.958 0-1.812-.187-2.562-.562a4.188 4.188 0 01-1.734-1.672c-.417-.729-.625-1.604-.625-2.625 0-1.011.208-1.88.625-2.61a4.084 4.084 0 011.734-1.656c.75-.385 1.604-.578 2.562-.578zm0 2.266c-.364 0-.677.088-.937.265-.26.167-.458.443-.594.828-.135.386-.203.881-.203 1.485 0 .614.068 1.114.203 1.5.136.375.334.651.594.828.26.177.573.266.937.266.375 0 .693-.089.954-.266.26-.177.458-.453.593-.828.136-.386.203-.886.203-1.5 0-.604-.067-1.099-.203-1.485-.135-.385-.333-.661-.593-.828-.261-.177-.579-.265-.954-.265zm11.007-6.297c.511 0 .958.052 1.344.156.385.104.672.229.859.375l-.312 1.969a2.228 2.228 0 00-.485-.203 2.19 2.19 0 00-.64-.078c-.438 0-.797.098-1.078.296-.282.198-.422.547-.422 1.047v1.219l.187.516v8.25h-3.172v-10.188c0-.594.094-1.099.282-1.515.198-.428.468-.777.812-1.047a3.356 3.356 0 011.203-.61 5.268 5.268 0 011.422-.187zm2.11 4.219v2.25h-7.313v-2.25h7.313zm17.466 5.796c-.239.865-.619 1.573-1.14 2.125a4.722 4.722 0 01-1.875 1.219c-.719.25-1.511.375-2.375.375-1.25 0-2.328-.25-3.235-.75a5.19 5.19 0 01-2.093-2.172c-.48-.948-.719-2.088-.719-3.422 0-1.333.239-2.468.719-3.406a5.077 5.077 0 012.093-2.172c.907-.51 1.974-.765 3.204-.765.864 0 1.656.125 2.375.375a4.594 4.594 0 011.828 1.109c.5.49.854 1.125 1.062 1.906l-2.812 1.141c-.177-.771-.464-1.297-.86-1.578-.385-.292-.875-.438-1.468-.438-.594 0-1.105.146-1.532.438-.427.281-.755.708-.984 1.281-.229.563-.344 1.266-.344 2.109 0 .834.104 1.537.313 2.11.208.573.526 1.005.953 1.297.437.281.974.422 1.609.422.594 0 1.099-.167 1.516-.5.416-.334.698-.839.844-1.516l2.921.812zm6.002-5.984c.979 0 1.839.193 2.578.578.74.375 1.318.927 1.735 1.656.416.73.625 1.599.625 2.61 0 1.021-.209 1.896-.625 2.625a4.196 4.196 0 01-1.735 1.672c-.739.375-1.599.562-2.578.562-.958 0-1.812-.187-2.562-.562a4.196 4.196 0 01-1.735-1.672c-.416-.729-.625-1.604-.625-2.625 0-1.011.209-1.88.625-2.61a4.092 4.092 0 011.735-1.656c.75-.385 1.604-.578 2.562-.578zm0 2.266c-.364 0-.677.088-.937.265-.261.167-.459.443-.594.828-.136.386-.203.881-.203 1.485 0 .614.067 1.114.203 1.5.135.375.333.651.594.828.26.177.573.266.937.266.375 0 .693-.089.953-.266.261-.177.459-.453.594-.828.135-.386.203-.886.203-1.5 0-.604-.068-1.099-.203-1.485-.135-.385-.333-.661-.594-.828-.26-.177-.578-.265-.953-.265zm6.738 7.25v-9.328h2.828l.172 3.203-.36-.344c.125-.677.344-1.24.657-1.688a3.132 3.132 0 011.203-1.015 3.682 3.682 0 011.609-.344c.656 0 1.219.125 1.688.375.479.25.854.62 1.125 1.109.281.48.422 1.084.422 1.813v6.219h-3.172v-5.375c0-.646-.125-1.094-.375-1.344s-.568-.375-.953-.375c-.292 0-.573.073-.844.219-.261.145-.464.375-.61.687-.145.302-.218.719-.218 1.25v4.938h-3.172zm15.989-9.516c.947 0 1.734.135 2.359.406.625.261 1.114.615 1.469 1.063.354.437.578.911.672 1.422l-2.938.968c-.083-.531-.24-.927-.469-1.187-.229-.271-.562-.406-1-.406-.396 0-.729.088-1 .265-.271.177-.474.464-.609.86-.136.385-.203.885-.203 1.5 0 .604.073 1.099.219 1.484.156.375.369.646.64.813.271.166.594.25.969.25.312 0 .568-.058.766-.172a1.4 1.4 0 00.515-.5 2.16 2.16 0 00.266-.828l2.859.906a2.937 2.937 0 01-.703 1.469c-.375.427-.875.765-1.5 1.015-.625.25-1.354.375-2.187.375-1.021 0-1.912-.187-2.672-.562a4.169 4.169 0 01-1.75-1.672c-.407-.729-.61-1.604-.61-2.625 0-1.011.203-1.88.61-2.61a4.084 4.084 0 011.734-1.656c.74-.385 1.594-.578 2.563-.578zm10.703 9.703c-1.032 0-1.922-.193-2.672-.578a4.186 4.186 0 01-1.75-1.656c-.407-.729-.61-1.604-.61-2.625 0-1.011.203-1.875.61-2.594a4.194 4.194 0 011.734-1.672c.74-.385 1.589-.578 2.547-.578.979 0 1.812.193 2.5.578a3.863 3.863 0 011.578 1.563c.365.666.547 1.427.547 2.281 0 .229-.01.458-.031.687a6.14 6.14 0 01-.047.547h-7.391v-1.703h5.985l-1.5.578c0-.739-.136-1.307-.407-1.703-.27-.406-.682-.609-1.234-.609-.406 0-.75.094-1.031.281-.271.188-.479.479-.625.875-.146.396-.219.906-.219 1.531 0 .615.078 1.11.234 1.485.167.375.401.651.703.828.303.166.662.25 1.079.25.479 0 .854-.094 1.125-.281.281-.188.489-.448.625-.782l2.546.828a2.965 2.965 0 01-.906 1.36c-.427.364-.937.64-1.531.828a6.156 6.156 0 01-1.859.281zm6.255 3.735v-13.25h2.859l.156 3.375-.375-.391a4.285 4.285 0 01.578-1.641 3.378 3.378 0 011.157-1.109 3.152 3.152 0 011.625-.422c.771 0 1.442.193 2.015.578.573.375 1.016.922 1.328 1.641.323.708.485 1.573.485 2.594 0 1.02-.162 1.901-.485 2.64-.322.729-.776 1.287-1.359 1.672-.573.385-1.245.578-2.016.578-.843 0-1.531-.25-2.062-.75-.521-.51-.865-1.151-1.031-1.922l.297-.437v6.844h-3.172zm4.89-6.063c.542 0 .969-.203 1.282-.609.312-.407.468-1.047.468-1.922 0-.865-.156-1.5-.468-1.906-.303-.407-.724-.61-1.266-.61a1.48 1.48 0 00-.922.297c-.26.188-.463.469-.609.844-.136.375-.203.833-.203 1.375 0 .531.062.984.187 1.359.135.375.333.667.594.875.26.198.573.297.937.297zm10.623-10.156v8.969c0 .447.11.77.328.968.219.188.521.282.907.282.302 0 .562-.032.781-.094.219-.073.411-.177.578-.313l.344 1.969c-.313.219-.709.391-1.188.516a5.616 5.616 0 01-1.453.187c-.708 0-1.323-.099-1.844-.297a2.398 2.398 0 01-1.187-.953c-.271-.437-.417-1.015-.438-1.734v-8.625l3.172-.875zm2.781 2.969v2.25h-7.546v-2.25h7.546z" fill="#595959" fill-rule="nonzero"/><path fill="none" d="M-18.42 352.829h264.409v33.575H-18.42z"/><path d="M55.638 374.576c0-.75-.203-1.328-.609-1.734-.396-.406-.959-.609-1.688-.609-.698 0-1.286.151-1.766.453-.479.291-.833.77-1.062 1.437l-1.297-.797c.271-.739.766-1.338 1.484-1.797.719-.468 1.61-.703 2.672-.703.719 0 1.37.125 1.953.375.594.25 1.058.625 1.391 1.125.344.5.516 1.141.516 1.922v4.844c0 .479.255.719.765.719.25 0 .495-.032.735-.094l-.078 1.25c-.271.135-.615.203-1.032.203-.395 0-.744-.073-1.047-.219a1.655 1.655 0 01-.718-.672c-.177-.302-.266-.677-.266-1.125v-.203l.406.063a2.658 2.658 0 01-.828 1.265 3.852 3.852 0 01-1.297.719 4.574 4.574 0 01-3.062-.062 2.817 2.817 0 01-1.203-.922c-.302-.406-.453-.906-.453-1.5 0-.75.25-1.365.75-1.844.5-.49 1.198-.823 2.093-1l3.953-.781v1.328l-3.218.656c-.657.136-1.146.323-1.469.563-.313.239-.469.573-.469 1 0 .406.162.739.485 1 .333.26.796.39 1.39.39.386 0 .755-.047 1.11-.14a3.05 3.05 0 00.953-.469c.281-.208.5-.469.656-.781.167-.313.25-.683.25-1.11v-2.75zm9.439-8.25c.343 0 .666.042.968.125.313.084.558.198.735.344l-.422 1.297a1.706 1.706 0 00-.531-.219 2.166 2.166 0 00-.61-.078c-.573 0-1.02.135-1.343.406-.323.271-.485.709-.485 1.313v11.515h-1.594v-11.687c0-.438.068-.839.204-1.203.135-.375.338-.698.609-.969a2.7 2.7 0 011.016-.625c.416-.146.901-.219 1.453-.219zm1.656 4.703v1.375h-6.938v-1.375h6.938zm3.501-2.843v10.078c0 .5.14.87.421 1.109.282.24.641.36 1.079.36a2.28 2.28 0 001-.204c.281-.135.536-.317.765-.546l.563 1.343a3.593 3.593 0 01-1.11.672c-.416.156-.896.235-1.437.235-.511 0-.985-.089-1.422-.266a2.355 2.355 0 01-1.047-.859c-.26-.396-.396-.917-.406-1.563v-9.922l1.594-.437zm3.64 2.843v1.375H66.64v-1.375h7.234zm6.568 10.204c-.948 0-1.792-.209-2.532-.625a4.404 4.404 0 01-1.734-1.782c-.417-.781-.625-1.713-.625-2.797 0-1.083.208-2.01.625-2.781.417-.781.984-1.38 1.703-1.797.719-.416 1.537-.625 2.453-.625.938 0 1.735.203 2.391.61a3.89 3.89 0 011.5 1.625c.354.687.531 1.458.531 2.312 0 .229-.01.438-.031.625-.01.177-.026.339-.047.485h-8.078v-1.407h7.375l-.813.157c0-.959-.265-1.698-.796-2.219-.521-.521-1.209-.781-2.063-.781-.656 0-1.224.151-1.703.453-.469.291-.833.724-1.094 1.297-.26.562-.39 1.244-.39 2.046 0 .792.13 1.474.39 2.047.271.573.651 1.011 1.141 1.313.489.291 1.073.437 1.75.437.729 0 1.323-.14 1.781-.422a3.185 3.185 0 001.125-1.14l1.25.75c-.25.448-.573.838-.969 1.172a4.435 4.435 0 01-1.39.781 5.417 5.417 0 01-1.75.266zm7.352-.204v-10h1.297l.219 1.641c.281-.615.693-1.073 1.234-1.375.542-.312 1.198-.469 1.969-.469.177 0 .365.016.562.047.209.021.391.073.547.156l-.281 1.454a2.161 2.161 0 00-.484-.11 4.487 4.487 0 00-.735-.047c-.416 0-.838.12-1.265.36-.417.239-.766.604-1.047 1.093-.281.49-.422 1.105-.422 1.844v5.406h-1.594zm18.458.204c-1.167 0-2.203-.277-3.11-.829-.896-.552-1.505-1.317-1.828-2.296l1.594-.813a4.4 4.4 0 00.672 1.281c.281.365.651.651 1.109.86.458.198 1.031.297 1.719.297.594 0 1.088-.105 1.484-.313.407-.219.714-.51.922-.875.219-.375.328-.802.328-1.281 0-.479-.093-.875-.281-1.188-.177-.323-.458-.562-.844-.718-.385-.157-.89-.235-1.515-.235a8.05 8.05 0 00-.5.016c-.167.01-.344.026-.532.047v-1.594c.125.01.245.016.36.016h.312c.969 0 1.657-.188 2.063-.563.416-.385.625-.984.625-1.797 0-.687-.214-1.213-.641-1.578-.427-.365-1.031-.547-1.812-.547-.844 0-1.485.188-1.922.563-.438.364-.787.859-1.047 1.484l-1.516-.719a4.27 4.27 0 01.969-1.484 4.5 4.5 0 011.547-1 5.372 5.372 0 012-.359c.927 0 1.687.156 2.281.468.604.313 1.057.729 1.36 1.25.302.521.453 1.094.453 1.719 0 .479-.068.911-.203 1.297a3.153 3.153 0 01-.563.984 2.712 2.712 0 01-1.719 1v.047c.438.011.823.099 1.157.266.343.156.635.37.875.64.239.261.421.563.546.907.136.333.204.687.204 1.062 0 .771-.193 1.458-.579 2.063-.375.604-.906 1.078-1.593 1.422-.677.333-1.469.5-2.375.5zm26.649-10.204h1.781l-3.484 10h-1.609l-2.813-7.953-2.656 7.953h-1.61l-3.468-10h1.765l2.532 8.141 2.718-8.141h1.594l2.719 8.141 2.531-8.141zm8.041 10.204c-.948 0-1.792-.209-2.532-.625a4.404 4.404 0 01-1.734-1.782c-.417-.781-.625-1.713-.625-2.797 0-1.083.208-2.01.625-2.781.417-.781.984-1.38 1.703-1.797.719-.416 1.537-.625 2.453-.625.938 0 1.735.203 2.391.61a3.89 3.89 0 011.5 1.625c.354.687.531 1.458.531 2.312 0 .229-.01.438-.031.625a6.104 6.104 0 01-.047.485h-8.078v-1.407h7.375l-.813.157c0-.959-.265-1.698-.797-2.219-.52-.521-1.208-.781-2.062-.781-.656 0-1.224.151-1.703.453-.469.291-.833.724-1.094 1.297-.26.562-.391 1.244-.391 2.046 0 .792.131 1.474.391 2.047.271.573.651 1.011 1.141 1.313.489.291 1.073.437 1.75.437.729 0 1.323-.14 1.781-.422a3.185 3.185 0 001.125-1.14l1.25.75c-.25.448-.573.838-.969 1.172a4.435 4.435 0 01-1.39.781 5.422 5.422 0 01-1.75.266zm11.54 0c-.948 0-1.792-.209-2.532-.625a4.404 4.404 0 01-1.734-1.782c-.417-.781-.625-1.713-.625-2.797 0-1.083.208-2.01.625-2.781.417-.781.984-1.38 1.703-1.797.719-.416 1.537-.625 2.453-.625.938 0 1.735.203 2.391.61a3.89 3.89 0 011.5 1.625c.354.687.531 1.458.531 2.312 0 .229-.01.438-.031.625a6.104 6.104 0 01-.047.485h-8.078v-1.407h7.375l-.813.157c0-.959-.265-1.698-.797-2.219-.52-.521-1.208-.781-2.062-.781-.656 0-1.224.151-1.703.453-.469.291-.833.724-1.094 1.297-.26.562-.391 1.244-.391 2.046 0 .792.131 1.474.391 2.047.271.573.651 1.011 1.141 1.313.489.291 1.073.437 1.75.437.729 0 1.323-.14 1.781-.422a3.185 3.185 0 001.125-1.14l1.25.75c-.25.448-.573.838-.969 1.172a4.435 4.435 0 01-1.39.781 5.422 5.422 0 01-1.75.266zm16.133-10.204l-4.328 4.313-.375.391-3.281 3.281v-2l5.969-5.985h2.015zm-7.187-4.593v14.593h-1.594v-14.593h1.594zm3 8.093l4.422 6.5h-1.938l-3.812-5.593 1.328-.907zm10.12 6.704a5.874 5.874 0 01-2.688-.625 4.562 4.562 0 01-1.89-1.766l1.359-.969a3.4 3.4 0 001.297 1.438c.562.343 1.245.515 2.047.515.708 0 1.26-.135 1.656-.406.406-.271.609-.63.609-1.078 0-.271-.093-.521-.281-.75-.177-.24-.515-.412-1.015-.516l-2.407-.5c-.968-.208-1.666-.541-2.093-1-.417-.468-.625-1.052-.625-1.75 0-.541.156-1.036.468-1.484.313-.458.756-.823 1.328-1.094.584-.281 1.271-.422 2.063-.422.99 0 1.823.193 2.5.578a3.625 3.625 0 011.516 1.641l-1.344.891c-.219-.594-.583-1.026-1.094-1.297a3.322 3.322 0 00-1.578-.406c-.479 0-.891.067-1.234.203a1.737 1.737 0 00-.782.547 1.242 1.242 0 00-.265.781c0 .302.099.578.297.828.198.239.573.411 1.125.516l2.5.515c.927.188 1.578.495 1.953.922.375.427.562.948.562 1.563 0 .625-.166 1.177-.5 1.656-.333.469-.802.833-1.406 1.094-.594.25-1.286.375-2.078.375z" fill="#595959" fill-rule="nonzero"/><path d="M313.498 220.841c0-24.405 20.101-44.189 44.898-44.189h44.897v44.189c0 24.405-20.101 44.189-44.897 44.189-24.797 0-44.898-19.784-44.898-44.189z" fill="#34b255"/><path d="M313.498 220.841c0-24.405 20.101-44.189 44.898-44.189h44.897v44.189c0 24.405-20.101 44.189-44.897 44.189-24.797 0-44.898-19.784-44.898-44.189z" fill="none" stroke="#34b255"/><path fill="none" d="M219.583 275.813h264.409v64.882H219.583z"/><path d="M304.024 299.202c-.24.865-.62 1.573-1.141 2.125a4.732 4.732 0 01-1.875 1.219c-.719.25-1.51.375-2.375.375-1.25 0-2.328-.25-3.234-.75a5.198 5.198 0 01-2.094-2.172c-.479-.948-.719-2.089-.719-3.422 0-1.333.24-2.469.719-3.406a5.073 5.073 0 012.094-2.172c.906-.51 1.974-.766 3.203-.766.864 0 1.656.125 2.375.375.718.24 1.328.61 1.828 1.11.5.489.854 1.125 1.062 1.906l-2.812 1.141c-.177-.771-.464-1.297-.86-1.579-.385-.291-.875-.437-1.468-.437-.594 0-1.104.146-1.532.437-.427.282-.755.709-.984 1.282-.229.562-.344 1.265-.344 2.109 0 .833.105 1.537.313 2.109.208.573.526 1.006.953 1.297.437.282.974.422 1.609.422.594 0 1.099-.166 1.516-.5.417-.333.698-.838.844-1.515l2.922.812zm4.689-9.75v10.109c0 .407.068.698.203.875.146.178.38.266.703.266.188 0 .344-.01.469-.031.125-.031.271-.073.437-.125l-.203 1.906c-.218.136-.51.245-.875.328a4.24 4.24 0 01-1.062.141c-1 0-1.724-.229-2.172-.688-.448-.458-.672-1.213-.672-2.265v-10.516h3.172zm7.413 3.766c.979 0 1.839.192 2.578.578.74.375 1.318.927 1.735 1.656.416.729.625 1.599.625 2.609 0 1.021-.209 1.896-.625 2.625a4.184 4.184 0 01-1.735 1.672c-.739.375-1.599.563-2.578.563-.958 0-1.812-.188-2.562-.563a4.184 4.184 0 01-1.735-1.672c-.417-.729-.625-1.604-.625-2.625 0-1.01.208-1.88.625-2.609a4.092 4.092 0 011.735-1.656c.75-.386 1.604-.578 2.562-.578zm0 2.265c-.365 0-.677.089-.937.266-.261.167-.459.443-.594.828-.136.386-.203.88-.203 1.484 0 .615.067 1.115.203 1.5.135.375.333.652.594.829.26.177.572.265.937.265.375 0 .693-.088.953-.265.261-.177.458-.454.594-.829.135-.385.203-.885.203-1.5 0-.604-.068-1.098-.203-1.484-.136-.385-.333-.661-.594-.828-.26-.177-.578-.266-.953-.266zm10.659 7.438a7.346 7.346 0 01-2.609-.453c-.802-.313-1.463-.75-1.984-1.313l1.484-1.765c.313.395.724.729 1.234 1 .521.27 1.099.406 1.735.406.385 0 .703-.057.953-.172.25-.115.375-.286.375-.516a.522.522 0 00-.188-.422c-.125-.104-.375-.197-.75-.281l-1.296-.25c-1.177-.239-2.011-.588-2.5-1.047-.49-.468-.735-1.083-.735-1.843 0-.511.156-1 .469-1.469.312-.469.792-.849 1.437-1.141.646-.291 1.474-.437 2.485-.437.937 0 1.765.14 2.484.422.729.27 1.308.666 1.735 1.187l-1.516 1.719a3.018 3.018 0 00-1.172-.875 3.296 3.296 0 00-1.406-.328c-.302 0-.557.031-.766.093a.99.99 0 00-.453.235.485.485 0 00-.141.359c0 .167.079.313.235.438.156.114.443.213.859.297l1.703.328c.959.177 1.646.495 2.063.953.427.458.64 1.015.64 1.672a2.91 2.91 0 01-.484 1.64c-.323.48-.807.86-1.453 1.141s-1.458.422-2.438.422zm10.513 0c-1.031 0-1.922-.193-2.672-.578a4.2 4.2 0 01-1.75-1.657c-.406-.729-.609-1.604-.609-2.625 0-1.01.203-1.875.609-2.593a4.19 4.19 0 011.735-1.672c.739-.386 1.588-.578 2.547-.578.979 0 1.812.192 2.5.578a3.873 3.873 0 011.578 1.562c.364.667.547 1.427.547 2.282 0 .229-.011.458-.032.687-.01.219-.026.401-.046.547h-7.391v-1.703h5.984l-1.5.578c0-.74-.135-1.307-.406-1.703-.271-.406-.682-.61-1.234-.61-.407 0-.75.094-1.032.282-.27.187-.479.479-.625.875-.145.396-.218.906-.218 1.531 0 .615.078 1.109.234 1.484.167.375.401.651.703.828.302.167.662.25 1.078.25.479 0 .854-.093 1.125-.281.282-.187.49-.448.625-.781l2.547.828a2.956 2.956 0 01-.906 1.359 4.346 4.346 0 01-1.531.829 6.158 6.158 0 01-1.86.281zm9.693 0c-.771 0-1.448-.188-2.031-.563-.584-.385-1.032-.937-1.344-1.656-.313-.719-.469-1.583-.469-2.594 0-1.041.162-1.922.484-2.64.334-.729.792-1.287 1.375-1.672.594-.386 1.277-.578 2.047-.578.844 0 1.526.26 2.047.781.521.51.854 1.167 1 1.969l-.297.39v-6.906h3.172v13.281h-2.844l-.203-3.172.375.282c-.073.625-.265 1.166-.578 1.625a3.277 3.277 0 01-1.156 1.078c-.458.25-.984.375-1.578.375zm1.094-2.328c.364 0 .671-.094.921-.282.261-.197.459-.489.594-.875.136-.385.203-.859.203-1.421 0-.521-.067-.964-.203-1.329-.125-.375-.317-.656-.578-.843-.25-.198-.557-.297-.922-.297-.541 0-.974.203-1.297.609-.312.406-.468 1.042-.468 1.906 0 .875.151 1.516.453 1.922.312.407.745.61 1.297.61zm23.513 2.14h-3.313l-.859-2.781h-4.219l-.875 2.781h-3.219l4.328-12.312h3.844l4.313 12.312zm-7.782-4.968h3.016l-1.516-4.969-1.5 4.969zm12.115-8.313v10.109c0 .407.068.698.203.875.146.178.38.266.703.266.188 0 .344-.01.469-.031.125-.031.271-.073.438-.125l-.203 1.906c-.219.136-.511.245-.875.328a4.253 4.253 0 01-1.063.141c-1 0-1.724-.229-2.172-.688-.448-.458-.672-1.213-.672-2.265v-10.516h3.172zm2.976 17.203v-13.25h2.859l.156 3.375-.375-.39a4.285 4.285 0 01.578-1.641 3.36 3.36 0 011.157-1.109 3.143 3.143 0 011.625-.422c.771 0 1.442.192 2.015.578.573.375 1.016.922 1.328 1.64.323.709.485 1.573.485 2.594s-.162 1.901-.485 2.641c-.322.729-.776 1.286-1.359 1.672-.573.385-1.245.578-2.016.578-.843 0-1.531-.25-2.062-.75-.521-.511-.865-1.151-1.031-1.922l.297-.438v6.844h-3.172zm4.89-6.062c.542 0 .969-.203 1.282-.61.312-.406.468-1.047.468-1.922 0-.864-.156-1.5-.468-1.906-.302-.406-.724-.609-1.266-.609-.354 0-.661.099-.922.297-.26.187-.463.468-.609.843-.136.375-.203.834-.203 1.375 0 .532.062.985.187 1.36.136.375.333.667.594.875.26.198.573.297.937.297zm6.807 2.14v-13.281h3.172v5.656c.271-.625.662-1.093 1.172-1.406.51-.323 1.099-.484 1.766-.484.656 0 1.218.125 1.687.375.479.25.854.62 1.125 1.109.281.479.422 1.083.422 1.813v6.218h-3.172v-5.328c0-.677-.125-1.14-.375-1.39-.239-.261-.557-.391-.953-.391-.292 0-.573.078-.844.234-.26.146-.463.381-.609.703-.146.323-.219.745-.219 1.266v4.906h-3.172zm16.77-5.906c0-.437-.125-.781-.375-1.031-.239-.261-.562-.391-.969-.391-.406 0-.76.104-1.062.313-.292.198-.49.557-.594 1.078l-2.687-.625a3.342 3.342 0 011.375-2.141c.75-.541 1.802-.812 3.156-.812.906 0 1.677.135 2.312.406.646.26 1.141.656 1.485 1.187.344.532.515 1.183.515 1.954v3.406c0 .489.219.734.657.734.218 0 .396-.026.531-.078l-.188 1.813c-.375.177-.828.265-1.359.265-.49 0-.922-.078-1.297-.234a2.017 2.017 0 01-.875-.703c-.208-.323-.312-.729-.312-1.219v-.109l.359-.125c0 .531-.161.979-.484 1.343-.313.365-.724.636-1.235.813-.5.167-1.021.25-1.562.25-.636 0-1.193-.099-1.672-.297-.469-.198-.833-.484-1.094-.859-.25-.386-.375-.86-.375-1.422 0-.667.203-1.219.61-1.657.406-.447 1.041-.76 1.906-.937l3.531-.719-.016 1.672-1.796.375c-.375.073-.651.182-.829.328-.177.146-.265.36-.265.641 0 .271.099.479.297.625.198.135.432.203.703.203.219 0 .422-.031.609-.094a1.45 1.45 0 00.516-.281 1.43 1.43 0 00.344-.5c.093-.208.14-.448.14-.719v-2.453zM257.768 325.133v-12.312h9.593v2.484h-6.375v2.5h5.063v2.328h-5.063v2.516h6.61v2.484h-9.828zm16.756-5.906c0-.437-.125-.781-.375-1.031-.24-.261-.562-.391-.969-.391-.406 0-.76.104-1.062.313-.292.198-.49.557-.594 1.078l-2.687-.625a3.342 3.342 0 011.375-2.141c.75-.541 1.802-.812 3.156-.812.906 0 1.677.135 2.312.406.646.26 1.141.656 1.485 1.187.343.532.515 1.183.515 1.954v3.406c0 .489.219.734.657.734.218 0 .395-.026.531-.078l-.188 1.813c-.375.177-.828.265-1.359.265-.49 0-.922-.078-1.297-.234a2.01 2.01 0 01-.875-.703c-.208-.323-.312-.729-.312-1.219v-.109l.359-.125c0 .531-.162.979-.484 1.343-.313.365-.724.636-1.235.813-.5.166-1.021.25-1.562.25-.636 0-1.193-.099-1.672-.297-.469-.198-.834-.484-1.094-.859-.25-.386-.375-.86-.375-1.422 0-.667.203-1.219.609-1.657.407-.447 1.042-.76 1.907-.937l3.531-.719-.016 1.672-1.797.375c-.375.073-.651.182-.828.328-.177.146-.265.36-.265.641 0 .271.099.479.297.625.197.135.432.203.703.203a1.9 1.9 0 00.609-.094 1.45 1.45 0 00.516-.281c.146-.135.26-.302.343-.5a1.73 1.73 0 00.141-.719v-2.453zm5.599 5.906v-9.328h2.797l.125 2.016c.239-.698.594-1.24 1.062-1.625.469-.386 1.063-.578 1.782-.578a2.5 2.5 0 01.593.062c.177.031.313.078.407.141l-.313 2.609a3.151 3.151 0 00-.484-.109 4.306 4.306 0 00-.688-.047c-.375 0-.724.083-1.047.25a1.849 1.849 0 00-.781.719c-.187.312-.281.708-.281 1.187v4.703h-3.172zm11.147-13.281v10.109c0 .407.068.698.203.875.146.178.38.266.703.266.188 0 .344-.01.469-.031.125-.031.271-.073.438-.125l-.204 1.906c-.218.135-.51.245-.875.328a4.24 4.24 0 01-1.062.141c-1 0-1.724-.229-2.172-.688-.448-.458-.672-1.213-.672-2.265v-10.516h3.172zm12.033 3.953l-3.39 9.328c-.344.979-.724 1.761-1.141 2.344-.406.594-.891 1.021-1.453 1.281-.563.261-1.234.391-2.016.391-.52 0-1-.057-1.437-.172a4.224 4.224 0 01-1.141-.469l.641-2.14c.229.156.463.265.703.328.25.073.568.109.953.109.365 0 .662-.062.891-.187.229-.115.411-.349.547-.703l.25-.579-1.094-2.531-2.797-7h3.5l1.437 5.313.438 1.984.531-2.047 1.438-5.25h3.14zm20.523-2.984v12.312h-2.829v-5.656l.094-3.781h-.047l-3.031 9.437h-2.594l-3.047-9.437h-.031l.094 3.781v5.656h-2.859v-12.312h4.578l1.937 6.265.688 2.61h.031l.719-2.594 1.922-6.281h4.375zm7.674 6.406c0-.437-.125-.781-.375-1.031-.24-.261-.563-.391-.969-.391s-.76.104-1.062.313c-.292.198-.49.557-.594 1.078l-2.688-.625a3.346 3.346 0 011.375-2.141c.75-.541 1.802-.812 3.157-.812.906 0 1.677.135 2.312.406.646.26 1.141.656 1.484 1.187.344.532.516 1.183.516 1.954v3.406c0 .489.219.734.656.734.219 0 .396-.026.532-.078l-.188 1.813c-.375.177-.828.265-1.359.265-.49 0-.922-.078-1.297-.234a2.01 2.01 0 01-.875-.703c-.209-.323-.313-.729-.313-1.219v-.109l.36-.125c0 .531-.162.979-.485 1.343-.312.365-.724.636-1.234.813-.5.166-1.021.25-1.563.25-.635 0-1.192-.099-1.671-.297-.469-.198-.834-.484-1.094-.859-.25-.386-.375-.86-.375-1.422 0-.667.203-1.219.609-1.657.406-.447 1.042-.76 1.906-.937l3.532-.719-.016 1.672-1.797.375c-.375.073-.651.182-.828.328-.177.146-.266.36-.266.641 0 .271.099.479.297.625.198.135.433.203.703.203.219 0 .422-.031.61-.094.198-.062.37-.156.515-.281.146-.135.261-.302.344-.5a1.73 1.73 0 00.141-.719v-2.453zm5.599 5.906v-9.328h2.797l.125 2.016c.239-.698.593-1.24 1.062-1.625.469-.386 1.063-.578 1.781-.578.229 0 .427.021.594.062.177.031.313.078.406.141l-.312 2.609a3.167 3.167 0 00-.485-.109 4.284 4.284 0 00-.687-.047c-.375 0-.724.083-1.047.25a1.849 1.849 0 00-.781.719c-.188.312-.281.708-.281 1.187v4.703h-3.172zm18.256-9.328l-4.469 4.781-.593.157-2.672 2.984-.016-3.234 4.235-4.688h3.515zm-7.062-3.953v13.281h-3.172v-13.281h3.172zm3.078 6.75l4.187 6.531h-3.5l-2.765-4.672 2.078-1.859zm9.397 6.719c-1.031 0-1.922-.193-2.672-.578a4.2 4.2 0 01-1.75-1.657c-.406-.729-.609-1.604-.609-2.625 0-1.01.203-1.875.609-2.593a4.194 4.194 0 011.734-1.672c.74-.386 1.589-.578 2.547-.578.979 0 1.813.192 2.5.578a3.861 3.861 0 011.578 1.562c.365.667.547 1.427.547 2.282 0 .229-.01.458-.031.687-.01.219-.026.401-.047.547h-7.39v-1.703h5.984l-1.5.578c0-.74-.136-1.307-.406-1.703-.271-.406-.683-.61-1.235-.61-.406 0-.75.094-1.031.282-.271.187-.479.479-.625.875-.146.396-.219.906-.219 1.531 0 .615.078 1.109.235 1.484.166.375.401.651.703.828.302.167.661.25 1.078.25.479 0 .854-.093 1.125-.281a1.67 1.67 0 00.625-.781l2.547.828a2.956 2.956 0 01-.906 1.359 4.351 4.351 0 01-1.532.829 6.146 6.146 0 01-1.859.281zm10.034-12.485v8.969c0 .448.109.771.328.969.219.187.521.281.906.281.302 0 .563-.031.781-.094.219-.072.412-.177.578-.312l.344 1.969c-.312.218-.708.39-1.187.515a5.616 5.616 0 01-1.453.188c-.709 0-1.323-.099-1.844-.297a2.406 2.406 0 01-1.188-.953c-.271-.438-.416-1.016-.437-1.735v-8.625l3.172-.875zm2.781 2.969v2.25h-7.547v-2.25h7.547zm17.76-2.984l-4.36 12.312h-3.765l-4.391-12.312h3.375l2.266 7.437.671 2.438.657-2.391 2.281-7.484h3.266zm4.722 12.5c-1.032 0-1.922-.193-2.672-.578a4.195 4.195 0 01-1.75-1.657c-.407-.729-.61-1.604-.61-2.625 0-1.01.203-1.875.61-2.593a4.182 4.182 0 011.734-1.672c.74-.386 1.589-.578 2.547-.578.979 0 1.812.192 2.5.578a3.873 3.873 0 011.578 1.562c.365.667.547 1.427.547 2.282 0 .229-.01.458-.031.687a6.14 6.14 0 01-.047.547h-7.391v-1.703h5.985l-1.5.578c0-.74-.136-1.307-.407-1.703-.271-.406-.682-.61-1.234-.61-.406 0-.75.094-1.031.282-.271.187-.479.479-.625.875-.146.396-.219.906-.219 1.531 0 .615.078 1.109.234 1.484.167.375.401.651.703.828.303.167.662.25 1.079.25.479 0 .854-.093 1.125-.281a1.67 1.67 0 00.625-.781l2.546.828a2.956 2.956 0 01-.906 1.359 4.338 4.338 0 01-1.531.829 6.156 6.156 0 01-1.859.281zm6.255-.188v-9.328h2.797l.125 2.016c.239-.698.593-1.24 1.062-1.625.469-.386 1.063-.578 1.781-.578.229 0 .427.021.594.062.177.031.313.078.406.141l-.312 2.609a3.167 3.167 0 00-.485-.109 4.284 4.284 0 00-.687-.047c-.375 0-.724.083-1.047.25a1.849 1.849 0 00-.781.719c-.188.312-.281.708-.281 1.187v4.703h-3.172zm11.794.188a7.346 7.346 0 01-2.609-.453c-.802-.313-1.464-.75-1.984-1.313l1.484-1.765c.313.395.724.729 1.234 1 .521.27 1.099.406 1.735.406.385 0 .703-.057.953-.172.25-.115.375-.287.375-.516a.522.522 0 00-.188-.422c-.125-.104-.375-.197-.75-.281l-1.296-.25c-1.178-.239-2.011-.588-2.5-1.047-.49-.468-.735-1.083-.735-1.843 0-.511.156-1 .469-1.469.312-.469.792-.849 1.437-1.141.646-.291 1.474-.437 2.485-.437.937 0 1.765.14 2.484.422.729.27 1.307.666 1.735 1.187l-1.516 1.719a3.018 3.018 0 00-1.172-.875 3.296 3.296 0 00-1.406-.328c-.302 0-.558.031-.766.093a.99.99 0 00-.453.235.485.485 0 00-.141.359c0 .167.079.313.235.438.156.114.442.213.859.297l1.703.328c.959.177 1.646.494 2.063.953.427.458.64 1.015.64 1.672a2.91 2.91 0 01-.484 1.64c-.323.479-.807.86-1.453 1.141s-1.458.422-2.438.422zm7.6-10.594c-.645 0-1.114-.12-1.406-.359-.291-.25-.437-.636-.437-1.157 0-.531.146-.916.437-1.156.292-.25.761-.375 1.406-.375.636 0 1.105.125 1.407.375.302.24.453.625.453 1.156 0 .521-.151.907-.453 1.157-.302.239-.771.359-1.407.359zm1.594 1.078v9.328h-3.172v-9.328h3.172zm6.695-.187c.979 0 1.838.192 2.578.578a4.09 4.09 0 011.734 1.656c.417.729.625 1.599.625 2.609 0 1.021-.208 1.896-.625 2.625a4.181 4.181 0 01-1.734 1.672c-.74.375-1.599.563-2.578.563-.959 0-1.813-.188-2.563-.563a4.187 4.187 0 01-1.734-1.672c-.417-.729-.625-1.604-.625-2.625 0-1.01.208-1.88.625-2.609a4.095 4.095 0 011.734-1.656c.75-.386 1.604-.578 2.563-.578zm0 2.265a1.63 1.63 0 00-.938.266c-.26.167-.458.443-.593.828-.136.385-.204.88-.204 1.484 0 .615.068 1.115.204 1.5.135.375.333.651.593.829.261.177.573.265.938.265.375 0 .692-.088.953-.265.26-.178.458-.454.594-.829.135-.385.203-.885.203-1.5 0-.604-.068-1.099-.203-1.484-.136-.385-.334-.661-.594-.828-.261-.177-.578-.266-.953-.266zm6.737 7.25v-9.328h2.828l.172 3.203-.359-.343c.125-.678.344-1.24.656-1.688a3.143 3.143 0 011.203-1.016 3.69 3.69 0 011.61-.343c.656 0 1.218.125 1.687.375.479.25.854.619 1.125 1.109.281.479.422 1.083.422 1.813v6.218h-3.172v-5.375c0-.646-.125-1.093-.375-1.343s-.567-.375-.953-.375c-.292 0-.573.072-.844.218-.26.146-.463.375-.609.688-.146.302-.219.719-.219 1.25v4.937h-3.172z" fill="#595959" fill-rule="nonzero"/><path fill="none" d="M219.583 352.829h264.409v33.575H219.583z"/><path d="M303.514 369.748v9.922h-1.5v-9.922h1.5zm4.11 4.203v1.5h-9.719v-1.5h9.719zm7.99-6.125h9.719v1.5c-1.104 1.177-2.005 2.386-2.703 3.625a14.823 14.823 0 00-1.531 3.844 17.932 17.932 0 00-.485 4.234h-1.64c0-1.479.182-2.927.547-4.343a17.034 17.034 0 011.671-4.094 17.858 17.858 0 012.782-3.656l.265.39h-8.625v-1.5zm18.503 13.203v-10h1.406l.094 1.563c.364-.615.833-1.063 1.406-1.344a4.096 4.096 0 011.797-.422c.708 0 1.375.162 2 .485.625.323 1.104.817 1.437 1.484.209-.458.506-.828.891-1.109a4.099 4.099 0 011.281-.641 4.328 4.328 0 011.313-.219 4.29 4.29 0 011.828.407c.583.26 1.057.671 1.422 1.234.375.562.562 1.281.562 2.156v6.406h-1.593v-6.234c0-.906-.23-1.557-.688-1.953-.448-.406-1.005-.609-1.672-.609-.521 0-1.01.125-1.469.375-.448.25-.812.625-1.093 1.125-.271.489-.407 1.093-.407 1.812v5.484h-1.593v-6.234c0-.906-.23-1.557-.688-1.953-.448-.406-1.005-.609-1.672-.609-.437 0-.89.119-1.359.359-.458.229-.844.599-1.156 1.109-.302.5-.453 1.162-.453 1.985v5.343h-1.594zm23.2-10.203c.948 0 1.782.209 2.5.625.73.417 1.302 1.016 1.719 1.797.417.771.625 1.698.625 2.781 0 1.084-.208 2.016-.625 2.797a4.426 4.426 0 01-1.719 1.782c-.718.416-1.552.625-2.5.625-.937 0-1.77-.209-2.5-.625a4.424 4.424 0 01-1.718-1.782c-.417-.781-.625-1.713-.625-2.797 0-1.083.208-2.01.625-2.781.416-.781.989-1.38 1.718-1.797.73-.416 1.563-.625 2.5-.625zm0 1.391c-.677 0-1.255.151-1.734.453-.479.302-.849.74-1.109 1.313-.261.562-.391 1.244-.391 2.046 0 .792.13 1.474.391 2.047.26.573.63 1.011 1.109 1.313.479.302 1.057.453 1.734.453s1.256-.151 1.735-.453c.479-.302.849-.74 1.109-1.313.261-.573.391-1.255.391-2.047 0-.802-.13-1.484-.391-2.046-.26-.573-.63-1.011-1.109-1.313-.479-.302-1.058-.453-1.735-.453zm7.86 8.812v-10h1.406l.141 2.235-.266-.219c.208-.531.495-.958.859-1.281a3.274 3.274 0 011.25-.719 4.915 4.915 0 011.469-.219c.719 0 1.37.141 1.953.422a3.24 3.24 0 011.422 1.25c.354.552.531 1.261.531 2.125v6.406h-1.609v-5.843c0-1.105-.24-1.87-.719-2.297-.468-.438-1.047-.656-1.734-.656-.479 0-.958.114-1.438.343-.479.219-.88.584-1.203 1.094-.312.51-.468 1.193-.468 2.047v5.312h-1.594zm14.599-12.843v10.078c0 .5.141.87.422 1.109.281.24.641.36 1.078.36.386 0 .719-.068 1-.204.281-.135.537-.317.766-.546l.562 1.343a3.576 3.576 0 01-1.109.672 4.087 4.087 0 01-1.438.235 3.76 3.76 0 01-1.422-.266 2.358 2.358 0 01-1.046-.859c-.261-.396-.396-.917-.407-1.563v-9.922l1.594-.437zm3.641 2.843v1.375h-7.235v-1.375h7.235zm2.38 10v-14.593h1.593v6.093c.355-.604.818-1.036 1.391-1.296a4.33 4.33 0 011.875-.407c.719 0 1.37.141 1.953.422a3.24 3.24 0 011.422 1.25c.354.552.531 1.261.531 2.125v6.406h-1.609v-5.843c0-1.105-.24-1.87-.719-2.297-.469-.438-1.047-.656-1.734-.656-.479 0-.958.114-1.438.343-.479.219-.88.589-1.203 1.11-.312.51-.469 1.192-.469 2.047v5.296h-1.593zm15.973.204a5.873 5.873 0 01-2.687-.625 4.558 4.558 0 01-1.891-1.766l1.36-.969a3.4 3.4 0 001.297 1.438c.562.343 1.244.515 2.046.515.709 0 1.261-.135 1.657-.406.406-.271.609-.63.609-1.078 0-.271-.094-.521-.281-.75-.177-.24-.516-.412-1.016-.516l-2.406-.5c-.969-.208-1.667-.541-2.094-1-.416-.468-.625-1.052-.625-1.75 0-.541.156-1.036.469-1.484.312-.458.755-.823 1.328-1.094.583-.281 1.271-.422 2.063-.422.989 0 1.823.193 2.5.578a3.617 3.617 0 011.515 1.641l-1.344.891c-.218-.594-.583-1.026-1.093-1.297a3.328 3.328 0 00-1.578-.406c-.48 0-.891.067-1.235.203a1.733 1.733 0 00-.781.547 1.243 1.243 0 00-.266.781c0 .302.099.578.297.828.198.239.573.411 1.125.516l2.5.515c.927.188 1.578.495 1.953.922.375.427.563.948.563 1.563a2.83 2.83 0 01-.5 1.656c-.333.469-.802.833-1.406 1.094-.594.25-1.287.375-2.079.375z" fill="#595959" fill-rule="nonzero"/><path d="M559.589 220.841c0-24.405 20.101-44.189 44.897-44.189h44.898v44.189c0 24.405-20.102 44.189-44.898 44.189-24.796 0-44.897-19.784-44.897-44.189z" fill="#34b255"/><path d="M559.589 220.841c0-24.405 20.101-44.189 44.897-44.189h44.898v44.189c0 24.405-20.102 44.189-44.898 44.189-24.796 0-44.897-19.784-44.897-44.189z" fill="none" stroke="#34b255"/><path fill="none" d="M457.588 275.813h264.409v64.882H457.588z"/><path d="M559.749 290.421c1.937 0 3.416.536 4.437 1.609 1.031 1.063 1.547 2.578 1.547 4.547 0 1.969-.516 3.49-1.547 4.563-1.021 1.062-2.5 1.593-4.437 1.593h-5.219v-12.312h5.219zm-.313 9.89c1.042 0 1.802-.312 2.281-.937.48-.635.719-1.568.719-2.797s-.239-2.156-.719-2.781c-.479-.636-1.239-.953-2.281-.953h-1.687v7.468h1.687zm13.19-10.078c1.145 0 2.156.177 3.031.532.875.354 1.64.875 2.297 1.562l-1.563 2.063c-.531-.552-1.104-.969-1.719-1.25-.614-.282-1.312-.422-2.093-.422-.469 0-.844.052-1.125.156-.282.094-.485.229-.61.406a.963.963 0 00-.187.594c0 .26.12.484.359.672.24.177.636.323 1.188.437l2.062.469c1.229.292 2.13.714 2.703 1.266.573.541.86 1.265.86 2.172 0 .875-.224 1.614-.672 2.218-.448.594-1.063 1.047-1.844 1.36-.781.302-1.677.453-2.687.453-.823 0-1.61-.089-2.36-.266a8.17 8.17 0 01-2-.781 6.379 6.379 0 01-1.515-1.156l1.546-2.141a5.19 5.19 0 001.141.953c.458.281.958.505 1.5.672a5.958 5.958 0 001.656.234c.438 0 .802-.041 1.094-.125.292-.093.505-.223.641-.39.135-.177.203-.386.203-.625a.867.867 0 00-.281-.656c-.188-.177-.542-.329-1.063-.454l-2.281-.515a8.706 8.706 0 01-1.844-.625 3.297 3.297 0 01-1.281-1.094c-.313-.458-.469-1.026-.469-1.703 0-.771.208-1.458.625-2.063.427-.604 1.037-1.078 1.828-1.421.802-.355 1.755-.532 2.86-.532zm23.478 8.969c-.24.865-.62 1.573-1.141 2.125a4.732 4.732 0 01-1.875 1.219c-.718.25-1.51.375-2.375.375-1.25 0-2.328-.25-3.234-.75a5.21 5.21 0 01-2.094-2.172c-.479-.948-.719-2.089-.719-3.422 0-1.333.24-2.469.719-3.406a5.085 5.085 0 012.094-2.172c.906-.51 1.974-.766 3.203-.766.865 0 1.656.125 2.375.375a4.6 4.6 0 011.828 1.11c.5.489.854 1.125 1.063 1.906l-2.813 1.141c-.177-.771-.463-1.297-.859-1.579-.386-.291-.875-.437-1.469-.437-.594 0-1.104.146-1.531.437-.427.282-.755.709-.985 1.282-.229.562-.343 1.265-.343 2.109 0 .833.104 1.537.312 2.109.208.573.526 1.006.953 1.297.438.282.974.422 1.61.422.593 0 1.099-.166 1.515-.5.417-.333.698-.838.844-1.515l2.922.812zm6.002-5.984c.979 0 1.838.192 2.578.578a4.09 4.09 0 011.734 1.656c.417.729.625 1.599.625 2.609 0 1.021-.208 1.896-.625 2.625a4.181 4.181 0 01-1.734 1.672c-.74.375-1.599.563-2.578.563-.959 0-1.813-.188-2.563-.563a4.187 4.187 0 01-1.734-1.672c-.417-.729-.625-1.604-.625-2.625 0-1.01.208-1.88.625-2.609a4.095 4.095 0 011.734-1.656c.75-.386 1.604-.578 2.563-.578zm0 2.265a1.63 1.63 0 00-.938.266c-.26.167-.458.443-.594.828-.135.386-.203.88-.203 1.484 0 .615.068 1.115.203 1.5.136.375.334.652.594.829.261.177.573.265.938.265.375 0 .692-.088.953-.265.26-.177.458-.454.594-.829.135-.385.203-.885.203-1.5 0-.604-.068-1.098-.203-1.484-.136-.385-.334-.661-.594-.828-.261-.177-.578-.266-.953-.266zm6.737 7.25v-9.328h2.797l.125 2.016c.24-.698.594-1.24 1.063-1.625.468-.386 1.062-.578 1.781-.578.229 0 .427.021.594.062.177.031.312.078.406.141l-.313 2.609a3.151 3.151 0 00-.484-.109 4.293 4.293 0 00-.687-.047c-.375 0-.724.083-1.047.25a1.851 1.851 0 00-.782.719c-.187.312-.281.708-.281 1.187v4.703h-3.172zm12.457.188c-1.031 0-1.922-.193-2.672-.578a4.2 4.2 0 01-1.75-1.657c-.406-.729-.609-1.604-.609-2.625 0-1.01.203-1.875.609-2.593a4.19 4.19 0 011.735-1.672c.739-.386 1.588-.578 2.547-.578.979 0 1.812.192 2.5.578a3.873 3.873 0 011.578 1.562c.364.667.547 1.427.547 2.282 0 .229-.011.458-.032.687-.01.219-.026.401-.046.547h-7.391v-1.703h5.984l-1.5.578c0-.74-.135-1.307-.406-1.703-.271-.406-.682-.61-1.234-.61-.407 0-.75.094-1.032.282-.27.187-.479.479-.625.875-.145.396-.218.906-.218 1.531 0 .615.078 1.109.234 1.484.167.375.401.651.703.828.302.167.662.25 1.078.25.48 0 .855-.093 1.125-.281.282-.187.49-.448.625-.781l2.547.828a2.956 2.956 0 01-.906 1.359 4.346 4.346 0 01-1.531.829 6.158 6.158 0 01-1.86.281zM514.525 319.227c0-.437-.125-.781-.375-1.031-.239-.261-.562-.391-.968-.391a1.82 1.82 0 00-1.063.313c-.292.198-.49.557-.594 1.078l-2.687-.625a3.342 3.342 0 011.375-2.141c.75-.541 1.802-.812 3.156-.812.906 0 1.677.135 2.313.406.645.26 1.14.656 1.484 1.187.344.532.516 1.183.516 1.954v3.406c0 .489.218.734.656.734.219 0 .396-.026.531-.078l-.187 1.813c-.375.177-.829.265-1.36.265-.489 0-.922-.078-1.297-.234a2.017 2.017 0 01-.875-.703c-.208-.323-.312-.729-.312-1.219v-.109l.359-.125c0 .531-.161.979-.484 1.343-.313.365-.724.636-1.235.813-.5.166-1.02.25-1.562.25-.636 0-1.193-.099-1.672-.297-.469-.198-.833-.484-1.094-.859-.25-.386-.375-.86-.375-1.422 0-.667.203-1.219.61-1.657.406-.447 1.041-.76 1.906-.937l3.531-.719-.015 1.672-1.797.375c-.375.073-.651.182-.828.328-.178.146-.266.36-.266.641 0 .271.099.479.297.625.198.135.432.203.703.203.219 0 .422-.031.609-.094a1.45 1.45 0 00.516-.281 1.43 1.43 0 00.344-.5c.093-.208.14-.448.14-.719v-2.453zm9.116-6.391v8.969c0 .448.11.771.329.969.218.187.52.281.906.281.302 0 .562-.031.781-.094.219-.072.411-.177.578-.312l.344 1.969c-.313.218-.708.39-1.188.515a5.61 5.61 0 01-1.453.188c-.708 0-1.323-.099-1.843-.297a2.402 2.402 0 01-1.188-.953c-.271-.438-.417-1.016-.437-1.735v-8.625l3.171-.875zm2.782 2.969v2.25h-7.547v-2.25h7.547zm12.254-2.984c1.937 0 3.416.536 4.437 1.609 1.032 1.063 1.547 2.578 1.547 4.547 0 1.969-.515 3.49-1.547 4.563-1.021 1.062-2.5 1.593-4.437 1.593h-5.219v-12.312h5.219zm-.313 9.89c1.042 0 1.802-.312 2.282-.937.479-.635.718-1.568.718-2.797s-.239-2.156-.718-2.781c-.48-.636-1.24-.953-2.282-.953h-1.687v7.468h1.687zm13.19-10.078c1.146 0 2.156.177 3.031.532a6.529 6.529 0 012.297 1.562l-1.563 2.063c-.531-.553-1.104-.969-1.718-1.25-.615-.282-1.313-.422-2.094-.422-.469 0-.844.052-1.125.156-.281.094-.485.229-.61.406a.963.963 0 00-.187.594c0 .26.12.484.359.672.24.177.636.323 1.188.437l2.062.469c1.229.292 2.131.714 2.703 1.266.573.541.86 1.265.86 2.172 0 .875-.224 1.614-.672 2.218-.448.594-1.063 1.047-1.844 1.36-.781.302-1.677.453-2.687.453-.823 0-1.61-.089-2.36-.266a8.17 8.17 0 01-2-.781 6.4 6.4 0 01-1.515-1.156l1.547-2.141a5.16 5.16 0 001.14.953c.459.281.959.505 1.5.672a5.958 5.958 0 001.656.234c.438 0 .803-.041 1.094-.125.292-.093.505-.224.641-.39.135-.177.203-.386.203-.625a.867.867 0 00-.281-.656c-.188-.178-.542-.329-1.063-.454l-2.281-.515a8.706 8.706 0 01-1.844-.625 3.304 3.304 0 01-1.281-1.094c-.313-.458-.469-1.026-.469-1.703 0-.771.209-1.458.625-2.063.427-.604 1.037-1.078 1.828-1.421.802-.355 1.756-.532 2.86-.532zm9.558 12.5l-3.547-12.312h3.407l2.093 9.719 2.203-9.719h2.907l2.265 9.703 2.047-9.703h3.297l-3.562 12.312h-3.485l-1.453-5.968-.562-3h-.032l-.547 3-1.437 5.968h-3.594zm24.444-2.484h6.172v2.484h-9.391v-12.312h3.219v9.828zm12.997-3.422c0-.437-.125-.781-.375-1.031-.24-.261-.563-.391-.969-.391s-.761.104-1.063.313c-.291.198-.489.557-.593 1.078l-2.688-.625a3.342 3.342 0 011.375-2.141c.75-.541 1.802-.812 3.156-.812.907 0 1.677.135 2.313.406.646.26 1.14.656 1.484 1.187.344.532.516 1.183.516 1.954v3.406c0 .489.219.734.656.734.219 0 .396-.026.531-.078l-.187 1.813c-.375.177-.828.265-1.36.265-.489 0-.921-.078-1.296-.234a2.005 2.005 0 01-.875-.703c-.209-.323-.313-.729-.313-1.219v-.109l.359-.125c0 .531-.161.979-.484 1.343-.312.365-.724.636-1.234.813-.5.166-1.021.25-1.563.25-.635 0-1.193-.099-1.672-.297-.468-.198-.833-.484-1.093-.859-.25-.386-.375-.86-.375-1.422 0-.667.203-1.219.609-1.657.406-.447 1.042-.76 1.906-.937l3.531-.719-.015 1.672-1.797.375c-.375.073-.651.182-.828.328-.177.146-.266.36-.266.641 0 .271.099.479.297.625.198.135.432.203.703.203.219 0 .422-.031.61-.094.197-.062.369-.156.515-.281.146-.135.261-.302.344-.5a1.73 1.73 0 00.141-.719v-2.453zm9.52 6.094a7.346 7.346 0 01-2.609-.453c-.802-.313-1.464-.75-1.984-1.313l1.484-1.765c.312.395.724.729 1.234 1 .521.27 1.099.406 1.735.406.385 0 .703-.057.953-.172.25-.115.375-.287.375-.516a.522.522 0 00-.188-.422c-.125-.104-.375-.197-.75-.281l-1.297-.25c-1.177-.239-2.01-.588-2.5-1.047-.489-.468-.734-1.083-.734-1.843 0-.511.156-1 .469-1.469.312-.469.791-.849 1.437-1.141.646-.291 1.474-.437 2.485-.437.937 0 1.765.14 2.484.422.729.27 1.307.666 1.734 1.187l-1.515 1.719a3.018 3.018 0 00-1.172-.875 3.299 3.299 0 00-1.406-.328c-.302 0-.558.031-.766.093a.99.99 0 00-.453.235.485.485 0 00-.141.359c0 .167.078.313.235.438.156.114.442.213.859.297l1.703.328c.958.177 1.646.494 2.063.953.427.458.64 1.015.64 1.672a2.91 2.91 0 01-.484 1.64c-.323.479-.807.86-1.453 1.141s-1.459.422-2.438.422zm22.301-12.5l-4.359 12.312h-3.766l-4.391-12.312h3.375l2.266 7.437.672 2.438.656-2.391 2.281-7.484h3.266zm4.722 12.5c-1.031 0-1.922-.193-2.672-.578a4.2 4.2 0 01-1.75-1.657c-.406-.729-.609-1.604-.609-2.625 0-1.01.203-1.875.609-2.593a4.194 4.194 0 011.734-1.672c.74-.386 1.589-.578 2.547-.578.98 0 1.813.192 2.5.578a3.861 3.861 0 011.578 1.562c.365.667.547 1.427.547 2.282 0 .229-.01.458-.031.687-.01.219-.026.401-.047.547h-7.39v-1.703h5.984l-1.5.578c0-.74-.135-1.307-.406-1.703-.271-.406-.683-.61-1.235-.61-.406 0-.75.094-1.031.282-.271.187-.479.479-.625.875-.146.396-.219.906-.219 1.531 0 .615.078 1.109.235 1.484.166.375.401.651.703.828.302.167.661.25 1.078.25.479 0 .854-.093 1.125-.281.281-.187.49-.448.625-.781l2.547.828a2.956 2.956 0 01-.906 1.359 4.342 4.342 0 01-1.532.829 6.146 6.146 0 01-1.859.281zm15.286-12.016l.25 2.125a.781.781 0 00-.218-.031 1.613 1.613 0 00-.219-.016c-.552 0-.964.136-1.235.407-.26.26-.39.588-.39.984l-1.125-.406c0-.511.094-1 .281-1.469.188-.479.474-.865.859-1.156.396-.302.896-.453 1.5-.453h.125a.91.91 0 01.172.015zm-3.218 9.75c1.083 0 1.911.229 2.484.688.583.458.875 1.109.875 1.953 0 .771-.214 1.411-.641 1.922-.416.51-1.01.89-1.781 1.14-.76.261-1.661.391-2.703.391-1.688 0-2.906-.214-3.656-.641-.75-.416-1.125-.989-1.125-1.718 0-.521.208-.943.625-1.266.427-.323 1.135-.495 2.125-.516l-.078.297c-.761-.104-1.329-.328-1.704-.672-.364-.354-.546-.828-.546-1.422 0-.593.234-1.078.703-1.453.468-.375 1.099-.583 1.89-.625l1.157.547h-.313c-.479.021-.818.104-1.016.25-.197.136-.296.302-.296.5 0 .209.083.365.25.469.177.104.442.156.796.156h2.954zm-1.75 4.031c.593 0 1.088-.041 1.484-.125.396-.072.693-.182.891-.328.198-.146.296-.312.296-.5a.544.544 0 00-.203-.437c-.135-.104-.385-.156-.75-.156h-3.343a.834.834 0 00-.563.187.592.592 0 00-.219.469c0 .291.209.51.625.656.427.156 1.021.234 1.782.234zm.109-11.468c.948 0 1.755.125 2.422.375.677.25 1.193.609 1.547 1.078.354.458.531 1.031.531 1.719 0 .677-.177 1.25-.531 1.718-.354.469-.87.828-1.547 1.078-.667.24-1.474.36-2.422.36-1.479 0-2.604-.271-3.375-.813-.76-.552-1.141-1.333-1.141-2.343 0-.688.177-1.261.532-1.719.354-.469.864-.828 1.531-1.078.677-.25 1.495-.375 2.453-.375zm0 1.812c-.406 0-.74.12-1 .36-.25.229-.375.562-.375 1 0 .427.125.76.375 1 .26.229.594.343 1 .343.396 0 .724-.114.984-.343.271-.24.407-.573.407-1 0-.438-.136-.771-.407-1-.26-.24-.588-.36-.984-.36zm11.479 1.797c0-.437-.125-.781-.375-1.031-.24-.261-.563-.391-.969-.391s-.76.104-1.063.313c-.291.198-.489.557-.593 1.078l-2.688-.625a3.346 3.346 0 011.375-2.141c.75-.541 1.802-.812 3.156-.812.907 0 1.678.135 2.313.406.646.26 1.141.656 1.484 1.187.344.532.516 1.183.516 1.954v3.406c0 .489.219.734.656.734.219 0 .396-.026.531-.078l-.187 1.813c-.375.177-.828.265-1.359.265-.49 0-.922-.078-1.297-.234a2.005 2.005 0 01-.875-.703c-.209-.323-.313-.729-.313-1.219v-.109l.36-.125c0 .531-.162.979-.485 1.343-.312.365-.724.636-1.234.813-.5.166-1.021.25-1.563.25-.635 0-1.192-.099-1.672-.297-.468-.198-.833-.484-1.093-.859-.25-.386-.375-.86-.375-1.422 0-.667.203-1.219.609-1.657.406-.447 1.042-.76 1.906-.937l3.532-.719-.016 1.672-1.797.375c-.375.073-.651.182-.828.328-.177.146-.266.36-.266.641 0 .271.099.479.297.625.198.135.433.203.703.203.219 0 .422-.031.61-.094.198-.062.37-.156.515-.281.146-.135.261-.302.344-.5a1.73 1.73 0 00.141-.719v-2.453zm9.52 6.094a7.346 7.346 0 01-2.609-.453c-.802-.313-1.463-.75-1.984-1.313l1.484-1.765c.313.395.724.729 1.234 1 .521.27 1.099.406 1.735.406.385 0 .703-.057.953-.172.25-.115.375-.287.375-.516a.522.522 0 00-.188-.422c-.125-.104-.375-.197-.75-.281l-1.296-.25c-1.178-.239-2.011-.588-2.5-1.047-.49-.468-.735-1.083-.735-1.843 0-.511.156-1 .469-1.469.312-.469.792-.849 1.437-1.141.646-.291 1.474-.437 2.485-.437.937 0 1.765.14 2.484.422.729.27 1.307.666 1.735 1.187l-1.516 1.719a3.018 3.018 0 00-1.172-.875 3.296 3.296 0 00-1.406-.328c-.302 0-.557.031-.766.093a.99.99 0 00-.453.235.485.485 0 00-.141.359c0 .167.079.313.235.438.156.114.443.213.859.297l1.703.328c.959.177 1.646.494 2.063.953.427.458.64 1.015.64 1.672a2.91 2.91 0 01-.484 1.64c-.323.479-.807.86-1.453 1.141s-1.458.422-2.438.422z" fill="#595959" fill-rule="nonzero"/><path fill="none" d="M457.588 352.829h264.409v33.575H457.588z"/><path d="M540.26 369.748v9.922h-1.5v-9.922h1.5zm4.109 4.203v1.5h-9.719v-1.5h9.719zm13.931-6.328c1.104 0 2.037.292 2.797.875.76.583 1.333 1.386 1.719 2.406.396 1.021.594 2.198.594 3.532 0 1.479-.198 2.724-.594 3.734-.386 1-.953 1.76-1.703 2.281-.75.521-1.683.782-2.797.782-1.094 0-2.037-.25-2.828-.75-.782-.511-1.365-1.256-1.75-2.235l1.578-.844c.219.698.568 1.261 1.047 1.688.489.427 1.161.641 2.015.641.698 0 1.276-.136 1.735-.407a2.914 2.914 0 001.078-1.187c.271-.511.463-1.125.578-1.844.115-.719.172-1.521.172-2.406v-.172h-.078c-.157.594-.438 1.078-.844 1.453a3.5 3.5 0 01-1.344.781c-.5.157-1 .235-1.5.235-.864 0-1.63-.167-2.297-.5a3.864 3.864 0 01-1.562-1.438c-.365-.614-.547-1.338-.547-2.172 0-.906.177-1.687.531-2.343a3.789 3.789 0 011.563-1.547c.677-.375 1.489-.563 2.437-.563zm.016 1.547c-.927 0-1.641.26-2.141.781-.489.511-.734 1.224-.734 2.141 0 .781.26 1.406.781 1.875.521.458 1.219.687 2.094.687.573 0 1.078-.114 1.515-.343.438-.24.776-.563 1.016-.969s.359-.875.359-1.406c0-.563-.119-1.052-.359-1.469a2.364 2.364 0 00-1.016-.953c-.437-.229-.942-.344-1.515-.344zm15.066 11.859v-10h1.406l.094 1.563c.365-.615.833-1.063 1.406-1.344a4.102 4.102 0 011.797-.422c.708 0 1.375.162 2 .485.625.323 1.104.817 1.438 1.484.208-.458.505-.828.89-1.109a4.093 4.093 0 011.282-.641 4.317 4.317 0 011.312-.219 4.29 4.29 0 011.828.407c.583.26 1.057.671 1.422 1.234.375.562.563 1.281.563 2.156v6.406h-1.594v-6.234c0-.906-.229-1.557-.688-1.953-.448-.406-1.005-.609-1.672-.609-.52 0-1.01.125-1.468.375-.448.25-.813.625-1.094 1.125-.271.489-.406 1.093-.406 1.812v5.484h-1.594v-6.234c0-.906-.229-1.557-.688-1.953-.448-.406-1.005-.609-1.671-.609-.438 0-.891.119-1.36.359-.458.229-.844.599-1.156 1.109-.302.5-.453 1.162-.453 1.985v5.343h-1.594zm23.201-10.203c.948 0 1.781.209 2.5.625.729.417 1.302 1.016 1.718 1.797.417.771.625 1.698.625 2.781 0 1.084-.208 2.016-.625 2.797a4.424 4.424 0 01-1.718 1.782c-.719.416-1.552.625-2.5.625-.938 0-1.771-.209-2.5-.625a4.426 4.426 0 01-1.719-1.782c-.417-.781-.625-1.713-.625-2.797 0-1.083.208-2.01.625-2.781.417-.781.989-1.38 1.719-1.797.729-.416 1.562-.625 2.5-.625zm0 1.391c-.677 0-1.256.151-1.735.453-.479.302-.849.74-1.109 1.313-.261.562-.391 1.244-.391 2.046 0 .792.13 1.474.391 2.047.26.573.63 1.011 1.109 1.313.479.302 1.058.453 1.735.453s1.255-.151 1.734-.453c.479-.302.849-.74 1.109-1.313.261-.573.391-1.255.391-2.047 0-.802-.13-1.484-.391-2.046-.26-.573-.63-1.011-1.109-1.313-.479-.302-1.057-.453-1.734-.453zm7.859 8.812v-10h1.406l.141 2.235-.266-.219c.209-.531.495-.958.86-1.281a3.26 3.26 0 011.25-.719 4.904 4.904 0 011.468-.219c.719 0 1.37.141 1.954.422a3.243 3.243 0 011.421 1.25c.355.552.532 1.261.532 2.125v6.406h-1.61v-5.843c0-1.105-.239-1.87-.718-2.297-.469-.438-1.047-.656-1.735-.656-.479 0-.958.114-1.437.343-.48.219-.881.584-1.203 1.094-.313.51-.469 1.193-.469 2.047v5.312h-1.594zm14.599-12.843v10.078c0 .5.141.87.422 1.109.282.24.641.36 1.078.36.386 0 .719-.068 1-.204.282-.135.537-.317.766-.546l.563 1.343a3.593 3.593 0 01-1.11.672 4.085 4.085 0 01-1.437.235c-.511 0-.985-.089-1.422-.266a2.355 2.355 0 01-1.047-.859c-.261-.396-.396-.917-.406-1.563v-9.922l1.593-.437zm3.641 2.843v1.375h-7.234v-1.375h7.234zm2.38 10v-14.593h1.594v6.093c.354-.604.817-1.036 1.39-1.296a4.33 4.33 0 011.875-.407c.719 0 1.37.141 1.954.422a3.243 3.243 0 011.421 1.25c.355.552.532 1.261.532 2.125v6.406h-1.61v-5.843c0-1.105-.239-1.87-.718-2.297-.469-.438-1.047-.656-1.735-.656-.479 0-.958.114-1.437.343-.48.219-.881.589-1.203 1.11-.313.51-.469 1.192-.469 2.047v5.296h-1.594zm15.974.204a5.874 5.874 0 01-2.688-.625 4.562 4.562 0 01-1.89-1.766l1.359-.969a3.4 3.4 0 001.297 1.438c.562.343 1.245.515 2.047.515.708 0 1.26-.135 1.656-.406.406-.271.609-.63.609-1.078 0-.271-.093-.521-.281-.75-.177-.24-.516-.412-1.016-.516l-2.406-.5c-.969-.208-1.666-.541-2.094-1-.416-.468-.625-1.052-.625-1.75 0-.541.157-1.036.469-1.484.313-.458.755-.823 1.328-1.094.584-.281 1.271-.422 2.063-.422.989 0 1.823.193 2.5.578a3.617 3.617 0 011.515 1.641l-1.343.891c-.219-.594-.584-1.026-1.094-1.297a3.322 3.322 0 00-1.578-.406c-.479 0-.891.067-1.235.203a1.739 1.739 0 00-.781.547 1.242 1.242 0 00-.265.781c0 .302.099.578.296.828.198.239.573.411 1.125.516l2.5.515c.928.188 1.579.495 1.954.922.375.427.562.948.562 1.563a2.83 2.83 0 01-.5 1.656c-.333.469-.802.833-1.406 1.094-.594.25-1.287.375-2.078.375z" fill="#595959" fill-rule="nonzero"/><path d="M805.679 220.841c0-24.405 20.102-44.189 44.898-44.189h44.897v44.189c0 24.405-20.101 44.189-44.897 44.189s-44.898-19.784-44.898-44.189z" fill="#34b255"/><path d="M805.679 220.841c0-24.405 20.102-44.189 44.898-44.189h44.897v44.189c0 24.405-20.101 44.189-44.897 44.189s-44.898-19.784-44.898-44.189z" fill="none" stroke="#34b255"/><path fill="none" d="M670.158 275.813h315.276v64.882H670.158z"/><path d="M777.16 290.421v12.312h-3.218v-12.312h3.218zm7.933 0c1.937 0 3.417.536 4.437 1.609 1.032 1.063 1.547 2.578 1.547 4.547 0 1.969-.515 3.49-1.547 4.563-1.02 1.062-2.5 1.593-4.437 1.593h-5.219v-12.312h5.219zm-.313 9.89c1.042 0 1.803-.312 2.282-.937.479-.635.718-1.568.718-2.797s-.239-2.156-.718-2.781c-.479-.636-1.24-.953-2.282-.953h-1.687v7.468h1.687zm13.19-10.078c1.146 0 2.156.177 3.031.532a6.529 6.529 0 012.297 1.562l-1.562 2.063c-.532-.552-1.105-.969-1.719-1.25-.615-.282-1.313-.422-2.094-.422-.469 0-.844.052-1.125.156-.281.094-.484.229-.609.406a.964.964 0 00-.188.594c0 .26.12.484.36.672.239.177.635.323 1.187.437l2.063.469c1.229.292 2.13.714 2.703 1.266.573.541.859 1.265.859 2.172 0 .875-.224 1.614-.672 2.218-.448.594-1.062 1.047-1.844 1.36-.781.302-1.677.453-2.687.453-.823 0-1.609-.089-2.359-.266a8.139 8.139 0 01-2-.781 6.405 6.405 0 01-1.516-1.156l1.547-2.141c.312.354.693.672 1.14.953.459.281.959.505 1.5.672a5.96 5.96 0 001.657.234c.437 0 .802-.041 1.093-.125.292-.093.506-.223.641-.39.135-.177.203-.386.203-.625a.867.867 0 00-.281-.656c-.188-.177-.542-.329-1.063-.454l-2.281-.515a8.726 8.726 0 01-1.844-.625 3.312 3.312 0 01-1.281-1.094c-.312-.458-.469-1.026-.469-1.703 0-.771.209-1.458.625-2.063.428-.604 1.037-1.078 1.829-1.421.802-.355 1.755-.532 2.859-.532zm23.478 8.969c-.239.865-.62 1.573-1.14 2.125a4.732 4.732 0 01-1.875 1.219c-.719.25-1.511.375-2.375.375-1.25 0-2.328-.25-3.235-.75a5.201 5.201 0 01-2.093-2.172c-.48-.948-.719-2.089-.719-3.422 0-1.333.239-2.469.719-3.406a5.077 5.077 0 012.093-2.172c.907-.51 1.974-.766 3.203-.766.865 0 1.657.125 2.375.375.719.24 1.329.61 1.829 1.11.5.489.854 1.125 1.062 1.906l-2.812 1.141c-.178-.771-.464-1.297-.86-1.579-.385-.291-.875-.437-1.469-.437-.593 0-1.104.146-1.531.437-.427.282-.755.709-.984 1.282-.229.562-.344 1.265-.344 2.109 0 .833.104 1.537.313 2.109.208.573.526 1.006.953 1.297.437.282.974.422 1.609.422.594 0 1.099-.166 1.516-.5.416-.333.698-.838.843-1.515l2.922.812zm6.002-5.984c.979 0 1.839.192 2.578.578.74.375 1.318.927 1.735 1.656.416.729.625 1.599.625 2.609 0 1.021-.209 1.896-.625 2.625a4.184 4.184 0 01-1.735 1.672c-.739.375-1.599.563-2.578.563-.958 0-1.812-.188-2.562-.563a4.184 4.184 0 01-1.735-1.672c-.416-.729-.625-1.604-.625-2.625 0-1.01.209-1.88.625-2.609a4.092 4.092 0 011.735-1.656c.75-.386 1.604-.578 2.562-.578zm0 2.265c-.364 0-.677.089-.937.266-.261.167-.459.443-.594.828-.136.386-.203.88-.203 1.484 0 .615.067 1.115.203 1.5.135.375.333.652.594.829.26.177.573.265.937.265.375 0 .693-.088.953-.265.261-.177.459-.454.594-.829.135-.385.203-.885.203-1.5 0-.604-.068-1.098-.203-1.484-.135-.385-.333-.661-.594-.828-.26-.177-.578-.266-.953-.266zm9.863-6.031v10.109c0 .407.067.698.203.875.146.178.38.266.703.266.187 0 .344-.01.469-.031.125-.031.27-.073.437-.125l-.203 1.906c-.219.136-.51.245-.875.328a4.252 4.252 0 01-1.062.141c-1 0-1.724-.229-2.172-.688-.448-.458-.672-1.213-.672-2.265v-10.516h3.172zm7.413 3.766c.979 0 1.838.192 2.578.578a4.09 4.09 0 011.734 1.656c.417.729.625 1.599.625 2.609 0 1.021-.208 1.896-.625 2.625a4.181 4.181 0 01-1.734 1.672c-.74.375-1.599.563-2.578.563-.959 0-1.813-.188-2.563-.563a4.187 4.187 0 01-1.734-1.672c-.417-.729-.625-1.604-.625-2.625 0-1.01.208-1.88.625-2.609a4.095 4.095 0 011.734-1.656c.75-.386 1.604-.578 2.563-.578zm0 2.265a1.63 1.63 0 00-.938.266c-.26.167-.458.443-.593.828-.136.386-.204.88-.204 1.484 0 .615.068 1.115.204 1.5.135.375.333.652.593.829.261.177.573.265.938.265.375 0 .692-.088.953-.265.26-.177.458-.454.594-.829.135-.385.203-.885.203-1.5 0-.604-.068-1.098-.203-1.484-.136-.385-.334-.661-.594-.828-.261-.177-.578-.266-.953-.266zm15.638-4.578l.25 2.125a.788.788 0 00-.219-.031 1.613 1.613 0 00-.219-.016c-.552 0-.963.136-1.234.407-.26.26-.391.588-.391.984l-1.125-.406c0-.511.094-1 .282-1.469a2.6 2.6 0 01.859-1.156c.396-.302.896-.453 1.5-.453h.125a.91.91 0 01.172.015zm-3.219 9.75c1.084 0 1.912.229 2.485.688.583.458.875 1.109.875 1.953 0 .771-.214 1.411-.641 1.922-.417.51-1.01.89-1.781 1.14-.761.261-1.662.391-2.703.391-1.688 0-2.907-.214-3.657-.641-.75-.416-1.125-.989-1.125-1.718 0-.521.209-.943.625-1.266.427-.323 1.136-.495 2.125-.516l-.078.297c-.76-.104-1.328-.328-1.703-.672-.364-.354-.547-.828-.547-1.422 0-.593.235-1.078.703-1.453.469-.375 1.099-.583 1.891-.625l1.156.547h-.312c-.479.021-.818.104-1.016.25-.198.136-.297.302-.297.5 0 .209.084.365.25.469.177.104.443.156.797.156h2.953zm-1.75 4.031c.594 0 1.089-.041 1.485-.125.395-.072.692-.182.89-.328.198-.145.297-.312.297-.5a.547.547 0 00-.203-.437c-.135-.104-.385-.156-.75-.156h-3.344a.833.833 0 00-.562.187.592.592 0 00-.219.469c0 .292.208.51.625.656.427.156 1.021.234 1.781.234zm.11-11.468c.948 0 1.755.125 2.421.375.678.25 1.193.609 1.547 1.078.355.458.532 1.031.532 1.719 0 .677-.177 1.25-.532 1.718-.354.469-.869.828-1.547 1.078-.666.24-1.473.36-2.421.36-1.48 0-2.605-.271-3.375-.813-.761-.552-1.141-1.333-1.141-2.343 0-.688.177-1.261.531-1.719.354-.469.865-.828 1.531-1.078.678-.25 1.495-.375 2.454-.375zm0 1.812c-.407 0-.74.12-1 .36-.25.229-.375.562-.375 1 0 .427.125.76.375 1 .26.229.593.343 1 .343.395 0 .724-.114.984-.343.271-.24.406-.573.406-1 0-.438-.135-.771-.406-1-.26-.24-.589-.36-.984-.36zm6.275 7.703v-9.328h2.828l.172 3.203-.359-.343c.125-.677.344-1.24.656-1.688a3.143 3.143 0 011.203-1.016 3.686 3.686 0 011.61-.343c.656 0 1.218.125 1.687.375.479.25.854.62 1.125 1.109.281.479.422 1.083.422 1.813v6.218h-3.172v-5.375c0-.645-.125-1.093-.375-1.343s-.568-.375-.953-.375c-.292 0-.573.073-.844.218-.26.146-.463.375-.609.688-.146.302-.219.719-.219 1.25v4.937h-3.172zm16.114.188c-1.031 0-1.922-.193-2.672-.578a4.2 4.2 0 01-1.75-1.657c-.406-.729-.609-1.604-.609-2.625 0-1.01.203-1.875.609-2.593a4.194 4.194 0 011.734-1.672c.74-.386 1.589-.578 2.547-.578.979 0 1.813.192 2.5.578a3.861 3.861 0 011.578 1.562c.365.667.547 1.427.547 2.282 0 .229-.01.458-.031.687-.01.219-.026.401-.047.547h-7.39v-1.703h5.984l-1.5.578c0-.74-.135-1.307-.406-1.703-.271-.406-.683-.61-1.235-.61-.406 0-.75.094-1.031.282-.271.187-.479.479-.625.875-.146.396-.219.906-.219 1.531 0 .615.078 1.109.235 1.484.166.375.401.651.703.828.302.167.661.25 1.078.25.479 0 .854-.093 1.125-.281.281-.187.49-.448.625-.781l2.547.828a2.956 2.956 0 01-.906 1.359 4.351 4.351 0 01-1.532.829 6.146 6.146 0 01-1.859.281zM728.264 325.133v-8.078c.01-.344.015-.698.015-1.062a7.173 7.173 0 01-1.359.984 5.43 5.43 0 01-1.563.563l-.297-2.657a3.674 3.674 0 001.032-.234 7.682 7.682 0 001.078-.5c.364-.198.687-.412.969-.641a3.71 3.71 0 00.671-.687h2.547v12.312h-3.093zm9.54.188a7.346 7.346 0 01-2.609-.453c-.802-.313-1.464-.75-1.984-1.313l1.484-1.765c.312.395.724.729 1.234 1 .521.27 1.099.406 1.735.406.385 0 .703-.057.953-.172.25-.115.375-.287.375-.516a.522.522 0 00-.188-.422c-.125-.104-.375-.197-.75-.281l-1.297-.25c-1.177-.239-2.01-.588-2.5-1.047-.489-.468-.734-1.083-.734-1.843 0-.511.156-1 .469-1.469.312-.469.791-.849 1.437-1.141.646-.291 1.474-.437 2.485-.437.937 0 1.765.14 2.484.422.729.27 1.307.666 1.734 1.187l-1.515 1.719a3.018 3.018 0 00-1.172-.875 3.299 3.299 0 00-1.406-.328c-.302 0-.558.031-.766.093a.99.99 0 00-.453.235.485.485 0 00-.141.359c0 .167.078.313.235.438.156.114.442.213.859.297l1.703.328c.959.177 1.646.494 2.063.953.427.458.64 1.015.64 1.672a2.91 2.91 0 01-.484 1.64c-.323.479-.807.86-1.453 1.141s-1.459.422-2.438.422zm9.913-12.485v8.969c0 .448.109.771.328.969.219.187.521.281.906.281.302 0 .563-.031.781-.094.219-.072.412-.177.579-.312l.343 1.969c-.312.218-.708.39-1.187.515a5.616 5.616 0 01-1.453.188c-.709 0-1.323-.099-1.844-.297a2.41 2.41 0 01-1.188-.953c-.27-.438-.416-1.016-.437-1.735v-8.625l3.172-.875zm2.781 2.969v2.25h-7.547v-2.25h7.547zm11.239-.187c.948 0 1.734.135 2.359.406.625.26 1.115.615 1.469 1.062.354.438.578.912.672 1.422l-2.938.969c-.083-.531-.239-.927-.469-1.187-.229-.271-.562-.407-1-.407-.395 0-.729.089-1 .266-.27.177-.474.463-.609.859-.135.386-.203.886-.203 1.5 0 .604.073 1.099.219 1.485.156.375.369.646.64.812.271.167.594.25.969.25.313 0 .568-.057.766-.172.208-.114.38-.281.515-.5.136-.229.224-.505.266-.828l2.859.906a2.921 2.921 0 01-.703 1.469c-.375.427-.875.766-1.5 1.016s-1.354.375-2.187.375c-1.021 0-1.912-.188-2.672-.563a4.157 4.157 0 01-1.75-1.672c-.406-.729-.61-1.604-.61-2.625 0-1.01.204-1.88.61-2.609a4.09 4.09 0 011.734-1.656c.74-.386 1.594-.578 2.563-.578zm9.281-3.766v10.109c0 .407.068.698.203.875.146.178.38.266.703.266.188 0 .344-.01.469-.031.125-.031.271-.073.437-.125l-.203 1.906c-.219.135-.51.245-.875.328a4.246 4.246 0 01-1.062.141c-1 0-1.724-.229-2.172-.688-.448-.458-.672-1.213-.672-2.265v-10.516h3.172zm4.554 2.875c-.646 0-1.115-.12-1.407-.359-.291-.25-.437-.636-.437-1.157 0-.531.146-.916.437-1.156.292-.25.761-.375 1.407-.375.635 0 1.104.125 1.406.375.302.24.453.625.453 1.156 0 .521-.151.907-.453 1.157-.302.239-.771.359-1.406.359zm1.593 1.078v9.328h-3.172v-9.328h3.172zm2.257 9.328v-9.328h2.829l.171 3.203-.359-.343c.125-.678.344-1.24.656-1.688a3.143 3.143 0 011.203-1.016 3.69 3.69 0 011.61-.343c.656 0 1.219.125 1.687.375.479.25.854.619 1.125 1.109.282.479.422 1.083.422 1.813v6.218h-3.172v-5.375c0-.646-.125-1.093-.375-1.343s-.567-.375-.953-.375c-.291 0-.573.072-.844.218-.26.146-.463.375-.609.688-.146.302-.219.719-.219 1.25v4.937h-3.172zm13.145-10.406c-.645 0-1.114-.12-1.406-.359-.292-.25-.437-.636-.437-1.157 0-.531.145-.916.437-1.156.292-.25.761-.375 1.406-.375.636 0 1.105.125 1.407.375.302.24.453.625.453 1.156 0 .521-.151.907-.453 1.157-.302.239-.771.359-1.407.359zm1.594 1.078v9.328h-3.172v-9.328h3.172zm6.679-.187c.948 0 1.735.135 2.36.406.625.26 1.114.615 1.468 1.062.354.438.578.912.672 1.422l-2.937.969c-.084-.531-.24-.927-.469-1.187-.229-.271-.563-.407-1-.407-.396 0-.729.089-1 .266-.271.177-.474.463-.609.859-.136.386-.204.886-.204 1.5 0 .604.073 1.099.219 1.485.156.375.37.646.641.812.271.167.594.25.969.25.312 0 .567-.057.765-.172.208-.114.38-.281.516-.5.135-.229.224-.505.265-.828l2.86.906a2.93 2.93 0 01-.703 1.469c-.375.427-.875.766-1.5 1.016s-1.355.375-2.188.375c-1.021 0-1.911-.188-2.672-.563a4.162 4.162 0 01-1.75-1.672c-.406-.729-.609-1.604-.609-2.625 0-1.01.203-1.88.609-2.609a4.092 4.092 0 011.735-1.656c.739-.386 1.593-.578 2.562-.578zm11.359 3.609c0-.437-.125-.781-.375-1.031-.239-.261-.562-.391-.968-.391a1.82 1.82 0 00-1.063.313c-.291.198-.489.557-.594 1.078l-2.687-.625a3.342 3.342 0 011.375-2.141c.75-.541 1.802-.812 3.156-.812.906 0 1.677.135 2.313.406.646.26 1.14.656 1.484 1.187.344.532.516 1.183.516 1.954v3.406c0 .489.218.734.656.734.219 0 .396-.026.531-.078l-.187 1.813c-.375.177-.828.265-1.36.265-.489 0-.922-.078-1.297-.234a2.017 2.017 0 01-.875-.703c-.208-.323-.312-.729-.312-1.219v-.109l.359-.125c0 .531-.161.979-.484 1.343-.313.365-.724.636-1.234.813-.5.166-1.021.25-1.563.25-.635 0-1.193-.099-1.672-.297-.469-.198-.833-.484-1.094-.859-.25-.386-.375-.86-.375-1.422 0-.667.204-1.219.61-1.657.406-.447 1.042-.76 1.906-.937l3.531-.719-.015 1.672-1.797.375c-.375.073-.651.182-.828.328-.177.146-.266.36-.266.641 0 .271.099.479.297.625.198.135.432.203.703.203.219 0 .422-.031.609-.094a1.45 1.45 0 00.516-.281c.146-.135.261-.302.344-.5a1.73 1.73 0 00.14-.719v-2.453zm8.724-7.375v10.109c0 .407.068.698.203.875.146.178.381.266.704.266.187 0 .343-.01.468-.031.125-.031.271-.073.438-.125l-.203 1.906c-.219.135-.511.245-.875.328a4.253 4.253 0 01-1.063.141c-1 0-1.724-.229-2.172-.688-.448-.458-.672-1.213-.672-2.265v-10.516h3.172zm13.253 7.375c0-.437-.125-.781-.375-1.031-.239-.261-.562-.391-.968-.391a1.82 1.82 0 00-1.063.313c-.292.198-.489.557-.594 1.078l-2.687-.625a3.342 3.342 0 011.375-2.141c.75-.541 1.802-.812 3.156-.812.906 0 1.677.135 2.313.406.645.26 1.14.656 1.484 1.187.344.532.516 1.183.516 1.954v3.406c0 .489.218.734.656.734.219 0 .396-.026.531-.078l-.187 1.813c-.375.177-.828.265-1.36.265-.489 0-.922-.078-1.297-.234a2.017 2.017 0 01-.875-.703c-.208-.323-.312-.729-.312-1.219v-.109l.359-.125c0 .531-.161.979-.484 1.343-.313.365-.724.636-1.234.813-.5.166-1.021.25-1.563.25-.635 0-1.193-.099-1.672-.297-.469-.198-.833-.484-1.094-.859-.25-.386-.375-.86-.375-1.422 0-.667.204-1.219.61-1.657.406-.447 1.041-.76 1.906-.937l3.531-.719-.015 1.672-1.797.375c-.375.073-.651.182-.828.328-.177.146-.266.36-.266.641 0 .271.099.479.297.625.198.135.432.203.703.203.219 0 .422-.031.609-.094a1.45 1.45 0 00.516-.281 1.43 1.43 0 00.344-.5 1.73 1.73 0 00.14-.719v-2.453zm5.599 9.828v-13.25h2.86l.156 3.375-.375-.39c.094-.625.286-1.172.578-1.641a3.357 3.357 0 011.156-1.109 3.143 3.143 0 011.625-.422c.771 0 1.443.192 2.016.578.573.375 1.016.922 1.328 1.64.323.709.484 1.573.484 2.594s-.161 1.901-.484 2.641c-.323.729-.776 1.286-1.359 1.672-.573.385-1.245.578-2.016.578-.844 0-1.531-.25-2.062-.75-.521-.511-.865-1.151-1.032-1.922l.297-.438v6.844h-3.172zm4.891-6.062c.542 0 .969-.203 1.281-.61.313-.406.469-1.047.469-1.922 0-.864-.156-1.5-.469-1.906-.302-.406-.724-.609-1.265-.609-.355 0-.662.099-.922.297-.261.187-.464.468-.61.843-.135.375-.203.834-.203 1.375 0 .532.063.985.188 1.36.135.375.333.666.593.875.261.198.573.297.938.297zm6.807 6.062v-13.25h2.859l.156 3.375-.375-.39a4.285 4.285 0 01.578-1.641 3.36 3.36 0 011.157-1.109 3.143 3.143 0 011.625-.422c.771 0 1.442.192 2.015.578.573.375 1.016.922 1.328 1.64.323.709.485 1.573.485 2.594s-.162 1.901-.485 2.641c-.322.729-.776 1.286-1.359 1.672-.573.385-1.245.578-2.016.578-.843 0-1.531-.25-2.062-.75-.521-.511-.865-1.151-1.031-1.922l.297-.438v6.844h-3.172zm4.89-6.062c.542 0 .969-.203 1.282-.61.312-.406.468-1.047.468-1.922 0-.864-.156-1.5-.468-1.906-.302-.406-.724-.609-1.266-.609-.354 0-.661.099-.922.297-.26.187-.463.468-.609.843-.136.375-.203.834-.203 1.375 0 .532.062.985.187 1.36.136.375.333.666.594.875.26.198.573.297.937.297zm9.932-11.141v10.109c0 .407.068.698.203.875.146.178.381.266.703.266.188 0 .344-.01.469-.031.125-.031.271-.073.438-.125l-.203 1.906c-.219.135-.511.245-.875.328a4.253 4.253 0 01-1.063.141c-1 0-1.724-.229-2.172-.688-.448-.458-.672-1.213-.672-2.265v-10.516h3.172zm4.554 2.875c-.646 0-1.115-.12-1.406-.359-.292-.25-.438-.636-.438-1.157 0-.531.146-.916.438-1.156.291-.25.76-.375 1.406-.375.635 0 1.104.125 1.406.375.302.24.453.625.453 1.156 0 .521-.151.907-.453 1.157-.302.239-.771.359-1.406.359zm1.594 1.078v9.328h-3.172v-9.328h3.172zm6.679-.187c.948 0 1.734.135 2.359.406.625.26 1.115.615 1.469 1.062.354.438.578.912.672 1.422l-2.938.969c-.083-.531-.239-.927-.469-1.187-.229-.271-.562-.407-1-.407-.395 0-.729.089-1 .266-.27.177-.474.463-.609.859-.135.386-.203.886-.203 1.5 0 .604.073 1.099.219 1.485.156.375.369.646.64.812.271.167.594.25.969.25.313 0 .568-.057.766-.172.208-.114.38-.281.515-.5.136-.229.224-.505.266-.828l2.859.906a2.921 2.921 0 01-.703 1.469c-.375.427-.875.766-1.5 1.016s-1.354.375-2.187.375c-1.021 0-1.912-.188-2.672-.563a4.157 4.157 0 01-1.75-1.672c-.406-.729-.61-1.604-.61-2.625 0-1.01.204-1.88.61-2.609a4.09 4.09 0 011.734-1.656c.74-.386 1.594-.578 2.563-.578zm11.359 3.609c0-.437-.125-.781-.375-1.031-.24-.261-.563-.391-.969-.391s-.76.104-1.062.313c-.292.198-.49.557-.594 1.078l-2.688-.625a3.35 3.35 0 011.375-2.141c.75-.541 1.803-.812 3.157-.812.906 0 1.677.135 2.312.406.646.26 1.141.656 1.485 1.187.343.532.515 1.183.515 1.954v3.406c0 .489.219.734.656.734.219 0 .396-.026.532-.078l-.188 1.813c-.375.177-.828.265-1.359.265-.49 0-.922-.078-1.297-.234a2.01 2.01 0 01-.875-.703c-.208-.323-.313-.729-.313-1.219v-.109l.36-.125c0 .531-.162.979-.485 1.343-.312.365-.723.636-1.234.813-.5.166-1.021.25-1.562.25-.636 0-1.193-.099-1.672-.297-.469-.198-.834-.484-1.094-.859-.25-.386-.375-.86-.375-1.422 0-.667.203-1.219.609-1.657.407-.447 1.042-.76 1.907-.937l3.531-.719-.016 1.672-1.797.375c-.375.073-.651.182-.828.328-.177.146-.265.36-.265.641 0 .271.099.479.296.625.198.135.433.203.704.203.218 0 .421-.031.609-.094a1.45 1.45 0 00.516-.281c.145-.135.26-.302.343-.5a1.73 1.73 0 00.141-.719v-2.453zm9.116-6.391v8.969c0 .448.109.771.328.969.219.187.521.281.906.281.303 0 .563-.031.782-.094a1.82 1.82 0 00.578-.312l.344 1.969c-.313.218-.709.39-1.188.515a5.616 5.616 0 01-1.453.188c-.708 0-1.323-.099-1.844-.297a2.404 2.404 0 01-1.187-.953c-.271-.438-.417-1.016-.438-1.735v-8.625l3.172-.875zm2.781 2.969v2.25h-7.547v-2.25h7.547zm3.059-1.078c-.645 0-1.114-.12-1.406-.359-.292-.25-.437-.636-.437-1.157 0-.531.145-.916.437-1.156.292-.25.761-.375 1.406-.375.636 0 1.105.125 1.407.375.302.24.453.625.453 1.156 0 .521-.151.907-.453 1.157-.302.239-.771.359-1.407.359zm1.594 1.078v9.328h-3.172v-9.328h3.172zm6.695-.187c.979 0 1.838.192 2.578.578a4.09 4.09 0 011.734 1.656c.417.729.625 1.599.625 2.609 0 1.021-.208 1.896-.625 2.625a4.181 4.181 0 01-1.734 1.672c-.74.375-1.599.563-2.578.563-.959 0-1.813-.188-2.563-.563a4.187 4.187 0 01-1.734-1.672c-.417-.729-.625-1.604-.625-2.625 0-1.01.208-1.88.625-2.609a4.095 4.095 0 011.734-1.656c.75-.386 1.604-.578 2.563-.578zm0 2.265a1.63 1.63 0 00-.938.266c-.26.167-.458.443-.594.828-.135.385-.203.88-.203 1.484 0 .615.068 1.115.203 1.5.136.375.334.651.594.829.261.177.573.265.938.265.375 0 .692-.088.953-.265.26-.178.458-.454.594-.829.135-.385.203-.885.203-1.5 0-.604-.068-1.099-.203-1.484-.136-.385-.334-.661-.594-.828-.261-.177-.578-.266-.953-.266zm6.737 7.25v-9.328h2.828l.172 3.203-.359-.343c.125-.678.344-1.24.656-1.688a3.143 3.143 0 011.203-1.016 3.686 3.686 0 011.61-.343c.656 0 1.218.125 1.687.375.479.25.854.619 1.125 1.109.281.479.422 1.083.422 1.813v6.218h-3.172v-5.375c0-.646-.125-1.093-.375-1.343s-.568-.375-.953-.375c-.292 0-.573.072-.844.218-.26.146-.463.375-.609.688-.146.302-.219.719-.219 1.25v4.937h-3.172z" fill="#595959" fill-rule="nonzero"/><path fill="none" d="M695.591 352.829H960v33.575H695.591z"/><path d="M778.352 369.748v9.922h-1.5v-9.922h1.5zm4.11 4.203v1.5h-9.719v-1.5h9.719zm14.446-6.328c.709 0 1.323.099 1.844.297.531.198.99.5 1.375.906.396.407.724.933.985 1.578l-1.469.704c-.209-.615-.537-1.099-.985-1.454-.437-.354-1.052-.531-1.843-.531-.573 0-1.078.146-1.516.438-.437.281-.812.677-1.125 1.187a6.225 6.225 0 00-.687 1.781 9.75 9.75 0 00-.235 2.204v.359h.078c.146-.573.417-1.037.813-1.391a3.805 3.805 0 011.344-.781c.5-.167.989-.25 1.468-.25.896 0 1.677.177 2.344.531a3.7 3.7 0 011.547 1.469c.365.635.547 1.396.547 2.281 0 .865-.188 1.62-.563 2.266a3.843 3.843 0 01-1.578 1.5c-.666.344-1.463.516-2.39.516-1.115 0-2.053-.292-2.813-.875-.76-.594-1.333-1.402-1.719-2.422-.385-1.021-.578-2.188-.578-3.5 0-1.48.224-2.724.672-3.735.458-1.01 1.078-1.776 1.859-2.297a4.637 4.637 0 012.625-.781zm-.078 6.594c-.573 0-1.078.114-1.515.344a2.515 2.515 0 00-1 .953c-.24.406-.36.88-.36 1.422 0 .5.125.963.375 1.39.261.417.604.75 1.032 1a3 3 0 001.468.36c.907 0 1.615-.24 2.125-.719.511-.49.766-1.167.766-2.031 0-.563-.115-1.047-.344-1.453a2.31 2.31 0 00-.984-.938c-.427-.219-.948-.328-1.563-.328zm14.465 6.812v-10h1.406l.094 1.563c.364-.615.833-1.063 1.406-1.344a4.096 4.096 0 011.797-.422c.708 0 1.375.162 2 .485.625.323 1.104.817 1.437 1.484.209-.458.506-.828.891-1.109a4.099 4.099 0 011.281-.641 4.328 4.328 0 011.313-.219c.635 0 1.244.136 1.828.407.583.26 1.057.671 1.422 1.234.375.562.562 1.281.562 2.156v6.406h-1.594v-6.234c0-.906-.229-1.557-.687-1.953-.448-.406-1.005-.609-1.672-.609-.521 0-1.01.125-1.469.375-.448.25-.812.625-1.093 1.125-.271.489-.407 1.093-.407 1.812v5.484h-1.593v-6.234c0-.906-.23-1.557-.688-1.953-.448-.406-1.005-.609-1.672-.609-.437 0-.89.119-1.359.359-.459.229-.844.599-1.156 1.109-.303.5-.454 1.162-.454 1.985v5.343h-1.593zm23.2-10.203c.948 0 1.782.209 2.5.625.729.417 1.302 1.016 1.719 1.797.417.771.625 1.698.625 2.781 0 1.084-.208 2.016-.625 2.797a4.433 4.433 0 01-1.719 1.782c-.718.416-1.552.625-2.5.625-.937 0-1.771-.209-2.5-.625a4.424 4.424 0 01-1.718-1.782c-.417-.781-.625-1.713-.625-2.797 0-1.083.208-2.01.625-2.781.416-.781.989-1.38 1.718-1.797.729-.416 1.563-.625 2.5-.625zm0 1.391c-.677 0-1.255.151-1.734.453-.479.302-.849.74-1.109 1.313-.261.562-.391 1.244-.391 2.046 0 .792.13 1.474.391 2.047.26.573.63 1.011 1.109 1.313.479.302 1.057.453 1.734.453s1.256-.151 1.735-.453c.479-.302.849-.74 1.109-1.313s.391-1.255.391-2.047c0-.802-.131-1.484-.391-2.046-.26-.573-.63-1.011-1.109-1.313-.479-.302-1.058-.453-1.735-.453zm7.86 8.812v-10h1.406l.14 2.235-.265-.219c.208-.531.495-.958.859-1.281a3.267 3.267 0 011.25-.719 4.915 4.915 0 011.469-.219c.719 0 1.37.141 1.953.422a3.24 3.24 0 011.422 1.25c.354.552.531 1.261.531 2.125v6.406h-1.609v-5.843c0-1.105-.24-1.87-.719-2.297-.469-.438-1.047-.656-1.734-.656a3.31 3.31 0 00-1.438.343c-.479.219-.88.584-1.203 1.094-.312.51-.469 1.193-.469 2.047v5.312h-1.593zm14.599-12.843v10.078c0 .5.141.87.422 1.109.281.24.64.36 1.078.36.385 0 .719-.068 1-.204.281-.135.536-.317.766-.546l.562 1.343a3.576 3.576 0 01-1.109.672 4.087 4.087 0 01-1.438.235 3.76 3.76 0 01-1.422-.266 2.366 2.366 0 01-1.047-.859c-.26-.396-.395-.917-.406-1.563v-9.922l1.594-.437zm3.641 2.843v1.375h-7.235v-1.375h7.235zm2.38 10v-14.593h1.593v6.093c.355-.604.818-1.036 1.391-1.296a4.33 4.33 0 011.875-.407c.719 0 1.37.141 1.953.422a3.24 3.24 0 011.422 1.25c.354.552.531 1.261.531 2.125v6.406h-1.609v-5.843c0-1.105-.24-1.87-.719-2.297-.469-.438-1.047-.656-1.734-.656a3.31 3.31 0 00-1.438.343c-.479.219-.88.589-1.203 1.11-.312.51-.469 1.192-.469 2.047v5.296h-1.593zm15.973.204a5.873 5.873 0 01-2.687-.625 4.558 4.558 0 01-1.891-1.766l1.36-.969a3.405 3.405 0 001.296 1.438c.563.343 1.245.515 2.047.515.709 0 1.261-.135 1.657-.406.406-.271.609-.63.609-1.078 0-.271-.094-.521-.281-.75-.177-.24-.516-.412-1.016-.516l-2.406-.5c-.969-.208-1.667-.541-2.094-1-.417-.468-.625-1.052-.625-1.75 0-.541.156-1.036.469-1.484.312-.458.755-.823 1.328-1.094.583-.281 1.271-.422 2.062-.422.99 0 1.823.193 2.5.578a3.614 3.614 0 011.516 1.641l-1.344.891c-.218-.594-.583-1.026-1.093-1.297a3.33 3.33 0 00-1.579-.406c-.479 0-.89.067-1.234.203a1.733 1.733 0 00-.781.547 1.243 1.243 0 00-.266.781c0 .302.099.578.297.828.198.239.573.411 1.125.516l2.5.515c.927.188 1.578.495 1.953.922.375.427.563.948.563 1.563a2.83 2.83 0 01-.5 1.656c-.334.469-.802.833-1.407 1.094-.593.25-1.286.375-2.078.375z" fill="#595959" fill-rule="nonzero"/><path d="M0 220.841h50.52" fill="none"/><path d="M0 220.841h50.52" fill="none" stroke="#34b255" stroke-dasharray="4,3"/><path d="M174.091 220.841H296.61" fill="none"/><path d="M174.091 220.841H296.61" fill="none" stroke="#34b255" stroke-dasharray="4,3"/><path d="M222.532 216.999h17.952v-3.843l7.685 7.685-7.685 7.685v-3.842h-17.952v-7.685z" fill="#eeff41"/><path d="M222.532 216.999h17.952v-3.843l7.685 7.685-7.685 7.685v-3.842h-17.952v-7.685z" fill="none" stroke="#0097a7"/><path d="M420.181 220.841h122.52" fill="none"/><path d="M420.181 220.841h122.52" fill="none" stroke="#34b255" stroke-dasharray="4,3"/><path d="M666.272 220.841h122.519" fill="none"/><path d="M666.272 220.841h122.519" fill="none" stroke="#34b255" stroke-dasharray="4,3"/><path d="M912.362 220.841h50.52" fill="none"/><path d="M912.362 220.841h50.52" fill="none" stroke="#34b255" stroke-dasharray="4,3"/><path d="M467.18 216.999h17.953v-3.843l7.685 7.685-7.685 7.685v-3.842H467.18v-7.685z" fill="#eeff41"/><path d="M467.18 216.999h17.953v-3.843l7.685 7.685-7.685 7.685v-3.842H467.18v-7.685z" fill="none" stroke="#0097a7"/><path d="M714.711 216.999h17.953v-3.843l7.685 7.685-7.685 7.685v-3.842h-17.953v-7.685z" fill="#eeff41"/><path d="M714.711 216.999h17.953v-3.843l7.685 7.685-7.685 7.685v-3.842h-17.953v-7.685z" fill="none" stroke="#0097a7"/></g></g></g></g></svg>