<?xml version="1.0" encoding="UTF-8" standalone="no"?>
<!DOCTYPE svg PUBLIC "-//W3C//DTD SVG 1.1//EN" "http://www.w3.org/Graphics/SVG/1.1/DTD/svg11.dtd">
<svg width="100%" height="100%" viewBox="0 0 3001 526" version="1.1" xmlns="http://www.w3.org/2000/svg" xmlns:xlink="http://www.w3.org/1999/xlink" xml:space="preserve" xmlns:serif="http://www.serif.com/" style="fill-rule:evenodd;clip-rule:evenodd;stroke-linejoin:round;stroke-miterlimit:2;">
    <g id="Ebene_1-2">
        <g>
            <path d="M3001.08,230.065C3001.08,230.065 2979.69,228.17 2974.68,235.24C2972.3,238.59 2962.65,259.43 2960.14,264.1C2953.64,276.22 2936.89,279.81 2920.89,283.23C2903.82,286.89 2899.05,284.01 2891.45,290.1C2885.5,294.88 2882.75,301.21 2878.7,300.4C2875.61,299.79 2873.98,295.46 2872.32,291.08C2871.82,289.75 2870.56,286.19 2869.38,274.89C2868.65,267.91 2868.68,264.95 2866.92,260.17C2864.96,254.83 2863.13,253.66 2862.51,253.31C2861.73,252.86 2859.62,251.87 2851.22,253.8C2847.2,254.72 2845.09,255.2 2841.41,256.74C2831.43,260.91 2823.85,267.1 2820.81,269.5C2809.64,278.29 2806.26,286 2801.67,284.7C2799.82,284.18 2799.34,282.63 2797.26,279.31C2789.92,267.59 2784.49,268.59 2776.65,256.74C2772.85,250.98 2770.27,244.97 2770.27,244.96C2767.35,238.12 2767.69,235.98 2764.88,232.7C2763.56,231.17 2758.6,225.94 2752.12,226.81C2746.79,227.53 2743.68,231.94 2742.8,233.19C2739.65,237.66 2739.56,242.38 2739.37,245.95C2738.91,254.54 2736.54,262.92 2735.44,271.46C2732.93,290.99 2732.53,286.87 2731.03,300.4C2731.03,300.4 2729.96,310 2725.63,325.92C2724.82,328.9 2723.56,333.25 2719.74,335.24C2717.5,336.4 2714.03,336.93 2710.91,335.24C2707.82,333.55 2706.74,330.59 2706.5,329.84C2706.5,329.84 2707.5,323.42 2707.97,319.05C2708.5,314.09 2708.41,311.03 2708.46,306.29C2708.59,292.46 2709.53,292.91 2709.44,283.23C2709.42,281.64 2708.94,275.31 2707.97,262.63C2707.27,253.52 2706.93,249.34 2706.01,243.49C2704.38,233.16 2702.91,230 2701.59,227.79C2698.48,222.57 2694.42,219.59 2692.76,218.47C2684.06,212.62 2674.49,213.16 2667.25,213.57C2665.41,213.67 2660.83,214.01 2654.98,215.53C2649.08,217.06 2642.31,219.67 2631.92,226.32C2610.51,240.02 2597.56,255.6 2594.64,259.19C2591.98,262.46 2589.27,266.11 2583.84,273.42C2576.1,283.85 2572.23,289.07 2570.11,292.55C2563.91,302.74 2563.36,312.92 2562.26,333.27C2561.27,351.53 2560.58,364.26 2564.22,380.86C2565.83,388.2 2568.37,396.68 2568.14,409.32C2567.86,425.41 2563.42,429.14 2561.28,430.41C2560.86,430.66 2556.18,433.36 2552.94,431.4C2547.83,428.31 2552.2,417.25 2550.97,397.54C2550.67,392.73 2549.96,388.45 2548.52,379.88C2545.61,362.52 2543.31,357.58 2540.67,342.6C2539.64,336.74 2538.35,329.27 2537.73,319.54C2537.27,312.43 2535.93,291.43 2538.71,270.48C2539.21,266.68 2540.23,260.01 2537.73,252.32C2536.67,249.09 2536.21,249.39 2533.31,242.51C2529.15,232.62 2529.72,231.06 2526.93,227.79C2524.66,225.12 2521.98,223.72 2516.63,220.93C2512.4,218.71 2507.75,216.28 2503.38,215.53C2495.63,214.19 2488.24,218.07 2480.33,223.87C2459.99,238.76 2445.8,259.26 2441.76,265.3C2442.37,264.31 2442.94,263.12 2442.55,262.63C2441.37,261.17 2433.84,268.73 2425.87,267.53C2420.87,266.78 2419.28,263.12 2413.11,257.23C2412.31,256.46 2402.32,247.07 2389.56,242.02C2376.97,237.04 2372.95,240.75 2362.58,234.66C2355.66,230.6 2356.95,228.65 2349.82,223.87C2336.69,215.05 2318.35,212.31 2314.01,218.47C2313.52,219.17 2313.35,220.58 2313.03,223.38C2311.74,234.72 2313.42,237.54 2312.05,244.96C2310.91,251.11 2309.46,250.78 2309.59,254.78C2309.75,259.42 2311.77,261.75 2314.5,268.02C2315.48,270.26 2318.08,276.23 2318.92,281.27C2320.61,291.54 2314.2,293.45 2312.54,306.78C2310.99,319.27 2315.54,326.32 2310.58,330.82C2309.29,331.99 2306.73,333.55 2304.69,332.78C2303.11,332.19 2302.35,330.39 2301.25,326.41C2299.08,318.53 2298.8,315.12 2298.8,315.12C2298.28,308.69 2296.71,302.38 2295.86,295.99C2291.95,266.81 2289.94,269.41 2290.95,262.63C2291.9,256.25 2294.29,249.82 2291.44,243C2290.84,241.56 2289.51,238.5 2287.03,238.1C2284.29,237.65 2281.89,240.71 2281.63,241.04C2278.72,244.83 2279.84,249.81 2280.16,253.31C2280.85,260.85 2278.13,264.31 2274.27,275.87C2271.81,283.23 2270.02,292.55 2266.42,311.2C2262.62,330.9 2263.4,352.79 2264.95,396.56C2265.63,415.85 2262.64,435.24 2264.46,454.45C2264.46,454.45 2265.42,464.66 2261.02,478C2258.01,487.16 2255.55,487.77 2254.65,487.82C2253.94,487.85 2251.94,487.65 2248.76,481.93C2243.55,472.55 2243.39,463.11 2243.36,461.81C2243.07,446.55 2240.04,451.16 2237.97,426C2235.44,395.33 2237.25,355.9 2241.89,329.84C2243.51,320.79 2243.25,311.5 2244.34,302.37C2245.37,293.74 2246.3,288.14 2242.87,283.23C2240.2,279.41 2237.49,279.72 2233.55,274.4C2232.81,273.4 2232.27,272.53 2228.15,263.12C2224.17,254.01 2223.09,251.21 2219.81,249.38C2219.05,248.96 2216.4,247.48 2213.93,248.4C2211.12,249.44 2210.12,252.97 2209.51,254.78C2206.85,262.67 2203.57,261.55 2192.83,277.35C2188.65,283.5 2189.91,282.55 2184.98,290.1C2180.06,297.64 2175.21,305.08 2167.81,312.67C2159.8,320.88 2152.23,328.64 2144.75,326.9C2140.66,325.94 2138.29,322.54 2135.92,319.05C2128.96,308.77 2131.64,302.95 2127.09,286.18C2123.96,274.65 2119.39,265.2 2114.82,255.76C2112.79,251.56 2111.75,249.43 2110.41,247.42C2106.2,241.13 2099.86,236.76 2087.35,228.28C2082.89,225.26 2081.06,224.18 2078.52,224.36C2075.33,224.58 2072.22,226.71 2067.73,233.19C2061.59,242.04 2058.96,250.25 2056.93,256.74C2052.84,269.84 2050.79,276.39 2049.57,281.27C2042.41,309.92 2045.03,311.18 2039.76,326.41C2032.69,346.85 2024.28,355.23 2022.1,357.31C2018.75,360.52 2013.25,365.67 2004.44,368.6C1991.22,372.99 1979.64,369.37 1974.02,367.62C1968.8,365.99 1960.09,363.15 1952.92,355.35C1949.62,351.75 1950.58,351.39 1944.09,340.63C1934.83,325.27 1928.35,318.54 1926.43,316.59C1921.76,311.86 1919.43,309.5 1915.64,307.76C1910.2,305.27 1904.36,304.9 1895.52,304.33C1887.29,303.8 1884.31,304.29 1882.28,301.88C1880.29,299.53 1881.31,296.92 1881.3,291.57C1881.27,283.19 1878.73,276.96 1875.9,269.99C1873.77,264.75 1871.52,259.21 1866.58,253.8C1862.67,249.51 1859.31,247.75 1851.86,243.49C1827.63,229.66 1828.43,228.46 1818.99,224.85C1816.37,223.85 1808.05,220.78 1796.91,219.94C1785.4,219.08 1782.6,221.48 1781.7,222.4C1778.73,225.4 1778.88,229.87 1779.25,237.61C1779.57,244.26 1780.51,247.85 1782.19,256.74C1784.65,269.72 1785.85,276.28 1784.65,279.8C1783.05,284.46 1781.35,283.3 1771.89,294.52C1764.03,303.84 1763.21,307 1758.15,308.74C1753.83,310.23 1747.5,310.29 1744.42,306.78C1743.11,305.29 1742.73,303.56 1742.45,301.38C1741.45,293.39 1742.89,287.27 1743.43,283.72C1744.41,277.41 1742.57,279.08 1740,257.23C1738.7,246.19 1738.64,241.26 1735.59,240.06C1733.78,239.35 1731.77,240.27 1728.23,242.51C1717.29,249.45 1710.39,257.28 1709.58,258.21C1697.87,271.72 1699.42,273.89 1694.86,275.38C1687.04,277.94 1679.12,272.63 1674.75,277.35C1673.62,278.57 1673.44,279.69 1671.32,281.76C1668.61,284.4 1666.36,285.04 1664.45,286.18C1659.6,289.05 1657.85,294.47 1655.62,301.38C1653.87,306.8 1652.67,310.5 1653.65,315.12C1654.74,320.23 1657.25,320.65 1658.07,325.92C1658.56,329.03 1657.82,329.81 1656.6,337.69C1656.01,341.51 1655.21,346.66 1655.13,351.92C1655.03,358.02 1655.97,359.86 1656.6,366.14C1657.33,373.42 1656.44,374.68 1656.11,386.75C1655.81,397.22 1656.22,405.53 1656.6,413.24C1657.13,424.08 1657.63,425.76 1657.58,433.36C1657.52,441.86 1656.83,448.45 1656.6,450.53C1654.84,466.33 1652.2,468 1652.67,477.02C1653.17,486.44 1656.11,485.84 1657.09,495.67C1658.54,510.25 1653.39,524.99 1649.24,525.1C1648.93,525.11 1648.36,525.04 1645.31,521.67C1641.06,516.95 1638.87,514.52 1637.46,511.36C1634.94,505.69 1637.53,503.45 1636.48,495.67C1635.74,490.19 1634.31,490.16 1630.6,480.46C1628.47,474.92 1625.37,466.66 1624.22,456.42C1623.16,447.03 1625.04,447.5 1623.73,439.74C1622.04,429.75 1618.75,427.88 1616.86,418.15C1615.44,410.84 1616.95,410.14 1616.37,400.49C1615.55,386.94 1612.5,387.15 1609.99,370.56C1607.59,354.74 1609.68,350.03 1605.57,343.09C1604.86,341.88 1602.3,337.8 1600.18,331.8C1599.37,329.52 1598.6,327.32 1598.22,324.44C1597.41,318.48 1599.11,316.19 1599.2,311.69C1599.32,305.49 1596.25,300.89 1592.33,295.01C1590.82,292.75 1586.58,286.81 1579.08,281.76C1575.26,279.19 1572.13,277.88 1567.31,275.87C1562.25,273.77 1557.58,271.82 1552.1,270.97C1546.46,270.09 1544.97,271.15 1532.96,272.44C1518.17,274.03 1517.97,272.69 1508.92,274.4C1502.92,275.54 1496.9,276.68 1490.28,280.29C1486.4,282.4 1485.51,283.62 1473.6,295.01C1444.12,323.2 1459.63,306.14 1450.05,315.61C1446.94,318.7 1443.23,322.54 1440.73,321.5C1438.9,320.74 1438.75,317.8 1438.28,315.12C1437.65,311.57 1433.93,305.51 1426.5,293.53C1420.73,284.23 1417.85,279.58 1415.22,276.36C1414.04,274.92 1410.17,270.97 1402.46,263.12C1393.69,254.18 1392.34,252.9 1389.71,251.34C1383.77,247.83 1378.24,246.98 1374.5,246.44C1366.35,245.26 1362.02,246.64 1348.01,248.4C1332.21,250.38 1334.73,249 1327.89,250.36C1312.26,253.48 1299,260.71 1294.04,263.61C1286.65,267.92 1284.08,270.5 1277.85,271.46C1274.78,271.93 1267.05,272.59 1260.19,268.02C1258.61,266.98 1255,264.57 1253.32,260.17C1252.09,256.95 1253.16,255.96 1252.34,252.81C1250.74,246.72 1244.81,243.24 1241.05,241.04C1236.33,238.27 1232.3,237.24 1227.81,236.13C1209.17,231.54 1199.78,229.24 1196.41,229.27C1193.31,229.29 1191.16,230.05 1173.84,234.17C1155.69,238.49 1146.61,240.66 1140.97,243.49C1136.48,245.75 1116.79,256.27 1109.08,276.36C1108.47,277.94 1107.37,281.99 1105.16,290.1C1101.79,302.44 1100.09,308.74 1099.27,315.61C1098.51,321.96 1099.16,322.78 1099.27,335.73C1099.31,340.97 1099.33,355.84 1097.8,373.01C1096.9,383.02 1095.66,391.69 1093.87,400.49C1091.62,411.51 1088.41,426.79 1083.57,426.98C1081.6,427.06 1079.9,424.62 1079.15,423.55C1076.73,420.07 1077.41,416.78 1077.19,411.77C1077.08,409.26 1075.81,404.05 1073.27,393.62C1071.84,387.78 1071.32,386.25 1070.32,382.33C1065.89,364.87 1064.85,350.01 1064.43,343.58C1064,336.92 1063.95,331.54 1063.94,329.35C1063.92,321.05 1064.36,319.75 1064.43,311.69C1064.53,300.55 1063.7,300.65 1063.94,291.57C1064.15,284.16 1064.87,278.07 1065.42,273.42C1066.98,260.19 1068.14,259.13 1067.38,253.8C1066.88,250.26 1065.77,243.22 1060.02,238.1C1058.95,237.14 1055.03,233.86 1049.23,233.19C1046.33,232.86 1043.64,232.54 1041.87,234.17C1039.15,236.67 1041.81,240.79 1038.92,246.44C1037.95,248.33 1037.71,247.77 1035,251.34C1034.41,252.11 1030.83,256.9 1028.13,263.12C1025.55,269.06 1026.78,269.4 1024.7,274.4C1022.34,280.07 1020.59,280.05 1013.9,289.61C1008.45,297.41 1008.83,298.54 1005.07,302.37C1000.16,307.36 998.6,306.35 995.26,310.22C990.41,315.82 989.62,322.64 988.88,329.84C987.99,338.54 989.63,338.84 989.37,349.46C989.14,358.88 987.86,358.1 986.43,372.52C985.08,386.13 985.73,391.69 982.01,393.62C979.57,394.88 976.19,394.09 974.16,392.64C971.43,390.68 971,387.4 970.24,384.3C968.32,376.44 965.53,374.46 962.88,368.11C960.62,362.7 960.05,357.94 959.94,339.16C959.81,318.87 960.33,301.49 960.43,298.44C960.7,289.45 958.96,280.24 960.92,271.46C961.71,267.9 963.56,261.13 960.43,254.78C959.82,253.54 958.76,251.45 956.5,249.87C951.12,246.1 942.8,247.94 937.86,251.83C933.2,255.51 934.71,258.51 930.5,263.61C925.28,269.92 920.97,267.72 909.4,273.91C899,279.48 900.43,282.36 887.33,289.61C880.08,293.62 881.27,291.84 872.61,296.48C867.04,299.46 864.04,301.54 860.83,300.4C860.29,300.21 858.63,299.53 855.93,295.01C854.08,291.92 852.85,288.87 850.53,280.29C848.47,272.66 847.44,268.84 847.1,266.55C846.52,262.65 846.48,260.08 844.64,256.74C843.88,255.34 841.87,251.68 838.76,251.34C836.27,251.07 834.19,253.04 833.36,253.8C825.83,260.64 821.51,257.96 806.38,268.51C796.47,275.43 794,279.59 788.71,278.82C786.56,278.5 784.5,277.14 780.37,274.4C777.82,272.71 773.5,269.81 769.09,265.08C762.5,258.02 764.48,256.27 758.3,249.38C754.69,245.37 751.43,243.07 745.05,238.59C740.22,235.19 737.39,233.73 734.26,232.7C730.68,231.52 727.32,230.41 724.44,231.72C720.03,233.73 719.08,240.4 718.56,244.47C715.27,270.01 715.12,280.29 715.12,280.29C714.86,299.39 714.54,306.76 712.18,316.59C710.48,323.68 708.07,330.57 701.88,334.75C701.03,335.32 694.66,339.61 690.1,337.2C687.32,335.73 686.26,332.31 685.2,324.44C683.27,310.17 683.72,301.39 683.72,301.38C684.81,280.54 685.36,270.12 685.9,265.52C688.14,246.76 690.12,243.93 687.45,237.7C683.78,229.13 676.77,224.7 670.45,220.69C664.84,217.15 658.34,213.04 650.35,212.97C640.97,212.88 635.88,218.43 622.53,228.42C597.96,246.82 596.93,241.73 585.44,253.15C571.12,267.39 565.03,282.94 562.25,290.25C556.82,304.55 556.9,313.05 554.52,336.62C550.04,381.1 543.39,414.03 542.16,413.9C541.75,413.86 542.04,410.18 541.02,398.23C541.02,398.23 540.87,396.45 540.61,393.81C538.91,376.14 535.98,358.26 535.98,358.26C531.22,329.33 529.25,327.74 526.7,308.8C522.6,278.28 526.27,271.56 518.97,253.15C515.93,245.48 510.73,235.13 500.43,226.88C494.95,222.49 491.52,219.74 486.52,219.15C475.37,217.82 469.72,228.75 446.33,246.97C424.45,264.01 416.19,264.74 410.78,263.97C404.65,263.1 398.87,259.81 395.32,257.79C387.02,253.06 384.05,248.88 378.32,243.88C363,230.51 345.47,226.57 339.68,225.33C334.18,224.16 325.67,222.93 314.95,223.79C300.31,233.42 297.95,234.61 297.95,234.61C292.35,237.41 283.93,240.05 271.67,239.24C257.65,252.35 256.22,254.7 256.22,254.7C249.34,265.98 255.68,281.58 257.76,287.16C277.71,340.64 263.38,431.06 245.4,468C243.19,472.52 236.64,485.98 231.48,485C227.62,484.27 226.08,475.72 225.3,469.54C220.16,428.65 232.76,365.42 225.3,310.34C218.47,259.86 199.09,247.95 194.39,245.42C191.24,243.73 184,240.49 175.84,237.7C163.13,233.35 152.8,231.69 141.84,229.97C130.09,228.13 120.87,227.4 114.02,226.88C99.58,225.77 96.93,226.31 86.19,225.33C82.7,225.01 78.43,224.54 73.49,223.8C68.56,223.07 62.96,222.07 56.83,220.69C56.83,220.69 39.57,225.01 38.28,225.33C36.74,225.71 18.537,230.011 -0.203,229.881L-0.172,134.913C29.078,126.263 65.37,139 90.3,145.74C169.96,167.28 206.51,137.48 354.6,129.72C446.94,124.88 649.57,114.26 841.16,111.7C1155.37,107.5 1133.3,129.09 1451.86,127.72C1721.17,126.56 1750.71,111.08 2012.5,115.71C2225.45,119.47 2192.85,129.48 2398.95,131.72C2748.41,135.52 2923.15,137.42 2959.59,131.72C2972.21,129.75 2986.45,127.345 3001.08,125.165L3001.08,230.065Z" style="fill:rgb(241,241,241);fill-rule:nonzero;"/>
            <path d="M3001.02,97.566L3001.02,166.417C2996.01,173.487 2990.29,181.92 2983.96,185.99C2967.7,196.44 2942.15,192.96 2891.05,185.99C2861.09,181.91 2837.32,175.67 2814.89,189.04C2803.52,195.81 2805.84,200.77 2796.61,205.79C2772.14,219.12 2746.26,193.03 2696.08,178.37C2670.44,170.88 2633.53,160.1 2592.51,170.76C2560.34,179.12 2540.24,196.89 2510.26,190.56C2506.3,189.72 2500.12,188.04 2478.28,182.94C2465.65,180 2449.49,176.32 2444.77,175.33C2413.62,168.81 2401.69,179.3 2338.15,182.94C2316.4,184.19 2303.59,183.78 2278.74,187.51C2259.34,190.43 2260.06,191.75 2246.76,193.61C2234.71,195.29 2190.66,200.95 2146.23,182.94C2122.37,173.27 2106.63,164.67 2106.63,164.67C2095.62,158.65 2087.8,153.51 2074.64,150.96C2062.17,148.54 2053.72,150.15 2050.27,150.96C2043.5,152.55 2038.51,155.19 2035.04,157.05C2035.04,157.05 2025.28,162.29 2018.29,169.24C2008.03,179.43 2010.03,189.02 2001.53,216.45C1991.69,248.22 1983.15,254.22 1980.21,256.06C1978.38,257.2 1967.05,264.29 1955.84,260.62C1940.4,255.58 1942.35,235.75 1926.9,216.45C1913.95,200.29 1896.97,194.7 1875.11,187.51C1863.14,183.58 1855.5,182.5 1798.95,178.37C1744.96,174.44 1732.79,174.02 1722.8,173.81C1714.23,173.62 1687.65,173.16 1655.78,176.85C1639.65,178.72 1629.17,180.84 1617.7,185.99C1608.17,190.27 1605.53,193.25 1594.85,198.18C1579.52,205.25 1566.45,207.66 1559.82,208.84C1530.55,214.03 1526.68,205.15 1489.76,208.84C1482.91,209.52 1474.81,210.65 1459.29,211.88C1446.68,212.89 1440.37,213.39 1434.92,213.41C1424.57,213.44 1417.44,211.89 1378.57,199.7C1349.87,190.7 1346.26,189.2 1335.92,187.51C1324.29,185.62 1313.38,183.93 1299.37,185.99C1289.36,187.46 1287.55,189.41 1271.95,192.08C1262.01,193.79 1254.45,194.42 1246.06,195.13C1240.28,195.61 1227.75,196.64 1214.07,196.65C1201.61,196.66 1192.43,195.82 1162.28,192.08C1139.46,189.25 1133.85,188.38 1115.07,185.99C1077.73,181.23 1077.41,181.79 1052.62,178.37C1020.61,173.96 1004.61,171.76 996.26,169.24C983.94,165.52 973.71,161.15 956.66,160.1C949.89,159.68 941.4,159.21 930.77,161.62C925.61,162.79 923.6,163.8 900.3,173.81C884.98,180.38 886.71,179.58 878.98,182.94C863.37,189.75 855.45,193.1 851.56,195.13C841.52,200.36 840.53,201.92 831.76,205.79C823.08,209.63 818.14,211.81 811.96,211.88C803.21,211.99 798.82,207.8 789.11,202.75C771.79,193.73 769.96,198.86 744.94,189.04C727.21,182.08 728.85,179.78 714.48,175.33C711.12,174.29 697.64,170.27 679.45,169.24C667.23,168.54 665.41,169.91 647.46,169.24C637.36,168.86 637.8,168.42 624.61,167.71C606.1,166.72 596.85,166.23 588.06,167.71C577.32,169.53 579.58,171.19 562.17,175.33C547.37,178.85 544.92,177.85 533.23,181.42C519.46,185.63 520.08,187.86 511.9,189.04C503.91,190.19 498.43,188.76 481.44,184.47C461.4,179.41 451.38,176.88 450.98,176.85C430.97,175.37 428.55,185.26 400.71,187.51L370.25,187.51C339.79,187.51 341.55,187.51 341.31,187.51C323.74,187.35 322.96,187.02 318.46,187.51C304.78,189.02 296.92,193.75 289.52,196.65C259.41,208.47 225.5,194.5 220.18,193.55C228.86,196.48 233.28,197.87 233.17,198.18C232.97,198.73 219.25,194.57 219.46,193.61C219.49,193.49 219.72,193.47 220.15,193.55C210.91,190.43 196.86,185.57 178.33,178.37C165.82,173.52 156.35,169.57 143.3,170.76C135.73,171.45 135.5,173.09 125.02,175.33C116.47,177.16 108.85,177.73 80.85,176.85C62.39,176.27 53.16,175.98 45.82,175.33C20.14,173.04 13.58,167.14 0,166.15L0,98.52C13.65,101.2 15.53,99.23 24.45,102.68C26.39,103.43 30.6,105.61 39.02,109.97C48.02,114.62 50.89,116.27 52.87,117.25C70.97,126.3 93.85,119.88 98.03,118.71C107.36,116.09 118.21,113.05 125.72,103.41C131.53,95.94 129.34,92.22 135.19,85.93C143.09,77.41 154.54,76.2 165.78,75C173.16,74.22 186.32,72.82 200.75,78.64C208.83,81.9 207.37,83.42 231.35,99.77C245.62,109.5 251.13,112.37 258.3,112.15C260.73,112.08 264.26,111.63 275.79,105.6C286.64,99.92 295.26,94.18 310.03,83.74C325.14,73.06 327.8,70.8 334.8,67.71C340.79,65.07 347.81,62.05 356.65,61.89C364.14,61.75 367.64,63.77 384.33,70.63C408.98,80.76 407.4,78.84 428.77,88.11C442.76,94.18 442.71,94.69 447.71,96.13C450.58,96.95 466.85,101.46 484.87,98.31C492.75,96.93 497.14,94.75 529.31,74.27C546.24,63.49 563.51,53.23 580.3,42.22C593.2,33.75 595.98,31.66 602.16,29.83C616.97,25.46 629.12,29.2 648.78,34.93C705.74,51.53 692.83,46.06 715.8,53.87C739.47,61.92 746.18,70.16 759.28,69.12C761.31,68.96 760.24,68.84 775.6,63.32C794.95,56.37 804.81,52.87 813.52,51.78C826.18,50.2 825.18,53.69 840.71,53.25C863.31,52.62 880.64,44.81 889.17,40.87C901.72,35.07 899.62,33.78 915.51,25.57C929.07,18.56 941.6,12.08 957.8,8.92C983.43,3.92 987.08,13.31 1009.7,6.15C1019.07,3.18 1024.09,-0.22 1034.21,0.02C1046.53,0.31 1056.3,5.74 1059.4,7.51C1074.25,15.97 1074.02,24.3 1083.23,25.21C1093.77,26.26 1099.8,15.92 1107.74,19.63C1109.32,20.37 1109.52,21.12 1115.75,27.87C1120.4,32.91 1122.49,35.7 1125.6,38.58C1125.6,38.58 1128.08,40.8 1131.05,42.95C1141.18,50.27 1179.87,42.55 1183.29,41.89C1219.33,34.94 1219.19,64.13 1269.46,64.8C1282.22,64.97 1333.21,63.77 1345.44,64.56C1347.16,64.67 1348.87,64.8 1348.87,64.8C1358.36,65.54 1365.26,66.61 1366.28,66.75C1380.35,68.71 1410.91,52.69 1417.12,49.39C1444.04,35.08 1449.18,35.98 1457.71,35.06C1476.07,33.09 1490.88,41.09 1501.06,58.38C1508.06,70.26 1519.54,83.37 1543.86,77.89C1551.46,76.17 1555.27,75.32 1556.5,75.01C1589.26,66.7 1675.68,27.7 1736.36,22.82C1792.77,18.28 1783.23,46.75 1863.16,50.34C1926.57,53.19 1937.17,35.47 1997.86,42.04C2060.77,48.85 2054.14,70 2106.82,68.96C2153.37,68.04 2201.9,50.73 2233.06,65.66C2237.82,67.94 2250.89,74.85 2268.09,74.8C2275.61,74.78 2282.25,73.47 2290.94,71.76C2303.24,69.33 2305.41,67.7 2321.4,64.14C2339.45,60.12 2343.53,60.67 2345.77,61.09C2353.46,62.55 2364.05,67.19 2364.05,67.19C2371.51,68.44 2382.57,70.16 2396.04,71.76C2448.33,77.96 2474.91,80.81 2496.56,68.71C2507.05,62.84 2509.62,57.78 2516.32,53.36C2517.32,52.7 2520.84,50.85 2525.5,48.91C2567.36,31.49 2597.78,27.94 2597.78,27.94C2597.78,27.94 2657.78,20.94 2718.94,48.91C2728.81,53.42 2734.58,57.82 2734.58,57.83C2745.41,66.19 2747.04,73.83 2767.68,80.89C2788.44,88 2777.68,91.88 2846.88,88.83C2893.33,86.79 2906.09,91.43 2920.56,87.39C2935.72,83.16 2948.32,92.25 2985.07,96.76C2991.8,97.58 2997.15,97.346 3001.02,97.566Z" style="fill:white;fill-rule:nonzero;"/>
        </g>
    </g>
</svg>
