<svg xmlns="http://www.w3.org/2000/svg" width="563" height="96"><g fill="#E6DFCA"><path d="M100.06 22C90 16.21 76.94 12.82 62.98 12.31V.62h-7.32v11.73c-14 .51-27 3.9-37.09 9.69C7 28.7.62 37.77.62 47.59S7 66.49 18.57 73.15c10.07 5.79 23.13 9.17 37.09 9.68v12.41H63V82.83c14-.51 27-3.89 37.08-9.68 11.58-6.66 18-15.74 18-25.56 0-9.82-6.44-18.89-18.02-25.59zM59.32 75.55c-27.85 0-51.38-12.82-51.38-28s23.53-28 51.38-28 51.38 12.82 51.38 28-23.53 28.04-51.38 28.04v-.04zm96.84-.12V43.8h-8v-6.42h8v-5c0-8.1 4.14-13.15 13.85-13.15h10.09v6.42h-10.54c-4.59 0-6 2.15-6 6.88v4.82H179v6.42h-15.46V75.4l-7.38.03zm28.13-32.55c0-3.74 1.74-5.58 5.43-5.5h18.18v6.42h-16.31v31.63h-7.3V42.88zm44.07-6.27c10.84 0 18 6.8 18 18.49v2.76H217c.3 6.57 3.61 12.15 12.34 12.15 5.8 0 9.71-2.75 11-7.95h7.3c-1.2 5.89-6.1 14.14-18.29 14.14-13.62 0-19.42-9.4-19.42-20.33-.01-12.23 7.59-19.26 18.43-19.26zm10.92 16c0-5.43-3.54-9.93-10.92-9.93-7.22 0-11.36 4.5-11.36 9.93h22.28zm38.87-2.99c1.51-6.88 7-13 15.13-13 8.73 0 14.3 5.27 14.3 16v22.77h-7.37v-21.7c0-7.72-2.79-10.7-9.11-10.7-7.68 0-13 5.73-13 16.05v16.35h-7.3V19.26h7.3l.05 30.36z"/><path d="M278.15 49.62c1.51-6.88 7-13 15.13-13 8.73 0 14.3 5.27 14.3 16v22.77h-7.37v-21.7c0-7.72-2.79-10.7-9.11-10.7-7.68 0-13 5.73-13 16.05v16.35h-7.3V19.26h7.3l.05 30.36zm53.36-13.01c10.84 0 18 6.8 18 18.49v2.76h-29.36c.3 6.57 3.61 12.15 12.34 12.15 5.8 0 9.71-2.75 11-7.95h7.3c-1.2 5.89-6.09 14.14-18.29 14.14-13.62 0-19.42-9.4-19.42-20.33-.01-12.23 7.59-19.26 18.43-19.26zm10.92 16c0-5.43-3.54-9.93-10.92-9.93-7.22 0-11.36 4.5-11.36 9.93h22.28zm14.8-15.23h7v38.06h-7zm-2.29-11.16a5.4 5.4 0 015.72-5.43c3.38 0 5.87 2.29 5.87 5.43 0 3.14-2.49 5.5-5.87 5.5a5.41 5.41 0 01-5.72-5.5zm17.23-.46h7.3v11.62h11.89v6.42h-11.89v25.27h13.4v6.35h-15.28c-3.69.22-5.42-1.76-5.42-5.51V25.76zM254.08 37.38h7v38.06h-7zm-2.3-11.16a5.4 5.4 0 015.72-5.43c3.39 0 5.88 2.29 5.88 5.43 0 3.14-2.49 5.5-5.88 5.5a5.42 5.42 0 01-5.72-5.5zM433 36.61c8.06 0 17.68 4.43 18.53 15.44h-7.6c-.93-6.5-5.51-9-10.93-9-8.54 0-12.49 5.88-12.49 13.3 0 7.42 4 13.45 12.49 13.45 5.42 0 10-2.52 10.93-9h7.6c-.85 11-10.47 15.44-18.53 15.44-12.49 0-20-8.49-20-19.87s7.51-19.76 20-19.76zm43.39 0c12.25 0 20.63 8.25 20.63 19.72 0 11.47-8.38 19.87-20.63 19.87-12.25 0-20.71-8.26-20.71-19.87 0-11.61 8.38-19.72 20.71-19.72zm0 33.17c8.37 0 13-5.73 13-13.45 0-7.72-4.66-13.3-13-13.3-8.53 0-13.18 5.73-13.18 13.3s4.65 13.45 13.18 13.45zM399 70.7a5.4 5.4 0 015.72-5.43c3.39 0 5.87 2.29 5.87 5.43 0 3.14-2.48 5.5-5.87 5.5a5.42 5.42 0 01-5.72-5.5zm151.54-34.09c-8.13 0-13 6.13-14.49 13l-.12.43c-.59-9-4.39-13.44-12.38-13.44-7.99 0-13 6.13-14.49 13V37.38h-7.3v38.05h7.3V59.08c0-10.32 3.75-16.05 11.43-16.05 5.21 0 8.15 3.53 8.15 10.7v21.7h7.41V59.08c0-10.32 4-16.05 11.71-16.05 5.21 0 7.87 3.72 7.87 10.7v21.7H563V52.66c0-10.78-3.73-16.05-12.46-16.05z"/></g></svg>