<svg xmlns="http://www.w3.org/2000/svg" viewBox="0 0 767.13 767.13"><defs><style>.cls-1{fill:#292c35;}</style></defs><g id="Layer_2" data-name="Layer 2"><path class="cls-1" d="M525.72,205.3a164.17,164.17,0,0,0-62.39-41.7c-23.85-9.12-51-13.74-80.74-13.74-59.06,0-108.81,16.55-143.87,47.85-34.24,30.57-52.33,73-52.33,122.75,0,102.07,66.1,165.48,172.52,165.48,85.91,0,150.43-46.77,160.86-116.48h6.93l-19,45.41-.07.21c-14.48,83-61.24,121.22-138.92,113.57l-133.13-12-13.95,12.67V603l143.63,12.88q13.32,1.21,25.89,1.22c49.76,0,90.53-14.23,121.42-42.45,44.18-40.34,67.54-109.42,67.54-199.76C580.07,301.18,561.78,244.13,525.72,205.3ZM365.23,613.85,225.09,601.28l18.45-15.34L366.09,597ZM540.81,369.16l21.58-12.22.06,1.81c.22,7.82.26,15.45.16,22.9-2.48,15.27-5.27,30.42-8.55,45.14l-33.38-10.65Zm20.88-25.56-2.35-2.78,2.11-.05C561.53,341.71,561.62,342.65,561.69,343.6Zm-54.11,24.78a66.76,66.76,0,0,1-1.24,7.47l-3.25-1.18a104.21,104.21,0,0,0,6.05-20.12l8,12.91h-9.45Zm-29.94,67.33-1-.63.25-.26Zm87-67c0-3.31-.09-6.64-.18-10l-.09-2.86,2.36-1.33Q565.7,361.6,564.63,368.71Zm-.56-19.18,2.38,2.82-2.18,1.23C564.21,352.22,564.14,350.87,564.07,349.53Zm5.47,3.37-5.67-6.71c0-.54-.08-1.06-.12-1.6l12.9-3.83q1.33,15.47,1.4,32.11l-12.06.19C567,366.46,569.54,352.9,569.54,352.9ZM559.34,310l7.89-.86-7.4,3.49C559.67,311.71,559.5,310.84,559.34,310Zm13-1.07Q575,323,576.43,338.36l-13.13.36q-1.09-12.45-3.12-24.08ZM559,308q-2.15-10.75-5.1-20.8l11.56-6.65a259.14,259.14,0,0,1,6.49,26Zm-61.46,5q0-3.17-.32-6.33l43.09-8c.77,4.11,1.33,7.87,1.74,11.17Zm10,39.52a82.26,82.26,0,0,1-2,9.12l-15.81-5.35c1-2.33,1.88-4.72,2.68-7.17Zm-6.66,41.58L494.88,391c1.68-2.78,3.17-5.51,4.5-8.16L504,385C503.13,387.78,502.08,390.84,500.8,394.09Zm5-8.27,4,1.83h-4.55C505.43,387,505.62,386.42,505.81,385.82Zm-9.64,18.62L489,399.78c1.74-2.36,3.34-4.72,4.81-7l6.23,3.23C498.93,398.68,497.64,401.52,496.17,404.44Zm5.66-7.56,3.56,1.84-4.21-.29ZM490.78,414l-8-6.48c1.72-1.95,3.39-4,5-6.12l7.46,4.84Q493.23,410,490.78,414Zm6.15-6.67,2.8,1.82-3.41-.69ZM485.56,421.6c-.35.47-.71.93-1.07,1.39L476,414.5c1.83-1.76,3.63-3.6,5.38-5.51l8.28,6.68C488.4,417.64,487,419.62,485.56,421.6Zm5.69-4.67,2.46,2-3.13-1C490.81,417.62,491,417.27,491.25,416.93Zm-26.19,4.32-14.33-23c2.43-1.33,4.81-2.71,7.08-4.21l15.44,20.33C470.6,416.81,467.86,419.1,465.06,421.25Zm4.24,22.53-1.21-.82.35-.3Zm-9.47,3.06-8.49-14.24c2.17-1.2,4.3-2.48,6.42-3.82l9.46,12.29Q463.65,444.09,459.83,446.84Zm.3,4.41-1.47-1.15.55-.39Zm-14,4.16-8.2-16.25c3.94-1.67,7.85-3.52,11.69-5.59l8.6,14.42A128.91,128.91,0,0,1,446.1,455.41Zm-.85,2.75,0,0h0Zm-4.46,0q-4.83,2.33-10,4.33l-6.64-18.31c4-1.24,7.92-2.65,11.85-4.25l8.3,16.44C443.17,457,442,457.56,440.79,458.14Zm-11.09,7,0-.06h0Zm-88.07,11.09,1.06.08-1.1,2.71Zm0-2,.31-23.67q7.4.9,15.22,1.38l.5,22.83Q349.46,474.77,341.65,474.23Zm-75.32-22.9L276,429.54c2.84,1.72,5.77,3.36,8.82,4.89l-7.77,23.12Q271.51,454.68,266.33,451.33Zm1.83,3.42-4.93,3.55,2.31-5.2C266.41,453.66,267.27,454.21,268.16,454.75ZM254.94,443l11.44-20q3.83,2.88,7.94,5.48l-9.69,21.74C261.27,448,258.05,445.57,254.94,443Zm2.15,4.16-6.45,3.36L254,444.7C255,445.54,256,446.36,257.09,447.17Zm-1.17-35.93L290,384.43c1.53,1.7,3.16,3.33,4.85,4.89l-30.52,29.55A105.5,105.5,0,0,1,255.92,411.24Zm-54.27-92.16c0,1.43,0,2.95.08,4.59l-9.92-2.94Zm2.16-22.14-9.48-4.83,10.36.54C204.37,294.1,204.07,295.53,203.81,296.94Zm2.9-4.18,16,.84q-.5,3.43-.86,6.72l-16.71.33C205.59,298.1,206.1,295.46,206.71,292.76Zm.79-10.85c-1.78-1.05-5.56-3.33-9.27-5.57l10.44,1.84C208.26,279.43,207.87,280.67,207.5,281.91Zm3.15-3.38,14.43,2.54q-1.22,5.39-2,10.54l-15.89-.83C208.11,286.82,209.27,282.72,210.65,278.53ZM212.4,268l-9.33-6.87,11,3C213.46,265.4,212.92,266.68,212.4,268Zm3.56-3.34,12.65,3.47c-1.18,3.71-2.2,7.4-3.07,11l-14.25-2.51C212.65,272.68,214.2,268.67,216,264.63Zm2.67-10.25-8.47-7.3,10.08,4.26C219.69,252.35,219.15,253.37,218.63,254.38Zm3.46-2.26,10.73,4.52c-1.33,3.19-2.52,6.39-3.58,9.56l-12.45-3.41Q219.19,257.47,222.09,252.12ZM226,241.64l-7.38-6.88,8.8,4.7C226.91,240.19,226.43,240.92,226,241.64Zm3.19-1.23,9.05,4.84c-1.69,3.16-3.22,6.36-4.61,9.56l-10.53-4.45C224.94,247,227,243.7,229.16,240.41Zm5.22-10.64-5.88-6.71,7.11,5.17C235.2,228.74,234.78,229.25,234.38,229.77Zm2.83-.34,7.15,5.47q-2.81,4.24-5.2,8.59l-8.87-4.74Q233.52,234,237.21,229.43Zm16.2-3.41,33.84,30.45q-2.16,2.8-4.07,5.83L245.6,236.67A120.24,120.24,0,0,1,253.41,226Zm9.2-9.93,30.5,33.7q-2.43,2.44-4.62,5.13L254.7,224.49c.74-.86,1.49-1.73,2.26-2.58Q259.69,218.9,262.61,216.09ZM491,198.81l-4.5,5.7a131.38,131.38,0,0,0-11-7.3l3.66-5.81C483.28,193.69,487.22,196.17,491,198.81Zm12.47,9.72-5.63,5.33c-3.12-2.88-6.35-5.6-9.73-8.17l4.53-5.74Q498.32,204,503.51,208.53Zm7.89,23.12-32.76,29-.05.06c-1.57-1.95-3.23-3.86-5-5.72l31-31.58C507,226.1,509.26,228.86,511.4,231.65ZM528.21,233l6.89-3.94-5.49,6C529.14,234.35,528.68,233.66,528.21,233Zm6.5,13.93-8.7,4a144.39,144.39,0,0,0-7.34-12.44l7.79-4.45Q530.84,240.15,534.71,246.92Zm2.84.91,6.89-3.13-5.8,5.17C538.27,249.19,537.92,248.5,537.55,247.83Zm5.4,15.34-9.9,3.13c-1.77-4.49-3.8-9.06-6.13-13.64l8.8-4Q539.62,255.64,543,263.17Zm2.72,1.24,7.91-2.51-6.79,5.19C546.42,266.19,546.05,265.29,545.67,264.41Zm4.23,16.84-11.13,2.21c-1.35-4.89-3-10-5-15.29l10-3.16Q547.13,272.84,549.9,281.25Zm-59,112.32L474.1,380.3c1.66-1.79,3.23-3.63,4.72-5.55L496,385.13C494.46,387.88,492.78,390.71,490.9,393.57Zm-3.64,5.21q-1.62,2.18-3.32,4.24l-16.51-16.27c1.85-1.6,3.61-3.27,5.29-5l17.06,13.48C489,396.42,488.14,397.6,487.26,398.78Zm-29.47-7.18-3.35-.71q2.88-2,5.53-4.28l3.66.68Q460.83,389.54,457.79,391.6Zm-8.5,5.15-2.3-1.12q2.67-1.51,5.17-3.18l3.28.7Q452.47,395,449.29,396.75Zm-7.42,38.45-10.79-28.62c2.95-.95,5.82-2,8.59-3.11l13,26.1C449.1,431.63,445.5,433.5,441.87,435.2Zm-18.24,7-7.54-31.71c4.54-.94,8.89-2.06,13.08-3.34L440.05,436A150.52,150.52,0,0,1,423.63,442.24ZM404,447.16,399.86,413q7.39-.79,14.27-2.12l7.58,31.95A176.19,176.19,0,0,1,404,447.16Zm-27.37,3.28.59-36.2q10.8,0,20.71-1l4.1,34.29A210.49,210.49,0,0,1,376.58,450.44Zm-24.06-.83,4.63-36.21q8.61.81,18,.84l-.61,36.25Q363.14,450.46,352.52,449.61ZM333,447.28l9.4-36q6.13,1.17,12.75,1.87l-4.65,36.27Q341.47,448.67,333,447.28Zm-30.63-7.63,17.37-34.85c2.28.92,4.65,1.76,7.08,2.55l-13.47,35.71C309.6,442,306,440.89,302.4,439.65Zm-13-5.26,21.72-33.64c2.19,1.16,4.48,2.23,6.84,3.25L300.5,439Q294.74,436.88,289.38,434.39Zm-12.28-6.55,26.35-31.72c1.89,1.29,3.87,2.49,5.91,3.64l-21.8,33.76Q282.12,430.88,277.1,427.84Zm-11.2-7.71,30.45-29.47c1.74,1.51,3.57,2.94,5.46,4.3l-26.44,31.83A112.94,112.94,0,0,1,265.9,420.13ZM287,377.49h5.28c1.11,1.59,2.29,3.11,3.53,4.59H290.6C289.33,380.61,288.13,379.07,287,377.49ZM239.14,389l41.18-18.27q1.53,2.79,3.27,5.42l-38.32,22.47A106,106,0,0,1,239.14,389Zm-6.1-12.6,43.45-13.66c.88,2.14,1.82,4.23,2.86,6.23l-41.18,18.28A112.52,112.52,0,0,1,233,376.41ZM227.87,278l44,12.89a123.32,123.32,0,0,0-2,12.44L224.55,295A164.91,164.91,0,0,1,227.87,278Zm4.33-14.25,42.38,17.1c-.85,2.61-1.61,5.3-2.27,8.09l-43.94-12.88Q230,270,232.2,263.75Zm5.41-12.9,40.21,21.51q-1.41,3.19-2.6,6.59l-42.33-17.08C234.28,258.2,235.84,254.51,237.61,250.85Zm6.91-12.5L282.13,264q-1.86,3.15-3.47,6.53l-40.17-21.49Q241.19,243.65,244.52,238.35Zm44.17,19.75,5.95,8c-1.26,1.63-2.43,3.33-3.54,5.09l-6.29-7.44C286,261.78,287.31,259.9,288.69,258.1Zm5.74-6.6,5.67,8.31c-1.47,1.48-2.85,3-4.17,4.65l-5.95-8Q292.09,253.89,294.43,251.5Zm-10.51-51.71,23.36,38.77q-3,1.84-5.73,3.9l-27.44-36.1Q278.82,202.87,283.92,199.79Zm12.6-6.7L315.6,234q-3.44,1.65-6.61,3.51l-23.35-38.75Q290.88,195.73,296.52,193.09Zm26.33-9.41,12.31,43.25c-2.92.76-5.73,1.62-8.44,2.55l-15.88-42.16Q316.66,185.31,322.85,183.68Zm18.87-4,7.9,44.2c-4.36.68-8.53,1.53-12.52,2.52l-12.32-43.27Q332.94,181.12,341.72,179.72Zm19.74-2.28,3.71,44.71c-4.7.34-9.22.84-13.57,1.47l-7.91-44.21Q352.29,178.12,361.46,177.44Zm42.88.27-4.69,44.62q-7.26-.69-15.09-.77V176.74Q394.75,176.83,404.34,177.71Zm20.78,2.95-9,44.13q-6.93-1.44-14.48-2.25l4.69-44.64Q416,178.88,425.12,180.66Zm68.53,32.1-28.27,34.6q-2.64-2.18-5.5-4.22l24.65-37.62Q489.27,208.94,493.65,212.76ZM477.3,262.34c-2.17,2.76-4.82,6.1-6.07,7.59-1.39-1.75-2.88-3.46-4.44-5.13l5.53-8.2C474.08,258.46,475.74,260.38,477.3,262.34Zm47.87-8.74L487.93,275q-1.49-2.85-3.2-5.62L520,244.29C521.87,247.38,523.59,250.5,525.17,253.6Zm9.4,22.83-40.33,14.46q-.93-3.24-2.13-6.44l39-17.71C532.38,270,533.54,273.26,534.57,276.43Zm-44.89,7.28-6.61,6.6q-1.17-2.94-2.58-5.82l6.72-6.38Q488.56,280.89,489.68,283.71Zm.78,2.05c.73,2,1.39,4,2,6.09l-6.95,5.5q-.72-2.5-1.62-5ZM493,294q.74,2.91,1.26,5.85l-7.09,4.54q-.48-2.46-1.11-4.9Zm-5.45,12.52,7-4.57c.17,1.14.32,2.27.44,3.41L488,309.36C487.84,308.39,487.69,307.43,487.54,306.47Zm7.23-13.64,40.41-14.5c1,3.3,1.94,6.52,2.72,9.61l-41.77,11Q495.56,295.89,494.77,292.83Zm-3.38-10.25q-1.17-2.91-2.56-5.76l37.23-21.42c1.56,3.18,3,6.35,4.27,9.48Zm-5.1-6.32-6.75,6.38q-1.28-2.43-2.73-4.8l6.41-7C484.32,272.61,485.34,274.42,486.29,276.26Zm-10.59-.16c-1-1.55-2.09-3.07-3.22-4.57,1.21-1.39,3.67-4.49,6.08-7.56,1.26,1.67,2.45,3.38,3.57,5.11Zm-10.33-12.77q-2.21-2.22-4.62-4.32l5-8.68q2.7,2.34,5.14,4.81ZM464.23,249l-5,8.66q-2.52-2.08-5.25-4l4.87-8.76Q461.64,246.89,464.23,249Zm-6-7c-2.08-1.41-4.24-2.77-6.49-4.06l21.05-40q5.22,3,10.1,6.41Zm-1.06,1.73-4.87,8.77c-1.94-1.32-4-2.57-6.06-3.77l4.57-9Q454.14,241.67,457.18,243.74Zm-12.68,4q-3.27-1.78-6.79-3.37l3.93-9.33q3.86,1.75,7.44,3.72Zm-8.63-4.17c-2.47-1.06-5-2.05-7.71-3l3.16-9.65q4.4,1.5,8.49,3.26Zm-9.6-3.58q-5.1-1.63-10.62-2.88l2-9.95c4.09.9,8,2,11.75,3.18Zm-12.58-3.31q-6.37-1.32-13.32-2.08l1.06-10.09q7.45.81,14.29,2.22ZM308.26,252.76l-5.49-8.56c1.79-1.34,3.67-2.61,5.61-3.82l5.27,8.75Q310.84,250.84,308.26,252.76Zm7.11-4.65-5.29-8.79c2-1.21,4.2-2.32,6.41-3.39l4.35,9.31C319,246.14,317.13,247.09,315.37,248.11Zm7.27-3.75-4.34-9.3c2.33-1.07,4.76-2,7.27-3l3.62,9.62C326.94,242.54,324.74,243.41,322.64,244.36Zm8.43-3.32-3.62-9.62q4-1.38,8.27-2.5l2.81,9.86C336,239.47,333.47,240.21,331.07,241Zm9.39-2.77-2.8-9.86q5.89-1.47,12.31-2.5l1.8,10.05C347.84,236.59,344.08,237.37,340.46,238.27Zm13.29-2.61-1.8-10q6.44-.94,13.39-1.45l.84,10.13Q359.73,234.78,353.75,235.66Zm14.42-1.51L367.33,224q7.34-.48,15.23-.49v10.14Q375.09,233.7,368.17,234.15Zm16.39-10.59q7.72.08,14.88.76l-1.06,10.1q-6.64-.64-13.82-.72Zm-2-2q-8,0-15.4.48l-3.71-44.71q9-.59,18.51-.6h.6ZM309,188l15.88,42.17q-3.84,1.4-7.42,3l-19.07-40.9Q303.49,190,309,188Zm-7.76,57.46,5.47,8.53q-2.69,2.1-5.11,4.43l-5.68-8.33Q298.4,247.63,301.19,245.43ZM290,272.94c-1.07,1.8-2,3.68-3,5.6l-6.62-6.75c1-2.17,2.11-4.27,3.29-6.28Zm-11.37,89.72,5.91.46q1.19,2.94,2.58,5.71l-5.75-.33C280.37,366.62,279.47,364.66,278.62,362.66Zm-.86-2.07c-.84-2.15-1.6-4.38-2.28-6.66l6.35,1.27q.85,3,1.91,5.85Zm-2.92-8.82c-.6-2.19-1.12-4.43-1.58-6.73l6.62,2c.4,2.06.84,4.08,1.34,6Zm-2-8.94q-.68-3.7-1.09-7.59l6.75,2.9.07-.17c.24,2.32.52,4.61.89,6.82Zm-50-25.4L269,320.31v.15c0,4.21.19,8.28.53,12.22l-46.1,1.63C223,330.19,222.72,324.39,222.82,317.43ZM224.28,297l45.37,8.31q-.6,6.24-.68,13l-46.11-2.88A181.83,181.83,0,0,1,224.28,297Zm53.62,28.42q0,5.38.46,10.46L271.52,333c-.34-3.81-.54-7.74-.56-11.8ZM271,318.83q.06-6.52.62-12.59l7,4.45q-.58,6-.66,12.41Zm7.82-10.38-7-4.44a121.33,121.33,0,0,1,1.89-12l6.92,5.46A110.64,110.64,0,0,0,278.8,308.45Zm2.34-13.15-6.92-5.46c.62-2.64,1.3-5.21,2.1-7.69l6.65,6.56C282.28,290.84,281.68,293,281.14,295.3Zm2.56-8.68L277,280.06c.76-2.17,1.57-4.29,2.47-6.34l6.6,6.74C285.22,282.44,284.44,284.51,283.7,286.62Zm-62.31,48-16.67,4.31c-.79-7.72-1.05-14.55-1.07-20.1l17.17-1.36C220.72,324.55,221,330.44,221.39,334.61Zm48.29.06c.29,2.75.64,5.44,1.1,8.05l-45.77,5c-.78-4.74-1.17-8.59-1.43-11.15a2.11,2.11,0,0,0,0-.25Zm-44.33,15,45.8-5c.48,2.45,1,4.86,1.63,7.18l-44.73,9.86C226.86,357.37,226,353.3,225.35,349.69Zm3.24,14,44.76-9.87c.71,2.44,1.48,4.82,2.37,7.11l-43.43,13.65C230.82,370.8,229.6,367.15,228.59,363.66Zm53.93,6.91,5.67.33c.86,1.57,1.77,3.11,2.74,4.59h-5.39C284.47,373.91,283.47,372.26,282.52,370.57Zm15,13.51q1.65,1.8,3.42,3.48l-4.3.69c-1.47-1.33-2.87-2.73-4.22-4.17Zm138.23,17,2,1c-2.53,1-5.15,1.89-7.83,2.74l-1.53-1C430.92,403,433.37,402.08,435.75,401.1Zm-9.8,3.53,1.52,1q-5.79,1.71-12,3l-.41-1.11C418.8,406.68,422.45,405.72,426,404.63Zm-12.9,3.3.4,1.06c-4.47.85-9.09,1.53-13.89,2l-.17-.93Q406.47,409.28,413.05,407.93Zm-15.66,2.38.18.94q-9.65.94-20.17,1l.17-.9A196.08,196.08,0,0,0,397.39,410.31Zm-22,1.94q-9.24,0-17.71-.81l.35-1q8.36.85,17.54.91Zm-19.75-1c-4.14-.43-8.13-1-12-1.71l.9-1.08c3.66.73,7.47,1.31,11.42,1.77Zm-14.22-2.13c-3.81-.77-7.47-1.66-11-2.7l1.65-1.15Q337,406.8,342.32,408ZM328,405.63q-3.33-1.06-6.47-2.29l2-1.22c2,.83,4,1.62,6.1,2.34Zm-8.77-3.24c-2.15-.92-4.24-1.89-6.25-2.93l2.57-1.24c1.86,1,3.78,2,5.76,2.91Zm-8.42-4.1q-3-1.65-5.74-3.49l3.59-.88c1.54,1.08,3.14,2.12,4.79,3.1Zm-7.23-5.18-.5.31q-2.31-1.65-4.47-3.47l4.17-.66c1.21,1.07,2.48,2.09,3.79,3.08ZM328.75,408c3.74,1.15,7.63,2.14,11.7,3L331,447q-8.16-1.41-15.72-3.39Zm111.44-6.89-2-1q3.45-1.53,6.69-3.26l2.26,1.1C444.88,399,442.56,400.09,440.19,401.08Zm21.7-16.15c1.51-1.36,3-2.76,4.35-4.22l4.24.47c-1.53,1.53-3.14,3-4.82,4.45ZM472,374l4.69.33c-1.39,1.75-2.85,3.43-4.39,5.07l-4.33-.48C469.33,377.3,470.68,375.66,472,374Zm6.16-1.57-4.77-.34c1.15-1.64,2.24-3.34,3.27-5.08l5.58-.6Q480.29,369.48,478.11,372.39Zm5.36-8.17-5.64.61c1.05-1.91,2-3.87,2.91-5.88l5.89-.85Q485.16,361.24,483.47,364.22Zm4.12-8.28-5.93.85q1.09-2.66,2-5.44l6.42-1.93C489.34,351.65,488.51,353.82,487.59,355.94Zm-29.33,29.62c-19,15.78-46.41,23.79-81.52,23.79-32.06,0-56.56-7.31-72.8-21.71-16-14.15-24.05-35.27-24.05-62.77,0-60,33.61-89.19,102.75-89.19,71.4,0,103.93,43.18,103.93,83.3C486.57,347.54,477,369.94,458.26,385.56Zm30.3-66,6.93-3.81q-.08,6.12-.69,11.9l-6.8,2.95C488.35,327,488.54,323.36,488.56,319.57Zm0-2.27c0-1.92-.15-3.85-.34-5.77l7-4q.24,3,.26,6ZM496.47,301l41.91-11.08q.84,3.53,1.49,6.81l-42.9,8C496.83,303.43,496.66,302.19,496.47,301ZM519,242.58l-35.31,25.14q-1.77-2.75-3.8-5.4l.19-.24,32.57-28.83C514.89,236.32,517,239.44,519,242.58Zm-46.76,11q-2.52-2.53-5.29-4.92l28.25-34.56q2.85,2.55,5.55,5.29c.84.85,1.66,1.71,2.47,2.57ZM450,237c-2.44-1.34-5-2.6-7.59-3.78L460,191.48q5.7,2.52,11.06,5.48Zm-9.42-4.59c-2.77-1.19-5.66-2.3-8.65-3.32l14.05-43c4.19,1.38,8.24,2.92,12.18,4.6Zm-10.54-3.95q-5.73-1.84-12-3.23l9-44.16a173.37,173.37,0,0,1,17,4.43Zm-15.16-51.53.67-5.62q8.18,1.08,15.9,2.69l-1.28,5.69Q422.76,178,414.89,176.91Zm-2-.26q-4.73-.61-9.59-1l.3-5.58c3.37.28,6.69.6,10,1Zm-11.59-1.2q-8.16-.64-16.76-.71v-5.53c5.82,0,11.52.26,17.06.66Zm-18.76-.73H382q-12.48,0-24,1l-.44-5.47q11.88-1.08,24.48-1.09h.6Zm-26.64,1.18Q344.57,177,334.11,179l-1-5.25a226.25,226.25,0,0,1,22.38-3.33Zm-23.77,3.53a180.64,180.64,0,0,0-19.77,5.25l-1.58-5.06a195.46,195.46,0,0,1,20.35-5.42Zm-21.67,5.89q-6.71,2.31-13,5.11l-2.08-5q6.54-2.83,13.45-5.19Zm-14.77,5.93Q290,193.94,284.63,197l-2.78-4.94q5.26-2.9,10.81-5.44l1-.42Zm-12.8,6.81q-5.21,3.13-10,6.69l-3.64-4.93q5.24-3.57,10.82-6.74ZM271.32,206q-4.49,3.43-8.6,7.27l-4.56-5.05q4.57-3.8,9.48-7.23Zm1.2,1.6L300,243.67c-1.9,1.5-3.72,3.07-5.44,4.72l-30.46-33.67Q268.11,211,272.52,207.57Zm-50.85,94.76c-.45,4.66-.7,9.07-.8,13.12l-17.21,1.37a106.31,106.31,0,0,1,1.2-14.16Zm-19.42,5-9.62-4.43,10.21-.2C202.6,304.28,202.41,305.83,202.25,307.33Zm1.2,37.64-9.79-1.72,9.35-1.89C203.14,342.54,203.29,343.75,203.45,345Zm18.13-8.36c0,.05,0,.1,0,.15a163,163,0,0,0,2.48,16.9L207.75,359c-1.29-6.33-2.19-12.4-2.82-18ZM207.2,365.45l-10.1-.82,9.21-3.08C206.59,362.84,206.89,364.14,207.2,365.45Zm1-4.51,16.33-5.31c.71,3.24,1.6,6.72,2.71,10.37l-16,7.17C210,369,209,364.94,208.16,360.94Zm3,18.6H201.3l8.71-3.66Q210.57,377.69,211.15,379.54Zm.63-4.43,16-7.18c.95,2.95,2,6,3.33,9.11l-15.59,9.23C214.13,382.53,212.88,378.8,211.78,375.11Zm4.36,17.83-9.88.61,8.32-4.44C215.08,390.38,215.6,391.66,216.14,392.94Zm.13-4.78,15.64-9.26c1.33,3.08,2.82,6.2,4.51,9.34l-15.56,10.53C219.17,395.25,217.65,391.7,216.27,388.16Zm6,17.65-9.57,1.66,7.45-5.74Q221.19,403.77,222.29,405.81Zm-.53-5.23L237.39,390q2,3.61,4.45,7.22l-14.29,13.92C225.44,407.64,223.52,404.12,221.76,400.58Zm7.58,16.93-8.62,2.06,6.44-5.41C227.87,415.29,228.6,416.4,229.34,417.51Zm-.71-4.66,14.36-14q2.52,3.62,5.46,7.14l-13.78,15.65Q231.51,417.42,228.63,412.85Zm21.49-7.94c-1.29-1.54-2.5-3.09-3.67-4.65l38.28-22.45q1.88,2.65,4,5.11L254.51,409.8C253,408.21,251.53,406.59,250.12,404.91Zm28.19,55.4c.94.46,1.89.93,2.85,1.38l-4.39,3.78Zm.59-1.85,7.78-23.15q5.16,2.49,10.69,4.62L291,463.72Q284.73,461.35,278.9,458.46Zm13.53,7.86c.89.33,1.77.65,2.68,1l-3.61,3.87Zm.43-1.89,6.39-23.78q5.14,1.89,10.6,3.48l-4,24.37Q299.14,466.72,292.86,464.43ZM307.52,471c.8.2,1.6.41,2.41.6l-2.83,3.89Zm.25-2,4-24.3q8.54,2.38,17.84,4.05l-1.73,24.1A179.19,179.19,0,0,1,307.77,469Zm22,6.09c.56.07,1.11.15,1.68.21l-1.88,3.44Zm.13-2,1.72-24c2.74.46,5.52.88,8.36,1.25l-.31,23.76C336.34,473.82,333.08,473.5,329.88,473.1Zm29.8,1.66-.5-22.7q7.56.42,15.5.43l2.56,21.56Q368.71,474.7,359.68,474.76Zm.58,2-.5,1.7,0-1.69Zm16.42-24.31c4.74-.26,9.69-.69,14.8-1.32l3.91,20.81q-7.84,1.26-16.15,2Zm16.79-1.57c4.43-.59,9-1.34,13.56-2.29l5.42,19.82q-7.31,1.88-15.08,3.21Zm15.52-2.7c4.4-.95,8.84-2.08,13.29-3.42L429,463.18q-7,2.65-14.58,4.7Zm45.36-19.63-12.83-25.85c2.55-1.09,5.05-2.24,7.45-3.49l14.48,23.25C460.48,424.64,457.45,426.66,454.35,428.54Zm5.1-35.65c2.23-1.54,4.39-3.14,6.45-4.84l16.75,16.5a111.92,111.92,0,0,1-7.93,8.43Zm37.43-9.53L480,373.15c1.58-2.14,3.06-4.37,4.43-6.66L501,374.55C499.82,377.35,498.47,380.3,496.88,383.36Zm4.86-10.66-16.28-7.95q1.83-3.22,3.37-6.64l16.07,5.44C504.09,366.27,503.06,369.35,501.74,372.7Zm-10.89-25.59-6.44,1.94q.91-3,1.63-6.22l6.76-3.06C492.24,342.28,491.59,344.72,490.85,347.11Zm2.47-9.76-6.77,3.06q.74-3.68,1.2-7.52l6.77-2.93C494.2,332.47,493.8,334.94,493.32,337.35Zm46-52,11.21-2.22a232.45,232.45,0,0,1,6.45,25l-13,1.43A183.48,183.48,0,0,0,539.3,285.39Zm13.19-2.62,7.69-1.53-6.92,4C553,284.4,552.75,283.59,552.49,282.77Zm-.61-1.92c-1.33-4-2.76-8-4.29-11.85l10.76-8.22q3.49,8.46,6.37,17.52Zm-7-18.29q-2.48-5.6-5.26-10.88l10.18-9.06q4.11,7.69,7.64,16Zm-8.33-16.47q-2.76-4.83-5.78-9.36l9.33-10.15q4.56,6.73,8.58,14ZM527,231.36q-3.32-4.56-6.9-8.8l9.21-10.14q5,5.87,9.42,12.24ZM518.81,221c-.26-.31-.52-.62-.79-.92l4.51-3.17Zm6.46,11.34-7.71,4.41q-3.67-5.42-8-10.68l6.85-4.82Q521.05,226.55,525.27,232.36Zm-17-7.8q-2.88-3.34-6.07-6.58c-.92-.94-1.86-1.85-2.8-2.76l5.68-5.37q5.22,4.69,10,9.93Zm-1.72-16.1,2.22-2.1-1.83,2.44ZM505,207.14q-4.58-4-9.48-7.63l7.26-12.12q6.42,4.79,12.33,10.18Zm-12.69-9.92c-3.52-2.44-7.14-4.74-10.9-6.88L488,177.6q6.76,4,13.07,8.53Zm-13.8-8.48c-4.11-2.22-8.34-4.29-12.72-6.17l6.49-13.08q7.17,3.24,13.89,7.07Zm-1.08,1.71-3.62,5.76q-5.7-3.26-11.79-6l2.87-5.8Q471.35,187.16,477.41,190.45Zm-17.24-1.09q-6-2.62-12.38-4.78l2-5.81q6.83,2.17,13.25,4.85ZM445.89,184q-6.67-2.17-13.76-3.83l1.28-5.72q7.43,1.64,14.45,3.79Zm-12-11.51,3.29-14.68q8.3,1.92,16.17,4.44l-4.8,14.08Q441.39,174.11,433.85,172.44Zm-2-.42q-7.83-1.64-16.1-2.72l1.81-15.11q9,1.23,17.59,3.12Zm-18.08-3c-3.31-.41-6.68-.74-10.1-1l.82-15.28c3.75.3,7.44.7,11.09,1.17Zm-12.09-1.18c-5.58-.4-11.31-.61-17.17-.66V151.88q9.17.06,18,.72Zm-19.17-.69H382q-12.68,0-24.64,1.1L356.1,153q12.88-1.17,26.46-1.17Zm-27.23,1.29q-11.65,1.16-22.6,3.35l-2.89-15.07q11.78-2.31,24.27-3.52Zm-24.56,3.76a197.87,197.87,0,0,0-20.57,5.49l-4.64-14.82a223.45,223.45,0,0,1,22.32-5.75Zm-22.47,6.12q-7,2.37-13.61,5.24l-6.05-14.54q7.29-3,15-5.54Zm-15.45,6c-.33.16-.68.3-1,.45q-5.64,2.58-11,5.52l-7.87-14q6.69-3.54,13.81-6.58Zm-13.73,7q-5.69,3.22-11,6.87l-9.68-13.13q6.19-4.11,12.83-7.72Zm-12.67,8q-5,3.5-9.64,7.36l-11.12-12.29q5.33-4.33,11.06-8.23Zm-9.83,10.12,4.65,5.14q-3,2.88-5.79,5.95-1.15,1.29-2.25,2.58l-5.66-5.29Q251.92,213.47,256.62,209.47Zm-4.68,15.2c-2.32,2.81-4.46,5.67-6.45,8.57l-7-5.36q3.69-4.47,7.7-8.6Zm-7.63-6.34-2.48-3.11,2.88,2.69Zm-1.39,1.46q-3.12,3.35-6,6.89l-13.62-9.91q4.31-5.28,9.11-10.19Zm-9.78,11.6c-1.61,2.12-3.15,4.25-4.62,6.41l-14.82-7.92q3.8-5.87,8.15-11.36Zm-8.25,12q-1.94,3.09-3.67,6.21L206,243.17c2-3.89,4.13-7.68,6.45-11.37Zm-7.19,12.85q-1.51,3-2.86,6L199.42,258q2.51-6.54,5.55-12.77Zm-6.06,13.67c-.84,2.14-1.61,4.27-2.33,6.37l-15-2.63q1.83-6.83,4.22-13.36Zm-4.71,14q-1,3.47-1.79,6.83l-14.31-.75q1.18-7.12,2.91-14C201.9,280.91,205.36,283,206.93,283.85ZM203.43,299c-.1.57-.2,1.14-.29,1.7l-13.77.27q.45-4.33,1.08-8.58ZM202,309.44c-.24,2.68-.36,5.23-.39,7.61l-13.25,2.23q0-8,.73-15.8Zm-.24,16.34c.16,4,.47,8.62,1,13.59l-13.34,2.69q-1-9.85-1-20.26Zm1.93,21.27c.57,4,1.28,8.2,2.17,12.53l-13,4.35a192.34,192.34,0,0,1-3.17-19.35Zm4,20.45c.54,2.13,1.11,4.28,1.74,6.45L197,379.19q-2-6.27-3.53-12.85Zm4.11,14q1,2.83,2,5.69l-11.61,6.2q-2.48-5.79-4.52-11.89ZM217,394.89c.73,1.67,1.51,3.34,2.31,5l-10.05,7.74q-3.24-5.76-6-11.9Zm6.33,12.77c.9,1.61,1.83,3.2,2.8,4.79L217,420c-2.31-3.27-4.5-6.65-6.54-10.15Zm7.26,11.62q1.37,2,2.8,3.87L226,431.47q-3.93-4.49-7.48-9.33Zm4,5.49c.83,1.08,1.69,2.14,2.57,3.2l-7.86,2.8Zm1.29-1.47,13.88-15.75c2.06,2.37,4.22,4.67,6.49,6.85l-12.91,17.69C240.75,429.29,238.26,426.37,235.89,423.3Zm21.84-7.52q3.39,3.14,7,6l-11.39,19.92q-4.5-3.84-8.63-8.14Zm-11,22.44-7.53,3,4.43-6.07Q245.12,436.7,246.7,438.22Zm1.6,1.52c1.33,1.24,2.71,2.45,4.12,3.65l-4.61,8.07q-5-3.68-9.55-7.73Zm10.57,8.75c1.62,1.2,3.27,2.37,5,3.5l-3.47,7.78q-5.34-3.15-10.32-6.68Zm11.18,7.37c2.09,1.23,4.22,2.42,6.44,3.56L274.23,467q-5.94-2.73-11.51-5.88Zm13.12,6.73c2.39,1.06,4.84,2.08,7.36,3L289.11,473q-6.36-2.21-12.38-4.85Zm14,5.38c2.71.88,5.5,1.71,8.36,2.47l-.68,7.24q-6.76-1.68-13.19-3.8ZM312.06,472c5,1.12,10.23,2.06,15.7,2.8l-.38,7.09q-10.28-1.37-19.9-3.61Zm21.52,3.5c2,.21,4,.39,6.05.55l-.1,7.12q-4.87-.37-9.62-1Zm11.21.9q6.29.33,12.94.34l.15,7.16q-8.11,0-15.91-.56Zm17.56.3q7.74-.14,15.13-.69l.84,7.07q-8.85.76-18.07.82Zm17.12-.85q8.38-.72,16.29-2l1.27,6.76q-8.16,1.46-16.72,2.27Zm18.27-2.3q7.86-1.35,15.23-3.26l1.73,6.32q-7.65,2.13-15.7,3.64Zm17.17-3.77c4.39-1.19,8.66-2.53,12.78-4l4,5.2q-7.31,2.85-15.09,5.1Zm16.63-5.47c3.49-1.37,6.9-2.84,10.18-4.43.56-.27,1.1-.56,1.65-.83l4.34,4.67q-6.68,3.47-13.85,6.38ZM447,457.19q5.13-2.76,9.91-5.92l5.13,4q-5.9,3.95-12.28,7.39Zm13.86-8.63q2.88-2.06,5.62-4.28L472,448q-3.83,3.08-7.92,5.91Zm9.11-7.19q2.67-2.34,5.21-4.83l5.78,3.57q-3.4,3.28-7.08,6.34Zm-1.23-1.6-9.29-12.08q3.56-2.34,7-5l9.13,10.59Q472.29,436.68,468.74,439.77Zm-.72-18.3q3.35-2.66,6.55-5.61l8.69,8.72c-2,2.52-4.11,4.94-6.3,7.27ZM484.68,426l2.28,2.26-3.14-1.21C484.11,426.7,484.4,426.36,484.68,426Zm1.24-1.59c.44-.56.88-1.12,1.31-1.7.74-1,1.46-2,2.16-3l7.28,2.21q-2.71,3.84-5.73,7.48Zm6.42-9.17q1.57-2.5,3-5l7.78,1.57q-2.34,4.11-5,8Zm5.51-9.71q1.33-2.62,2.47-5.15l8.27.57q-2,4.47-4.31,8.75ZM502.59,395c.73-1.86,1.38-3.65,2-5.37H513c-1,3.05-2.13,6.06-3.36,9Zm3.79-11.14c.23-.77.43-1.51.62-2.24h8.27q-.72,2.83-1.56,5.61Zm1.14-4.24c.09-.39.18-.76.27-1.13l3.11,1.13Zm-3,3.4-4.29-2q1.11-2.32,2.06-4.55l3.58,1.31C505.53,379.4,505.09,381.15,504.55,383Zm3.79-32.38-15.42-3.46c.79-2.61,1.49-5.28,2.08-8l24.16,3.1Zm13.05-10.12-26-3.33q.74-3.84,1.22-7.84l38,.92Zm15.73-12.18-40.28-1q.62-6,.66-12.39l44.73-3.18c.69,6.28.8,10.57.82,11.95Zm7.93-4.48c0-1.26-.11-5.68-.83-12.25l13.14-1.45a287.26,287.26,0,0,1,3.93,28.59l-3.6.1Zm25.37,16.65-6.82,2c-.05-.61-.09-1.23-.14-1.84Zm-10,96.06,4.79,1.5-4.95-.46C560.29,437.28,560.34,436.94,560.39,436.59Zm-2.15.86-4.51-.42c2.31-9.55,4.39-19.3,6.29-29.18l1.48.07Q560.39,423.28,558.24,437.45ZM547,490.74l7.83,5.79-9-2.61C546.22,492.87,546.61,491.81,547,490.74Zm-3.1,2.62-7.25-2.09q4.74-11.56,8.69-24l6.47,1.48A238.26,238.26,0,0,1,543.9,493.36ZM539.33,509l7.53,6.65-9-3.54C538.33,511.05,538.83,510,539.33,509Zm-3.39,2.38-7.16-2.8q3.76-7.46,7.1-15.42l7.28,2.11Q539.83,503.63,535.94,511.34Zm-6,14.85,6.7,6.47-8.18-4.16C528.93,527.73,529.44,527,529.92,526.19Zm-3.27,1.39L520,524.19q4.17-6.66,7.89-13.86l7.15,2.8Q531.12,520.69,526.65,527.58Zm-7.72,14.13,5.66,6.47-7-4.81C518,542.83,518.48,542.27,518.93,541.71Zm-3,.53-5.83-4c1.59-2,3.16-4.09,4.68-6.24,1.41-2,2.77-4,4.11-6.12l6.67,3.39A156.18,156.18,0,0,1,515.93,542.24Zm-23.66-49.8,31.43,21.45c-2.33,4.24-4.77,8.34-7.36,12.27l-30-25.4Q489.42,496.79,492.27,492.44Zm6.58-11.12,32.08,18.13q-3,6.53-6.27,12.68l-31.31-21.36C495.26,487.76,497.09,484.6,498.85,481.32Zm40.81-3.47-32.57-14.46q3.81-9.66,6.91-20.54l33.38,10.62C545,461.83,542.47,470,539.66,477.85Zm-33.31-12.62L539,479.73q-3.36,9.22-7.21,17.89l-32-18.05Q503.29,472.78,506.35,465.23Zm48.58-.61,7.57,3.7-8.22-1.16C554.49,466.31,554.72,465.48,554.93,464.62Zm-2.62,2.18-6.37-1.45q4-12.83,7.32-26.36l4.66.44Q555.66,453.74,552.31,466.8Zm8.08-60.93c.61-3.22,1.21-6.45,1.78-9.7q-.21,4.93-.53,9.75ZM519.87,418l0,0,33.72,10.77c-1.75,7.73-3.64,15.35-5.7,22.8l-33.37-10.63Q517.54,430.09,519.87,418Zm-14.56,44.34-7.22-4.88a186.2,186.2,0,0,0,6.25-18.7l7.78,3.35Q509.06,452.85,505.31,462.37Zm-.76,1.91q-3,7.41-6.46,14.09l-6.94-5.85q3.33-6.24,6.17-13.14Zm-7.4,15.91q-2.56,4.83-5.38,9.27L485,482.91q2.72-4.12,5.19-8.59Zm-6.48,11q-2.78,4.24-5.77,8.14l-6.46-7.42q2.83-3.5,5.42-7.3Zm-5.57,11.14,30.12,25.51c-.68,1-1.37,2-2.07,3q-3.16,4.47-6.54,8.56l-28.09-29.56Q481.93,506.27,485.1,502.32Zm20.22,38.62a134.24,134.24,0,0,1-9.67,10.32l-26-33.16c.55-.46,1.11-.9,1.65-1.37q3-2.61,5.79-5.46Zm-22.16,33.25-.25-.37,0,0Zm-1.38-2-3.24-4.77c2.24-1.45,4.44-3,6.58-4.57l4,4.46Q485.54,569.83,481.78,572.16ZM458.3,526.48l23,36.6a123.52,123.52,0,0,1-12.23,7.59L450,531.24C452.82,529.77,455.61,528.19,458.3,526.48Zm9,45.13a126.76,126.76,0,0,1-12.4,5.64c-.61.24-1.25.46-1.87.69l-14.82-41.49q5.12-1.94,9.93-4.3Zm-16.15,7a144.12,144.12,0,0,1-14.36,4.3l-10.92-42.59q5.38-1.4,10.46-3.22Zm-16.3,4.78q-7.61,1.76-15.71,2.81l-6.88-43.06q6-.93,11.68-2.32Zm-1,2.28L435.1,591q-8.84,2-18.23,3.22l-.44-5.61A170.91,170.91,0,0,0,433.89,585.7Zm1.95-.45a146.7,146.7,0,0,0,16-4.72l1.81,5.08a166.19,166.19,0,0,1-16.63,4.92Zm17.9-5.41c.65-.24,1.3-.48,1.93-.73a129.8,129.8,0,0,0,12.55-5.7l2.41,5a147.19,147.19,0,0,1-15.07,6.52ZM470,572.47c2.34-1.27,4.64-2.58,6.88-4l3.21,4.72q-3.75,2.25-7.66,4.28Zm13-10.55-23-36.55c2.82-1.87,5.55-3.86,8.19-6l26.05,33.29A124.11,124.11,0,0,1,483,561.92Zm-14.42-45.44-5.62-9q3.51-2.83,6.77-6l6.11,8.25Q472.33,513.31,468.56,516.48ZM467,517.77c-2.58,2.1-5.25,4.05-8,5.88l-4.91-9.72q3.75-2.41,7.27-5.16Zm-9.69,7q-4,2.54-8.22,4.71l-4.84-10q4.19-2.09,8.13-4.5Zm-10,5.61q-4.71,2.32-9.73,4.21L433.8,524q4.44-1.63,8.66-3.62Zm-11.61,4.9q-5,1.79-10.28,3.16l-2.81-11q4.77-1.22,9.3-2.78Zm-12.22,3.65q-5.58,1.37-11.5,2.28L410.19,530q5.37-.81,10.47-2ZM410,541.49A162.65,162.65,0,0,1,393.2,543l-.52-11.46a151.25,151.25,0,0,0,15.53-1.28Zm.31,2,6.87,43a202,202,0,0,1-21.94,1.4L393.3,545A163.69,163.69,0,0,0,410.32,543.47Zm-17.07,44.4c-3.61,0-7.27,0-11-.21l.55-42.56,3,0c1.87,0,3.71,0,5.54-.09Zm-13-.31q-8.06-.4-16.55-1.28l3.23-42c4.74.39,9.37.66,13.87.76Zm-144.51-2.33,5,.45L227.8,596.43Zm.53-2,.44-29.27,14.74,22.78-8.53,7.09ZM253.07,578l109.42,10.16c1.36.15,2.69.26,4,.39L366.2,595l-120.49-10.9Zm112-35.86L237,530.67l.17-11.7L366,530.42Zm-.16,2-3.23,41.94L253.32,576,236.73,550.4l.27-17.72Zm-130.12,3.23-10.24-15.82,10.46.94Zm-.05,3.6-.49,32.88-10.65,15V533.77Zm133.79,37.77q12.08,1.08,23.22,1.12v6q-11.42.17-23.55-.72Zm25.22,1.13q10.75,0,20.7-1.07l.44,5.63q-10.23,1.2-21.14,1.45Zm21.3,6.56,1.36,17.3q-11,1.18-22.66,1.3V597.88Q404.72,597.64,415,596.44Zm2-.25q9.54-1.22,18.52-3.25l3.88,17a198,198,0,0,1-21,3.6Zm20.46-3.72a165,165,0,0,0,16.87-5l5.83,16.34a172.38,172.38,0,0,1-18.81,5.63Zm18.74-5.67a152.56,152.56,0,0,0,15.28-6.6L479,595.6a159.21,159.21,0,0,1-16.92,7.54Zm17.06-7.52q4-2.09,7.91-4.42l9.51,14q-4.86,3.09-9.95,5.82Zm11.36-6.56c2-1.26,3.91-2.58,5.81-3.94l11.12,12.42q-4.43,3.42-9.09,6.49Zm7.44-5.12.84-.62,3.18,5.12Zm-1.34-1.49-4-4.51a124.47,124.47,0,0,0,11.18-9.72l4.84,4.33A139.51,139.51,0,0,1,490.75,566.11Zm8.57-15.63a138.22,138.22,0,0,0,9.54-10.66l5.78,4a146.77,146.77,0,0,1-10.31,11l-.13.12Zm6.39,5.69c.42-.4.82-.82,1.24-1.22l4.67,6.53-5.92-5.3Zm2.68-2.65q4.1-4.12,7.91-8.6l12.8,8.79a162.39,162.39,0,0,1-11.29,13Zm11.81-13.39c2.49-3.18,4.87-6.51,7.15-10L540.67,537A176.38,176.38,0,0,1,530.5,551.9ZM531,524.44q3.1-5.13,5.92-10.58l13.43,5.25q-4,8.25-8.46,15.84Zm9.25-17.36q2.57-5.49,4.86-11.29l13.46,3.9q-3.31,8.94-7.17,17.24Zm7.49-18.29q3.38-9.45,6.06-19.69L567.33,471a272.26,272.26,0,0,1-8,26.38Zm7.68-26.16q2.63-11.08,4.51-23l13.43,1.24q-2.21,14.47-5.44,27.88Zm5.27-28q1.83-12.82,2.83-26.59l13.41.58q-1.1,15.54-3.23,30.07Zm3-28.58q.79-11.76,1-24.19.55-3.37,1.08-6.76l12.39-.19q0,16.33-1,31.72ZM524.26,206.66q1.85,2,3.63,4.05l-11.23,7.9q-4-4.4-8.31-8.43l8.33-11.12C519.28,201.51,521.82,204,524.26,206.66Zm-53.83-38-6.51,13.13c-4.37-1.81-8.86-3.47-13.5-4.94l4.79-14c2.5.84,5,1.7,7.4,2.63C465.26,166.48,467.86,167.55,470.43,168.68ZM240.05,199.21c1.32-1.18,2.66-2.32,4-3.46l9.85,13.41q-4,3.53-7.81,7.32L233.87,205C235.87,203.05,237.93,201.1,240.05,199.21ZM227.8,433.43l10.75-3.83c1.18,1.38,2.39,2.74,3.65,4.08l-6,8.2Q231.82,437.85,227.8,433.43Zm254.85,5-4.38-5.08c1.44-1.53,2.85-3.09,4.21-4.7l6.83,2.62Q486.13,435,482.65,438.46Zm33.19-59.15-7.6-2.77c.72-3.37,1.08-5.83,1.23-7.08h8.27Q517,374.47,515.84,379.31Zm3.63-11.85L509.9,352l34-26.35,18,21.35q.24,3.81.39,7.71l-22.55,12.77Zm19,2-19.8,46.21L510,414.44l18.86-45Zm-29.12,46.92,8.53,1.19q-2.29,11.9-5.27,22.63l-7.79-3.36Q507.47,427.14,509.39,416.38Zm-34,79.18c.6-.69,1.18-1.4,1.77-2.11l6.5,7.47q-3.09,3.85-6.41,7.37l-6.08-8.21C472.59,498.62,474,497.12,475.37,495.56Zm-88,36c1.12,0,2.23,0,3.34,0L391.2,543q-4.12.12-8.4.06l.15-11.56C384.42,531.58,385.89,531.6,387.34,531.6Zm-6.39-.13-.15,11.6q-6.71-.17-13.75-.75l.9-11.73.53,0Q374.86,531.27,381,531.47ZM235.19,519.72,235,530.49l-10.16-.91ZM391.1,615.06q-11.6,0-23.87-1l.86-16.82q10.34.76,20.17.76,1.75,0,3.48,0v17.14Zm120.08-41.91q-3.84,3.5-7.88,6.71l-8.77-14.09c3.35-2.58,6.58-5.33,9.7-8.22l12,10.74C514.58,570,512.9,571.58,511.18,573.15Z"/></g></svg>