<svg xmlns="http://www.w3.org/2000/svg" viewBox="0 0 767.13 767.13"><defs><style>.cls-1{fill:#292c35;}</style></defs><g id="Layer_2" data-name="Layer 2"><path class="cls-1" d="M361.31,156.26l-1.34,1c-.67,100.47-33.86,154.52-114.57,186.55l-.91.36,28.85,75.41.89-.29c59.68-18.8,100.87-49.64,125.94-94.3,22.4-39.94,30-87.23,33.58-130.38h15.09L433.59,237.5l-.5,352.83,6.24,19.13h84.56V156.26ZM303.36,356l-12.67-24.05a161,161,0,0,0,14.47-10.63l17.1,21.4A148.93,148.93,0,0,1,303.36,356ZM291,361.8l-12.49-5-6-14.59A169,169,0,0,0,289,333l12.62,24C296.05,360.12,292.18,361.65,291,361.8Zm-13.17,40.3-21-51.8,32.78,13.11Zm-7-66.12,4.63,2.49c-1.21.63-2.41,1.24-3.59,1.81Zm-.16,7.1,5.2,12.69-18.11-7.24C261.69,347.09,266,345.3,270.74,343.08Zm17.92-15.89,2.61,2-1.42.94ZM293,328l-5-3.73q6.89-4.56,13.05-9.53l2.93,5C300.34,322.69,296.66,325.45,293,328Zm-4.86,3.23c-3.58,2.28-7.09,4.32-10.49,6.15L271.5,334q7.51-4,14.35-8.39Zm-18,10c-5,2.39-9.68,4.28-13.74,5.77l-1.29.48-6.62-2.65q10.68-4.35,20.27-9.27Zm-15.81,8.09,22.64,55.88-3.1,10.16-26.31-68.74Zm23.83,58.82,3.17,8,1.85-.75-4.09-10.25,7.07-23.19,15,25.48q-12.21,5.18-25.69,9.5Zm8.79-28.81,4.75-15.58a56,56,0,0,0,10.94-5l23.82,36.25A248,248,0,0,1,303,406.54Zm17.43-21.57A137.49,137.49,0,0,0,316,350.07L343,384.59q-7.08,4.91-14.8,9.36Zm13.3-8.82c3.42-2.55,7-5.47,10.76-8.77l29.17,33.32q-6.19,5.22-13,10Zm6.16-7.45L306.69,320a155.28,155.28,0,0,0,12.15-11.45l19.85,18.69A171.2,171.2,0,0,1,323.8,341.43ZM333.53,287l-1.39-2.8,2.51,1.1Zm-1.29,1.91q-2.1,3.06-4.28,5.92l-4-2.75c2.09-2.57,4.07-5.22,6-7.93Zm9.09,35.54L340,325.81,320.2,307.13q4.19-4.5,8.18-9.59L350,314C347,317.78,344.14,321.25,341.33,324.4ZM326.21,296l.52.35-.15.2Zm-.94,2.18c-2.12,2.63-4.3,5.13-6.51,7.52L315.11,302c2.54-2.62,5-5.3,7.27-8.07ZM342.61,326q2.75-3.08,5.59-6.56l33.95,28.83q-4.74,5.92-10,11.45l-32-31C341,327.77,341.79,326.88,342.61,326Zm6.85-8.11q3.66-4.61,7.36-9.92l35.4,26.34q-4.17,6.41-8.83,12.39Zm1.71-5.49L329.6,296q3.56-4.67,6.87-9.8L359.67,300C356.85,304.47,354,308.58,351.17,312.37Zm9.57-14-23.2-13.85q3-4.75,5.7-9.93L368.4,284.8C365.91,289.61,363.34,294.12,360.74,298.33Zm29.73-80H361.06a220.47,220.47,0,0,0,2.11-22.87L394,190.87C393.23,200.53,392,209.66,390.47,218.3Zm-5.18,23-28.16-3.2q2.16-8.46,3.63-17.76h29.36Q388.05,231.33,385.29,241.26Zm-7.07,21.61-26.59-7.14q2.79-7.48,5-15.71l28.14,3.2Q381.79,253.63,378.22,262.87ZM369.31,283l-25.15-10.24a158.34,158.34,0,0,0,6.75-15.16l26.58,7.13Q373.64,274.52,369.31,283Zm-22.16-21.47-1.67-4.15h3.36C348.29,258.8,347.72,260.18,347.15,261.54Zm9-40.45,2.54-.52q-.75,4.73-1.7,9.23Zm-3.22,24.54-1.32-5.71h3C354,241.85,353.49,243.76,352.91,245.63Zm42.64-63.17-9.1-7h19.31Zm-1.07,1.7c-.09,1.57-.2,3.12-.32,4.67l-30.91,4.56q.28-8.64,0-17.9h19.94Zm-31.35-10.67c-.2-4.57-.5-9.24-.94-14l18.35,14Zm-1.83,5.22a230.49,230.49,0,0,1-2.3,39.77l-2.64.53A292.15,292.15,0,0,0,361.3,178.71ZM355.56,236l-.48,1.89H351.7q1.62-5.41,3-11.15Zm-3.83,13.32q-1,3.09-2.15,6.06l-4.06,0q2.53-6.12,4.67-12.64ZM346,264.13q-1.81,4.1-3.8,8L338,271q3.18-5.79,5.93-12Zm-4.75,9.78c-.52,1-1,1.94-1.57,2.9l-1.49-3.73Zm32.15,5.25L410.27,299q-3.82,9.64-8.57,18.9L365.05,295C367.93,290.12,370.74,284.83,373.43,279.16Zm.85-1.81q3.66-7.89,6.93-16.77l36.69,16c-2,6.93-4.3,13.79-6.9,20.52Zm7.62-18.65A242.5,242.5,0,0,0,389.23,234L425,247c-1.76,9.29-3.9,18.56-6.48,27.71Zm7.79-26.63a270.43,270.43,0,0,0,4.88-27.3l34.87,12.85c-1.09,9.06-2.43,18.21-4.12,27.34Zm5.14-29.34q1.08-8.92,1.65-18.48l12.83-8.76h21.41l2.19,3.17c-.77,11.94-1.76,24.34-3.22,36.92ZM510.69,590.67l7.87,12.7L504,590.72Zm-.14-417.18H504.3l13.93-11.19Zm-.48,2,.17,413.19-8.52.05L487.41,576.3,487,225.22l5.92-42.55,8.93-7.18ZM498.69,588.75l-28.21.18L486.34,578ZM492,180.85l-6.42-5.36h13.08Zm-1.07,1.7-5.8,41.65-43.37,2.38,14.85-47.65,3.68-3.44h22.16Zm-28.49-9.06,8.31-7.75,9.3,7.75Zm-2.94,0H431.77l-5.74-8.3,42.11.2Zm-35.6-7.92,5.48,7.92h-17.1Zm10.6,11.81-1.31-1.89h24.17l-2,1.89Zm6.87,51.23,43.64-2.4.44,350L466.91,589l-25.58.16ZM464,591l-22.65,15.58V591.12Zm3.56,0,33.43-.21,19.25,16.72H443.55Zm44.7-1.56-.17-414.59,9.82-14.31V605Zm7.81-431.13-18.94,15.23h-18L471,163.41l-47.22-.23-15.12,10.31H383.83l-19.9-15.23ZM336.39,273.89l2.05,5.16c-.88,1.53-1.79,3-2.71,4.49l-4.21-1.84c1.36-2,2.66-4.07,3.91-6.17C335.76,275,336.07,274.44,336.39,273.89Zm-22.69,29.5,3.7,3.79a153.42,153.42,0,0,1-11.84,11.18l-2.91-4.93Q308.5,308.6,313.7,303.39Zm45.4,68.74-29.21-33.36q4.38-4,8.89-8.67l32,31Q365.23,366.86,359.1,372.13Zm39.32-48.08c-1.63,2.91-3.34,5.75-5.11,8.55L358,306.3q3.06-4.51,6.07-9.53l36.76,22.93Q399.64,321.89,398.42,324.05Zm35.5-131.4q.52-6.72.95-13.27h19.41l-4.73,13.27Zm5.86,33.43-.4,1.28,0,361.78-4.25,0,.5-351.31Zm-4.29,365.08,3.85,0v11.3Z"/></g></svg>