<svg xmlns="http://www.w3.org/2000/svg" viewBox="0 0 767.13 767.13"><defs><style>.cls-1{fill:#292c35;}</style></defs><g id="Layer_2" data-name="Layer 2"><path class="cls-1" d="M211.47,156.26v73.13l13.18,11.78H478l42.45-12.9v11.2c-36.1,14.59-68.49,32-96.42,51.82-32.23,22.9-59.56,49.77-81.24,79.86-22.29,31-39.3,66.29-50.56,105-11.54,39.7-17.39,84.21-17.39,132.29v1h88.4v-1c0-86.45,15-153.58,45.86-205.25s77.45-90,146.83-120.88l.59-.26V156.26ZM364,547.81,320,553a422.92,422.92,0,0,1,6.86-48.11l21.77,0h15.53c2.94,0,4.78,0,5.94,0Q366.17,525.33,364,547.81Zm-2.76,58.66L341,591.27h20.48Q361.26,598.77,361.24,606.47Zm-2,1H278.64l19.9-16.19h39.09Zm-66.5-125.69,2.14,1.23q-3.64,13.54-6.2,27.33l-3.57,4.51Q288.3,497.82,292.73,481.77Zm44.21-21.43L309.2,446q1.16-2.93,2.36-5.84a.67.67,0,0,0,.06-.12h0q5.53-13.28,12.15-26l25.41,16.19A322.38,322.38,0,0,0,336.94,460.34Zm-14.4-50.63h1.18c-.17.31-.33.62-.49.94ZM350,428.33l-25.34-16.15Q327.92,406,331.4,400q5.22-9,11-17.62l23.19,17.15q-7.63,12.52-14.11,25.8C351,426.34,350.51,427.34,350,428.33ZM329.67,399c-1.67,2.87-3.28,5.78-4.87,8.7h-2.53Q330,393.34,339.09,380l1.68,1.24Q335,389.92,329.67,399Zm-7.47,13.61q-6.72,12.93-12.35,26.4c-.46.35-1.84,1.3-3.47,2.41q6.47-15.9,14.34-30.81Zm-13.75,29.83-1,2.53-1.39-.9Zm0,5.38,27.8,14.42a345.09,345.09,0,0,0-9.55,33.61L297.21,482A347.91,347.91,0,0,1,308.47,447.83Zm11.52,86-31.14-12.49a347.42,347.42,0,0,1,7.83-37.4l29.58,13.91C323.35,510.81,321.38,522.91,320,533.83Zm-33-13.69-2.23-1.69,3.16-4C287.61,516.36,287.31,518.25,287,520.14ZM295.4,481l-1.59-.92,2.45-2.13C296,479,295.68,480,295.4,481Zm-11.3,39.43,2.56,1.95q-2,13.7-3,27.5l-4.54,7.56Q281,538.46,284.1,520.44Zm1,70.83h10.29L278.62,604.9Zm.32-2q-.61-11.58-.39-23.25l28.4,10.58-15.58,12.67Zm-2.31-26.2-3.91-1.76,4.26-7.09C283.28,557.17,283.17,560.12,283.09,563.07Zm-4.44.19,4.38,2q-.27,12.45.41,24.84l-6.58,13.87Q277,583.14,278.65,563.26Zm22.35,26L317.28,576,335,589.27Zm15.74-21c-.16,2.16-.3,4.16-.45,6l-1.08.88-30.15-11.23a339,339,0,0,1,3.48-40.54l31.19,12.51C318.18,548.52,317.38,559.5,316.74,568.23Zm53.71-65.35c-4.5.05-31.18,0-43.23,0A346.55,346.55,0,0,1,337,466.32L377.5,473Q373.47,487.39,370.45,502.88ZM337.66,464.4A319.55,319.55,0,0,1,351,431l36.36,12.45q-5.15,13.26-9.27,27.61Zm14.18-35.2c.47-1,.93-2,1.42-3a306.56,306.56,0,0,1,15-27.2l31.9,16.11a278.36,278.36,0,0,0-12.09,26.48Zm14.79-31.36L343.5,380.73a328.29,328.29,0,0,1,20.29-26.91l20.84,18.06A309.41,309.41,0,0,0,366.63,397.84Zm19.23-27.55-20.79-18a330.3,330.3,0,0,1,23-24.47l19,18A319.77,319.77,0,0,0,385.86,370.29Zm24.34-64.44q-3.07,2.44-6.09,4.95-8.25,6.88-16,14.25l-1.1-1q11.6-10.85,24.38-20.84Zm4-4.1.51.57-1.18.91Zm-27.59,24.69-.15.15v-.28Zm23.63,19,22.61,21.2a257.74,257.74,0,0,0-16.57,21.61L389,369.54A315.88,315.88,0,0,1,410.28,345.42Zm-1.79-1-18.93-18q7.68-7.28,15.83-14.08c3.5-2.92,7.09-5.76,10.72-8.54l17.4,17.35A335.8,335.8,0,0,0,408.49,344.38Zm9.22-41.82a349.93,349.93,0,0,1,29.18-19.83l14.85,17q-14,9.61-26.7,20.14ZM520.9,226l-40.62,12.39,5.47-8.64,44.6-13.5ZM224,227.94h-9.74L224,212.65ZM544.9,199.3l.89,39.42-3-1.11V202.49Zm.44,41.39-2.57,4.22v-5.17ZM486.08,227.6l-.87-43,46.36-5.7,9.2,12.19v10.81l-7.65,11.49ZM241.82,182.47,234,175.39l299,.26-1.38,1.21-47.47,5.83ZM226,175.38h5l9.13,8.26L226,205.79Zm310,.27h4.76v12.09L533.38,178Zm4.76,29.84v31.38l-6-2.23V214.49Zm2-6.61v-5.16l1.83,2.42Zm-1.48-25.22h-3l9.69-8.49Zm-6,0-303.47-.26-16.72-15.13H552.85Zm-306.46-.26h-3.26l-6.44-8.77ZM226,209.51l16-25,241.22.22.88,43.25H226Zm296.41,31.32q3.36-1.35,6.76-2.67l-6.76,6.22ZM534,236.49l6.79,2.51v9.19l-7.28,12q-15.29,6.72-29.54,14.2l-12.61-14.78c9.43-4.15,30.22-11.95,30.22-11.95Zm6.79,15.56v13.84l-5.31-5.1Zm-38.63,23.27a413.51,413.51,0,0,0-38.75,23.29l-14.76-16.92a378.62,378.62,0,0,1,40.79-21.26Zm-18.35-14.5,2.85-3.66,1.43,1.69C486.64,259.49,485.21,260.16,483.79,260.82Zm-4,1.86q-16.95,8.07-32.63,17.55l-1.28-1q17.64-11,37.21-20.74Zm-34.44,18.64-1.95,1.19,1-1.92Zm17.52,20.05,13.28,24.69q-11.1,8.42-21,17.49l-18.8-22.21Q449,310.9,462.88,301.37Zm1.66-1.13q13-8.81,27-16.83l10.08,25.15q-12.6,7.83-23.88,16.29Zm28.81-17.82q10.78-6.07,22.22-11.7l8,25.17q-10.5,5.64-20.19,11.61Zm24-12.59q8.14-4,16.6-7.69l6.79,6.52v18.5q-7.9,3.81-15.38,7.79Zm25.39.75,11,10.54c-3.73,1.67-7.38,3.36-11,5.08Zm0-2.77V248.76l5.2-8.53-.92-44.16-4.28-5.67V175l11.74-14.87V279.07Zm-329.3-107.5L224,174.71v34.22l-10.56,16.58Zm1.62,69.63H224v8Zm10.94,0H483.29l-5.85,9.23H226Zm296.41-2.61,10.31-10.64v18c-3.47,1.31-6.9,2.66-10.31,4Zm-2,18.62Q504.78,251.46,490,258l-1.76-2.07q15.55-7.53,32.22-14.3Zm-95.26,47q7.88-5.58,16.22-10.91l-1.48,2.71q-12.21,7.77-23.59,16.37l-.89-1Q420.24,296.46,425.18,292.92ZM384.5,326.43v2.1q-11,10.75-20.94,22.45l-1.35-1.17Q372.7,337.69,384.5,326.43Zm-40.1,45.89q7.77-10.77,16.51-21l1.36,1.18a333.52,333.52,0,0,0-20.38,27l-1.68-1.24Q342.27,375.29,344.4,372.32Zm-39.67,73.3,2,1.26q-5.28,13.56-9.42,27.53L294,477.28l.15-.55Q298.78,460.77,304.73,445.62Zm56.76,143.65h-23.2l-20-15c.14-1.83.28-3.8.44-5.92.29-4,.61-8.48,1-13.37l44-5.15Q362,568.83,361.49,589.27Zm45.88-187.08c-2.17,3.64-4.26,7.37-6.28,11.16l-31.76-16a307.12,307.12,0,0,1,18.42-26.2l27.45,18.77Q411.14,395.92,407.37,402.19Zm26.83-37.08L411.68,344q11-11.1,23.19-21.36l18.85,22.28A261.16,261.16,0,0,0,434.2,365.11Z"/></g></svg>