<svg xmlns="http://www.w3.org/2000/svg" viewBox="0 0 767.13 767.13"><defs><style>.cls-1{fill:#292c35;}</style></defs><g id="Layer_2" data-name="Layer 2"><path class="cls-1" d="M555,444.18H517V324.58H433l-4.16,4.71V444.18H280.12l-.27,0-45.78,12.94V440.72c70-23.19,125.31-58.16,164.57-104.09A284.69,284.69,0,0,0,451,245.23h0l0-.17q14.24-40.63,17.93-87.72l.08-1.08H385.13l-.09.91c-5,55.26-24.71,102.35-58.7,140-32.14,35.58-77.09,61.68-130,75.46l-.75.2V523.7H428.88v67.47L433,609.46H517V523.7h53.12V450Zm1.31,62.3-.18-34.64,12-17.58V520ZM515,604.5l-8-14.92V514.71l8,8.39ZM435,592.08l22.38-.39L435,606.59Zm0-2V523.19l39.45-30.94,5.36.15.13,84.27-19.47,13ZM335.67,297.35l.83.83c-.08.11-.17.21-.25.31Zm24.46,16-20.85-15.44a201.63,201.63,0,0,0,13.74-19l24.28,13.27A267.86,267.86,0,0,1,360.13,313.38Zm-10.92-32.26-1.55-5.28,3.62,2.08C350.59,279,349.91,280.06,349.21,281.12Zm10.54-26,3.38,1.54q-1,2.06-2,4.09Zm9.94-22.38,3.07.53q-1,3-2.19,6.06Zm7.88-23.18h1.94q-.67,3-1.45,6Zm9.55-50.15L404,173.12l-17.21-.18C387.18,166.65,387.17,162,387.12,159.42Zm19.39,15.73,5.66,4.59L386.07,182q.38-3.75.6-7Zm54.16-1.44-15.33-.16,20.58-13.73Zm-.31,2c0,2.79-.32,6.34-.78,10.37l-18.65-9.58,1.45-1ZM423.06,186l-13.34-10.82,29.11.3Zm-37.21-2,28.56-2.43,7.5,6.09q-2,11.09-4.94,21.8l-35-1.81A232.91,232.91,0,0,0,385.85,184Zm-4.3,25.63,34.87,1.81a252.69,252.69,0,0,1-9.31,27.25l-31.72-6.92A229.71,229.71,0,0,0,381.55,209.61Zm-12.21,38.2c2-4.78,3.81-9.51,5.4-14.15l31.62,6.89a251.41,251.41,0,0,1-12.17,25.18l-28.36-10.12C367,253,368.22,250.45,369.34,247.81ZM365,257.43l28.21,10.07A252.78,252.78,0,0,1,379,289.86l-.5.69L354.1,277.21A210,210,0,0,0,365,257.43Zm15.62,33.62q4.14-5.81,7.93-11.82l31.24,25.61a279,279,0,0,1-16.86,23.47L373.8,300.18Q377.31,295.68,380.6,291.05Zm9-13.54a256.22,256.22,0,0,0,12.52-22.64l32.59,23.73a280.77,280.77,0,0,1-13.84,24.55ZM403,253a255.46,255.46,0,0,0,9.86-23.67l34.1,21.14Q441.86,264,435.6,276.79Zm10.53-25.61a257.92,257.92,0,0,0,7.33-25l33.23,17.6c-2.36,12.4-4.57,22.68-5,24.47-.48,1.36-1,2.71-1.46,4.06Zm7.8-27q1.45-6.24,2.61-12.6L439,177.76l20.29,10.42c-1.13,9-3,19.95-4.87,29.81Zm39.92-11.28,1.75.9q-2.49,14.94-6.19,29.16l-.46-.24C458.16,209.21,460.06,198.3,461.22,189.16Zm.26-2.12a104.21,104.21,0,0,0,.88-12.14l4-10.51q-1.15,12-3,23.59Zm-19.69-13.53-34.56-.36-18.37-14.89h75.8ZM380,207.57h-2.09a260.62,260.62,0,0,0,6.58-29.6A230.43,230.43,0,0,1,380,207.57Zm-3.43,13.73q-1.39,4.94-3.11,10.06l-3.45-.59q3.29-8.22,6-16.77Zm-7.45,21.9c-.52,1.3-1.06,2.6-1.61,3.91-1.11,2.62-2.28,5.19-3.48,7.75l-4.25-1.94q4.5-8.52,8.3-17.46Zm-9.39,20.28q-3.45,6.52-7.33,12.76l-4.9-2.83q5.64-8.36,10.5-17.19Zm-11.93,19.78q-4.71,6.9-10,13.37l-4.44-4.48q6.54-7.8,12.31-16.09ZM338,299.48l20.76,15.39q-9,9.86-19.08,19l-17-18A198,198,0,0,0,338,299.48Zm.2,35.77Q328.52,344,317.85,352l-14.14-19.87c5-3.77,9.82-7.71,14.4-11.86,1.07-1,2.12-2,3.17-2.95ZM233.45,459.42l41-11.58-3.36,2.26-43.9,12.7Zm195.91-13.24L432.1,450H274.75l5.68-3.84Zm85.13,5.14-28.85,39.24-3.8-.11-.19-125L505,339.37,505.42,446h0v0Zm39.61,19.9-13,19-53,.32L516.47,452H554ZM556,452h11.19l-11.11,16.29Zm-1.88,22.73.14,29.42-11.33-13ZM515,449.28l-5.33-3.1H515Zm-40.37,41L435,450.61V330.24h3l41.65,35.26.19,124.9Zm-253.43,6.42-7.54-8.3V473.71l5.32-6.46,51.55-14.9.31,38Zm-1.77,1-5.77,6V491.34Zm-12.42-59,4.65,2.91V473L207,478.64Zm.35-2.14,4.3-7.39v10.08Zm10,29.49-3.74,4.54V442.83l3.74,2.34Zm-5.74,10.12v10l-4.33-4.76Zm61.18,14.1L272.49,452H433.64l38.11,38.22ZM504.92,330.29l0,6.09-24.4,27.27-39.46-33.41Zm2-.3,5.61-2.08-5.59,6.25Zm-1.18-1.7-67-.05-2-1.66h73.6Zm-70.11-.05H435v-.5ZM218.5,443.53l-4.88-3.06V425.7l13.63-23.46c1.52-.47,7.38-2.34,16.17-5.89L262.89,428Q241.73,436.58,218.5,443.53Zm-6.88-57.38-12.47-11.57h12.47Zm5.77-17.29,6.4.52q-3.07.93-6.21,1.8Zm17.27-.86,5.23,27.61c-6.89,2.69-11.53,4.19-13,4.66l-7.75-7.19.27,0-1.61-19.85C223.51,371.61,229.16,369.88,234.66,368Zm1-5.66,6.44.9c-1.94.73-3.9,1.43-5.87,2.12Zm22.86-3.69,8.39,24.88c-9.77,4.91-18.35,8.64-25.08,11.33l-5.22-27.51Q247.91,363.39,258.48,358.65Zm0-6.31,5.67,1.47c-1.47.72-3,1.4-4.47,2.09Zm22.66-5.27,11.09,22.36c-8.28,5.08-16.22,9.46-23.55,13.19l-8.36-24.81Q271.14,352.85,281.13,347.07Zm-.88-6.29,4.43,1.85c-.9.55-1.79,1.1-2.7,1.64Zm21.87-7.44,14.12,19.85c-1,.76-2.07,1.54-3.12,2.3-6.5,4.71-12.93,9-19.19,12.88l-11.06-22.3A223.39,223.39,0,0,0,302.12,333.34Zm-.41-4.38,1.42,1.1-.51.39Zm-84.5,62.38L213.62,388V374.34l2.16-.59Zm-3.59-.61,11.7,10.86-11.7,20.13Zm31.67,4.86a338.09,338.09,0,0,0,36.65-17.81l21.39,31.39a420.08,420.08,0,0,1-38.56,18.07Zm38.4-18.8c8-4.56,16.46-9.81,25.09-15.78l23.42,31q-13,8.54-27.11,16.18Zm26.73-16.92c1.27-.89,2.55-1.8,3.82-2.72q9.7-7,18.66-14.61l25.49,30.36q-11.65,9.44-24.52,18Zm6.3-41.05c-3.82,3.47-7.82,6.79-12,10l-5.17-4c5.44-4.3,10.67-8.78,15.64-13.47l4.64,4.56C318.84,316.87,317.79,317.86,316.72,318.82ZM301,331.67c-4.57,3.38-9.33,6.6-14.24,9.67l-6.56-2.74q9.09-5.84,17.51-12.33Zm-20.78,13.6q-6.5,3.76-13.36,7.19l-7.28-1.89q9.36-4.87,18.13-10.38Zm-22.4,11.47c-3.9,1.76-7.9,3.42-12,5l-7.8-1.09q9.38-3.93,18.26-8.42ZM234.28,366c-1.76.61-3.54,1.19-5.33,1.77l-7.8-.63q6.33-2.21,12.46-4.67Zm-18.66,5.7c-1.05.28-2.08.58-3.14.86H204q5.76-1.65,11.38-3.48Zm-4,17.16v36.28l-6.52,11.21-.13.5v44.56l.26.67,6.39,7v16.6l-14,14.49V375.87Zm0,119.74v2.44l-7.19,5Zm2-2.07,7.62-7.88,50.63-6.43h199.4L434.5,521.07l-3.62-10.49H213.62ZM430.88,517.1l1.72,4.6h-1.72Zm50,61.36,11.87,10.61-28.55.5Zm1.09-1.71-.13-84.3,3.84.11,19.23,20.06v76.23l-9.22.17Zm23.35,14.1,7,13.06L497.9,591Zm1-79.63-17.88-18.66,52.75-.32,13.07,15,0,3.47Zm50,0v-1.67L561,515ZM556,450v-3.34l8.07,3.34Zm-2-3.84,0,3.84H517v-3.84Zm-46.56-2-.46-107,8-8.94v116ZM430.88,329.74l2.16-1.93V447.89l-2.16-3ZM232.07,457.91l-12.71,6.8V445.36q6.44-1.92,12.71-4Zm127.87-86.28-25.52-30.39q10.17-8.72,19.31-18.09l27.7,29.08Q371.28,362.34,359.94,371.63Zm37.18-36.3q-6.81,8-14.28,15.48l-27.72-29.09q9.28-9.64,17.42-20l29.11,28.13C400.16,331.71,398.66,333.53,397.12,335.33ZM455.93,221l.34.18c-.42,1.57-.85,3.12-1.28,4.68C455.29,224.32,455.61,222.7,455.93,221ZM327.82,298.49q2-2.22,3.94-4.49l3.08,6.15q-6.39,7.5-13.51,14.36l-4.64-4.57Q322.48,304.39,327.82,298.49Zm-128,223.21,13.14-9.12h216v9.12Zm233.25,2v66.41l-2.16,0V523.7Zm-1.9,68.45,1.9,0V600Zm30-.53L495,591l18.39,16.43h-76Zm55.26-69.92-8.15-8.5,46.72-.51,11.27,9Z"/></g></svg>