<svg xmlns="http://www.w3.org/2000/svg" viewBox="0 0 767.13 767.13"><defs><style>.cls-1{fill:#292c35;}</style></defs><g id="Layer_2" data-name="Layer 2"><path class="cls-1" d="M577.07,536.25l-18.64-12.59H283.65l-47.82,12.69-.44-8.45c100.83-18,180.25-36.88,238.7-68.27,33-17.72,57-38.3,73.56-62.91,17.89-26.68,26.59-57.48,26.59-94.18,0-47.78-16.34-87.05-47.25-113.56-29.85-25.59-72.85-39.12-124.36-39.12-60.76,0-111.92,17.46-147.94,50.5-41.23,37.82-62.14,94.38-62.14,168.1v1l93.58,0,0-1.06c0-.33-.55-33.53,8.69-62.08,7.9-24.38,21.06-42.67,39.12-54.36,15.3-9.91,34.66-15.4,57.54-16.32,3-.12,5.85-.15,8.7-.11h.6c32.56.64,58.07,11.9,70.81,31.54,9.73,15,24.41,63.55-23.81,107.46q-20,18.21-53.5,33.54h-.52v.24q-17,7.75-37.42,14.75L356,423l-.06.2q-23.91,8.17-52.44,15.31h0q-39.37,9.84-87.41,17.64l-15.81,7.67V609.46H577.07ZM298.3,447.94l4.92,34.53q-28.08,6.51-59.38,11.87V459.05C259.77,456.32,278.45,452.71,298.3,447.94Zm56-16.09,10.23,33.82Q337,474.57,305.18,482l-4.93-34.55C317.76,443.22,336.14,438.08,354.32,431.85ZM456,377l29.41,27.68q-6.51,5.4-13.79,10.58l-.34.23-25.54-29.79Q451.16,381.38,456,377ZM383.29,222l-3-43.67q9.35-.75,19.17-.76h1.31l-.88,43.81C394.2,221.38,388.64,221.58,383.29,222Zm-106.48,144-33.94-31.44,35.28,4.43Q276.89,351.9,276.81,366.08ZM416.3,169l-.45,7.11q-7.08-.45-14.54-.5l.42-7.08Q409.16,168.56,416.3,169Zm107.64,43.19-8.42,7.43c-1.09-1.31-2.21-2.61-3.39-3.89-.89-1-1.81-1.92-2.74-2.86l7.66-7.32C519.45,207.68,521.76,209.89,523.94,212.19ZM462.62,459.45l-2.79-2.87,1.38-.75Zm-50.92-9.21,8.37,22.48a519.24,519.24,0,0,1-55.31,17.91l-6.52-20.87A546.67,546.67,0,0,0,411.7,450.24Zm12.53-49.88L444.69,432q-14.83,8.19-32,15.64l-16.51-32.47A295.54,295.54,0,0,0,424.23,400.36Zm26.46,30.54,9.8,23.14c-3.45,1.88-7,3.74-10.59,5.54-9.09,4.52-18.46,8.64-28,12.41l-8.39-22.54A373.79,373.79,0,0,0,450.69,430.9ZM367.38,492l-.77,3.5-1.19-3Zm2.18-.6a518.52,518.52,0,0,0,51.15-16.81l1.84,5.71c-16.85,6.2-34.95,11.84-54.3,17.09Zm53-17.55A354.93,354.93,0,0,0,458,457.56l5.24,5.39a410.57,410.57,0,0,1-38.8,16.62Zm39.68-20.73-9.82-23.19q10.81-6.31,20.31-13.05c1.19-.84,2.35-1.69,3.51-2.53L489,436A256,256,0,0,1,462.25,453.08Zm29.88-51.63,14,20.6q-7.23,6.58-15.49,12.75l-12.78-21.7Q485.44,407.42,492.13,401.45Zm-2.2,36.29,2.73,5.84-6-3.51C487.77,439.3,488.85,438.52,489.93,437.74Zm1.64-1.21q5.4-4,10.49-8.32l10.62,3.57q-8.08,6.63-17.34,12.81Zm12.26-9.84c1.16-1,2.32-2,3.46-3.07l4.54,5.76Zm3.79-6-14-20.57q6.47-5.89,12.06-12.05l15.66,18.31A173.5,173.5,0,0,1,507.62,420.68ZM483.5,303.4c-.06-2.69-.25-5.3-.54-7.8l7.05-5.69c.3,2.71.48,5.5.53,8.35ZM482,258.92l40.18-26.72q2.65,4.26,4.81,8.63l-42.42,22.76C483.74,262,482.87,260.44,482,258.92Zm52.52-37.08,7.67-4.33L536,223.9C535.47,223.21,535,222.52,534.48,221.84Zm4.15,9.72-11.45,5.34q-2.1-3.9-4.6-7.73l10.24-6.37Q535.92,227,538.63,231.56Zm20.5,75.63c0-2.12,0-4.21-.11-6.28l10.68,2Zm-20.8,75-17.42-13.76c1.58-2.45,3.06-4.93,4.46-7.43l17.87,11.6Q541,377.44,538.33,382.15Zm6.6-8.49,7.9,5.27-10.39-.24Q543.73,376.22,544.93,373.66Zm-.85-2.94L526.33,359.2q2.29-4.24,4.22-8.58l17.93,9.09Q546.51,365.32,544.08,370.72Zm6.21-10.07,8.25,4.68-10.16.38C549.05,364.05,549.68,362.36,550.29,360.65Zm-1.15-2.84-17.79-9q2.11-5,3.78-10.1l17.42,7.46Q551.08,352.06,549.14,357.81Zm-10.77-31.17,17,5.32q-.92,6.19-2.32,12.21l-17.28-7.41Q537.27,331.77,538.37,326.64Zm16,20.4,9.21,4.78-10.94,1.53C553.3,351.28,553.87,349.17,554.41,347Zm2.87-14.43,9.94,3.53-11.13,3.33Q556.75,336.1,557.28,332.61ZM555.63,330l-16.87-5.28a120.14,120.14,0,0,0,1.74-12l16.38,4Q556.52,323.42,555.63,330Zm3.22-12.78,10.36,2.55-10.86,4.13Q558.67,320.55,558.85,317.17Zm-66.32-19.56q-.12-4.49-.63-8.73l46.27-9.34c.59,4.89.9,9.68,1,14.3Zm48.68-1.17q0-5.88-.53-12.1l15.16.43q.78,6.71,1.09,13.78Zm-.72-14.1c-.37-3.75-.88-7.57-1.59-11.42l14.52-.87q1.32,6.18,2.17,12.71Zm.19,28.28c.31-3.85.5-7.92.53-12.17l15.8,2.12c.07,2.25.12,4.51.12,6.8,0,2.45-.06,4.87-.16,7.27Zm17.16-25.77,11.06.53-10.43,5.8C558.29,289,558.09,286.93,557.84,284.85ZM555.39,270l11.24-.37L556.55,276C556.2,274,555.81,272,555.39,270Zm-16.88-1q-1-5-2.41-10l13.77-2.31q1.77,5.55,3.11,11.42Zm13.29-12.58,10.93-1.57-9.4,6.73Q552.61,258.91,551.8,256.36Zm-16.28.68c-.87-2.83-1.84-5.66-2.95-8.48l12.62-4.29q2.23,5.07,4,10.47Zm11.53-13.32,10.34-2.79-8.56,7C548.26,246.54,547.66,245.12,547.05,243.72Zm-15.23,3c-1.12-2.7-2.35-5.38-3.71-8l11.55-5.39q2.54,4.43,4.7,9.16Zm9.57-14.19,9.17-3.94-7.43,7.08C542.57,234.6,542,233.55,541.39,232.52Zm-13.57,10.11c1.42,3,2.67,6,3.78,9l-44.14,18.63c-.63-1.67-1.32-3.31-2.06-4.9Zm4.46,10.91c1.08,3.11,2,6.23,2.8,9.34l-45.39,14.38q-.69-2.6-1.55-5.09Zm3.28,11.28c1,4.28,1.8,8.54,2.37,12.73l-46.26,9.34c-.38-2.63-.87-5.2-1.47-7.69Zm-43,34.79,46.63-3.76c0,5.44-.18,10.63-.59,15.46q-.15,1.8-.36,3.6l-46.56-1.7A97.1,97.1,0,0,0,492.58,299.61Zm-1.17,15.59L538,316.91a117.49,117.49,0,0,1-4.18,19.27l-45.05-9.27A93.12,93.12,0,0,0,491.41,315.2Zm-3.22,13.63,45,9.25a122,122,0,0,1-7.64,18.25l-41.9-16A95.78,95.78,0,0,0,488.19,328.83Zm-5.38,13.31,41.83,16a135.75,135.75,0,0,1-9.95,15.78l-38.17-20.81A106,106,0,0,0,482.81,342.14Zm43.05,58.75c-1,1.33-2.1,2.64-3.19,3.95L507,386.56q3.35-3.76,6.37-7.64l16.32,16.78Q527.86,398.33,525.86,400.89Zm-50.45-46.13,38.07,20.76a159.18,159.18,0,0,1-12,14.07l-33.46-25.22A119.39,119.39,0,0,0,475.41,354.76Zm47.2,53.13,5.33,6.67-9-2.5Q520.8,410,522.61,407.89Zm1.31-1.55c.89-1,1.75-2.12,2.61-3.19l12.28,2.26q-3.81,4.83-8.09,9.43Zm4-5q1.64-2.12,3.2-4.29l6.38,6.06Zm3-7.33-16.26-16.72q2.73-3.58,5.17-7.26l17.52,13.84Q534.34,389.08,530.89,394Zm8-8.82,7.13,6.56-10.54-1Q537.19,388,538.84,385.22Zm1-1.78c.52-.92,1-1.84,1.53-2.77l13.25.3q-2.79,5.38-6,10.54Zm5.92-11.62q.91-2,1.77-4.08l13.3-.49q-2.26,5.76-5,11.29ZM551,358.74c.37-1.09.72-2.18,1.07-3.28l13.48-1.88q-1.66,5.76-3.73,11.29Zm3.93-13.7c.26-1.11.51-2.22.75-3.34l13.57-4.06q-1.23,6.8-3,13.29Zm2.68-14.45c.21-1.49.39-3,.56-4.51L571.44,321c-.42,4.73-1,9.36-1.73,13.88Zm14.08-12.33L559,315.13c.08-1.9.13-3.83.15-5.78L572.22,304Q572.18,311.31,571.65,318.26Zm-12.72-19.4q-.1-2.78-.3-5.49l12.94-7.19c.41,4.93.63,10,.66,15.15Zm-1.34-16c-.21-1.57-.42-3.14-.67-4.69l12.59-8q1.15,6.53,1.82,13.36ZM555,268c-.34-1.49-.7-3-1.08-4.4l12.16-8.7q1.73,6.15,3,12.64Zm-3.81-13.54c-.5-1.52-1-3-1.59-4.48l11.59-9.54q2.33,5.82,4.17,12Zm-5-12.56c-.67-1.48-1.38-2.94-2.11-4.37L555,227.11q2.84,5.32,5.21,11Zm-5.81-11.11c-1-1.63-2-3.24-3-4.81l-.27-.38,10.44-10.77c2.24,3.28,4.35,6.67,6.3,10.18Zm-7.12-10.55c-1.4-1.85-2.88-3.66-4.4-5.42l9.67-11.6q4.08,4.67,7.68,9.71Zm-5.73-6.95c-.25-.29-.52-.56-.77-.85l4.51-3.64Zm4.07,7.93-10.13,6.3c-1.46-2.14-3-4.25-4.69-6.33l8.5-7.51Q528.62,217.29,531.61,221.2ZM508,211.46q-3.18-3.08-6.63-5.9l6.28-7.54q4.13,3,7.91,6.22Zm-15.62-12.52,4.53-7.83q4.72,2.73,9.1,5.76l-6.19,7.43Q496.2,201.48,492.35,198.94Zm-36,35.41,21.26-41.47q4.66,2.25,9,4.82L461,237.19Q458.73,235.71,456.34,234.35Zm-7.54-3.77,17.46-42.48q4.92,1.82,9.52,3.94L454.59,233.4Q451.79,231.9,448.8,230.58Zm-7.67-3,13.81-43.15q4.85,1.35,9.44,3L447,229.79Q444.13,228.62,441.13,227.6Zm-11.66-3.22,9-43.64q7.53,1.32,14.54,3.18L439.23,227C436.09,226,432.85,225.11,429.47,224.38Zm-13.08-2.09,4.69-43.78c5.31.46,10.44,1.1,15.42,1.91l-9,43.57Q422.14,222.93,416.39,222.29Zm15.78-51.81-.8,7.15q-6.58-.88-13.52-1.39l.46-7.13Q425.39,169.61,432.17,170.48ZM483,184.1l-3.15,7.68q-4.45-2.21-9.22-4.12l1.93-7.73C476.17,181.21,479.65,182.61,483,184.1Zm-14.24,2.81a145.72,145.72,0,0,0-16.14-5.14l1.59-7.28q8.52,2.06,16.45,4.79ZM452.32,174l-1.59,7.24q-8.34-2-17.38-3.35l.81-7.17Q443.52,172,452.32,174Zm29.37,18.67,3.17-7.76c.71.32,1.42.63,2.12,1q4.2,2,8.17,4.21l-4.48,7.74Q486.35,195.11,481.69,192.69Zm16.21-3.29,8-13.08q5.26,3.1,10.15,6.57l-8.83,12.42Q502.72,192.19,497.9,189.4Zm-1.74-1q-4.05-2.27-8.32-4.31c-.71-.34-1.44-.65-2.16-1l6.73-13.8q6.07,2.79,11.72,6Zm-12.3-6.12Q478.66,180,473.17,178l5.08-14.41q6.38,2.24,12.34,4.9Zm-12.58-4.91q-8-2.77-16.59-4.83l3.42-14.77c6.32,1.46,12.4,3.2,18.25,5.18Zm-20.45-5.71q-8-1.75-16.46-2.91l1.42-14.91c7,.87,13.74,2,20.24,3.47Zm-20.26-3.41q-6-.72-12.16-1.13l.44-14.8q7.59.44,14.84,1.28Zm-59.79,55.33-7-43.21c4.77-.77,9.64-1.39,14.62-1.83l2.95,43.66C377.7,222.55,374.2,223,370.78,223.58Zm-12.31,2.65-11-42.53q6.94-1.75,14.23-3l7.07,43.24Q363.5,224.9,358.47,226.23ZM347,229.92l-14.66-41.63c4.3-1.53,8.72-2.88,13.25-4.08l11,42.55Q351.62,228.16,347,229.92Zm-30.12-37.39-3.79-7.83q6.81-2.85,14-5.22l2.71,7.61Q323.15,189.55,316.88,192.53ZM280.53,217l-7.9-8.26q5.4-4.41,11.28-8.38l6.38,8.39Q285.24,212.67,280.53,217Zm1.55-19,.61.8-.11.07Zm9.82,9.58-6.31-8.34q2.43-1.6,5-3.13c2-1.23,4.11-2.42,6.22-3.57l5.35,8.05Q296.85,203.87,291.9,207.57Zm11.91-8-5.28-7.95q6.17-3.27,12.73-6.1l3.81,7.89q-5.1,2.51-9.95,5.36ZM329,178.89a208.19,208.19,0,0,1,21-5.43l1.64,7.21a175.6,175.6,0,0,0-19.94,5.73Zm44.48-9,.95,7a200.66,200.66,0,0,0-20.87,3.32l-1.63-7.16Q362.43,171,373.48,169.87Zm2.94,6.85-.95-7.05q11.86-1.12,24.26-1.15l-.42,7.08Q387.52,175.62,376.42,176.72Zm21.34-10.18q-11.47.11-22.52,1.14l-1.34-14.44q12.32-1.2,25.25-1.35Zm-24.5,1.35q-11.14,1.14-21.76,3.22L348.41,157q11.41-2.3,23.5-3.56Zm-23.72,3.62A212.38,212.38,0,0,0,328.36,177L324,163.32a227,227,0,0,1,22.49-5.9Zm-23.09,6.08q-7.29,2.39-14.18,5.28l-5.49-13.21c5-2.09,10.06-4,15.29-5.72Zm-16,6.08q-6.68,2.87-12.95,6.21l-6.88-12.48q6.94-3.75,14.34-6.94Zm-14.72,7.14c-2.11,1.16-4.19,2.35-6.22,3.58q-2.61,1.59-5.14,3.26l-8.82-11.15q6.42-4.33,13.32-8.15ZM280.93,200q-5,3.51-9.72,7.34l-10.08-10c4.07-3.43,8.3-6.69,12.72-9.74Zm-11.26,8.62-.76.66-2.61-4Zm1.41,1.43,8,8.35c-3.05,2.9-6,5.93-8.82,9.11l-9.65-7.76Q265.6,214.65,271.08,210Zm31.6,54-35.85-29.33q4.49-5.61,9.42-10.69l32.36,32.43Q305.49,260,302.68,264Zm-11.74,21.25-42.72-21.11c2.18-4.44,4.62-8.94,7.37-13.44l.2-.31,39.69,25.35Q293.07,280.32,290.94,285.27Zm-53.39-.58-13.91-4.28q2.94-8.37,6.52-16.14l13.29,5.36C241.15,274.83,239.2,279.88,237.55,284.69Zm40.81,52.39-37.88-4.75v.09l-9.74-9a142.42,142.42,0,0,1,2.93-17.62l47.44,12.64Q279.39,327.35,278.36,337.08Zm-68.45-1.92-6-1.69,6.16.25Zm2.15-1.34,7.87.45-8.87,11C211.33,341.36,211.66,337.57,212.06,333.82Zm9.42-1.46-9.22-.53a256.27,256.27,0,0,1,5-29.16l14.48,2.67a144.83,144.83,0,0,0-3,18.08Zm-6.94-26.89-8.26-4.13,9,1C215,303.4,214.76,304.43,214.54,305.47Zm17.62-2.08-14.47-2.67q2.3-9.54,5.31-18.41l13.91,4.28C234.87,292.72,233.32,298.4,232.16,303.39ZM220,285.07l-8.1-4.74,9.16,1.53C220.67,282.93,220.31,284,220,285.07Zm6.86-18.25-7.58-5.88,9,2.68C227.77,264.68,227.29,265.75,226.83,266.82Zm17.45,1L231,262.46q3.55-7.48,7.7-14.42l12.56,6.08C248.66,258.72,246.33,263.31,244.28,267.81Zm.95-33.1-5.94-6.66,7.65,4.34C246.36,233.15,245.8,233.93,245.23,234.71Zm3.43-1.26,5.56,3.77c2.74,1.85,4.41,3,5.48,3.63-2,2.86-4,5.8-5.81,8.83-.55.9-1.08,1.8-1.61,2.7l-12.49-6A156.2,156.2,0,0,1,248.66,233.45Zm-13.24,16.29-6.65-5.91,8.1,3.39C236.38,248.05,235.9,248.9,235.42,249.74Zm61,24.25-39.57-25.27q4.11-6.51,8.73-12.46l35.94,29.41Q298.83,269.65,296.43,274ZM269,229q-4.24,4.9-8.1,10.23c-1.86-1.21-7-4.67-10.94-7.36,2.94-3.72,6-7.31,9.28-10.72Zm-12.67-7.65-4.54-6,5.87,4.52C257.16,220.4,256.72,220.89,256.28,221.37Zm-1.38,1.49c-2.32,2.56-4.55,5.22-6.7,7.95L236,223.87q4.88-6.42,10.33-12.31ZM244,236.35c-2.12,3-4.15,6-6.08,9.15L225,240.1q4.44-7.47,9.52-14.35Zm-9.62,15.16q-2.81,5-5.29,10.28l-13.36-4c2.48-5.42,5.17-10.67,8.08-15.71Zm-8.4,17.2q-2.31,5.49-4.33,11.24l-13.73-2.31q3.06-9.12,6.83-17.64ZM219.36,287c-1.35,4.35-2.56,8.81-3.66,13.39l-13.76-1.59q2.28-9.76,5.25-18.92Zm-5.24,20.46q-2.43,11.67-3.86,24.24l-13.74-.56a274.52,274.52,0,0,1,4.91-30Zm-4.41,29.69c-.33,3.52-.6,7.1-.81,10.72l-14.32,17.71q.12-16.71,1.7-32.2Zm-1,14.13q-.39,7.89-.42,16.09l-12.65.05Zm2.14-2.65,18.93-23.4L275,367.15l-64.73.25Q210.33,357.8,210.86,348.66ZM283,319.39l5.52,3.54c-1.22,6.1-2.1,12.07-2.74,17.59l-5.42-2.86Q281.3,328.14,283,319.39Zm-1.47-2.94L234.1,303.83a192.13,192.13,0,0,1,6.37-21.44l45.12,17.67Q283.22,307.88,281.48,316.45Zm-40.31-35.94c1.75-4.69,3.8-9.57,6.18-14.55l42.81,21.16q-2.16,5.29-4,11Zm50.59,8,5.43,5.82q-1.83,4.28-3.41,8.85L288,299Q289.72,293.54,291.76,288.5Zm.84-2q2-4.78,4.33-9.2l5.58,6.14q-2.38,4.26-4.46,8.89Zm5.33-11.08q2.32-4.25,4.93-8.12l5.11,7.37c-1.55,2.22-3,4.54-4.42,6.94Zm6.15-9.89q2.71-3.87,5.72-7.39l5,7.82c-1.94,2.21-3.81,4.53-5.57,7Zm5.85-10.59-32.28-32.36a141.48,141.48,0,0,1,10.93-9.87l27.84,35.73c-.7.64-1.39,1.28-2.08,1.94Q312.08,252.55,309.93,254.92Zm-19.78-43.48q5.44-4.32,11.33-8.1l23.93,37.92a88.68,88.68,0,0,0-7.5,5.85Zm36.1,31.67,3.54,9.28c-2.2,1.56-4.32,3.23-6.37,5l-4.38-8.6A88.12,88.12,0,0,1,326.25,243.11Zm.79-3-23.87-37.86c1-.62,2-1.23,3-1.82,3.17-1.87,6.44-3.63,9.78-5.27l18.53,40.47C331.9,237.05,329.43,238.55,327,240.14Zm-9.31-45.8q6.18-2.94,12.73-5.36l14.68,41.66q-4.62,1.86-8.92,4.09Zm28,38.23,2.62,9.72.14,0c-2.81,1.13-5.52,2.39-8.14,3.74l-3.33-9.4Q341.19,234.4,345.7,232.57Zm1.88-.73c3-1.15,6.14-2.2,9.36-3.12l1.61,10,.13,0q-4.37,1.28-8.48,2.85Zm11.3-3.65q4.94-1.32,10.18-2.28l.67,10.19q-4.74.9-9.24,2.13ZM371,225.57c3.36-.56,6.81-1,10.35-1.36V234.4c-3.3.35-6.53.79-9.67,1.34Zm31.79-47.94q8.39.09,16.27.71L414.4,222.1c-2.76-.26-5.57-.46-8.46-.56-1.34,0-2.67-.08-4-.1ZM427,225.94l-3.23,10q-4.77-.94-9.84-1.53l2.11-10.18Q421.72,224.89,427,225.94Zm2,.39c3.32.72,6.5,1.58,9.57,2.56l-3.9,9.85c-2.86-.89-5.83-1.68-8.9-2.34Zm11.47,3.18c2,.66,3.86,1.38,5.72,2.15l-4.26,9.69q-2.61-1.07-5.35-2Zm7.56,2.94c1.95.86,3.83,1.79,5.66,2.78-1.67,3.41-3.8,7.73-4.63,9.41-1.71-.89-3.46-1.74-5.28-2.53Zm7.42,3.73c1.55.89,3,1.82,4.49,2.79L455,248.11q-2-1.32-4.22-2.54C451.44,244.32,452.72,241.71,455.43,236.18Zm6.15,3.92c1.39,1,2.74,2,4,3.08L460.34,252c-1.19-.94-2.41-1.85-3.68-2.72Zm1-1.78,25.7-39.58q4.29,2.64,8.25,5.61l-29.75,37.13C465.46,240.38,464.05,239.33,462.61,238.32Zm35.54-32.76q4.11,3.21,7.86,6.78l-33.95,33.89c-1.19-1.2-2.44-2.34-3.73-3.45Zm-22.9,47.31-5.8,8q-1.26-1.54-2.64-3l5.4-8.49C473.26,250.52,474.29,251.67,475.25,252.87Zm-1.81-5.19,34-33.93c1.1,1.09,2.18,2.19,3.23,3.33s2.26,2.55,3.33,3.84l-37.35,30.41C475.62,250.08,474.55,248.87,473.44,247.68Zm41.82-25.22a98.21,98.21,0,0,1,5.8,8l-40.15,26.71c-1-1.48-2-2.91-3-4.31Zm-32.37,42.39-6.44,7.06c-.66-1.41-1.33-2.7-2-3.86l6-7.61Q481.76,262.59,482.89,264.85Zm.91,2c.68,1.49,1.32,3,1.9,4.56l-6.8,6.56c-.5-1.42-1-2.76-1.56-4Zm2.62,6.64c.52,1.54,1,3.11,1.42,4.71l-7,6.08c-.38-1.46-.79-2.87-1.22-4.21Zm2,6.89q.83,3.53,1.35,7.23l-7.08,5.7c-.34-2.38-.77-4.67-1.28-6.85Zm-4.86,25.52,7.05-5.15a94,94,0,0,1-.92,12.74l-6.89,3.05A82,82,0,0,0,483.52,305.86Zm-1.11,13,6.87-3a89.37,89.37,0,0,1-2.56,11l-6.54,1.95A84.8,84.8,0,0,0,482.41,318.84ZM479.48,331l6.52-1.94a93.79,93.79,0,0,1-4.33,10.79l-5.95.84A90.1,90.1,0,0,0,479.48,331Zm-4.78,11.85,5.91-.83a100.13,100.13,0,0,1-5.95,10.23l-5.29.1A95.89,95.89,0,0,0,474.7,342.85ZM468,354.38l5.25-.1c-2.16,3.12-4.54,6.19-7.11,9.21l-4.6-.46A107.79,107.79,0,0,0,468,354.38Zm-1.28,11.51L500.13,391q-6.13,6.29-13.21,12.29l-29.48-27.75Q462.45,370.83,466.76,365.89Zm2.84,50.69q-10.77,7.49-23.16,14.43l-20.5-31.68a214.05,214.05,0,0,0,18.19-12.45Zm-44.81-18.9-1.88-2.35A188.08,188.08,0,0,0,440,383.64l2.56,1.89A211.35,211.35,0,0,1,424.79,397.68Zm-1.72,1.05a296.89,296.89,0,0,1-27.33,14.45v-3.55a271.67,271.67,0,0,0,25.43-13.27ZM394.4,416l16.49,32.41q-20.61,8.86-44.44,16.64L356.21,431.2q6.14-2.11,12.22-4.41Q382.17,421.61,394.4,416ZM217.27,461.21V458q15.45-2.52,30-5.25l-5.05,4.54C232.81,458.89,224.37,460.18,217.27,461.21Zm-2,.29-7.89,1.11,7.9-3.85ZM204.44,465l10.82-1.52,0,17.17-12.05-15.48Zm12.82-1.81c7-1,15.3-2.27,24.58-3.84v35.29c-4.61.78-9.24,1.55-13.94,2.3l-10.69-13.73Zm9,34.84-9.07,12.05.06-23.62ZM228,499q72.18-11.4,128.3-28.62l6.5,20.79c-33.51,8.84-65.58,14.52-90.76,19-16.51,2.92-29.56,5.22-38.43,7.59l-.25.06-10.32,10.06-6-2.91,0-11.46Zm7.4,39.54,46.15-12.24-6.08,9.63-49.2,12.44Zm321.75-2.74H278l6.38-10.12h272.8ZM222.74,587.13l53.45-5.6,267.93.33,8,7h-331ZM217,556.54l.07-29.4,5.16,2.52v20.15Zm16-35.61.28,5.32-7,1.23Zm-17.91,3-4.29-2.09,4.31-5.72Zm-4.82-.12,4.81,2.35-.08,33-4.73,6.08ZM215,562.38l0,11.94-4.44-6.19Zm2-2.58,6.81-8.76,51.3-13v41.57l-52.39,5.49-5.76-8ZM221,586.09l-2.58,2.75H217l0-8.32Zm-4.46,4.75-.49.51.41-.51Zm2.74,0H554.39l19,16.62H203.62Zm338.18,0h.6l2.87,3Zm0-2h-2.32l-9.3-8.14,11.49-16.05Zm-13.48-9-266.85-.33V537.78H557.19l.12,23.46Zm15.21-42.08h14.93L559.3,558.47Zm0-2,0-9.23,13.66,9.23Zm-325.3,1.48-9.62,10.35V529.87c3.07-.53,6.11-1.07,9.14-1.61Zm1.06-17.82c8.77-2.28,21.49-4.53,37.47-7.35,25-4.42,57.26-10.12,91.07-19.09l2,5.1c-38.49,10.32-81.9,19.15-130.23,27.79Zm238.2-61.57c-2.45,1.31-5,2.6-7.48,3.87L463,454.86c7.56-4.2,14.89-8.7,21.9-13.54l8.14,4.79Q483.68,452.19,473.14,457.87ZM514.85,430l-6.09-7.72q4.47-4.14,8.62-8.55l11.44,3.17A178.85,178.85,0,0,1,514.85,430Zm25.65-26.75-8.21-7.8c.64-.92,1.28-1.85,1.9-2.78l12.89,1.25c-.37.57-.71,1.14-1.09,1.7C544.25,398.19,542.41,400.73,540.5,403.23Zm-3.42-201.69L525.4,211c-1.87-2-3.83-3.9-5.86-5.76L529,193.42Q533.24,197.31,537.08,201.54ZM527.47,192l-10.55,10.87q-3.88-3.35-8.1-6.4l8.82-12.4Q522.79,187.84,527.47,192ZM416.73,152.21l-2.29,14.68q-6.24-.33-12.68-.36l-.47-14.66h1.34Q409.8,151.86,416.73,152.21ZM256,201.84c1.16-1.07,2.34-2.11,3.53-3.14l7.82,11.88q-4.35,3.81-8.37,7.91l-11.15-8.6Q251.82,205.74,256,201.84ZM278.81,367.2q0-14.4,1.28-27.4l5.4,2.85a245.71,245.71,0,0,0-1.39,24.77Zm10.1-46.36-5.56-3.57q1.71-8.52,4-16.28l5.7,4.16c-.06.2-.14.39-.2.6A149.09,149.09,0,0,0,288.91,320.84Zm27.25-56.43-5-7.87c1.47-1.64,3-3.23,4.56-4.74.58-.56,1.17-1.11,1.76-1.65l4.39,8.6Q318.91,261.44,316.16,264.41Zm16.68-14.09c-.46.29-.9.61-1.35.91L328,242q3.49-2.35,7.25-4.41l3.34,9.39C336.58,248,334.68,249.12,332.84,250.32Zm58.54-16.64c-2.72.11-5.38.29-8,.52V224q7.94-.67,16.46-.61l-.91,10.13C396.45,233.54,393.93,233.57,391.38,233.68Zm10.46-10.24c1.34,0,2.68.05,4,.1,2.79.1,5.51.29,8.18.54l-2.11,10.15c-3.57-.36-7.24-.57-11-.65Zm60.06,29.79,5.26-8.74c1.26,1.1,2.48,2.23,3.65,3.42l-5.43,8.5Q463.72,254.76,461.9,253.23Zm8.84,9.27,5.76-8c1,1.34,2,2.72,2.89,4.14l-6,7.57a1.74,1.74,0,0,0-.11-.18C472.46,264.82,471.62,263.65,470.74,262.5ZM460,364.88l4.55.46q-4.06,4.59-8.77,9l-2.93-1.87Q456.73,368.71,460,364.88Zm-10.91,11.18c.78-.71,1.54-1.42,2.29-2.13l2.89,1.83q-4.73,4.33-10.07,8.51l-2.55-1.9Q445.6,379.27,449.11,376.06Zm-55.37,38.05q-12.24,5.61-26,10.81-5.69,2.15-11.42,4.14l1.3-4.29q19.63-6.75,36.14-14.23ZM354,429.86c-17.71,6.07-35.62,11.12-52.73,15.31l3.5-4.88q27.39-6.87,50.54-14.72Zm-55.7,16c-19,4.56-36.85,8.07-52.33,10.76l5.15-4.62q26.88-5.15,50.66-11Zm-83,38-.07,28.86-6.85,9.1v46.54l6.68,9.31,0,11.75-12.63,16.08V467.37ZM575.07,606l-15.61-16.51-.14-27.56,15.75-22Z"/></g></svg>