<svg xmlns="http://www.w3.org/2000/svg" viewBox="0 0 767.13 767.13"><defs><style>.cls-1{fill:#292c35;}</style></defs><g id="Layer_2" data-name="Layer 2"><path class="cls-1" d="M438.07,279.78c-32,0-60,7.89-83.27,23.45-22,14.66-39.21,35.81-51.35,62.88L293,360.3l13.76-43V241H534.56l13.31-11.61V156.26H216.27V352.41l97.28,54.47.52-.7c26.16-35.11,58.78-52.35,99.69-52.7,25.27.17,44.56,7.27,57.32,21.14,12.55,13.64,18.91,33.89,18.91,60.2,0,31.85-7.9,54.92-24.16,70.52-16.8,16.13-42.15,24-77.49,24-38.64,0-66.37-7.56-84.78-23.11-17.78-15-26.42-37.2-26.42-67.8v-1l-76.68,1.14-14.91,5.39V445A211.88,211.88,0,0,0,188.73,482l-.32.15.43,1.9h.26c7.17,37.54,25.17,67.76,53.8,90.12,34.87,27.25,85.32,41.65,145.89,41.65,29.19,0,55.85-3.63,79.26-10.78,23.86-7.3,44.43-18.28,61.15-32.66,35.32-30.37,53.23-74.88,53.23-132.28C582.43,342.72,525.77,279.78,438.07,279.78Zm27.11,307.4-.63-1.5.18-.06ZM242.57,545.94l6-6c2.09,2.35,4.35,4.7,6.8,7,.32.31.66.6,1,.9l-5.46,6Q246.58,550.08,242.57,545.94Zm61.05-37.11q2.67,2.16,5.61,4.11l-5.38,9c-2.07-1.44-4.06-3-6-4.55ZM469.79,366.58l28.06-32.84q4.27,2.79,8.22,5.94l-31.71,30.59C472.9,369,471.38,367.74,469.79,366.58Zm-57-15.12v0c-2.6,0-5.16.14-7.69.32l-1.81-36.62a108.08,108.08,0,0,1,11.89-1.58l-1.14,37.86h-.31ZM304.73,314.81l-3.9-3.74V232.94l3.9,7.31Zm-3.23,56.85,2.82,14.06-34.63-19.41,14.66-4.45Zm-71.93-18.78-10-1.68,10-8.22ZM515.85,183.47l-257-2-.44.1-8.37,4-11.87-10.75,286.32.94Zm11.64-7.67,5.7,0v31.5l-15.64-22.69ZM283.66,360l-16,4.82L248.25,327l4.41-24.91,45.89,10.18Zm15.17-49.77-46-10.2-2-112.63,7.72-3.72,40.24,45.62Zm-50-123,2,113.53-4.58,25.81-14.73,12.16-.31-163.92h3.94Zm-18.14-14.42-5.45-7,7.69,7Zm.84,180.65,0-12.14,15.33-12.65,19.77,38.55.39-.12,38.2,21.4,1.36-.37s.23-.4.64-1.07l2.61,9.66Zm68.74-40.14,4.28,4.1L291,359.78h-5.2Zm0-85.4-39.21-44.45,254.63,2,17.49,25.37v17.1Zm233.4-54.12h-3.94l11-9.77Zm1.51,39.92,9.78,14.2h-9.78Zm-8.45-39.94-290.78-1-16.1-14.59H544.24Zm-297.5.37.31,166.22-11.28,9.31V160.16Zm1,180.85,80.33,44.41,1.12,4.12-88.9-49.78ZM313,400.77l1.88,1-1.18,1.55Zm-.73-2.68-3.59-13.3c.54-.84,1.19-1.82,1.94-2.92l12.11,10.6q-3.36,3.7-6.59,7.75ZM306.21,385l-2.62-13,5.56-.56.87-.72a82.27,82.27,0,0,1,5.63-13.33l7.77,4.9A185.06,185.06,0,0,0,306.21,385ZM304,369.86c.13-.32.27-.63.41-.94l1.37.76ZM544.66,522.59l8.46,7.82L543,525.27C543.59,524.38,544.13,523.49,544.66,522.59Zm-3.43,1.81-8.63-3.86c1.61-3.07,3.09-6.24,4.47-9.52l9.88,3.26Q544.34,519.38,541.23,524.4Zm-5,11,6.65,6.85L535,537Zm-2.88.48-7.05-4.6q2.88-4.31,5.39-8.93l8.5,3.8Q537,531,533.32,535.84Zm-28.66,27.53-4-5q3.58-2.7,6.91-5.63c.54-.48,1.07-1,1.6-1.46l4.69,5C510.89,558.74,507.84,561.12,504.66,563.37ZM492.72,571,490,565.52q4.69-2.81,9-5.95l4,4.95Q498.05,567.94,492.72,571Zm-13.17,6.69L477.8,572q5.44-2.52,10.49-5.42L491,572C487.3,574,483.48,575.91,479.55,577.68ZM466,583.08l-2-5.58q6.18-2.14,11.91-4.71l1.75,5.71C473.92,580.14,470,581.67,466,583.08Zm-44.21,10-.4-6.23q10.38-1.18,20-3.16l1.36,5.89Q432.65,591.75,421.8,593.09ZM420,595.93l-.11-.61h.07Zm-30.1-.79v-6.53a286.6,286.6,0,0,0,29.56-1.54l.4,6.24A291.1,291.1,0,0,1,389.86,595.14ZM263.61,563.59l4.14-6.48c3,2.18,6.17,4.26,9.45,6.21l-2.74,7Q268.83,567.17,263.61,563.59Zm39.16-39.93-24.66,37.88q-5.43-3.25-10.39-6.93l29-35.57Q299.61,521.47,302.77,523.66Zm8.21,5-19.62,39.84q-6-2.78-11.52-6l24.59-37.76C306.52,526.15,308.71,527.46,311,528.68Zm9.66,4.56-16.27,40.6q-5.79-2.08-11.19-4.5l19.57-39.73Q316.53,531.56,320.64,533.24Zm10.7,3.77-12.66,41.31q-6.4-1.73-12.42-3.81L322.5,534C325.34,535.08,328.28,536.09,331.34,537Zm15,3.62L338,582.57q-9-1.56-17.37-3.73l12.65-41.27Q339.49,539.34,346.3,540.63Zm17.53,2.44-4.18,42.3q-10.2-.92-19.7-2.48L348.27,541Q355.7,542.3,363.83,543.07Zm24,1.1.07,42.44q-13.62,0-26.22-1.07l4.18-42.29Q376.22,544.14,387.79,544.17Zm17.55-.57,3.19,42.4q-9.06.59-18.68.61l-.06-42.44Q397.89,544.14,405.34,543.6Zm12.53-1.35,7,42.18q-7,.9-14.35,1.43l-3.19-42.42C411,543.13,414.47,542.74,417.87,542.25ZM278.94,564.33q5.56,3.23,11.6,6l-2.67,6.73q-6-2.69-11.66-5.76Zm13.42,6.84a168.68,168.68,0,0,0,17.49,6.64l-1.66,6.87a182.87,182.87,0,0,1-18.5-6.79Zm17.75,14.09,1.65-6.85q9.38,2.88,19.61,4.94l-1.05,6.85Q319.82,588.15,310.11,585.26Zm22.2,5.33,1-6.84c7,1.34,14.28,2.41,21.85,3.2l-.67,6.75Q343,592.58,332.31,590.59Zm24.2,3.29.67-6.73q14.63,1.43,30.68,1.46l0,6.55Q371.51,595.25,356.51,593.88Zm70.34-9.73-7-42.2q6.76-1.07,12.94-2.65l10.86,41.86Q435.55,582.95,426.85,584.15Zm18.75-3.42-10.88-41.94q4.13-1.14,8-2.5l15.1,41.15Q451.89,579.25,445.6,580.73Zm14.11-3.89L444.58,535.6q3.9-1.47,7.53-3.2l19,40.31Q465.59,575,459.71,576.84Zm.76-49,23.64,38.73c-3.57,1.93-7.31,3.71-11.18,5.36l-19-40.41C456.18,530.37,458.36,529.15,460.47,527.84Zm48.75,20.66L476,515.22a76.14,76.14,0,0,0,4.93-5.82l36.82,30A108.72,108.72,0,0,1,509.22,548.5ZM519,537.86l-36.88-30c1.34-1.85,2.59-3.78,3.78-5.77l40.21,25.84A109.5,109.5,0,0,1,519,537.86Zm-28.62-44.48L533,515.25a122.56,122.56,0,0,1-5.88,10.93l-40.25-25.86C488.12,498.09,489.27,495.77,490.34,493.38Zm26.83-143.45a106,106,0,0,1,7.11,8.48l-40.13,22.74c-1-1.42-2.07-2.78-3.17-4.09Zm23.07-5.16-14.33,12.49q-2.42-3.22-5.07-6.25l13.85-14.64C536.61,339.07,538.46,341.86,540.24,344.77ZM561.39,398l-15.22,5.14A128.31,128.31,0,0,0,542,388l14.78-6.47C558.74,387.5,560.23,393.08,561.39,398Zm1.14-3.77,8.83.41-8.07,2.72C563.05,396.38,562.8,395.34,562.53,394.27Zm3,45.79-16.16,1.22a181.76,181.76,0,0,0-.43-18.37l16.3-2.52A162.78,162.78,0,0,1,565.5,440.06Zm-19.51,27L499,458.32c.54-5.52.82-11.31.83-17.41l47.44,2.4A220.09,220.09,0,0,1,546,467.05Zm1.35-25.74-47.5-2.4q-.06-5.84-.52-11.3l47.86-.37Q547.53,434.1,547.34,441.31Zm1.42-20.4a149.34,149.34,0,0,0-2.2-15.75L561.84,400A177.69,177.69,0,0,1,565,418.4Zm8.11-45.43,9.27-.37-8.12,3.7C557.65,377.71,557.27,376.6,556.87,375.48Zm-.68,4.16-14.82,6.48q-1.64-4.55-3.59-8.85l14.54-8.18C553.76,372.68,555,376.21,556.19,379.64ZM552,363.12l8.71-1.47-7.4,4.54C552.88,365.17,552.44,364.15,552,363.12Zm-.43,4.1-14.64,8.24q-2-4.12-4.24-8l14.41-10.13C548.72,360.63,550.21,364,551.56,367.22Zm-4-13.4q-.81-1.57-1.65-3.12l9.3-1.37-7.39,5Zm-1.81.86.41.82-14.54,10.22q-2.14-3.53-4.55-6.87l14.17-12.33Q543.61,350.47,545.78,354.68Zm-5.93-14.28,7.82-2.52-5.93,5.52Q540.81,341.89,539.85,340.4ZM525.48,360a102.18,102.18,0,0,1,5.68,8.79L488.3,387.75c-.94-1.71-2-3.35-3-4.94Zm6.67,10.54q2.55,4.59,4.68,9.5l-45,15c-.81-1.91-1.69-3.75-2.62-5.55Zm5.45,11.35c1.31,3.19,2.5,6.46,3.55,9.84l-46.51,10.89c-.62-2-1.32-3.86-2.05-5.72Zm4.12,11.76a131.1,131.1,0,0,1,3.24,13.8l-47.53,6.32c-.62-3.2-1.37-6.27-2.23-9.23Zm3.58,15.77a157.11,157.11,0,0,1,1.77,15.79l-47.91.37c-.33-3.39-.77-6.68-1.34-9.85Zm-47.47,28.83L492,435.56c0-.25,0-.49,0-.74,0-3.13-.1-6.17-.27-9.14l5.58,1.69Q497.75,432.64,497.83,438.28Zm-5.89-.53,5.93,2.75v.28c0,5.83-.27,11.37-.76,16.67l-6.17-3.79A156.24,156.24,0,0,0,491.94,437.75Zm6.89,22.57L545.76,469q-1.1,8.91-3,17.16L497,472.12Q498.15,466.45,498.83,460.32Zm-2.26,13.76,45.79,14.08c-1,4.28-2.2,8.41-3.52,12.42l-44.43-18.17C495.23,479.72,495.94,477,496.57,474.08Zm-2.76,10.24,44.39,18.16c-1.31,3.78-2.77,7.42-4.37,10.95l-42.69-21.89C492.12,489.22,493,486.81,493.81,484.32Zm57.8,24.92,10,7.23-11.81-3.4C550.42,511.79,551,510.52,551.61,509.24Zm-3.75,3.24-10-3.31q2.16-5.39,3.91-11.11l11.54,2.15C551.68,504.29,549.89,508.39,547.86,512.48Zm9.7-18.15L567.82,501,556,498.69C556.54,497.24,557.06,495.78,557.56,494.33Zm-3.55,4-11.68-2.17c1.25-4.29,2.32-8.73,3.24-13.3l13,1.59C557.29,489,555.78,493.63,554,498.31Zm8.14-19.72,10,5.18-11-1.07Q561.66,480.63,562.15,478.59Zm-3,3.89L546,480.87c.87-4.63,1.56-9.41,2.1-14.33l14.4,1C561.59,472.35,560.48,477.35,559.1,482.48Zm6.38-21,9.71,4.18H564.81C565.05,464.21,565.28,462.82,565.48,461.44Zm-2.67,4.12-14.54-1q1-10.23,1-21.27l16.09-1.21A198.28,198.28,0,0,1,562.81,465.56Zm4.79-29,8.55,2.33-8.65,1C567.54,438.72,567.58,437.62,567.6,436.55ZM567,418c-.08-.71-.2-1.73-.38-3l8.22,1Zm-.68-5.08c-.51-3.41-1.32-8-2.56-13.54L576,395.24q1.95,9.28,3.06,19.15ZM562,392.24c-.94-3.62-2-7.48-3.36-11.52l11.93-5.44a174.32,174.32,0,0,1,4.89,17.58Zm-5.85-18.73q-1-2.7-2.09-5.44l11.07-6.8q2.54,5.69,4.65,11.69Zm-5-12.28c-.76-1.69-1.55-3.38-2.39-5.07l10.33-7q2.68,4.82,5.06,9.91Zm-6.23-12.4c-.69-1.24-1.4-2.46-2.12-3.67l8.69-8.09q3.36,4.76,6.33,9.85Zm-6.21-10.16q-1.29-1.94-2.62-3.79l7.33-8.1q3.45,4,6.59,8.25Zm-3.83-5.44c-.75-1-1.5-2-2.27-3l7.4-2.67Zm-1.38,1.49-14,14.79c-.73-.81-1.48-1.61-2.24-2.39-1-1.08-2.13-2.13-3.23-3.17l13.17-17.1Q530.45,330.6,533.49,334.72Zm-43.4-7.89L499,303.54a101.05,101.05,0,0,1,8.62,5.48l-10.45,21.89C494.85,329.48,492.5,328.11,490.09,326.83Zm-33.48,32.24,18.72-36.74c3.28,1.24,6.46,2.62,9.56,4.11l-22.78,35.32C460.33,360.8,458.51,359.9,456.61,359.07ZM402.9,313.23l-7.21-18c3.63-1,7.24-1.77,10.82-2.46l4.72,19.2C408.4,312.3,405.62,312.71,402.9,313.23Zm-10.77,2.62-9-16.7q5.31-1.92,10.62-3.39l7.16,17.88Q396.43,314.58,392.13,315.85Zm-21,8.4-10.43-14.56q4.71-2.79,9.52-5.11l9.26,15.79Q375.19,322.18,371.14,324.25Zm-10,5.61-10.74-13.33c2.82-2.09,5.69-4,8.61-5.82l10.32,14.46Q365.1,327.42,361.15,329.86ZM343,343l-11.54-9q1.88-2.16,3.94-4.32,1.66-1.74,3.38-3.37l11.75,10.73C347.89,339,345.38,341,343,343Zm-7,6.23-2.28,2.18-10.34-6.94c2-2.9,4.26-5.9,6.82-8.94l11.28,8.79C339.52,346,337.7,347.62,336,349.23Zm-11.2,11.46-8.19-5.16c1.56-2.89,3.42-6.06,5.65-9.41l10,6.72C329.56,355.5,327.07,358.13,324.77,360.69Zm27.42-24.84L340.26,325q4.17-3.89,8.55-7.24l10.63,13.2C356.92,332.53,354.5,334.18,352.19,335.85Zm16.26-34.17.74,1.2-.55.27Zm12.9,17.92L372,303.71c3.05-1.42,6.13-2.69,9.21-3.86l8.94,16.59C387.16,317.39,384.21,318.45,381.35,319.6Zm-1.49-22.53.45,1-.38.15ZM392,294.15l.16-2.45.86,2.17Zm12.34-3,.72-3.31.93,3Zm8.92,20.63-4.75-19.34q5.83-1.05,11.49-1.67l3.15,20.53C419.76,311.29,416.46,311.46,413.23,311.76ZM417.66,289l1.15-3.51.77,3.29Zm20.22.61L439,312q-6.82-.66-13.9-.73L422,290.53C427.47,290,432.8,289.68,437.88,289.59Zm-2.62-1.93,2.11-3.67.35,3.6Zm16.36.21c-.92-.06-1.83-.13-2.76-.17l2.76-3.45Zm0,2v23.87q-5.19-.94-10.57-1.53l-1.17-22.65c1.3,0,2.58,0,3.85,0C446.4,289.58,449,289.69,451.62,289.87Zm34.55,5.43c-.87-.34-1.74-.68-2.62-1l3.15-3Zm-.35,2L479.92,322q-3.82-1.59-7.81-3l3.56-25.14A106.88,106.88,0,0,1,485.82,297.3Zm-37,58.86,14.91-37.63q5,1.38,9.73,3.1l-18.69,36.68Q451.86,357.14,448.8,356.16Zm0-40.87L439,353.67c-3.3-.66-6.74-1.16-10.3-1.52l5.74-38.5Q441.79,314.15,448.83,315.29Zm2,.33q5.6,1,10.95,2.4l-14.89,37.57q-2.88-.84-5.9-1.5Zm23.12-24.24c-.83-.22-1.67-.44-2.51-.63l2.75-3Zm-.2,2-3.55,25c-2.83-.93-5.72-1.76-8.66-2.51l1.21-24.78Q468.36,292,473.73,293.39Zm-13-2.58-1.21,24.59q-2.93-.7-5.92-1.29V290C456,290.21,458.4,290.48,460.75,290.81Zm-2.61-2.36,2.65-3.22v3.57C459.91,288.68,459,288.55,458.14,288.45Zm-34.69,24.83c3,0,6,.09,9,.25L426.71,352c-3.43-.29-7-.46-10.65-.48l1.14-38C419.26,313.35,421.34,313.28,423.45,313.28Zm58.34,9.53,5.9-24.76a101,101,0,0,1,9.51,4.53l-8.89,23.32Q485.12,324.27,481.79,322.81Zm16-22.17c-.84-.45-1.69-.9-2.55-1.33l3.73-2.94Zm7.89,4.68,4.8-2.92-2.08,4.77C507.53,306.54,506.63,305.92,505.71,305.32Zm3.54,4.87q4.11,3,8,6.51L505,336.3c-2-1.5-4.05-2.95-6.17-4.33Zm6.43,2.52,5.48-3-2.9,5.23C517.41,314.18,516.55,313.44,515.68,312.71Zm-9.11,24.81,12.16-19.44q3.67,3.42,7.11,7.25l-13.28,17.25C510.63,340.82,508.64,339.14,506.57,337.52Zm17.87-16.64L531,318l-4,5.73C526.19,322.73,525.32,321.8,524.44,320.88Zm-1.5-1.52q-1.56-1.56-3.16-3l4.25-7.67q4.17,3.13,8.07,6.64Zm-8.94-8q-1.75-1.41-3.55-2.75l-.35-.24,3.07-7q4.47,2.69,8.69,5.73Zm-10.15-7.22q-2.09-1.31-4.23-2.51l1.81-6.55q4.79,2.24,9.34,4.84Zm-10.58-5.78c-1.71-.81-3.43-1.58-5.19-2.3l.82-6.07q5.1,1.77,10,3.94Zm-11.87-4.76c-1.81-.61-3.64-1.18-5.5-1.69l.38-5.65q5,1.25,9.91,2.82Zm-12.26-3.32c-2.09-.44-4.2-.84-6.35-1.18v-5.49q5.43.81,10.68,2Zm-13.39-2.05c-.71-.07-1.41-.15-2.13-.21v-5.52c2.11.19,4.2.43,6.27.7Zm-9.39-.59c-.87,0-1.74-.06-2.62-.07-1.35,0-2.68,0-4,0l-.56-5.78q5.83,0,11.49.45Zm-13.45.11q-5.85.25-11.33.82l-1.37-5.89c5.24-.53,10.62-.8,16.11-.85Zm-17.45,1.54c-2.56.34-5.07.74-7.52,1.18l-1.79-5.75q5.6-1.06,11.38-1.74Zm-13.3,2.33q-3.71.79-7.23,1.74l-2.18-5.45q5.29-1.53,10.81-2.69Zm-12.24,3.17q-4,1.22-7.73,2.59l-2.31-5.05q5.1-2,10.44-3.69ZM378,299q-3.62,1.45-7,3l-2.74-4.38q4.58-2.37,9.35-4.38Zm-11.23,5.13c-2.5,1.28-4.88,2.61-7.16,4L357,304.2c2.94-1.93,6-3.72,9.05-5.4Zm-10.61,6.09c-2.48,1.58-4.81,3.2-7,4.84l-2.82-3q4.2-3.4,8.67-6.46Zm-8.63,6c-3.16,2.42-6,4.88-8.67,7.31l-2.39-2.7q4-4,8.31-7.57Zm-10.12,8.68q-1.84,1.75-3.49,3.48c-1.39,1.45-2.7,2.9-4,4.34l-2.37-2.13q3.6-4.35,7.48-8.33Zm-8.75,9.34c-2.59,3.08-4.88,6.12-6.91,9.05l-2.36-1.8c2.2-3.25,4.52-6.36,6.93-9.35Zm-8,10.71c-2.3,3.44-4.22,6.71-5.82,9.68L312,353.55c2-3.58,4.09-7.05,6.3-10.38Zm8.65,13.8L341,375.55q-3.65,2.77-7.16,5.89l-12.67-13.58C323.62,365,326.3,361.9,329.26,358.76Zm1.41-1.48c2.11-2.19,4.34-4.41,6.71-6.63l1.46-1.35,11.89,19.57q-4.12,2.55-8.09,5.47Zm9.69-9.34c2.88-2.57,6-5.19,9.38-7.77l11.06,23.14q-4.26,2.08-8.36,4.51Zm11-9c3.36-2.5,6.94-5,10.74-7.31l9.31,27.17q-4.49,1.63-8.82,3.67Zm12.5-8.37a130.5,130.5,0,0,1,11.92-6.36l7.64,30.94q-5.16,1.28-10.12,3Zm13.77-7.2a120.71,120.71,0,0,1,13.14-5l4.53,34.48q-5.06.74-9.93,1.84Zm15.08-5.6c2.8-.82,5.67-1.55,8.61-2.16L403.12,352q-2.94.24-5.82.62Zm67.79,45.42-.08,0-1.06-.65Zm2,1.06c1.18.67,2.33,1.37,3.45,2.11l-.76.2c-.95-.74-1.94-1.45-2.95-2.14Zm1.37-1.52,22.83-35.4q4.89,2.46,9.45,5.33l-28,32.78C466.76,364.49,465.34,363.57,463.87,362.72ZM507.64,341a103.54,103.54,0,0,1,8.14,7.52l-36.11,27.07c-.21-.24-.41-.49-.62-.72-1-1.11-2.1-2.17-3.2-3.21Zm-28.53,37c1,1.17,2,2.38,2.89,3.64l-2.9.2c-.78-1.21-1.59-2.37-2.44-3.51Zm4.22,5.55c1,1.49,2,3,2.88,4.61l-3.47.17c-.78-1.57-1.62-3.08-2.49-4.56Zm3.93,6.56c.86,1.64,1.68,3.33,2.44,5.08l-4.19-.45c-.58-1.52-1.21-3-1.87-4.45Zm3.3,7.18c.7,1.75,1.36,3.54,2,5.4l-4.6-.6q-.75-2.7-1.65-5.25Zm2.61,7.5q1.26,4.25,2.18,8.84l-5.13-1.22q-.72-4.26-1.74-8.23Zm2.61,11c.55,3.06,1,6.22,1.33,9.49l-5.55-1.67q-.35-4.67-1-9.05Zm1.11,43.93q-.64,6-1.75,11.54l-6.49-4.06c.84-3.6,1.5-7.38,2-11.3Zm-2.19,13.62q-.88,4.11-2,8l-6.42-5.54c.69-2.11,1.31-4.28,1.88-6.51Zm-2.67,10c-.77,2.39-1.6,4.72-2.52,6.95l-6.41-6.37q1.33-3,2.47-6.15Zm-3.37,8.92c-1,2.32-2.12,4.57-3.31,6.72L479,491.87c1.16-1.94,2.25-3.94,3.25-6Zm-4.37,8.53c-1.14,1.94-2.33,3.82-3.62,5.61l-6.29-7.66c1.23-1.62,2.42-3.29,3.53-5ZM479.42,508a72.29,72.29,0,0,1-4.7,5.61l-5.6-8.78c1.4-1.45,2.75-2.93,4-4.49Zm-4.87,8.64,33.2,33.21c-.51.47-1,.94-1.52,1.39q-4,3.51-8.33,6.67l-28.07-36.87q1.8-1.53,3.49-3.15C473.75,517.49,474.14,517.06,474.55,516.65Zm21.72,42.44a122.37,122.37,0,0,1-10.4,6.51l-23.72-38.83q3.21-2.1,6.13-4.45ZM461.15,525l-5.21-9.43q2.76-1.75,5.29-3.7l5.89,8.78C465.21,522.22,463.23,523.67,461.15,525Zm-1.69,1.07q-3.09,1.92-6.42,3.61L448.2,520c2.09-1,4.1-2.12,6-3.29Zm-8.22,4.49q-3.56,1.7-7.38,3.13l-4.11-10.18c2.29-.84,4.51-1.76,6.64-2.74ZM442,534.42c-2.52.89-5.12,1.71-7.82,2.45l-3.45-10.46c2.46-.66,4.85-1.39,7.15-2.19Zm-9.75,3q-6.11,1.56-12.81,2.61l-2.91-10.63q6.42-1,12.26-2.44Zm-14.8,2.91c-3.33.48-6.77.86-10.32,1.16l-1.67-10.81q4.67-.39,9.08-1Zm-12.32,1.32q-7.37.52-15.35.56l-.39-10.87q7.32,0,14.07-.51Zm-17.35.56q-11.47,0-21.75-.91l.94-10.81q9.66.82,20.42.86ZM364,541.08c-5.35-.51-10.45-1.19-15.33-2.05l2.38-10.6q6.65,1.14,13.89,1.84Zm-17.3-2.41q-6.73-1.26-12.86-3l3.21-10.37c3.83,1.07,7.83,2,12,2.78Zm-14.78-3.57c-3-.9-5.89-1.9-8.67-3l4.15-10c2.49.94,5.06,1.8,7.73,2.6Zm-10.53-3.71c-2.69-1.1-5.26-2.29-7.73-3.56l5.08-9.43c2.19,1.08,4.45,2.08,6.8,3Zm-9.51-4.49q-3.31-1.78-6.38-3.8l5.4-9.08c1.94,1.23,4,2.38,6.06,3.48Zm-45.77,26.5a119.08,119.08,0,0,1-9.12-7.72l33.36-32.63q2.29,2.43,4.84,4.68ZM247.06,535l37-29.62a73.66,73.66,0,0,0,5,6.17l-33.44,32.71A110.57,110.57,0,0,1,247.06,535Zm-16.36.3L224,539.69l5.75-5.65Zm-4.95-10.48,8.72-4.81c1.63,2.93,3.48,5.94,5.59,9l-7.69,5.18Q228.8,529.59,225.75,524.85Zm-2.87-.81-9.94,4.4,8.19-7.29C221.7,522.12,222.28,523.08,222.88,524Zm-4.53-12.14,10.38-3.77a111.39,111.39,0,0,0,4.78,10.16l-8.83,4.87C222.35,519.42,220.24,515.65,218.35,511.9Zm-2.78-1.12-10.1,3.57,8.56-6.84C214.53,508.6,215,509.69,215.57,510.78Zm-3.3-12.64L224.52,496c.83,2.9,1.94,6.38,3.46,10.28l-10.52,3.83C215.5,506.07,213.78,502.07,212.27,498.14Zm40.21-35.9,15.73-2.18c.28,2.69.62,5.3,1,7.86l-30.61,8.34Zm-16.64,16.85,33.76-9.19c.56,3.05,1.22,6,2,8.87l-45.24,16.36c-.58-2-1-3.74-1.33-5.08Zm42.46,17-40.73,25.33a112.3,112.3,0,0,1-5.72-11.08l43.34-21Q276.62,492.85,278.3,496.1Zm-47.25,12.41a112.33,112.33,0,0,1-4.13-11.45l45.23-16.36q1,3.51,2.3,6.81Zm7.56,14.63,40.64-25.28q1.69,3.06,3.63,5.91l-37.07,29.7A109.14,109.14,0,0,1,238.61,523.14ZM285.5,504l6.28-7.33c1.29,1.68,2.62,3.31,4.06,4.87L290.27,510A71.68,71.68,0,0,1,285.5,504Zm-1.17-1.69c-1.25-1.85-2.41-3.77-3.5-5.76l6.25-6.87c1.09,1.84,2.22,3.65,3.46,5.37Zm-4.48-7.61c-1.06-2.08-2.05-4.23-3-6.46l6.28-6.18c.88,2,1.81,3.94,2.84,5.81Zm-3.74-8.49q-1.19-3.17-2.16-6.52l6.09-6c.69,2.19,1.44,4.32,2.28,6.37Zm-2.77-8.72q-1.08-4.08-1.85-8.43l6.25-4q.72,3.36,1.63,6.56ZM271.13,467c-.39-2.45-.72-5-1-7.53l6-3.74q.46,3.72,1.15,7.23Zm-3.1-8.92-13.24,1.84L267.49,447C267.55,450.83,267.72,454.51,268,458.06Zm-44,30.19-20.79-25.1a150.65,150.65,0,0,1-1.56-17.53h64.45Zm-23.54-30.92-1.51.68-10.26-12.39h11C199.72,448.61,199.94,452.6,200.45,457.33Zm.24,2.08c0,.28.07.56.1.84l-.53-.64Zm.62,4.6c0,.09,0,.19,0,.29l-9.93-.72,7-3.12Zm13.14,15.86-7.44,2c-1.39-5.26-2.43-10.25-3.2-14.83ZM205,482.09H193.27l10.51-5Q204.35,479.54,205,482.09Zm10.83-.53L223,490.2c.25,1.05.57,2.35,1,3.86l-12.43,2.17c-1.58-4.27-2.9-8.45-4-12.48Zm-6.28,15.05-10.45,2.17,9.08-6C208.64,494,209.09,495.31,209.57,496.61Zm.71,1.9q1.33,3.53,2.91,7.11l-12.61,10.09q-2.87-6.86-5.1-14.14Zm6.18,14.08q1.71,3.39,3.64,6.8l-12.39,11q-3.39-6.06-6.2-12.53Zm7.5,13.16c1.43,2.23,3,4.46,4.56,6.67l-12,11.79a137.69,137.69,0,0,1-7.68-11.79Zm8,11.16q2.94,3.71,6.24,7.32l-11.24,12.62a138.34,138.34,0,0,1-9-10.81Zm7.61,8.79.16.17-1.41,1.23Zm-5.94-9.9,7.6-5.13c1.84,2.57,3.85,5.16,6.07,7.75l-6.11,6.09C238.47,541.66,236,538.75,233.61,535.8Zm24.26,13.38q3.94,3.52,8.26,6.74L262,562.45q-4.93-3.48-9.49-7.32Zm15.76,23-7.74,14.69q-6.51-3.54-12.5-7.54l9.13-14Q267.88,568.93,273.63,572.16Zm1.74,1q5.69,3.11,11.75,5.81l-6.07,15.27q-6.93-3-13.4-6.43Zm13.59,6.6a181.55,181.55,0,0,0,18.72,6.87l-4.49,15.66A206.3,206.3,0,0,1,282.9,595Zm22.21,7.92c6.06,1.74,12.34,3.26,18.85,4.52l-2.46,16.1Q316,606,305.21,602.87Zm22.75,5.24q9.87,1.76,20.42,2.78l-1.22,16.38q-12.09-1.24-23.48-3.38ZM357.87,596q13.42,1.15,27.91,1.16h2.06l0,16.69q-16.85,0-32.59-1.57Zm32,1.13q14.56-.17,28-1.6l2.88,16.73q-14.92,1.53-30.94,1.58Zm32.06-2q10.06-1.23,19.47-3.19L446,608.46q-11.21,2.26-23.19,3.58Zm22.74-5.94-1.36-5.87a177.46,177.46,0,0,0,18.85-5.14l2,5.58A199.64,199.64,0,0,1,444.66,589.15Zm33.73-8.77,6.82,16.33q-6.66,2.76-13.74,5.08L466.62,585Q472.68,582.88,478.39,580.38Zm1.83-.8q6-2.7,11.67-5.82l8.48,15.82q-6.42,3.4-13.32,6.35Zm13.41-6.81q5.47-3.12,10.58-6.64l10.22,15q-5.89,4-12.3,7.48ZM505.85,565q4.86-3.45,9.36-7.28l12.16,13.64Q522,575.92,516.08,580Zm9.51-10-4.75-5q3.57-3.4,6.81-7.1l5.83,4.63C520.72,550.06,518.1,552.56,515.36,555Zm3.36-13.64q3.39-4,6.43-8.41l6.94,4.52q-2.15,2.7-4.45,5.33-1.47,1.65-3,3.27Zm8,5.37,3.7,4.25-4.26-3.64Zm1.36-1.48c.34-.38.69-.75,1-1.13q2.42-2.73,4.63-5.54l15,10.06Q544.72,554,540.15,559Zm9.29-11.48c1.61-2.22,3.13-4.47,4.58-6.74l15.78,8a138.77,138.77,0,0,1-7.67,11.76Zm8.29-12.91c1.12-2,2.18-3.94,3.19-5.92l16.64,4.79q-3,6.92-6.64,13.35Zm6.76-13.43q1.5-3.4,2.82-6.79l16.17,3.2q-2.24,7.06-5,13.71Zm5.77-15q1.29-3.89,2.35-7.71L576,486.15q-1.62,7.89-3.86,15.33Zm4.41-15.79q1.05-4.57,1.83-9h14.47q-.93,8.29-2.45,16.15Zm3.14-17.19c.88-6.39,1.38-12.29,1.64-17.5l13-1.49a247.62,247.62,0,0,1-1.23,24.77Zm1.87-24.9c.09-7.42-.29-12.58-.45-14.5l12.1-3.19q1,10.31,1.12,21.17ZM540.22,323.22c.5.53,1,1.08,1.47,1.62l-10.41,3.76q-1.41-1.74-2.86-3.4l5.66-8.1C536.18,319.07,538.24,321.1,540.22,323.22ZM311,355.31l2.87,1.1a93.53,93.53,0,0,0-5.39,12.48l-3.27-1.81Q307.91,361,311,355.31Zm-9.08,14.28-13.67-7.81h3.26L302.64,368C302.4,368.5,302.14,369,301.91,369.59ZM306.33,239l-4.83-9.06H533.19V239Zm228.86-1.2v-7.86h9Zm0-27.58V175.15l10.68-14.8v65.38ZM324.1,391l-12.32-10.79c2.1-3,4.83-6.7,8.15-10.79l12.47,13.36Q328.16,386.65,324.1,391Zm143-22.9,1-.26c1.34,1,2.65,2,3.9,3l-1.66.16Q468.8,369.5,467.15,368.1Zm5,4.74,1.89-.18c1.21,1.12,2.39,2.27,3.51,3.48l-2.28.31c-.87-1.09-1.77-2.16-2.71-3.18C472.42,373.12,472.27,373,472.14,372.84Zm-4.93,134c.17-.16.31-.33.48-.48l5.59,8.78c-.45.45-.88.92-1.34,1.37-1.06,1-2.15,2-3.27,2.95l-5.86-8.74Q465.09,508.81,467.21,506.79Zm-165.14.75-5.69,8.57q-2.47-2.21-4.74-4.61l5.63-8.47C298.79,504.59,300.38,506.1,302.07,507.54Zm-26.14-54-6,3.71q-.48-5.85-.49-12.13l5.67-4.6C275.21,445,275.48,449.34,275.93,453.51Zm-7.81-9.89H201.6c0-1.38,0-2.42,0-3.11l71.65-1.07ZM199.6,441c0,.67,0,1.56,0,2.65h-7.34Zm-2.55,17.89-8.77,3.95q-.61-7.53-.7-15.38Zm-8.56,6.52,13.18.95c.45,2.77,1,5.7,1.67,8.75l-12.74,6.06Q189.25,473.46,188.49,465.38Zm17.06,18.71c.61,2.19,1.27,4.41,2,6.68l-12.76,8.48q-2.13-7.37-3.65-15.16Zm22.84,74.31,12.72-11.09c2.72,2.79,5.54,5.47,8.5,8l-11,12.71Q233.2,563.43,228.39,558.4Zm11.7,11,11-12.73q4.68,3.95,9.74,7.51l-9.14,14.06c-2.61-1.79-5.16-3.64-7.61-5.56C242.75,571.56,241.41,570.46,240.09,569.35Zm208,38.68-3-16.92q9.09-2.05,17.58-4.79l6.79,16.12Q459.18,605.69,448.11,608Zm80.77-38-12.15-13.62c2.8-2.45,5.48-5,8.07-7.68l13.87,11.86Q534,565.53,528.88,570Z"/></g></svg>