<svg xmlns="http://www.w3.org/2000/svg" viewBox="0 0 767.13 767.13"><defs><style>.cls-1{fill:#292c35;}</style></defs><g id="Layer_2" data-name="Layer 2"><path class="cls-1" d="M409,279.56c-85.91,0-150.43,46.77-160.86,116.48H240l19.39-45.24.06-.21c16.64-86.36,61.77-123.25,142-116l133.4,12,11.5-11v-73L402.69,149.64h0C341,144,291.47,157.91,255.38,190.87c-44.19,40.35-67.54,109.43-67.54,199.77,0,73.68,18.29,130.73,54.35,169.56a164.17,164.17,0,0,0,62.39,41.7c23.85,9.12,51,13.74,80.74,13.74,59.06,0,108.8-16.55,143.87-47.86,34.23-30.57,52.33-73,52.33-122.74C581.52,343,515.42,279.56,409,279.56Zm125.6-59.15,8.77,13.53-8.33-.75ZM227.1,396.33l-25.09,14,13.2-72.91,32.45,10.92Zm55.14-59,1.22.53-.28.35ZM565.46,441.12l10,3.31-10.1.78C565.42,443.82,565.45,442.45,565.46,441.12Zm-2.08,4.24-15,1.16q-.49-8.73-1.59-16.92L563,425.83C563.38,431.54,563.58,438.15,563.38,445.36Zm1.28,12.2,9.56,3.31-9.91.22C564.44,459.9,564.55,458.73,564.66,457.56Zm-2.37,3.58-13.76.31q.29-6.39,0-12.94l14.79-1.14C563.14,451.77,562.82,456.37,562.29,461.14Zm1.17,6.68,9.95,4.87-10.62-.63C563,470.63,563.26,469.22,563.46,467.82Zm-2.68,4.11-13-.78q.43-3.81.67-7.7l13.64-.31C561.72,466,561.29,469,560.78,471.93Zm-17,53,5.79,5.35-6.83-3.62C543.07,526.12,543.42,525.54,543.76,525Zm-2.79.75-9.31-5.5c1.83-3.11,3.51-6.32,5.05-9.6l10.23,4.4Q544.24,520.41,541,525.71Zm-6,12.2,1.89,1.83-2.14-1.5Zm-1.89-.82-8.62-6q3.31-4.43,6.18-9.15l9.27,5.48C537.8,530.68,535.54,533.92,533.07,537.09ZM515.24,539l-.07.08-34.43-30.14c1.46-1.88,2.82-3.85,4.1-5.89l39,25.45A110.89,110.89,0,0,1,515.24,539Zm-9.44,9.08L474.53,516a74.26,74.26,0,0,0,5-5.52l34.27,30Q510,544.43,505.8,548.05Zm-99.88,37-3.78-41.64q7.31-.51,14-1.49l7.29,41Q415,584.22,405.92,585Zm-20.25,1.12L385.11,544h.21q7.68,0,14.82-.44l3.79,41.67Q395,585.92,385.67,586.15Zm-32.09,8.62.7-8.12c3.21.41,6.47.73,9.77,1l-.52,8.19Q358.49,595.42,353.58,594.77Zm-17.72-3.18,1.27-8q7.39,1.71,15.16,2.78l-.69,8.13Q343.55,593.38,335.86,591.59ZM297,565.86l20.23-37.7q3.69,2.05,7.68,3.89l-16.72,39.62C304.37,569.9,300.65,568,297,565.86Zm-23.14-1.23.17.13L273,566.09ZM265,554.45l5.83-5.42c3.06,2.83,6.22,5.52,9.48,8l-5,6.14Q270,559.09,265,554.45Zm-7.84-23.11,31.69-27.12c1.41,1.79,2.9,3.55,4.48,5.26l-29.14,30.1C261.75,536.91,259.41,534.15,257.18,531.34Zm-16.05-1.09-8.41,5,6.81-7.34C240.06,528.72,240.59,529.5,241.13,530.25Zm-6.48-13.51,7.6-4.07q3.33,5.9,7.25,11.62l-6.7,4.86C240,525.19,237.25,521,234.65,516.74Zm-2.85-.85L222.37,520l7.74-7C230.67,513.93,231.23,514.92,231.8,515.89Zm-3.49-10.42c-.8-1.53-1.56-3.07-2.31-4.6l8.71-3.24c1.95,4.45,4.13,8.9,6.55,13.3l-7.64,4.1Q230.86,510.38,228.31,505.47Zm-21.12-50.05h-7.37l6.69-2.64C206.73,453.65,207,454.53,207.19,455.42Zm63.22-2.93c0,1.77.1,3.55.24,5.33l-44.25,7.47c-.73-3.57-1.3-7.05-1.71-10.41Zm-10.85-66.87-2.63-.87,2.89-.14C259.73,385,259.64,385.29,259.56,385.62Zm2.17-7.56-2.83-1.17h3.22Q261.93,377.49,261.73,378.06Zm9.56-17.85,7.36,4.82c-1.57,2.16-3,4.32-4.38,6.45l-6.68-3.37C268.68,365.56,269.9,362.92,271.29,360.21Zm-5.48,7-2.63-1.33,3.09.24Zm11.05-16.74,8.09,6.65c-1.69,1.94-3.26,3.88-4.71,5.77l-.39.54-7.63-5C273.61,355.82,275.16,353.16,276.86,350.47Zm-6.31,6.86-2.4-1.58,3,.54C270.92,356.64,270.73,357,270.55,357.33Zm11-13.68c.62-.84,1.26-1.68,1.9-2.5l8.89,8.23c-2.16,2.07-4.16,4.16-6,6.24L278,348.78C279.07,347.07,280.25,345.36,281.51,343.65Zm-5.11,3.85-2-1.65,2.61.76C276.79,346.91,276.59,347.2,276.4,347.5ZM302.62,343l14.54,24.23c-2.38,1.3-4.71,2.65-6.94,4.11-1.36-2.05-5.27-7.16-16.22-20.86C296.64,348,299.51,345.49,302.62,343Zm5.68-25.87,8.17,14.15c-2.46,1.41-4.8,2.86-7.05,4.35l-8.74-12.55Q304.36,320,308.3,317.17Zm13.63-8.6,7.5,16.3c-4,1.71-7.69,3.55-11.21,5.49L309.93,316A129.63,129.63,0,0,1,321.93,308.57Zm66.13-19,2.06,22.65q-7.17.23-13.83.89L372,291.74Q379.82,290.41,388.06,289.61ZM415,314.67,410.09,352q-8.55-.77-17.88-.8v-37l1.66,0C401.17,314.06,408.2,314.24,415,314.67Zm22.65-24.55-2.28,24.77c-2.71-.42-5.46-.81-8.27-1.13l.76-24.64Q432.84,289.51,437.65,290.12Zm72.52,27.26,5.87-3.44-2.82,5.95C512.22,319,511.2,318.2,510.17,317.38Zm2.13,4.26-11.94,19.21q-3.64-2.81-7.57-5.33l9.94-21.31Q507.7,317.69,512.3,321.64Zm-1,31.61L477,380.14c-1.56-1.67-3.17-3.29-4.89-4.81l0,0,30.81-29.83A106.13,106.13,0,0,1,511.26,353.25Zm27.26-1.08-14.68,13.42c-1.73-2.5-3.53-4.93-5.43-7.26l13.84-15.28q1.47,2,2.9,4C536.33,348.76,537.44,350.46,538.52,352.17Zm-.86-5,8.88-2.38-6.52,6C539.25,349.6,538.47,348.41,537.66,347.21Zm7.55,16.63-15.65,10.94q-2.16-3.87-4.58-7.52l14.62-13.37C541.64,357.21,543.5,360.54,545.21,363.84Zm-.14-4.51,9.12-1.77-7.33,5.13C546.28,361.57,545.69,360.45,545.07,359.33Zm6,17.14-15.77,9.87q-2.19-5.08-4.75-9.81l15.6-10.9C548,369.3,549.58,372.92,551,376.47Zm.13-4.79,9.65-1.33-8.06,5C552.25,374.16,551.72,372.93,551.17,371.68Zm4.59,17.73-16.43,7.43c-1-3-2.09-5.86-3.26-8.67l15.73-9.83C553.31,382.16,554.62,385.86,555.76,389.41Zm.48-4.85h10.24l-8.89,4C557.16,387.27,556.71,385.92,556.24,384.56Zm3.27,18.53-16.66,5.64q-1.3-5.12-2.88-10l16.38-7.41C557.64,395.54,558.68,399.49,559.51,403.09Zm1.13-3.85,9.28.33-8.51,2.88C561.17,401.41,560.91,400.34,560.64,399.24Zm-17.8,88-46.49-14.06q1.13-5.58,1.77-11.62l47.82,7.78A129.68,129.68,0,0,1,542.84,487.2Zm-4.61,14.71-44.56-18.29q1.29-4.11,2.26-8.52l46.42,14A118.69,118.69,0,0,1,538.23,501.91Zm-5.8,12.81-41.89-22.66q1.36-3.17,2.5-6.53l44.47,18.25A119.56,119.56,0,0,1,532.43,514.72ZM525,526.85l-39.15-25.54a78.74,78.74,0,0,0,3.86-7.42l41.74,22.59A116.46,116.46,0,0,1,525,526.85Zm-45.76-19.52L472.65,499c1.27-1.56,2.5-3.18,3.64-4.87l6.89,7.51Q481.35,504.61,479.27,507.33Zm-6,6.93-5.83-9.5c1.38-1.33,2.69-2.73,3.94-4.18l6.66,8.36C476.49,510.79,474.91,512.57,473.23,514.26Zm-6.67,5.94L461,510.27c1.71-1.3,3.33-2.69,4.89-4.12l5.85,9.54Q469.27,518.06,466.56,520.2Zm3.37,49.86L451.86,531.7c2.61-1.24,5.12-2.56,7.51-4l21.75,37C477.53,566.65,473.79,568.42,469.93,570.06Zm-26.52,8.81L432.26,538.7q4.55-1.19,8.76-2.62l14.71,39.26Q449.75,577.28,443.41,578.87Zm-80.06,6.7,4.31-42.46q7.43.74,15.45.83l.56,42.25Q373.23,586.35,363.35,585.57Zm-20.61-2.82,8.73-42.1q6.79,1.41,14.2,2.24l-4.31,42.51A179.83,179.83,0,0,1,342.74,582.75ZM327.5,531l4-11c2.36,1,4.79,2,7.31,2.83l-3.46,11.21Q331.3,532.66,327.5,531Zm-9.34-4.64L323,515.93c2.14,1.16,4.36,2.27,6.66,3.31l-4,10.92C323.07,529,320.56,527.7,318.16,526.35Zm-8-5L315,511.05q3,2,6.25,3.9l-4.84,10.4Q313.15,523.43,310.12,521.34Zm-34.7,29.11,26-33.26q2.91,2.47,6.09,4.77L284,557.36Q279.61,554.09,275.42,550.45Zm14.85-47.71,6.47-8.32c1.21,1.47,2.48,2.92,3.81,4.33l-5.94,9.1C293.08,506.18,291.64,504.48,290.27,502.74Zm-5.14-7.33,6.81-7.48c1.1,1.66,2.28,3.29,3.52,4.88l-6.43,8.3Q286.95,498.32,285.13,495.41Zm-41.9,15,36-21.33c1,2,2.08,4,3.25,5.95l-33.66,24.74C246.86,516.66,245,513.53,243.23,510.38ZM232.94,488l40.52-14.11q.8,2.88,1.8,5.73L236.74,497.3Q234.67,492.62,232.94,488Zm39.47-36,6.31-4.14c.09,1.77.23,3.54.44,5.31l-6.57,3.74C272.48,455.24,272.42,453.6,272.41,452Zm-1.06-71.56,17,11.35q-2.16,2.88-4.08,6l-17.4-8C268.12,386.77,269.61,383.64,271.35,380.41ZM277,371l16.7,14.35c-1.43,1.56-2.81,3.16-4.11,4.81l-17.22-11.52C273.71,376.15,275.26,373.59,277,371Zm4.88-6.9c.76-1,1.55-2,2.37-3l16.46,17.47q-3,2.55-5.63,5.31l-17-14.56C279.26,367.6,280.5,365.85,281.83,364.11Zm10.72-12.19c5.75,7.2,14.1,17.78,16.07,20.58-2.22,1.53-4.38,3.12-6.43,4.8l-16.71-17.73C287.62,357,290,354.47,292.55,351.92Zm32.8-23,11.35,30c-2.9.94-5.72,2-8.44,3.07l-13.49-27.37Q319.74,331.65,325.35,328.93Zm18-7.11,8,33.25c-4.43.92-8.67,2-12.77,3.28l-11.44-30.27A138.57,138.57,0,0,1,343.34,321.82Zm20.16-4.89,4.57,35.55q-7.63.82-14.73,2.21l-8.09-33.45A156.67,156.67,0,0,1,363.5,316.93Zm-64.4,67.35h-1.64q2.7-2.7,5.7-5.19a92.14,92.14,0,0,1,8-5.95A80.23,80.23,0,0,0,299.1,384.28Zm-9.43,13.37-3.16.23c1.17-1.83,2.42-3.62,3.74-5.35h2.53C291.68,394.19,290.65,395.9,289.67,397.65Zm4.48-7.12h-2.33q1.77-2.17,3.71-4.25h1.88C296.27,387.66,295.19,389.08,294.15,390.53ZM309.34,372l.05-.05h0Zm-24.13,28,3.34-.25c-.89,1.74-1.73,3.51-2.51,5.33l-4.1.94Q283.46,402.92,285.21,400Zm-4.35,8.33,4.25-1c-.84,2.15-1.61,4.35-2.29,6.61l-4.61,1C279,412.66,279.9,410.46,280.86,408.32Zm19-22H300v-.07a76.61,76.61,0,0,1,9.16-9c16.69-13.87,39.84-21.77,69-23.56q6.51-.37,13.38-.39c32.15,0,56.73,7.39,73,21.85,16.07,14.26,24.22,35.52,24.22,63.2,0,60.43-33.84,89.8-103.46,89.8-71.89,0-104.63-43.47-104.63-83.86C280.64,420.61,287.12,401.18,299.9,386.28Zm151.81-66-13.6,36.95q-5.14-1.53-10.71-2.66L437,317.17Q444.62,318.44,451.71,320.25Zm13.46,4.07L447.63,360.5c-2.45-1-5-1.87-7.61-2.69l13.63-37.05Q459.59,322.35,465.17,324.32Zm12.5,5.13-22.26,34.6q-2.88-1.47-5.94-2.77L467.06,325Q472.55,327,477.67,329.45Zm-6.85,47.38c1.4,1.24,2.73,2.56,4,3.9l-1.92.25q-1.64-2-3.43-3.85l1-.57Zm9.45,10.26h-2.82c-1-1.47-2-2.91-3-4.29l2.11-.27C477.84,384,479.08,385.52,480.27,387.09Zm47.55-11.34-40.81,18c-1-1.83-2.13-3.61-3.31-5.32l37.59-23A112.84,112.84,0,0,1,527.82,375.75Zm5.65,11.45L491,401.81q-1.39-3.27-3-6.34l40.79-18Q531.3,382.19,533.47,387.2Zm13,61.35a140.82,140.82,0,0,1-.38,18.76l-47.82-7.78q.58-6.46.63-13.44Zm-57.74,42.31-7.32-5.78c1-2,1.86-4,2.67-6.15l7.06,5.57C490.46,486.68,489.65,488.8,488.78,490.86Zm3.08-8.38-7-5.54c.78-2.23,1.51-4.53,2.14-6.9l7,4.3C493.38,477.14,492.67,479.86,491.86,482.48Zm2.58-10.22-7-4.27a106.37,106.37,0,0,0,2.09-11.3l6.59,4.17C495.74,464.81,495.18,468.61,494.44,472.26Zm-15.71-83.17h3q1.66,2.37,3.15,4.89h-3.45C480.58,392.31,479.69,390.67,478.73,389.09ZM486,396c1.07,2,2.07,4,3,6.07H484.9c-.76-2.08-1.59-4.11-2.51-6.07Zm3.81,8.07c.79,1.94,1.53,3.91,2.19,6l-4.68-.36c-.5-1.91-1.07-3.77-1.69-5.6Zm2.79,8c.68,2.31,1.3,4.66,1.83,7.09l-5.3-1.11c-.37-2.17-.82-4.28-1.32-6.35Zm4.35,31.3-6.24-3.3c0-.6,0-1.17,0-1.77,0-3.16-.13-6.22-.33-9.21l5.83,1.88Q496.86,436.95,496.93,443.36Zm-.57,15.27-6.51-4.13q.66-5.87.8-12.2l6.3,3.33C496.93,450.13,496.73,454.45,496.36,458.63Zm-6.13-31.71c-.21-2.31-.48-4.56-.81-6.77l5.39,1.13c.47,2.44.88,4.93,1.2,7.5Zm4.38-15L539,402.42q1.69,5.61,3,11.56l-45.59,5.37C496,416.79,495.32,414.3,494.61,411.88Zm43.83-11.38L494.05,410q-1-3.24-2.25-6.3L534.26,389Q536.57,394.58,538.44,400.5ZM468,375.67c-.72-.7-1.44-1.4-2.2-2.07s-1.53-1.3-2.31-1.93l.34-.3c1.74,1.21,3.39,2.5,5,3.82Zm-8.76-7.22c1,.58,1.91,1.18,2.85,1.79l-.19.17C461.06,369.74,460.18,369.08,459.27,368.45ZM457.2,365l22.29-34.65a120.48,120.48,0,0,1,10.56,5.83l-26.49,32.64C461.52,367.45,459.41,366.16,457.2,365ZM444.14,520l5,10.67c-2.24,1-4.58,1.92-7,2.8L438,522.39C440.13,521.64,442.17,520.85,444.14,520Zm-76.28,21.13,1.25-11.79q6.74.64,14,.74v11.87Q375.18,541.84,367.86,541.12Zm-16-2.44,2.28-11.6q6.21,1.27,13,2l-1.24,11.79C361,540.36,356.34,539.61,351.87,538.68Zm-74.19-58.33,7-6c.72,1.74,1.51,3.47,2.37,5.17L280,486Q278.75,483.19,277.68,480.35Zm-2.4-7.47,6.8-5.79q.81,2.69,1.83,5.32l-6.94,6C276.34,476.56,275.77,474.72,275.28,472.88Zm6.18-7.89-6.74,5.74c-.47-1.93-.86-3.86-1.19-5.8l6.69-5.12C280.57,461.54,281,463.27,281.46,465Zm-1.66-7.39-6.61,5.07c-.17-1.2-.31-2.39-.42-3.59l6.67-3.8C279.55,456.06,279.67,456.83,279.8,457.6Zm-8.48,6.16-42.72,10.7c-.66-2.43-1.25-4.84-1.78-7.21l44-7.43C271,461.13,271.12,462.45,271.32,463.76Zm-42.18,12.63,42.5-10.64c.36,2.06.79,4.11,1.31,6.16l-40.7,14.17C231.08,482.82,230.05,479.58,229.14,476.39ZM276,481.46c.74,2,1.55,3.87,2.44,5.78l-36.12,21.38q-2.55-4.72-4.72-9.5Zm5,6.37,7.11-6.46q1.31,2.44,2.8,4.83l-6.76,7.45C282.92,491.74,281.88,489.8,280.91,487.83ZM302,500.22q2.31,2.34,4.84,4.53L301,514.19c-1.76-1.57-3.43-3.19-5-4.85Zm.59,15.3,5.8-9.46q2.4,2,5,3.84l-4.88,10.27C306.41,518.68,304.44,517.12,302.56,515.52Zm38.14,8q5.49,1.8,11.5,3.13l-2.28,11.6a129.79,129.79,0,0,1-12.67-3.51Zm44.4,6.57h.17c4.71,0,9.24-.14,13.62-.4L400,541.51c-4.71.29-9.58.45-14.64.45h-.22Zm15.78-.55q6.69-.46,12.86-1.36l2.08,11.71c-4.43.65-9.06,1.14-13.86,1.48Zm14.84-1.63q5.65-.88,10.88-2.14l3.18,11.44c-3.83.94-7.81,1.74-12,2.4Zm12.82-2.65c2.61-.67,5.16-1.4,7.6-2.21l4.16,11.09c-2.76.94-5.63,1.79-8.59,2.56Zm29.1,49.46-14.73-39.3q3.69-1.33,7.14-2.88l18,38.29Q463,572.92,457.64,574.72ZM451,529.79l-5-10.59c2.24-1,4.38-2.14,6.45-3.31l5.87,10C456,527.29,453.51,528.58,451,529.79Zm3.2-14.89c1.82-1.09,3.55-2.25,5.23-3.46l5.56,10c-1.59,1.19-3.25,2.31-5,3.39Zm23.24-22.5c1.12-1.77,2.2-3.58,3.17-5.47l7.39,5.83q-1.69,3.71-3.69,7.12Zm21.54-48.31c0-4.46-.26-8.75-.68-12.9l46.6-1.23c.71,5.35,1.24,10.87,1.55,16.58Zm-.87-14.9c-.32-2.7-.73-5.31-1.22-7.87L542.47,416c.82,3.9,1.54,7.9,2.12,12Zm22-65.4-37.6,23c-1.3-1.78-2.65-3.52-4.11-5.17l34.22-26.88c.4.43.81.86,1.2,1.29C516,358.49,518.12,361.1,520.11,363.79ZM470.56,374c-1.71-1.43-3.48-2.82-5.34-4.11l26.53-32.68a110.55,110.55,0,0,1,9.61,7Zm28.38-64.63,4.64-3.36-1.81,5.21C500.83,310.6,499.89,310,498.94,309.38Zm2.13,3.66-10,21.42q-4.37-2.7-9.05-5.08l8.24-22.88A126,126,0,0,1,501.07,313Zm-12-9.34c-.85-.44-1.71-.86-2.57-1.28l3.72-3.1Zm-.56,1.86-8.26,22.91c-3.2-1.57-6.53-3-9.95-4.36l6.34-24C480.73,301.73,484.69,303.55,488.52,305.56Zm-13.41-8.14-2.09-.77,2.54-2.84Zm-.34,1.91-6.34,24.06q-5.24-2-10.81-3.6l4-24.83Q468.42,296.87,474.77,299.33Zm-14.85-6.82-1.72-.44,1.92-2.51Zm-.21,1.92-4,24.83a177.94,177.94,0,0,0-18.34-4.05l2.29-24.81A167,167,0,0,1,459.71,294.43Zm-23-6.39,1-1.86v2ZM435,316.85l-9.6,37.32c-4.28-.81-8.72-1.45-13.35-1.93L417,314.81Q426.35,315.49,435,316.85Zm-44.82,34.4c-4,0-7.86.13-11.64.36-2.89.16-5.72.38-8.51.65l-4.59-35.66a189.75,189.75,0,0,1,24.74-2.34Zm-15.92-37.88q-7.35.83-14.09,2.13l-5.48-19.94q7.42-2,15.34-3.46Zm-16.05,2.53c-4.74,1-9.25,2.12-13.54,3.41l-6.32-18.39q6.94-2.7,14.41-4.83Zm-15.45,4q-6,1.92-11.52,4.2l-7.57-16.46,1.76-.93c3.56-1.81,7.26-3.47,11.06-5Zm-29.73,15.82,13.35,27.09c-2.57,1.09-5.08,2.25-7.49,3.51l-14.7-24.5Q308.36,338.68,313.06,335.71Zm-39.85,37.48c-1.63,2.65-3.1,5.26-4.42,7.79l-5.21-2.15c.88-2.75,1.95-5.72,3.23-8.87Zm-5.33,9.58c-.83,1.65-1.59,3.27-2.3,4.84l-4.12-1.36c.41-1.68.92-3.52,1.52-5.5ZM266,391.56l17.15,7.89c-1.28,2.18-2.46,4.42-3.55,6.74l-16.9-5.79C263.61,397.75,264.7,394.77,266,391.56Zm-3.91,10.74L278.8,408c-1,2.3-1.94,4.66-2.77,7.07l-16.36-3.28A91.58,91.58,0,0,1,262.13,402.3Zm15.33,14.82,4.73-1q-.88,3.27-1.56,6.7l-5.22,1.55Q276.31,420.66,277.46,417.12Zm-2.56,9.49,5.32-1.58c-.38,2.2-.69,4.43-.93,6.71l-5.75,2.62C273.91,431.72,274.36,429.13,274.9,426.61Zm-1.66,10.08,5.83-2.65c-.29,3.31-.43,6.7-.43,10.19,0,.41,0,.83,0,1.25l-6.23,4.09A124.29,124.29,0,0,1,273.24,436.69ZM227.7,478.54l-10.07,3c-3.23-8.49-5.82-16.72-7.9-24.36l13-2.12A143.75,143.75,0,0,0,227.7,478.54Zm-12,3.46-9,1.41,7.82-4.57C214.86,479.89,215.25,480.94,215.65,482Zm12.63-1.55c1.58,5.05,3.45,10.19,5.64,15.34l-8.8,3.28c-2.51-5.25-4.76-10.49-6.77-15.64Zm-5.08,19.24-9.39,2.75,7.95-5.84Q222.46,498.15,223.2,499.69ZM250,521.41l33.61-24.69c1.26,2,2.62,4,4.08,5.91L256,529.77Q252.79,525.66,250,521.41Zm44.76-10.47q2.46,2.54,5.16,4.94l-26,33.24c-2.27-2-4.49-4.13-6.65-6.33-.57-.58-1.12-1.17-1.68-1.76Zm-12.79,47.34q4.88,3.68,10.05,6.9L287.91,572c-1.62-1-3.24-2-4.82-3.13-2.1-1.42-4.15-2.92-6.18-4.45Zm3.73.26,23.46-35.43q3.08,2.11,6.39,4.06l-20.22,37.68C292,562.88,288.78,560.78,285.66,558.54Zm41.1-25.67c2.57,1.12,5.24,2.17,8,3.14l-13,41.11q-6-2.07-11.74-4.63Zm9.89,3.79a131.08,131.08,0,0,0,12.87,3.56l-8.74,42.13a159.56,159.56,0,0,1-17.11-4.59Zm29.4,51.11q6.81.45,13.88.46c1.24,0,2.5,0,3.75,0v8.3q-9.27.1-18.15-.52Zm59.39-5.19-7.28-41q6.33-1,12.16-2.42l11.15,40.16Q433.72,581.22,425.44,582.58Zm29.5-4.89,2.63,8.58q-10,3-20.81,5.1l-1.93-8.5A202.17,202.17,0,0,0,454.94,577.69Zm1.91-.61q6.22-2,12.06-4.43l3.54,8.5q-6.27,2.48-13,4.55Zm13.91-5.2q5.89-2.5,11.37-5.39l4.72,8.2q-6,3.07-12.54,5.71Zm13.13-6.34q5.37-2.92,10.34-6.23l6,7.71q-5.57,3.6-11.59,6.75Zm-1-1.73-21.82-37.14c1.76-1.1,3.44-2.26,5.07-3.47L493,557.73Q488.14,561,482.89,563.81ZM467.73,522q2.81-2.21,5.36-4.62l31.19,32q-4.59,3.82-9.62,7.28Zm83.09-10.47,7.17,5.7L549.68,514C550.07,513.16,550.45,512.34,550.82,511.53Zm-3,1.69-10.29-4.43q2.22-4.95,4-10.12l11.05,3.45C551.18,505.83,549.6,509.53,547.83,513.22Zm8.58-15.76,8.44,6.08-9.61-2.72C555.65,499.7,556,498.58,556.41,497.46Zm-3.1,2.79-11.12-3.48q1.65-5.06,2.9-10.3l12.06,1.8C556.05,492.24,554.78,496.24,553.31,500.25Zm7.17-16.89,8.89,4.93-9.72-1.65C559.94,485.54,560.22,484.45,560.48,483.36Zm-2.81,3-12.14-1.81q1.23-5.6,2-11.37l12.92.78C559.68,478,558.77,482.14,557.67,486.32Zm-11.1-58.69q-1.26-8.81-3.24-16.95L560,405.06A139.1,139.1,0,0,1,562.78,423c0,.27.05.56.07.84Zm18.21-4.81c-.07-.77-.17-1.92-.34-3.36l9.77,1.7-9.39,2.2C564.8,423.18,564.79,423,564.78,422.82Zm-.6-5.44c-.45-3.32-1.17-7.74-2.32-13l12.83-4.34a187.37,187.37,0,0,1,3.37,19.73Zm-4.07-20.16c-.57-2.15-1.21-4.4-1.92-6.71l12.32-5.58q2,6.24,3.63,12.79Zm-4.58-14.66c-.63-1.74-1.29-3.5-2-5.3l11.33-7.08c1.78,4,3.39,8.14,4.86,12.38Zm-5.22-12.78c-.8-1.76-1.64-3.52-2.53-5.3l10.5-7.34q3,5.24,5.54,10.78Zm-6.26-12.28c-.94-1.66-1.92-3.33-2.95-5l9-8.19q3.71,5.15,7,10.65Zm-7.59-12c-.93-1.33-1.88-2.63-2.85-3.92l7.54-8.33q3.87,4.35,7.38,9Zm-4.09-5.54c-.91-1.18-1.85-2.35-2.8-3.5l8.39-2.66ZM531,341.43,517.1,356.8c-.59-.71-1.17-1.43-1.79-2.12-1.45-1.62-3-3.2-4.51-4.73l12.7-17.47Q527.42,336.74,531,341.43Zm-21.66,7.11c-2.36-2.25-4.82-4.42-7.4-6.46L513.83,323q4.29,3.79,8.28,8Zm11-22.12,7.24-3-4.33,6C522.33,328.37,521.36,327.39,520.38,326.42Zm-1.56-1.51q-2-1.89-4-3.67L518.7,313q5.14,3.72,9.9,7.84Zm-10.34-8.85c-1.64-1.26-3.3-2.48-5-3.66l2.61-7.53q5.34,3.08,10.33,6.53Zm-11.38-7.82c-2-1.25-4.1-2.43-6.21-3.57l1.75-6.66q5.67,2.57,11,5.5Zm-12.56-6.79c-2.45-1.16-5-2.24-7.52-3.26l.76-6q6.3,2.16,12.27,4.72ZM471,295.91c-3-1.05-6-2-9.11-2.87l.36-5.41q6.6,1.62,12.89,3.64Zm-14.91-4.39q-7.93-1.9-16.36-3.09v-5Q450,284.79,459.57,287Zm-21.53-3.74c-2.2-.25-4.42-.45-6.66-.63v-4.89c3.11.24,6.19.53,9.23.89ZM425.9,287h-.25l.25-.63Zm0,2-.76,24.56q-7.25-.78-14.88-1.12l-1.06-23.89Q417.74,288.44,425.87,289Zm-17.65,23.35q-7-.27-14.38-.17l-1.72,0-2.07-22.78q7.88-.69,16.13-.87h1Zm-2.86-25.75q-7.92.19-15.48.86l-.39-5.05q8.37-.72,17.06-.81Zm-17.47,1q-8.36.79-16.26,2.16l-1-4.9q8.22-1.47,16.84-2.3Zm-18.22,2.52q-8,1.46-15.48,3.5l-1.29-4.7q7.69-2.15,15.79-3.68Zm-17.41,4q-7.51,2.14-14.53,4.87l-1.56-4.52q7.18-2.79,14.81-5Zm-16.39,5.63q-5.83,2.35-11.32,5.13c-.57.29-1.13.6-1.69.89l-2-4.4q6.51-3.35,13.48-6.15Zm-14.78,7q-5.79,3.17-11.13,6.81l-3.39-3.82q6-4,12.49-7.4Zm-13.8,8.67q-3.35,2.41-6.51,5l-4.1-3.53q3.88-3.09,8.05-5.93ZM298,322.79c-2,1.77-4,3.59-5.9,5.48l-4.85-3.18q3.67-3.51,7.64-6.75Zm1.15,1.65,8.6,12.34q-3.5,2.4-6.65,4.91l-9-10.52Q295.47,327.67,299.16,324.44Zm.39,18.5q-3.06,2.51-5.8,5.06l-9.1-8.42c1.93-2.4,3.93-4.72,6-7Zm-19.65-.48c-.59.81-1.16,1.61-1.72,2.41L271.67,343c1.81-2.53,3.73-5,5.73-7.39l4.53,4.19C281.24,340.67,280.56,341.56,279.9,342.46Zm-4.6,6.73c-1.13,1.76-2.17,3.52-3.16,5.25l-7-1.28q2.4-4.17,5.13-8.14Zm-5.68,9.92c-.89,1.72-1.71,3.41-2.48,5.07l-7.41-.58q1.92-4.22,4.14-8.27ZM265,369.06c-.83,2-1.56,4-2.22,5.83h-7.53q1.56-4.59,3.45-9ZM261.13,380c-.27.89-.52,1.76-.76,2.59l-7.5.39c.51-1.93,1.06-3.83,1.65-5.72Zm-2,7.59c-.88,3.77-1.3,6.51-1.48,7.81l-7.43.56q.82-5.4,2.09-10.62Zm.35,9.67.06-.84a74.86,74.86,0,0,1,1.49-8.2l3.78,1.25A116,116,0,0,0,258,409.89l-7.32-12Zm-.69,16.42L275.4,417q-1.2,3.75-2.12,7.7l-24.84-3.33Zm-12.59,9.42,26.69,3.58c-.57,2.7-1,5.48-1.41,8.32l-39.63-1.17Zm-16.93,12.65,42,1.24a128.35,128.35,0,0,0-.78,13.52l-46,2.4a97.69,97.69,0,0,1-.54-13.19Zm-6.75,17.38-13.26,2.17a272.26,272.26,0,0,1-6-29.2l7-.73,11.74,14.2A97,97,0,0,0,222.48,453.11Zm-21.56-28.95-3.35-.12,3.23-.78Zm2-.06c-.52-3.73-.84-6.72-1-8.76l6.75,8.16ZM237,238l-5.93-6.13,7.43,3.79Q237.72,236.83,237,238Zm3.3-1.44,7.09,3.45c-3.05,4.6-5.81,9.19-8.31,13.7l-7.21-2.48A142,142,0,0,1,240.28,236.58ZM248.11,223l-5.36-6.58,7.09,4.65,0,0C249.22,221.76,248.67,222.39,248.11,223Zm3.19-.56.19-.23,5.73,4.22c-3.14,4-6,7.93-8.72,11.9l-7.09-3.45A108,108,0,0,1,251.3,222.46Zm9.51,2.73,28.64,30.41q-3.36,3.51-6.49,7.39L252.42,236.2Q256.34,230.65,260.81,225.19ZM276,272.48l-32.36-22.71q3.51-6,7.61-11.92l30.45,26.7Q278.77,268.34,276,272.48Zm-6.67,11.15-33.49-19.29q3.07-6.34,6.8-12.84l32.26,22.65Q272,278.7,269.35,283.63ZM226.81,286l34.41,15.13q-3.87,9.66-7,20.58l-34.63-10.92A222.63,222.63,0,0,1,226.81,286ZM262,299.26l-34.48-15.18c2.11-5.75,4.6-11.77,7.51-17.93l33.42,19.23Q265,292,262,299.26Zm-34.36-43.78-6.78-6.21,8.25,3.11C228.58,253.4,228.09,254.44,227.61,255.48Zm3.36-2.42,7.12,2.46c-2.8,5.17-5.26,10.24-7.41,15.11l-6.44-1.77C226.26,263.46,228.5,258.17,231,253.06ZM220.38,273.6l-7.88-5.44,9.07,2.09C221.17,271.36,220.77,272.48,220.38,273.6Zm3.16-2.86,6.33,1.74c-2.65,6.15-4.82,12-6.58,17.26-.78,2.33-1.49,4.6-2.15,6.82l-5.09-1.12A252.46,252.46,0,0,1,223.54,270.74Zm-10.62,28.84-7.43-3.43,8,.89C213.31,297.89,213.11,298.74,212.92,299.58Zm2.65-2.2,5,1.1a209,209,0,0,0-5.89,27l-4.55-.72C211.54,315.9,213.32,306.65,215.57,297.38Zm-8.07,30.83L201.16,326l6.59.52-.15,1C207.57,327.73,207.53,328,207.5,328.21Zm2.34-1.45,4.57.72c-.58,4.38-.76,7.06-.79,7.51l-3.85,21.23-3.29-.4C207.19,347,208.26,337.16,209.84,326.76Zm-5.61,31.38-2.74-.48h2.78C204.25,357.82,204.24,358,204.23,358.14Zm2.09-.33,3.1.38-4.29,23.71C205.25,375.78,205.57,367.5,206.32,357.81Zm41.92-11.36-32.67-11,0-.16v-.13a158.46,158.46,0,0,1,3.51-22.45l34.52,10.87Q250.6,334.4,248.24,346.45ZM263,302.15l6.68,4.94q-3.51,8.79-6.38,18.66l-7.2-3.37Q259.17,311.69,263,302.15Zm.78-1.91q3-7.15,6.33-13.64l6.43,5.54q-3.24,6.18-6.08,13ZM271,284.78q2.58-4.8,5.41-9.23l5.87,6.54q-2.52,4-4.84,8.24Zm6.53-11q2.67-4.06,5.57-7.79l5.73,6.79q-2.81,3.62-5.41,7.55Zm6.83-9.39q3.06-3.82,6.36-7.29l5.61,7q-3.22,3.34-6.22,7.05Zm6.44-10.25-28.75-30.54q4.53-5.38,9.65-10.62l27,34c-.71.59-1.42,1.18-2.12,1.79Q293.63,251.36,290.84,254.17Zm-17.68-42.59q3.43-3.42,7.14-6.75c1.27-1.13,2.62-2.22,4-3.29l23.64,38.57q-4,2.63-7.69,5.61Zm11.11-21.72.48.69-.09.06Zm1.65,2.33,2.81,3.79a83.12,83.12,0,0,0-7,5l-3.28-3.86Q282.17,194.51,285.92,192.19Zm9.34-5.34,2.28,4c-2.46,1.27-4.84,2.6-7.13,4l-2.78-3.76C290.17,189.62,292.72,188.19,295.26,186.85Zm16.86-7.6,1.34,4.69a141.37,141.37,0,0,0-14.14,6l-2.28-4A157.87,157.87,0,0,1,312.12,179.25Zm18.24-5.85.73,5.13c-5.31,1.35-10.6,2.93-15.74,4.74L314,178.54C319.59,176.47,325.08,174.78,330.36,173.4Zm43.46-6.13-.36,5.22a181.48,181.48,0,0,0-20.56,1.76V169A207.68,207.68,0,0,1,373.82,167.27Zm-16.71,54.82-6.72-45.47a185,185,0,0,1,21.48-2.1l2.47,46A167,167,0,0,0,357.11,222.09Zm-13.32,2.58-11.45-44.42c5.38-1.35,10.78-2.45,16.08-3.32l6.71,45.46C351.24,223,347.47,223.77,343.79,224.67Zm-12.55,3.78-15.3-43.3c4.73-1.67,9.58-3.14,14.46-4.41l11.45,44.41Q336.39,226.59,331.24,228.45Zm-11.33,4.8-19.68-41.51a137.18,137.18,0,0,1,13.83-5.91l15.3,43.31C326.12,230.37,323,231.75,319.91,233.25ZM309.62,239l-23.71-38.69a95.71,95.71,0,0,1,12.54-7.68l19.67,41.49Q313.74,236.41,309.62,239Zm41.28-64.48c-5.85.88-11.86,2.05-17.86,3.5l-.74-5.13c5-1.24,9.74-2.21,14.21-3,1.48-.25,2.94-.47,4.39-.68Zm-42,67.29,4.43,8.19q-3.92,2.59-7.59,5.55l-4.41-8.21Q305,244.42,308.93,241.83Zm1.68-1.09q4-2.58,8.35-4.78l3.86,8.53q-4,2.06-7.78,4.44Zm10.14-5.68q4.51-2.2,9.3-4l3.34,8.76q-4.53,1.71-8.78,3.8Zm11.18-4.72q5.07-1.83,10.43-3.23l2.4,9q-4.87,1.29-9.49,3Zm12.37-3.72q5.43-1.34,11.16-2.24l1.66,9.19c-3.57.57-7,1.28-10.42,2.1Zm13.13-2.54a166,166,0,0,1,17-1.54l.28,9.29a156.53,156.53,0,0,0-15.6,1.44Zm18.91-3.62-2.47-46a114.16,114.16,0,0,1,12,.3l-1.26,45.62C381.78,220.35,379,220.38,376.34,220.46Zm23.84,2.66-.76,9.26q-6.72-.54-13.1-.68l.2-9.28Q393.18,222.56,400.18,223.12Zm-13.61-2.7L387.83,175l16.1,1.68-3.59,44.5C395.64,220.75,391,220.51,386.57,220.42Zm19.35-43.59,107.73,11.24,18.84,29.08L533,233,402.69,221.32l-.37,0Zm125.84,1.28-3.61-.33,10.69-8.14Zm-.54,2,1.14,33.19-16.78-25.9,10.21-7.78Zm-17.28,6-112.6-11.74,0-6,121.46,10.93Zm-114.6-12L387,172.84a114.78,114.78,0,0,0-11.48-.4l.36-5.22a174.08,174.08,0,0,1,23.56.95ZM352.75,167l-1.93-15.16q11.18-1.25,23.08-1.37v14.81A209.39,209.39,0,0,0,352.75,167Zm-2,.28c-1.5.21-3,.44-4.53.69-4.51.76-9.31,1.73-14.31,3L328.4,155.6a197.65,197.65,0,0,1,20.43-3.54ZM330,171.43a173.84,173.84,0,0,0-16.62,5.21l-5.51-15a173.33,173.33,0,0,1,18.58-5.57Zm-18.49,5.91a159.85,159.85,0,0,0-15.42,6.83L288.8,170A158.51,158.51,0,0,1,306,162.3Zm-17.2,7.75q-3.93,2.07-7.85,4.42l-9-13q4.67-3,9.58-5.6ZM283,191.68c-1.95,1.25-3.88,2.56-5.81,3.93l-10.5-11.56c2.93-2.24,5.93-4.38,9-6.39Zm-7.44,5.11-1,.77-3.33-5.6Zm1.33,1.51,3.38,4c-.42.35-.85.7-1.26,1.06-3.3,2.95-6.42,6-9.39,9l-4.84-4.12A138,138,0,0,1,276.85,198.3Zm-8.66,15.51q-5.19,5.46-9.72,11.08l-5.69-4.19a139.09,139.09,0,0,1,10.49-11.09Zm-7.83-4.18L255.93,203l5.82,5.27C261.29,208.72,260.82,209.17,260.36,209.63Zm-1.45,1.43q-4,4-7.77,8.49l-12.17-8a159.93,159.93,0,0,1,11.5-13.14Zm-12.13,13.5a110.08,110.08,0,0,0-7.17,9.45l-12-6.11a176.64,176.64,0,0,1,10-14.59ZM235.9,239.78c-2.12,3.49-4.09,7.09-5.94,10.79L217.77,246q4-8.37,8.62-16Zm-9.15,17.62q-2.4,5.4-4.48,11l-12.76-2.94q3.33-8.93,7.2-17.21Zm-7,18.17c-2.19,6.5-4.07,13.06-5.7,19.52l-13.23-1.47q3.41-13.44,7.83-25.72Zm-7.26,26c-1.82,8-3.26,15.73-4.39,23l-13.31-1q2.24-14.33,5.47-27.57Zm-5.24,28.66c-1.28,9-2.17,17.65-2.79,25.44H191.1q1.14-15.46,3.3-29.91Zm-3.12,29.92c-1,13.63-1.07,24.24-1,29.49h-13.2q0-16.38,1.08-31.8Zm-1,31.49c0,.79,0,1.31,0,1.52l-3.43,18.92v.23c0,.13.2,3.39.89,8.95l-9.39,2.28q-1.26-15.37-1.3-31.9Zm-1.85,34.53c.95,6.52,2.46,15,4.82,24.65l-10.76,4.24q-2.57-14.06-3.91-29.24Zm6.51,31.25c1.66,6.17,3.67,12.73,6.07,19.51l-11.66,6.81a262.31,262.31,0,0,1-6.41-26.32Zm8.67,26.49q2.09,5.37,4.52,10.83L209,503.46q-3.41-8.41-6.2-17.43Zm7.69,17.61c.78,1.6,1.59,3.21,2.42,4.81s1.72,3.24,2.6,4.83L217.49,521.7Q213.43,514,210,505.65Zm8.76,16.1c1.79,3,3.62,5.85,5.52,8.65l-11,11.89q-4.65-6.9-8.71-14.39Zm9.48,14.25q3,4.14,6.25,8l-10.17,13q-5.16-6.12-9.78-12.79Zm7.57,9.61c.51.62,1,1.23,1.55,1.83L244,549ZM244,530.76l6.65-4.83q4,5.66,8.57,11l-6.2,5.13Q248.32,536.67,244,530.76Zm16.53,7.7c1.71,1.95,3.49,3.87,5.33,5.74q1.74,1.77,3.54,3.46l-5.84,5.43q-4.77-4.53-9.2-9.53Zm1.58,16-4.27,4.18,3.47-4.95Zm1.47,1.36q4.24,3.95,8.73,7.54l-8.38,13.82q-6.21-4.73-11.92-10ZM275.65,566c2.06,1.56,4.15,3.08,6.28,4.52,1.63,1.11,3.29,2.18,5,3.22l-8.08,13.51q-6.82-4.07-13.17-8.76Zm13,8.77q6,3.63,12.37,6.7l-5.79,14.35q-7.57-3.45-14.64-7.55Zm1-1.71,4.07-6.81q5.58,3.38,11.49,6.23l-3.41,7.19Q295.52,576.61,289.62,573Zm17.37.27q6.3,2.94,13,5.31l-2.63,7.56q-7.06-2.53-13.76-5.67Zm14.86,6c4.34,1.47,8.77,2.76,13.33,3.87l-1.27,8q-7.53-1.83-14.7-4.3Zm11.68,13.83-3.34,14.52q-8.54-2-16.61-4.65l5-14.27C323.43,590.36,328.41,591.84,333.53,593.09Zm2,.44q7.75,1.8,15.89,2.94l-2,14.71q-8.81-1.24-17.19-3.13Zm17.87,3.23c3.3.43,6.66.76,10,1l-1,14.87q-5.6-.49-11-1.21Zm12,1.19c5.13.36,10.35.56,15.68.56l2.58,0-.52,15.13q-9.58-.07-18.79-.79Zm20.29-9.8q12.38-.3,23.87-1.46l.64,8.44q-11.82,1.1-24.51,1.33Zm25.86-1.66q11.08-1.2,21.33-3.22l1.93,8.48q-10.87,2-22.62,3.19Zm23.71,7.22,3.39,14.92q-12.18,2.42-25.13,3.67l-1.17-15.36Q424.22,595.75,435.25,593.71Zm2-.39q10.92-2.13,21-5.14l4.4,14.35a222.48,222.48,0,0,1-22,5.7Zm22.87-5.71q6.78-2.1,13.14-4.61l5.67,13.61q-7,2.91-14.42,5.31Zm15-5.36q6.62-2.7,12.77-5.83L495.09,589c-4.63,2.46-9.43,4.73-14.36,6.83Zm14.55-6.74q6.11-3.21,11.76-6.85l7.79,12q-6,3.93-12.33,7.41Zm13.42-8q5.37-3.57,10.29-7.55l9.15,10.85q-5.6,4.57-11.64,8.68Zm-1.16-1.63-6-7.71c3.38-2.33,6.63-4.79,9.72-7.38l6.43,7.64Q507.19,562.4,501.89,565.92Zm5.25-16.39q4.25-3.67,8.12-7.69l7.45,7q-4.35,4.38-9.11,8.35Zm9.5-9.13.07-.07c2.29-2.46,4.46-5,6.52-7.67l8.58,6c-1.62,2-3.3,4-5.08,6-.86,1-1.74,1.89-2.63,2.81Zm9.2,8.12,1.54,2-1.83-1.74Zm1.38-1.48c.33-.35.67-.7,1-1,1.84-2,3.57-4.1,5.24-6.19L545.23,548q-4.37,5.44-9.3,10.5Zm8.95-10.75q2.91-3.9,5.47-7.91l12.85,6.81q-3.69,5.74-7.92,11.14Zm8.63-13.09q2.13-3.69,4-7.43l13.7,5.37q-3.12,6.23-6.79,12.12Zm6.88-13.55c1-2.31,2-4.63,2.84-7l14.25,4.05q-2.37,6.3-5.27,12.32Zm5.39-14.18q1.13-3.45,2.07-6.89l14.63,2.49c-1.21,4.58-2.59,9.06-4.17,13.44ZM561,481.33q.82-3.68,1.49-7.29l14.74.88c-.76,4.71-1.69,9.33-2.82,13.86Zm2.8-15.6c.11-.88.23-1.76.34-2.63l14.63-.34c-.31,3.29-.69,6.53-1.17,9.74Zm1.09-10.22c.23-2.84.38-5.6.48-8.3l14.19-1.09q0,7.23-.6,14.25Zm.62-16.5c0-4.94-.21-9.53-.49-13.64l13.38-3.13q1.1,10.39,1.16,21.41ZM539.34,331.22l-11.18,3.55q-1.7-2-3.48-3.92l6-8.2Q535.19,326.75,539.34,331.22ZM425.45,282.1l-1.9,4.75c-4.72-.27-9.55-.36-14.47-.32l-.22-5H409C414.6,281.56,420.08,281.75,425.45,282.1ZM285.6,326.7l3.77,4.4c-1.58,1.67-3.11,3.4-4.59,5.16l-5.81-2.5Q282.14,330.12,285.6,326.7ZM248.44,398l8.74,14.3-34.09,25.48-20.91-25.27,26-14.51Zm-19-2L249.57,349l7.48,2.1-19.22,44.86.28.12Zm28.25-46.89-7.49-2.1q2.34-12,5.36-22.72l7.2,3.37Q259.87,337.84,257.65,349.15Zm40.14-86.41-5.63-7.06a102.93,102.93,0,0,1,7.63-7l4.41,8.22c-.5.42-1,.83-1.5,1.26Q300.18,260.34,297.79,262.74Zm78.91-31-.28-9.3q4-.12,8.1-.07l-.21,9.29C381.74,231.66,379.2,231.68,376.7,231.76Zm24.9.79h-.19l.75-9.25.35,0L533.1,235l.32,9.35Zm133.78,10.66-.27-8,7.92.71Zm-.91-26.68-1.27-37,11.12-13.31v65.54Zm8.2-52.33L525.2,177.52,401.46,166.38l1-14.75h.08ZM400.44,151.47l-1,14.69a178.48,178.48,0,0,0-23.57-.94V150.44h.91Q388.29,150.43,400.44,151.47ZM256.73,192.35q4-3.63,8.18-6.94l8,13.36q-4.92,3.78-9.65,8.14l-11.16-10.09C253.59,195.29,255.14,193.8,256.73,192.35ZM243.65,558.84c-1.28-1.39-2.53-2.8-3.77-4.23l12.9-9.8q3.43,3.87,7.07,7.46l-9.41,13.44Q247,562.38,243.65,558.84ZM297,596.61l5.77-14.29q6.76,3.16,13.9,5.71l-5,14.29c-2.16-.73-4.29-1.48-6.39-2.29C302.49,599,299.72,597.81,297,596.61Zm88.13,17,.52-15.18q12.78-.23,24.69-1.34l1.18,15.37q-12.75,1.14-26.2,1.15Zm142.73-47.35c-1.26,1.12-2.54,2.21-3.83,3.3l-9.14-10.86q4.85-4.05,9.27-8.5l10.25,9.85Q531.24,563.26,527.86,566.29Z"/></g></svg>