<svg xmlns="http://www.w3.org/2000/svg" viewBox="0 0 767.13 767.13"><defs><style>.cls-1{fill:#292c35;}</style></defs><g id="Layer_2" data-name="Layer 2"><path class="cls-1" d="M547.59,404.64c-20.44-16.53-49.63-28.12-86.75-34.47V350.11a207.89,207.89,0,0,0,33.58-8.3h0A125.45,125.45,0,0,0,517.3,331.4h.34l.23-.33a95.85,95.85,0,0,0,10.19-7A77.65,77.65,0,0,0,543,308.47l0,0,0-.08a80.38,80.38,0,0,0,13.7-34.1l.44-.25-.13-1.76a111.69,111.69,0,0,0,1.09-15.8c0-36.84-18-64.84-53.5-83.21C475.05,158,433.67,149.86,385,149.86c-48.94,0-90.41,8.09-119.9,23.39-27.72,14.38-44.71,34.7-50.76,60.58l-.2.43.09.09a99.18,99.18,0,0,0-2.39,22.11A110,110,0,0,0,213.48,276h0l-.11,1.77.53.32c3.87,18.89,13.12,34.29,27.64,46a106.16,106.16,0,0,0,27.77,15.68l.06,0h0a194.06,194.06,0,0,0,39.08,10.37v19.75A191.44,191.44,0,0,0,289,374c-28.8,6.63-50.84,16.15-67,28.91C197.91,422,186.2,448.16,186.2,483c0,43.16,18.16,76.68,54,99.64,34.36,22,83.07,33.2,144.78,33.2,60.6,0,110.58-11.48,144.54-33.2,36-23,54.22-56.53,54.22-99.64C583.72,450.4,571.56,424,547.59,404.64Zm-29,162.93L517.52,566l.18-.12Zm-95.07,30.76-.5-2.54.35,0ZM237.62,555.39l6.34-7.25q3.22,2.94,6.72,5.6l-5.18,7.94Q241.38,558.67,237.62,555.39Zm6.84,7.89-9,13.77q-5.25-3.75-9.93-7.85l10.82-12.37C238.93,559.07,241.62,561.22,244.46,563.28Zm-27.6-152.37,7-1.22q-2.1,2.22-4.08,4.59l0-.18-.91.16Zm7.91-6.86,5.72-.69c-1.43,1.25-2.84,2.54-4.21,3.88l-.1,0ZM413,170.1v6.39a267.45,267.45,0,0,0-28.46-1.33v-6.31Q399.32,168.9,413,170.1Zm80.83,20h0l0-.06Zm41.91,123.34-5.52,2.11-.76-1.25c.36-.49.72-1,1.07-1.49l3.76-1.32ZM523,324.87l-4,1c.87-.78,1.71-1.57,2.53-2.38l.72-.2Zm40.62,183.27L574.16,515,562,513.31Q562.88,510.76,563.63,508.14ZM560,513,547.3,511.3c.69-2.47,1.27-5,1.74-7.55h13.7A89.49,89.49,0,0,1,560,513Zm-.87,7.41,9.4,6.87L557.48,524C558.07,522.82,558.62,521.64,559.15,520.45Zm-3.53,3L544.31,520c.91-2.21,1.71-4.46,2.42-6.76L559.31,515A90.71,90.71,0,0,1,555.62,523.41Zm-2.3,8,8.09,7.24-9.68-4.76C552.27,533.08,552.8,532.25,553.32,531.42ZM550,533.05l-9.71-4.77c1.18-2.1,2.25-4.24,3.23-6.44l11.16,3.38C553.24,527.89,551.69,530.51,550,533.05Zm-3.88,8.41,5.06,5.21-5.88-4.24C545.56,542.11,545.84,541.79,546.11,541.46Zm-2.37-.15-8.06-5.8c1.28-1.79,2.5-3.62,3.62-5.49l9.53,4.69C547.24,537,545.55,539.17,543.74,541.31Zm-20,4.85L487,512.76a55.18,55.18,0,0,0,3.62-4.79l40.89,29.86A81.43,81.43,0,0,1,523.77,546.16Zm-10.42,8.53-31.57-36.44c1.38-1.28,2.69-2.6,3.92-4l36.61,33.26A97.92,97.92,0,0,1,513.35,554.69Zm-7.2,17.73,2.88,6-3.81-5.57Zm-11.33,3.1-2.66-6.69q5.07-2.26,9.73-4.77l3.38,6.58Q500.26,573.19,494.82,575.52Zm-18.75,16.65-2.81-6.68,1.19-.36Zm-21.79,5.19L452.19,591l1.14-.26Zm-29-3.86-.45-7.49c9.44-1.13,18.54-2.63,27.19-4.48l1,7.18C443.32,590.86,433.93,592.4,425.29,593.5Zm-87.65,1.89.33,0-.53,2.32Zm.17-1.92.67-8.07c5.95.83,11.59,1.44,16.79,1.88l-.16,7.81Q346.19,594.46,337.81,593.47ZM308,590.31l1.44.33-2.32,6.83Zm.24-1.88,1-8.59c9.35,2.32,18.57,4,27.22,5.28l-.68,8.1A279.11,279.11,0,0,1,308.23,588.43Zm-21-3.87c.58.19,1.16.39,1.75.57l-3.64,7.41Zm.44-1.86L289.7,574c5.84,2,11.75,3.81,17.63,5.33L306.27,588C299.78,586.44,293.59,584.68,287.65,582.7Zm-18.87-7.44,2.9-8.73a167.16,167.16,0,0,0,16.13,6.81l-2.07,8.71c-2.46-.85-4.9-1.72-7.27-2.65C275.13,578.1,271.91,576.71,268.78,575.26Zm1.44,2.75-4.92,7.75,2.87-8.68C268.85,577.4,269.54,577.7,270.22,578ZM259,557.17l30.49-37.48c1.53,1.33,3.15,2.6,4.84,3.82L269,563C265.58,561.16,262.25,559.24,259,557.17Zm-10.46-7.67,35.67-35c1.19,1.33,2.47,2.6,3.8,3.83l-30.68,37.71A103.34,103.34,0,0,1,248.58,549.5Zm-9.06-8.65,40.07-32.25c1,1.51,2.18,3,3.36,4.38l-35.9,35.22A91.67,91.67,0,0,1,239.52,540.85Zm-19.25-1.51-6.94,4.33,5.86-5.85C219.55,538.33,219.9,538.84,220.27,539.34Zm-2.84-7.76,9.71-4.5q1.65,3,3.53,5.77l-8.75,5.46C220.33,536.13,218.84,533.88,217.43,531.58Zm-12.16-22.06-12,.77,10.24-7C204,505.41,204.63,507.48,205.27,509.52Zm-.67-10.18,13.59.87a80.65,80.65,0,0,0,1.67,8.38l-12.55.8C206.26,506.13,205.37,502.77,204.6,499.34Zm37.93-102.71,5.82,19.89c-2.43,2.17-4.8,4.47-7.08,6.94l-7.92-19.92A111.79,111.79,0,0,1,242.53,396.63ZM287,317l17.51-12.52c.46.52.93,1,1.42,1.52l-15.14,13.11C289.57,318.43,288.31,317.73,287,317ZM284,315.18c-.85-.53-1.69-1.06-2.51-1.59l20.87-11.89c.3.42.63.83.95,1.23l-18.13,13Zm-37.13,5.34c-1.49-1.57-3-3.26-4.44-5.07L256,292.88c.6.82,1.22,1.63,1.86,2.44ZM236,313.76l3.91,2-.57,1L235.18,315Zm-5-7.06,4.32,2.27c.23.38.47.75.71,1.12l-.69,1.06-5.65-2.91Zm-4.43-26,19-11.16c.26,1.22.56,2.43.9,3.64l-18.51,13.65C227.32,284.85,226.87,282.8,226.49,280.7Zm-1-7.9,19.08-8.58c.13,1.08.29,2.16.47,3.23l-18.89,11.13C225.87,276.7,225.64,274.77,225.49,272.8Zm35-57.58,40.33,32.72.1.18c-.29.47-.59.92-.86,1.4l-43.42-29.05A63.06,63.06,0,0,1,260.52,215.22Zm17.92-15.55,29.77,39.93c-.48.42-.94.85-1.39,1.29l-33.44-37.78Q275.8,201.33,278.44,199.67Zm18.62-18.82,1.44,6.93c-3.76,1.39-7.35,2.87-10.73,4.47l-.1.05-3.54-6.49C288.25,184,292.57,182.36,297.06,180.85Zm.52-6.8,1.66,4-.69.23Zm136.58,7.53-8.53,43q-6.79-1.2-14.62-1.93l3.91-43.93C421.51,179.42,427.94,180.38,434.16,181.58Zm7.9-9.42-.12,0,.24-.88Zm21.86,7.57-2.34,7.12a183.17,183.17,0,0,0-18.77-5.45l.92-6.86A207.24,207.24,0,0,1,463.92,179.73Zm15.81,3.61-.15-.06.64-1.25Zm-.63,1.91-2.17,7.91a145.71,145.71,0,0,0-13.46-5.65l2.35-7.17Q472.74,182.58,479.1,185.25Zm28.27,32.69L468,246.63q-.44-.62-.9-1.23l35.83-32.26C504.5,214.7,506,216.3,507.37,217.94Zm32.84,66L520.57,270.8c.27-1,.5-2.08.72-3.14l19.81,10.19Q540.76,281,540.21,283.94Zm-17.58,35.52-12.4-25.9c.72-1.08,1.42-2.17,2.09-3.28l14.73,23.91C525.68,316,524.2,317.76,522.63,319.46Zm5.56-3.43.15.25-.5.19Zm-44.65,1L465.4,304.44c.5-.57,1-1.16,1.43-1.75l20.64,11.57Q485.54,315.7,483.54,317Zm-50.75,5.52-.34-1a93.3,93.3,0,0,0,13.48-4.13A67.29,67.29,0,0,1,432.79,322.55Zm111.87,88.27-2-.29c-.48-.52-1-1-1.46-1.56s-.88-.92-1.33-1.37l6.64-.11Zm.21,101.83-47.1-19.54c.6-1.85,1.13-3.73,1.57-5.67L547.48,501A81.49,81.49,0,0,1,544.87,512.65Zm-5,12.39-44.67-25.21c.72-1.57,1.39-3.16,2-4.81l47.1,19.54A74.89,74.89,0,0,1,539.84,525Zm-49.63-20.16-7.9-8.65c.76-1.24,1.49-2.51,2.15-3.83l8.2,8Q491.54,502.73,490.21,504.88Zm-4.57,6.37-7.28-9.46c1-1.23,1.94-2.51,2.82-3.82l7.91,8.65A55,55,0,0,1,485.64,511.25Zm-5.12,5.44-7.28-9.44c1.34-1.25,2.61-2.56,3.8-3.91l7.28,9.47Q482.52,514.82,480.52,516.69Zm10.77,50.37-22.9-39.14c1.63-.92,3.21-1.87,4.72-2.87.29-.19.56-.4.85-.59l26.9,37.92C497.81,564,494.63,565.58,491.29,567.06Zm-29.21,10-13.94-40.72q5.57-1.7,10.53-3.76l18,40.14c-.72.25-1.42.5-2.15.74C470.51,574.78,466.36,576,462.08,577.09ZM444.55,581l-9.31-41.35c3.83-.79,7.49-1.7,11-2.7l13.92,40.66C455.13,578.86,449.92,580,444.55,581Zm-28.84-40.34-2.35-11.11q8.36-.91,15.84-2.39l3.55,11Q424.71,539.68,415.71,540.65Zm-12.65,1-1.23-11.19c3.26-.19,6.44-.43,9.53-.74l2.35,11.11Q408.54,541.37,403.06,541.68ZM329.31,582l8.18-41.73q8.67,1.65,18.44,2.6l-4.74,42C344.43,584.23,337,583.29,329.31,582ZM282.19,569l21.32-39.91q3.19,1.68,6.7,3.16L293,573.05C289.38,571.83,285.76,570.5,282.19,569Zm3.35-56,7.37-9.53c1.13,1.29,2.33,2.52,3.6,3.72l-7.28,9.58Q287.28,515,285.54,513.07ZM281,507.24l7.73-9.12c.89,1.33,1.85,2.62,2.86,3.86l-7.37,9.56Q282.49,509.45,281,507.24Zm-3.51-6,7.94-8.78c.67,1.32,1.4,2.61,2.17,3.87l-7.72,9.15C279,504.13,278.22,502.72,277.48,501.27ZM225,518l47.89-22.43c.65,1.78,1.38,3.5,2.17,5.17l-45,27.4A73.65,73.65,0,0,1,225,518Zm7-79.2,40.08,8.56q-.78,2.44-1.38,5l-43.58-4.45A83.25,83.25,0,0,1,232,438.76Zm7.73-10.65,35,12.38c-.72,1.6-1.39,3.24-2,4.92L233.15,437c.3-.45.58-.91.88-1.35A88.19,88.19,0,0,1,239.73,428.11Zm8.52-8.86,29.81,14.93c-.9,1.46-1.72,3-2.49,4.5l-34.44-12.2A96.93,96.93,0,0,1,248.25,419.25Zm28.58-19.37,16.11,18c-1.37,1.06-2.69,2.15-3.95,3.29L269.2,404l.87-.51C272.33,402.21,274.59,401,276.83,399.88Zm23.93,15.18.64.68c-1.32,1-2.59,2.05-3.8,3.14l-1.35-.87C297.69,417,299.21,416,300.76,415.06Zm7.61-4.09.05.08q-2.84,1.67-5.41,3.49l-.49-.52Q305.33,412.42,308.37,411Zm23.52-90.07.58-.59q3.79,1.08,8,1.93l-.53,1.05C337.06,322.58,334.38,321.79,331.89,320.9Zm-13.34-8a49.2,49.2,0,0,1-4.81-2.93c-6.91-7.07-10.32-16.49-10.32-28.53,0-32.35,24.39-46.16,81.54-46.16s81.53,13.81,81.53,46.16c0,12-3.4,21.46-10.32,28.53a49,49,0,0,1-4.8,2.93c-14.22,7.56-35.32,11.08-66.41,11.08S332.76,320.42,318.55,312.86ZM234.13,303l16.37-19.12c.34.67.69,1.34,1.06,2l-14.38,22.34Q235.59,305.67,234.13,303ZM230.89,296l17.43-17c.39,1,.8,1.91,1.23,2.86L233.15,301C232.35,299.41,231.59,297.74,230.89,296Zm-5.54-34.53c.12-2.41.35-4.79.67-7.13l18.5-4.4c-.14,1.42-.25,2.86-.31,4.32,0,.28,0,.55,0,.83Zm2.19-15.18,17.73-2c-.2,1.16-.36,2.34-.51,3.53l-18.42,4.38C226.67,250.21,227.07,248.23,227.54,246.29Zm6.08-16.5,15,2c-.29.75-.56,1.51-.81,2.27l-15.9-.73Q232.74,231.56,233.62,229.79Zm6.5-10.62L252.2,224q-.67,1.26-1.29,2.55l-13.19-3.87C238.49,221.49,239.28,220.32,240.12,219.17Zm60.29,34,5,8.26c-.1.22-.19.46-.29.68L300,254.25C300.1,253.89,300.25,253.53,300.41,253.18Zm-34.66-43.64,37.14,35.77c-.27.35-.53.71-.78,1.07l-40.29-32.69C263.05,212.27,264.37,210.89,265.75,209.54ZM304.08,247l4.91,8.61c-.31.42-.62.84-.91,1.27l-4.83-8.7C303.52,247.75,303.79,247.35,304.08,247Zm2.35-2.9,4.78,8.79c-.31.33-.6.68-.88,1l-4.92-8.61C305.74,244.86,306.07,244.46,306.43,244.07Zm2.68-2.68,4.42,9.09c-.3.28-.58.58-.87.87l-4.79-8.81C308.27,242.15,308.69,241.77,309.11,241.39Zm11.1-57.82,12.6,43.58c-2.46.69-4.78,1.45-7,2.28l-16.47-43.09Q314.57,184.83,320.21,183.57Zm39.11-5.46,3.33,44.21q-8.26.62-15.43,1.76l-7.75-43.94Q348.93,178.84,359.32,178.11Zm65.83,48.35-2.8,9.55c-4.14-.73-8.58-1.32-13.35-1.76l1.74-9.65Q418.45,225.29,425.15,226.46Zm9.79,2.14L431.6,238c-2.3-.61-4.73-1.16-7.27-1.65l2.79-9.54Q431.23,227.62,434.94,228.6Zm25.95-39.88-16.45,40.84q-3.29-1.25-7-2.3l12.33-42Q455.53,186.85,460.89,188.72Zm9.86,3.83L450.22,232c-1.26-.61-2.55-1.2-3.91-1.76l16.47-40.9C465.52,190.38,468.17,191.44,470.75,192.55ZM459.13,240l-4.88,8.69c-.8-.64-1.64-1.26-2.51-1.87l4.48-9C457.24,238.47,458.21,239.19,459.13,240Zm2.68,2.36-5.24,8.35-.77-.68,4.87-8.71C461.05,241.62,461.45,242,461.81,242.31Zm2.71,3L458.86,253c-.28-.31-.55-.61-.84-.91l5.2-8.33C463.67,244.28,464.1,244.78,464.52,245.28Zm62.22-24.84L514.86,225c-.33-.56-.67-1.11-1-1.66l10.78-5.64Q525.71,219,526.74,220.44Zm3.48,5.07-13.43,3c-.3-.58-.61-1.16-.92-1.74L528,222.11C528.74,223.23,529.5,224.37,530.22,225.51Zm2.85,4.91-14.77,1.3c-.2-.46-.41-.93-.62-1.39l13.65-3C531.94,228.34,532.52,229.38,533.07,230.42Zm2.89,6.06-15.79.3c-.33-1.05-.69-2.09-1.09-3.12l15-1.32Q535.08,234.4,536,236.48Zm2.48,6.82-17-1.54c-.21-1-.45-2-.72-3l16-.3C537.38,240.06,537.94,241.68,538.44,243.3Zm2,8.46-18.06-4c-.13-1.34-.31-2.66-.54-4L539,245.36C539.61,247.47,540.09,249.61,540.46,251.76Zm.71,5.3c.14,1.47.24,2.93.32,4.38l-18.84-5.25q.11-3.12-.09-6.32l18.23,4C540.94,254.94,541.07,256,541.17,257.06Zm.48,9.45-19.18-7.11c0-.39.06-.77.08-1.16l19,5.3Q541.64,265,541.65,266.51Zm-5.78,32.27-18.12-19.36c.36-.91.71-1.83,1-2.76l19,16.79Q536.94,296.16,535.87,298.78Zm-24.62-10.57-36.73-3c.3-1.6.56-3.24.73-4.94l40.22-.48A72.49,72.49,0,0,1,511.25,288.21ZM494,308.94,469.9,298.07c.31-.55.61-1.11.89-1.68l26.52,9.52Q495.72,307.47,494,308.94Zm-28-8.63-1-.21q.27-.63.51-1.26l1.24.31C466.61,299.54,466.34,299.93,466.07,300.31Zm52.84-60.71L473,256.72c-.18-.54-.35-1.08-.55-1.6l44.24-22.05A52.86,52.86,0,0,1,518.91,239.6Zm-2.64,38.14-40.88.49c.1-1.46.17-3,.17-4.49h0l43.55-5.4A66.39,66.39,0,0,1,516.27,277.74Zm4.28-28,0,.6L474.5,262.45c-.25-1.31-.56-2.58-.91-3.82l45.8-17.07A53.68,53.68,0,0,1,520.55,249.71Zm0,8.44L475.21,267c-.09-.89-.22-1.76-.35-2.62l45.8-12.06C520.71,254.31,520.68,256.25,520.56,258.15Zm-47.9,5.22-5.51,5.81c-.19-.8-.41-1.57-.64-2.33l5.44-6.71C472.22,261.19,472.46,262.26,472.66,263.37Zm.39,2.49c.09.72.18,1.45.24,2.18l-5.35,5.45q-.13-1-.3-1.92ZM468.24,276l5.24-5.34c0,.58,0,1.17,0,1.75l-5.17,5.1C468.33,277,468.29,276.54,468.24,276Zm.22,4.21,5.06-5c0,1.19-.09,2.36-.18,3.5l-4.88,4.1c0-.49,0-1,0-1.47S468.47,280.64,468.46,280.25Zm51.08-14-44,5.46c0-.91-.08-1.8-.14-2.67l45-8.83C520.2,262.27,519.91,264.28,519.54,266.26Zm-48.26-8.47-5.52,6.81c-.17-.45-.34-.89-.52-1.34l5.63-6.7C471,257,471.15,257.38,471.28,257.79Zm-2.94,27.79,4.7-3.95c-.17,1.32-.39,2.61-.65,3.86l-4.29,2.8C468.2,287.4,468.28,286.5,468.34,285.58Zm-2.07,11.36c.07-.23.16-.46.23-.7h2.07c-.21.38-.4.77-.61,1.14Zm3.29-2.7h-1.81l2.2-.91C469.82,293.63,469.7,293.94,469.56,294.24Zm1.38-3.49-3.45,1.43c.08-.42.17-.84.24-1.26l4-2.59C471.46,289.16,471.21,290,470.94,290.75Zm44.95-59.51-44.21,22c-.26-.59-.52-1.18-.81-1.75L513,225.85A54.58,54.58,0,0,1,515.89,231.24ZM470,254.43l-5.7,6.79c-.15-.31-.33-.62-.49-.93l5.56-7.29C469.63,253.47,469.84,254,470,254.43ZM468.42,251l-5.63,7.38c-.18-.3-.37-.6-.56-.9l5.48-7.66C468,250.21,468.2,250.6,468.42,251Zm-1.86-3L461,255.73c-.28-.38-.55-.77-.84-1.14l5.6-7.69C466.06,247.26,466.31,247.63,466.56,248Zm-16.5-2.32c-1-.61-2-1.21-3-1.77l-.2-.1,4.29-9.1c1.19.62,2.33,1.28,3.42,2Zm-.71-11.89-4.3,9.12q-1.8-.89-3.75-1.68l4.23-9.13C446.85,232.63,448.13,233.19,449.35,233.78Zm-5.68-2.44-4.24,9.16q-2.79-1-5.9-1.93l3.35-9.46Q440.47,230.13,443.67,231.34ZM407,234.08c-6.73-.55-14.05-.84-22-.84h-.4v-9.7h.4c8.61,0,16.51.3,23.78.89Zm-24.43-.82q-8.85.06-16.64.59l-1.09-9.69q8.31-.54,17.73-.6Zm-63,12.58-4.43-9.06c1.16-.74,2.39-1.44,3.66-2.11l3.91,9.3C321.65,244.57,320.61,245.19,319.6,245.84Zm4.93-2.78-3.92-9.3c1.29-.63,2.65-1.22,4.05-1.78l3.59,9.39C327,241.9,325.72,242.47,324.53,243.06Zm5.58-2.42-3.59-9.4q3.24-1.22,6.86-2.22l3,9.54C334.2,239.19,332.1,239.89,330.11,240.64Zm8.23-2.62-3-9.51q4.83-1.26,10.3-2.19l2.12,9.66C344.41,236.56,341.28,237.25,338.34,238Zm11.38-2.37L347.6,226c4.73-.74,9.8-1.31,15.24-1.72l1.08,9.71Q356.32,234.58,349.72,235.65Zm14.93-13.47L361.32,178q10.19-.66,21.24-.79v44.39Q373,221.62,364.65,222.18Zm-27.16-41.76,7.75,44c-3.73.63-7.21,1.39-10.49,2.24l-12.59-43.49Q329.48,181.57,337.49,180.42Zm-30.07,6.47L324,230.15q-2.16.87-4.15,1.84l-20.59-42.34C301.86,188.68,304.58,187.75,307.42,186.89Zm-10.09,3.45L318,232.89l-.43.21c-1.18.63-2.29,1.3-3.38,2L288.69,194C291.43,192.73,294.32,191.5,297.33,190.34Zm16.16,47.57,4.42,9c-1,.69-1.92,1.42-2.81,2.17L310.68,240C311.57,239.29,312.51,238.59,313.49,237.91Zm-15.94,47.68,4.68,5.56v0l-4.33-4C297.78,286.65,297.66,286.12,297.55,285.59Zm-48.74-10.87,45.74,3.88c.06.84.13,1.67.22,2.48H251.26A57.11,57.11,0,0,1,248.81,274.72ZM247,267.07a59,59,0,0,1-.81-10.28l48.44,11.66c-.11,1.36-.18,2.75-.2,4.17Zm49.47,9.73,3.31,4.32-3.28-3.71Zm5,3.27-5.09-6.66c0-1,0-1.94.07-2.88l5.17,6.39Q301.49,278.46,301.45,280.07Zm-4.8-12.45c.12-1.25.29-2.46.49-3.65l5.11,7.71c-.14.79-.26,1.6-.36,2.41Zm1-6.44c.07-.29.15-.57.23-.86l5.12,7.85c-.07.26-.15.51-.21.77Zm-2.91,5.26-48.59-11.69c0-.14,0-.27,0-.4a76.13,76.13,0,0,1,1.06-9.85L295.49,262C295.2,263.47,295,264.93,294.78,266.44Zm6.85,30.35c-.24-.44-.46-.88-.69-1.33l1.8,1.73Zm.23-3.22,1.11,1v.06Zm-5-11.87c0-.31-.09-.62-.13-.94l4.87,5.52c0,.39.05.77.09,1.15Zm10-22.91-.32.58-5.08-8.31c.18-.33.39-.65.58-1Zm-2.61,5.56c-.17.43-.31.87-.46,1.31l-5.15-7.89c.13-.42.27-.84.41-1.25Zm-7.2-8-47.26-21.7q.92-2.72,2.06-5.3l45.72,25.51C297.38,255.31,297.22,255.81,297.05,256.31Zm-60.43-31.89,13.45,3.94c-.23.51-.46,1-.67,1.54l-14.79-2C235.25,226.73,235.92,225.57,236.62,224.42Zm12.56,12.1,47.25,21.71c-.18.6-.35,1.22-.5,1.84l-48.28-17.56Q248.28,239.45,249.18,236.52Zm45.2,38.11c0,.66,0,1.31,0,1.95l-46.22-3.92c-.32-1.16-.6-2.34-.85-3.53ZM252.67,287.8c.66,1.11,1.36,2.2,2.09,3.29l-13.68,22.68c-.92-1.2-1.82-2.46-2.7-3.76Zm-.45-4.72H295c.19,1.26.41,2.48.68,3.68l-39.38,3.31A59.93,59.93,0,0,1,252.22,283.08Zm166.89,42.34-.34-1.41c3.53-.47,6.89-1,10.08-1.65l-1.11,1.47Q423.67,324.73,419.11,325.42Zm-14.25,1.52-.16-1.59c4-.26,7.82-.59,11.45-1l-.48,1.55C412.26,326.33,408.68,326.68,404.86,326.94Zm58.21,63.35-7.72,15.93q-5-1.92-10.48-3.5l6.35-15.25C454.5,388.13,458.53,389.05,463.07,390.29ZM514,415l-25.68,14.38c-1.1-1.42-2.27-2.81-3.52-4.15l21.75-15.66Q510.47,412.21,514,415Zm9.16,8.22L492.8,436.1a59,59,0,0,0-3.26-5.07l26.15-14.64A100.57,100.57,0,0,1,523.18,423.25Zm14.61-14.88c.66.65,1.32,1.3,2,2,1.11,1.17,2.18,2.35,3.21,3.56L533,431.82q-1.81-2.44-3.74-4.72Zm11.06,13.14L537.19,438q-1.38-2.25-2.86-4.36l10-18.09Q546.72,418.45,548.85,421.51ZM547.77,499l-48-13.53c.39-2,.72-4.05.94-6.16l47.79,9.58A94.76,94.76,0,0,1,547.77,499Zm-51.7-7.15-8.27-7.71c.52-1.66,1-3.35,1.38-5.1l8.3,7.49C497.09,488.35,496.6,490.11,496.07,491.85Zm-31.95,20C446.93,523.23,420.29,529,385,529c-69.87,0-103.83-21.39-103.83-65.39,0-42.41,32.79-64.56,97.47-65.91,2.09,0,4.2-.06,6.36-.06s4.27,0,6.36.06c64.68,1.35,97.46,23.5,97.46,65.91C488.78,484.85,480.48,501.1,464.12,511.89Zm3.27,14.29-5.89-10.35c1.28-.73,2.53-1.48,3.72-2.27.3-.2.58-.41.87-.61l6.73,9.86c-.28.19-.53.39-.81.57Q469.79,524.85,467.39,526.18ZM459.63,530l-5.7-10.39c2-.89,4-1.85,5.82-2.85l5.88,10.35C463.72,528.16,461.71,529.12,459.63,530Zm-12.15,4.45-3.88-11q4.45-1.41,8.47-3.08l5.71,10.4Q452.92,532.83,447.48,534.48ZM325,535.41l3.76-11.08c3.37,1,6.93,1.84,10.64,2.6L336,538Q330.26,536.86,325,535.41ZM312.8,531.3l4.61-10.95q4.47,1.86,9.46,3.4l-3.76,11.11Q317.67,533.25,312.8,531.3Zm2.77-11.73-4.62,11q-3.42-1.46-6.54-3.09l5.65-10.58C311.83,517.81,313.65,518.72,315.57,519.57Zm-42.91-31.74,8.35-7.58c.25,1,.51,2.05.81,3.05l-8,8.93C273.4,490.79,273,489.33,272.66,487.83Zm-46.37-38,44,4.48q-.58,2.86-.94,5.85H222.65A83.72,83.72,0,0,1,226.29,449.81Zm50.66-9.2,7.6-4.08c-.37.81-.71,1.63-1,2.46l-8.09,5.12C275.89,442.92,276.4,441.75,277,440.61Zm-56.86,31.87a91.74,91.74,0,0,1,2-10.34h47c-.19,2-.31,4.07-.35,6.17Zm59.09-7.07-8.4,6.37c0-.52,0-1,0-1.56,0-.18,0-.36,0-.54l8.39-7.31c0,.41,0,.81,0,1.22C279.13,464.21,279.16,464.8,279.18,465.41Zm-8.33,8.83,8.4-6.38c.05.91.12,1.8.2,2.7l-8.37,7.21C271,476.61,270.9,475.43,270.85,474.24Zm8.86-1.27c.21,1.71.48,3.39.81,5l-8.35,7.57q-.51-2.62-.83-5.37Zm-.49-12.91-.2-.22L270.84,467c.07-1.92.19-3.8.38-5.63l8.32-5.79C279.39,457,279.29,458.53,279.22,460.06Zm.67-7.19-8.3,5.78c.23-1.58.5-3.13.82-4.64l8.19-5.26C280.32,450.1,280.09,451.47,279.89,452.87Zm-5.6-5.68,8.1-5.13q-.63,1.9-1.14,3.9l-8.15,5.23C273.45,449.83,273.85,448.5,274.29,447.19Zm-54.45,27.32,48.92-4.19c0,1,0,1.92.07,2.87l-49.53,8.15C219.41,479,219.58,476.75,219.84,474.51Zm-.57,15.86q-.14-3.54,0-7l49.68-8.18c.07,1.29.16,2.57.29,3.82l-49.9,11.87Zm250-75.24-1.09.52c-1-.72-1.93-1.42-2.94-2.1l-1-.65.47-.37C466.25,413.36,467.79,414.23,469.26,415.13Zm6.44,4.42-2.79.1c-1-.89-2-1.76-3-2.61l1.37-.65C472.81,417.4,474.29,418.46,475.7,419.55Zm5.19,4.44L477,423.8c-.66-.76-1.35-1.49-2.06-2.22l3.19-.12C479.05,422.28,480,423.12,480.89,424Zm51.89,10.77A83.76,83.76,0,0,1,539,445.2l-40.43,5c-.49-1.76-1-3.49-1.66-5.17ZM495,445.31c.5,1.32.95,2.67,1.36,4l-7.89-4c-.34-1.23-.71-2.44-1.12-3.63l7.64,3.62Zm2,6.64c.4,1.57.75,3.18,1,4.82l-8.12-4.59c-.23-1.45-.5-2.88-.82-4.28Zm2,13.49c.05,1,.07,1.94.09,2.92L490.77,463c0-1.07,0-2.13-.08-3.17l8.24,5.55Zm-8.28-.05,8.4,5.37c0,1.85-.09,3.67-.22,5.45L490.5,470Q490.68,467.72,490.74,465.39Zm7.67-6.12c.16,1.2.3,2.42.41,3.65l-8.31-5.6c-.07-.89-.16-1.78-.26-2.65Zm-8.12,13,8.45,6.29c-.19,1.93-.48,3.81-.82,5.66l-8.3-7.49C489.89,475.28,490.11,473.8,490.29,472.28Zm10.84-1,46.72,4.33a105.47,105.47,0,0,1,.62,11.22l-47.63-9.56C501,475.34,501.1,473.35,501.13,471.31Zm0-2c0-1.25,0-2.49-.1-3.71l45.33.6q.76,3.65,1.26,7.41Zm44.77-5.11-45-.6q-.17-2-.42-4l43.62-2C544.77,459.77,545.37,462,545.9,464.2Zm-2.46-8.56-43.24,2c-.29-1.88-.68-3.7-1.11-5.5l40.86-5A85.86,85.86,0,0,1,543.44,455.64ZM486.31,439c-.5-1.22-1-2.42-1.6-3.59l7.05,2.77c.77,1.43,1.47,2.9,2.12,4.4Zm-3-6.3c-.56-1-1.15-1.95-1.76-2.9l6.08,1.79c.91,1.24,1.78,2.51,2.58,3.82Zm-3.6-5.52c-.32-.43-.62-.87-.95-1.29l4.29.2c.87.91,1.69,1.85,2.48,2.8Zm-17.28-15.42c-1.23-.74-2.5-1.47-3.82-2.16q2.13.91,4.14,1.91Zm85.88,54,15.22-9q.68,3.42,1.12,7l-15.46,6.68C548.89,468.79,548.59,467.25,548.27,465.73Zm-.45-2.05c-.37-1.57-.79-3.1-1.23-4.6l14.78-11.14q1,3.3,1.7,6.7ZM546,457.05c-.49-1.52-1-3-1.55-4.46l14-13.14c.84,2.11,1.61,4.27,2.3,6.46Zm-2.35-6.45c-.61-1.48-1.24-3-1.91-4.36l12.93-15.14c1.08,2.08,2.09,4.21,3,6.38Zm-2.89-6.31c-.76-1.51-1.56-3-2.4-4.44L550,423.29q1.9,2.9,3.57,5.92ZM531.54,433l-35.33,10.1q-1.09-2.7-2.44-5.27l30.83-13-.08-.18A90.42,90.42,0,0,1,531.54,433Zm-48.12-9.22c-1.16-1.17-2.36-2.32-3.63-3.42l16.68-16.87q4.32,2.34,8.31,4.91Zm-5.19-4.69c-1.63-1.32-3.32-2.6-5.12-3.81l-.35-.23,13.89-16.39c2.64,1.17,5.31,2.46,8,3.85Zm-.77-26.31,1.69-16.44A164.9,164.9,0,0,1,496,382l-3,17.44A154.94,154.94,0,0,0,477.46,392.81Zm7.28,5L471.06,414q-2.46-1.55-5.12-3l10.84-16.35C479.37,395.64,482,396.69,484.74,397.85Zm-20.59,12.26c-2.21-1.12-4.52-2.16-6.93-3.15l7.8-16.11c3.09.88,6.39,1.93,9.82,3.14ZM385,395.62h-.54l.07-35.23h29.66l-5,36.17Q397.7,395.62,385,395.62Zm-.47-37.23.06-28.83H385c6.44,0,12.46-.19,18.1-.54l3,29.36Zm.47-30.82h-.41v-1.62h.4c6.27,0,12.17-.16,17.74-.47l.16,1.59C397.33,327.39,391.39,327.57,385,327.57Zm-2.4-1.65v1.63c-8.9-.06-16.89-.45-24.06-1.17l.43-1.51Q369.75,325.84,382.56,325.92Zm-40.06-3.28q6.69,1.26,14.4,2l-.43,1.49a133.82,133.82,0,0,1-14.55-2.4Zm40.05,6.91-.06,28.84H354.17l3.91-30.1Q369.14,329.46,382.55,329.55Zm-.06,30.84-.07,35.24q-8.42.06-16.22.53l-2.78-35.77ZM296.1,420.27c-1,1-1.92,1.92-2.81,2.92l-2.34-1c1.16-1,2.36-2,3.62-3Zm-6.8,3.44,2.59,1.07c-.91,1.11-1.77,2.24-2.59,3.41l-4-.29C286.56,426.45,287.88,425.05,289.3,423.71Zm-5.58,6.08,4.32.31c-.29.46-.58.92-.86,1.39l-5.34.76C282.44,431.41,283.07,430.59,283.72,429.79Zm-3.37,4.69,5.16-.73-6.95,3.72C279.13,436.46,279.72,435.46,280.35,434.48ZM225.41,447l-14.59-15.46c1-2,2.08-3.93,3.24-5.84l13.05,17.82C226.52,444.7,226,445.86,225.41,447Zm-.89,2q-1,2.28-1.84,4.66l-15.44-13.9c.8-2.13,1.68-4.21,2.65-6.26Zm-2.56,6.7c-.43,1.31-.84,2.64-1.23,4l-16.39-10.5c.62-2.52,1.35-5,2.18-7.4Zm-1.79,6c-.38,1.47-.72,3-1,4.51l-16.6-7.55c.34-2.52.77-5,1.31-7.43Zm-17.92-1,16.51,7.5c-.35,1.92-.65,3.88-.88,5.89l-16.21-5C201.76,466.29,201.94,463.49,202.25,460.76Zm-.64,10.44,16.06,5c-.16,1.66-.29,3.34-.37,5.06L201.7,477C201.63,475.06,201.59,473.12,201.61,471.2ZM269.46,481c.25,2,.56,3.91,1,5.79l-49.73,16.3a85.71,85.71,0,0,1-1.26-10.19ZM221.1,505.07l49.78-16.31q.62,2.49,1.39,4.87l-48,22.46A78.28,78.28,0,0,1,221.1,505.07Zm53.47-10.65,7.95-8.9c.58,1.72,1.25,3.38,2,5l-7.94,8.84C275.83,497.76,275.16,496.11,274.57,494.42ZM298,508.61q1.88,1.63,3.93,3.15L295.4,521.9q-2.46-1.77-4.68-3.71Zm5.57,4.3c.31.22.6.44.92.65,1.22.81,2.51,1.59,3.83,2.35l-5.66,10.58q-2.94-1.63-5.61-3.44Zm-7,12.14c1.65,1.09,3.39,2.14,5.19,3.14l-21.41,40.08q-4.86-2-9.55-4.41L296,524.66C296.2,524.79,296.37,524.93,296.56,525.05Zm15.5,8q4.94,2,10.45,3.62L309.3,577.79c-4.79-1.2-9.6-2.56-14.37-4.11Zm12.37,4.17q5.29,1.49,11.1,2.65l-8.19,41.76c-5.26-.93-10.65-2-16.09-3.36ZM338,538.38l3.44-11q7.56,1.44,16,2.31l-1.27,11.26Q346.51,540,338,538.38Zm21.45-8.52c7.31.68,15.14,1,23.42,1.1v11.21q-13.12-.07-24.69-1.08ZM384.83,531H385c5.15,0,10.09-.14,14.87-.38l1.23,11.19c-5.17.25-10.54.39-16.1.39h-.13Zm46.34-4.23q5.52-1.15,10.53-2.65l3.86,10.95q-5.16,1.49-10.84,2.66Zm47.36,45.36-18-40.28c2.13-.94,4.17-1.92,6.12-3l22.82,39C486,569.35,482.33,570.77,478.53,572.11Zm-4.07-50.45-6.73-9.86c1.4-1,2.75-2.1,4-3.21L479,518C477.58,519.29,476.06,520.51,474.46,521.66Zm10.9-31.17c.64-1.39,1.23-2.8,1.75-4.25l8.28,7.71q-.83,2.34-1.83,4.57Zm65.1-1.55,14.81-2.25q-.19,3.07-.57,6.07l-14.44.84C550.36,492.06,550.43,490.51,550.46,488.94Zm0-2q0-3.51-.22-6.86l15.25-4.38q.09,3.88-.06,7.87c0,.37,0,.73-.06,1.1Zm-.38-8.89c-.17-1.91-.38-3.79-.63-5.62l15.39-6.66c.28,2.58.47,5.21.58,7.87Zm16.43-15.18c-.32-2.45-.73-4.85-1.2-7.22l1.78-1.05,10.24,3.59Zm-2.12-11.34q-.6-2.46-1.32-4.85l2.06-1.55,9.43,2.72-7.68,4.55Zm-1.95-6.88c0-.11-.07-.22-.1-.33l.39.12Zm-.89-2.64c-.48-1.35-1-2.69-1.53-4l1.89-1.77,8.88,2.14-6.06,4.56Zm-2.36-6c-.08-.17-.15-.34-.22-.51l.61.14Zm-1.28-2.82c-.6-1.26-1.23-2.51-1.89-3.74l1.52-1.77,8.55,1.87L561.34,434ZM555,427.59l-.29-.53.62.14Zm-1.68-2.88c-.65-1.07-1.34-2.13-2-3.17l1-1.39,8,1.23-3.49,4.1Zm-4.87-7.16q-1.49-2-3.07-3.89l.36-.66,8.29,1.18L551.34,418Zm-11.52-12.82q-2.07-1.94-4.2-3.74l5.19-.25Zm-.66,2.15-8.42,18.56a100.09,100.09,0,0,0-7.06-7.19l6.73-18.8A103.56,103.56,0,0,1,536.27,406.88Zm-10.22-11.09c-1.07-.77-2.14-1.51-3.22-2.23l3.22-.17Zm-.21,2.41-6.66,18.61a109.47,109.47,0,0,0-8.88-7l4.83-18.55A123.28,123.28,0,0,1,525.84,398.2Zm-12.52-8-4.77,18.34a123.84,123.84,0,0,0-11.87-7.18c-.62-.34-1.24-.66-1.86-1l3-17.62A143.44,143.44,0,0,1,513.32,390.2Zm-.34-2.62.52-.08v.37Zm-35.79-11.73-1.67,16.26a172.15,172.15,0,0,0-30.67-7.79l15-12A151.91,151.91,0,0,1,477.19,375.85Zm-28,11.24-6.29,15.09c-3.9-1.05-8-2-12.24-2.79L436.56,379l5.05,6.59S445,386.29,449.22,387.09Zm-20.51,12q-8.34-1.47-17.62-2.31l5.08-36.34h6.12L435.05,377Zm-20.65-40.65-3-29.49c4.43-.32,8.59-.76,12.52-1.31l6.87,28-2.16,2.8ZM426,353.57l-6.44-26.27a119.16,119.16,0,0,0,11.92-2.43l5.25,14.81Zm4.79-30.48,0-.06,0,0ZM464.27,302l.5.1q-.67.82-1.38,1.62C463.7,303.11,464,302.53,464.27,302Zm24.94,11L468,301.06c.29-.42.59-.83.86-1.26l23.49,10.59C491.34,311.26,490.28,312.12,489.21,313Zm9.41-5.58,7,26.07q-3.84,2.42-8.08,4.59l-5.36-25C494.42,311.27,496.57,309.37,498.62,307.37Zm.25-3-27.21-9.78c.28-.63.53-1.28.78-1.94L503.73,299C502.19,300.82,500.56,302.62,498.87,304.35ZM473.1,290.72c.38-1.16.71-2.35,1-3.57l36,3c-.65,1.05-1.33,2.09-2,3.11l-.17.08.05.1c-.9,1.29-1.83,2.56-2.8,3.79Zm35.81,4.73L521.16,321q-2.1,2.14-4.41,4.17l-10.08-26.75C507.44,297.46,508.19,296.46,508.91,295.45Zm4.56-7.13c.53-.93,1-1.88,1.52-2.84l16.45,22.15c-1,1.64-2,3.25-3.12,4.81Zm2.51-4.86c.32-.67.63-1.34.92-2L535,300.77c-.75,1.69-1.58,3.35-2.47,5Zm20.53,18.93.29.31-.53.19Zm.87-2c.26-.6.5-1.21.74-1.82l3.74-1.55,3.2,2.82L538.87,302Zm1.7-4.38c.13-.37.26-.74.38-1.11l.73.64Zm1-3.2c.19-.6.37-1.2.54-1.81l3.7-1.88,4.31,2.89-6.42,2.68Zm1.19-4.38c.09-.39.19-.78.27-1.17l.88.59Zm-2.87,2.9-19-16.74c.19-.58.37-1.17.54-1.76l19.75,13.22C539.39,287.85,538.94,289.61,538.44,291.34Zm-16.76-25.73c.24-1.37.44-2.75.59-4.15l19.38,7.18c0,2.4-.15,4.76-.35,7.06Zm22,3.77,4.14,1.54-4.3,2.6C543.56,272.16,543.61,270.78,543.64,269.38Zm0-2.12c0-.22,0-.44,0-.66l2.63-1.75,7.9,2.2L550,269.59Zm0-3v-.11l.13,0Zm-.1-2.22c-.08-1.51-.18-3-.31-4.57l3.06-2.34,8.33,1.84-8.66,5.75Zm-.55-6.91-.09-.75.83.19Zm-.4-2.86c-.13-.85-.29-1.69-.46-2.53L546.4,246l7.55.69-8.16,6.22Zm-.93-4.75c-.15-.64-.31-1.28-.47-1.92l2.45.22Zm-1-4c-.1-.34-.21-.68-.32-1l4.76-4.16,7.47-.14L545.74,244Zm-1-3.08c-.23-.67-.47-1.33-.72-2l3.05-.06Zm-1.5-4-.35-.86,4.19-3.93,8.52-.75-6.2,5.43Zm-1.21-2.8c-.23-.5-.46-1-.7-1.49l2.52-.22Zm-1.66-3.41c-.32-.61-.64-1.22-1-1.82l2.12-2.21,11.06-2.44-6.36,6Zm-2.94-5.18c-.51-.81-1-1.62-1.56-2.42l2-2.35,10.35-4-7.74,8.06Zm-3.62-5.35c-.7-1-1.42-1.91-2.17-2.85l.23-.29,11.93-6.24-7.11,8.27Zm-3.56-4.55c-.76-.91-1.55-1.8-2.35-2.69l10.42-7.08-7.74,9.6Zm-1.81.95-10.59,5.54c-.37-.53-.74-1.06-1.13-1.59l9.5-6.46C521.85,214.42,522.59,215.26,523.31,216.1ZM512,224.16l-42,25.58c-.27-.48-.57-1-.86-1.43l39.55-28.82C509.84,221,511,222.57,512,224.16Zm-46.14,19.68c-.46-.55-.93-1.1-1.42-1.62l33.15-33.87c1.36,1.11,2.65,2.25,3.89,3.41ZM496,207.1l-33,33.7c-.41-.39-.83-.78-1.26-1.16l29.47-36Q493.71,205.32,496,207.1Zm-6.45-4.61-29.31,35.84c-1-.78-2-1.53-3.05-2.25l25.22-37.87Q486.16,200.27,489.55,202.49Zm-34,32.49c-1-.65-2.09-1.28-3.21-1.88l-.31-.16,20.59-39.6c1.9.85,3.77,1.72,5.57,2.62.84.43,1.67.85,2.49,1.29Zm8.92-57.18-.65-.2,1.59-4.16Zm-16.55,6.93-12.34,42q-3.78-1-8-1.8l8.53-43Q442.15,183.2,447.89,184.73ZM409,222.46c-7.35-.61-15.34-.92-24.06-.92h-.4V177.16a270.84,270.84,0,0,1,28.37,1.33Zm-26.46-47.29q-17.62.21-33.11,1.77l-.53-6.53q15.91-1.51,33.64-1.56Zm-35.63-4.56.53,6.53a252.12,252.12,0,0,0-25.72,4l-.92-6.64Q333.18,172,346.93,170.61Zm-28.07,4.33.92,6.68a170.16,170.16,0,0,0-19.38,5.48L299,180.22A201.07,201.07,0,0,1,318.86,174.94Zm-32,20,25.67,41.27c-1,.68-1.94,1.38-2.84,2.11l-29.56-39.69C282.29,197.33,284.54,196.09,286.88,194.92Zm-15.1,9.41,33.62,38c-.43.47-.84.95-1.25,1.44l-36.94-35.58C268.65,206.84,270.18,205.57,271.78,204.33Zm-9.64,6-7-7q2.81-2.32,5.86-4.52l5.48,7.38Q264.19,208.18,262.14,210.32Zm37,41c-.27.55-.53,1.11-.79,1.67L252.7,227.49a59.64,59.64,0,0,1,2.9-5.33Zm-46-29.05-11.84-4.74c.68-.88,1.38-1.76,2.11-2.62l10.43,6.19C253.66,221.46,253.42,221.85,253.19,222.25Zm-13.77-5.51-1.58-.63-5.72-8,9.59,5.69C240.92,214.8,240.16,215.77,239.42,216.74Zm-1.8,2.49c-.66.94-1.3,1.89-1.91,2.86l-1.53-.45-6.48-7.42,8.86,3.53Zm-3.48,5.41c-.57,1-1.12,2-1.65,3l-3.06-.41-5.86-6.6,9.47,2.77Zm-2.62,4.87,0,0,0,0Zm-1,2c-.27.59-.53,1.17-.79,1.76l-4.5-.2L220.21,228l8.22,1.11Zm-1.6,3.73c-.14.36-.29.72-.42,1.09l-1.17-1.17Zm2.13.1,16.11.74c-.31,1.05-.61,2.11-.88,3.19l-16.93.62Q230.18,237.57,231.1,235.33Zm14.77,5.95-.21,1-17.58,2c.21-.78.44-1.55.67-2.32ZM224.34,252l-4.24-4.92,5.33-.59C225,248.34,224.64,250.18,224.34,252Zm-1.72,1.06-.85.2-6.23-5.66,2.16-.24Zm1.32,1.74c0,.12,0,.25-.05.38l-.33-.29Zm-.32,2.84c-.14,1.48-.24,3-.3,4.48l-1.32.44L215,257l6.2-1.47Zm1.64,6v0l18.89-6.4c0,1.65.08,3.29.21,4.91l-19,8.55C225.23,268.39,225.19,266.05,225.26,263.64ZM247,275.21c.18.59.38,1.17.58,1.75L230.1,294c-.61-1.65-1.17-3.34-1.68-5.09ZM227,291l-.74-.49.48-.35C226.78,290.44,226.87,290.72,227,291Zm1,3.11c.17.47.35.94.53,1.4l-1.7,1.66-5.26-3.23,2.94-2.17Zm1.33,3.42c.23.54.46,1.08.7,1.61l-1.45-.89Zm2.25,4.92.13.26-1.27,1.47-5.15-2.71,1.82-1.78Zm1.12,2.17.6,1.07-1-.55Zm4.46,7.28.24.36-.36-.19Zm4.1,5.46.26.32-.36-.16ZM257.67,292l38.54-3.25c.17.62.35,1.22.54,1.82L262.65,298A70.8,70.8,0,0,1,257.67,292Zm39.73.47c.18.49.38,1,.58,1.45l-29.66,9.72c-1.43-1.28-2.78-2.58-4.07-3.9Zm-26.3,16.11-6.17,26.53a86.58,86.58,0,0,1-8.22-5.64l8.88-25.7Q268.19,306.2,271.1,308.55Zm-1-3.4,28.73-9.43c.22.47.44.93.67,1.39l-25.36,11.31Q272,306.8,270.07,305.15Zm30.4-6.3c.24.4.47.8.72,1.19l-21.6,12.31c-1.25-.84-2.46-1.7-3.65-2.56Zm4.44,2.91.69.11c.3.61.6,1.21.93,1.8C306,303.05,305.42,302.41,304.91,301.76Zm25.39,17.9-.45.46a60,60,0,0,1-5.87-2.67Q327,318.64,330.3,319.66Zm8.95,5.43-5.52,19.39-7.47-9.67,4.46-12.32A85.05,85.05,0,0,0,339.25,325.09Zm1.93.46a136.74,136.74,0,0,0,14.92,2.53l-3.94,30.31h-7.7l-9.22-11.94Zm20.24,34.84,2.79,35.9q-7.33.49-14.1,1.36l-7.37-35.24,1.7-2Zm-20.32,4,7,33.54q-9,1.23-16.94,3.12l-6.35-17.26ZM323,384.68l6.19,16.81q-6,1.5-11.36,3.38l-7.78-17.37C316.54,385.81,321.24,385,323,384.68ZM308.12,388,316,405.55q-3.51,1.29-6.76,2.75l-9.68-17.69C302.6,389.6,305.48,388.75,308.12,388Zm-10.52,3.22,9.77,17.9q-3.24,1.55-6.21,3.25l-12.48-17.84C291.76,393.32,294.75,392.22,297.6,391.25Zm-10.82,4.09,12.66,18.09q-2.55,1.54-4.89,3.24L278.7,399C281.43,397.64,284.13,396.44,286.78,395.34Zm-17.65,6.38q-2.52,1.44-5.09,3l-3.77-18.18a166.16,166.16,0,0,1,15.93-6.51l1.58,17.11C274.91,398.58,272,400.08,269.13,401.72Zm-1.75,3.34,20.14,17.46a60.8,60.8,0,0,0-4.54,4.85l-23.75-17Q263.13,407.62,267.38,405.06Zm-9.85,6.56,24.19,17.3q-1.35,1.74-2.57,3.57l-29.31-14.68Q253.47,414.6,257.53,411.62Zm-17.76,13.5c-1.29,1.47-2.54,3-3.77,4.55l-8.94-20.39c1.52-1.52,3.08-3,4.68-4.37Zm-5.15,6.37q-1.56,2.11-3,4.33l-11.26-19c.2-.25.38-.51.58-.76q2.24-2.71,4.63-5.21Zm-4.22,6.24c-.77,1.26-1.53,2.54-2.26,3.86L215.2,423.91c1.19-1.85,2.47-3.66,3.82-5.43ZM212.79,424q-1.56,2.49-2.93,5.07l-1.14.29-3.78-4,7.53-1.79ZM208.42,432c-1,2.09-2,4.2-2.79,6.37l-5.36-4.82,7.79-1.92Zm-5.86,16.11-6.68-4.28,8.88-3C203.93,443.15,203.19,445.58,202.56,448.06Zm-1.93,9.76-7.72-3.51,9-3.62C201.4,453,201,455.41,200.63,457.82ZM199.8,466l-2.93,1.68-6.14-1.9,9.44-4.26C200,463,199.89,464.45,199.8,466Zm-.1,2.36a1.28,1.28,0,0,0,0,.19l-.21-.06Zm-.09,2.26c0,1.17,0,2.35,0,3.53L197,475.75l-6.93-1.87,7.07-4.07Zm.06,5.85v.05l-.06,0Zm.1,2.15c.09,1.75.22,3.53.39,5.32l-10.11-1.48,7.25-4.51Zm2,.54,15.44,4.17c0,1-.05,2-.05,3.09l-15-2.19C202,482.49,201.9,480.8,201.8,479.12Zm.3,18.05-11-.7,9.83-6.12Q201.43,493.82,202.1,497.17Zm.31-10.93,14.82,2.16c0,.68,0,1.36,0,2.05.11,2.65.33,5.22.64,7.73l-13.76-.88Q203.05,491.92,202.41,486.24Zm18,24.32c.6,2.16,1.3,4.24,2.06,6.28l-10.9,3.57c-1.32-2.93-2.5-6-3.56-9.06Zm-10.76,10.35-11.55,2.46,9.43-7.55C208.15,517.55,208.86,519.24,209.61,520.91Zm5,9.73L204.08,535l8.4-8.14C213.16,528.12,213.86,529.39,214.59,530.64Zm-2.21-8.41,10.77-3.52c.92,2.27,1.93,4.48,3,6.61l-9.8,4.54C214.94,527.39,213.62,524.84,212.38,522.23Zm18.72,7.58L276,502.51c.78,1.51,1.64,3,2.54,4.39l-40.31,32.45A78.36,78.36,0,0,1,231.1,529.81Zm126.17,57.64c11.05.89,19.89,1.06,24.94,1.06h.62v7.64q-13.4-.1-25.72-.92Zm24.94-.94c-5.64,0-16.07-.21-29-1.42L357.92,543q11.71,1.05,24.91,1.13V586.5Zm2.62-42.33H385q8.43,0,16.27-.4l2.43,42.09q-9.32.55-18.83.62Zm20.82,41.57-2.43-42.08q5.56-.31,10.83-.84l5.36,41.78Q412.62,585.32,405.65,585.75Zm15.75-1.36L416,542.63q9.11-1,17.26-2.59l9.29,41.32C435.75,582.58,428.66,583.59,421.4,584.39ZM454,581.11c6.36-1.41,12.44-3,18.21-4.81l1.77,6.88c-6.37,2-12.72,3.66-19,5.09Zm21.89,1.47-1.77-6.88,1-.31q8-2.62,15.24-5.75L493,576.3l-1.16.49C486.56,579,481.22,580.87,475.88,582.58Zm16.7-3.93,1.07-.46,2.48,7.82-3.84-7.25Zm10-17.23-27-38.11q2.46-1.78,4.7-3.73l31.39,36.25Q507.4,558.75,502.62,561.42Zm30.11-25.17-41-30a52.59,52.59,0,0,0,2.61-4.64L538.9,526.8A74.7,74.7,0,0,1,532.73,536.25Zm16.64-34.5c.32-2,.57-4.06.75-6.14l14.33-.83q-.51,3.54-1.25,7Zm17-6.55,11.24,6.55H565.21Q565.9,498.51,566.38,495.2Zm.88-8.29,11,5.07-11.58.66C567,490.76,567.13,488.84,567.26,486.91Zm.18-3.28c.09-2.48.11-4.92.07-7.34l12,6.2-12.12,1.85C567.41,484.1,567.43,483.87,567.44,483.63Zm-.65-18.52,12.09,4.65-11.47,3.29C567.29,470.36,567.09,467.71,566.79,465.11Zm2.39-1.23,10.15-4.39q.93,4.33,1.5,8.88Zm.17-10.63,7.14-4.23q1.23,3.66,2.16,7.5Zm-2.21-9.65,5.54-4.17q1.5,3.21,2.74,6.56Zm-3.47-9,4.27-4c1.16,1.89,2.24,3.83,3.25,5.8ZM559,426l3.16-3.7c1.33,1.7,2.59,3.45,3.78,5.23Zm-5.47-7.63,2.36-3.33c1.33,1.4,2.62,2.82,3.85,4.28Zm-6.77-7.21,1.73-3.11q2.28,2,4.41,4Zm-8-5.51,1.07-4.26c1.94,1.34,3.81,2.73,5.61,4.15Zm-8.34-6.51c-.78-.62-1.57-1.23-2.36-1.83v-3.22q4.17,2.29,8,4.78ZM520,391.7q-2.24-1.41-4.49-2.7v-1.13q4,1.75,7.77,3.66ZM510.05,386q-2-1-4.05-2c1.63.61,3.25,1.24,4.83,1.88ZM458.84,370l-6-.37v-17l6-2ZM450.68,351l.25,20.57s5.59.26,6.18.32l-14.53,11.65-18.53-24.18,19.13-24.78L458,348.83Zm-8.4-18.53-4.09,5.29-4.76-13.44a76.21,76.21,0,0,0,7.95-2.7l5,10.09C445.23,331.9,442.28,332.5,442.28,332.5Zm6.16-1.08-5.21-10.53c1.59-.7,3.09-1.45,4.52-2.24l6.65,11.52C452.4,330.68,450.41,331.09,448.44,331.42Zm8-1.78-6.93-12c1.33-.8,2.6-1.64,3.79-2.52l9.78,12.36C460.83,328.31,458.61,329,456.41,329.64Zm8.6-2.9-10.18-12.86a38,38,0,0,0,2.94-2.69l.11-.08,12.95,13.11C468.9,325.13,467,326,465,326.74Zm7.72-3.44-13.21-13.38c.67-.51,1.32-1,2-1.58l14.28,13.39C474.75,322.27,473.74,322.79,472.73,323.3ZM462.94,307c.37-.35.73-.7,1.08-1.06l17.71,12.29q-2.06,1.31-4.14,2.49Zm27.52,7.48,5.27,24.5-2.1,1q-6.24,2.14-13.15,3.95l-2-21.49A101.73,101.73,0,0,0,490.46,314.46Zm17,17.83-7.15-26.55c1.72-1.76,3.38-3.59,4.95-5.5l9.92,26.33-.51.42h0Q511.22,329.77,507.41,332.29Zm8.18-3.48.35-.09.26.68h-1.35Zm2.3-.58,1.27-.32-1.12.71Zm7.33-8.62,4.19-1.59.66,1.07-5.8,1.59C524.59,320.33,524.91,320,525.22,319.61Zm6.09-2.32,2.29-.87q-.87.87-1.77,1.71Zm1-7.22c.14-.22.27-.44.4-.67l.31.42Zm1.51-2.53c.39-.7.77-1.39,1.14-2.1l3.3-1.14,2.59,2.77L535,309.13Zm6.51-4,4.37-1.52c-.74,1.26-1.53,2.48-2.34,3.69Zm3.54-7.42,4.92-2.05q-1,2.28-2.16,4.49Zm2.5-8.07,5.71-2.89c-.56,1.86-1.19,3.67-1.87,5.46Zm-1.91-1.28L542,285.16c.2-1,.38-2.07.55-3.11l3.23-1.78,5.78,3Zm-1.59-7.25c0-.24.07-.49.1-.74l.64.33Zm.32-2.87c0-.25,0-.49.07-.73l6.88-4.16,4.1,1.51L545.77,278Zm9.13-6.22,3.11-1.87c-.11,1-.23,1.93-.36,2.89Zm3.41-5.06-7.28-2,7.61-5.05Q556,261.94,555.77,265.42Zm-7.42-11.92,7.41-5.65c.19,2.41.31,4.87.34,7.36Zm.18-9.28,6.08-5.21c.34,1.92.62,3.86.85,5.84Zm-1.16-7.95,5.54-4.85c.42,1.55.8,3.13,1.14,4.73Zm-3.06-6.84,6.08-5.7q.95,2.46,1.74,5Zm-5.43-5.83,7.81-8.13c1,1.89,1.89,3.83,2.72,5.8Zm-3.39-6.51,7.24-8.44c1,1.51,1.9,3,2.78,4.61Zm-5.6-4.43,8.3-10.3c1.11,1.4,2.18,2.83,3.19,4.28Zm-7.71-2.22,11-13.9c1.25,1.31,2.44,2.66,3.59,4Zm-2-.71-1.26-1.25,6.93-6Zm-.49,2.38-9.33,6.34c-.41-.51-.82-1-1.25-1.53l8.29-7.13C518.2,210.56,519,211.33,519.71,212.11Zm-11.88,3.29c-1.12-1.26-2.29-2.5-3.53-3.71l6.56-7.78c1.77,1.46,3.48,3,5.11,4.49Zm4.34-13,0,0,.21-.24Zm-1.58-1.28q-3.09-2.44-6.45-4.74l10.09-15.27q4.37,2.81,8.28,5.85Zm-1.29,1.53-6.44,7.65q-2.39-2.22-5.06-4.34l5.23-7.91C505.21,199.54,507.3,201.08,509.3,202.66Zm-13.08,2.09c-1.71-1.3-3.49-2.57-5.36-3.79l3.87-8.07c2.06,1.18,4.08,2.39,6,3.65l.62.41Zm-7.06-4.88q-4.73-3-10.1-5.69l-.3-.15,2.2-8q6.29,2.73,12,5.88Zm2.91-10.71q-5-2.68-10.5-5l6.12-16.22q7.26,2.78,13.8,6Zm-14.35-6.64c-3.66-1.47-7.46-2.84-11.37-4.11l3.52-16.34q8.26,2.3,15.83,5.08ZM461.88,177q-8.58-2.55-17.87-4.47l2.35-15.73q11.2,2,21.43,4.69ZM440,171.75q-11.91-2.25-24.89-3.47L416,153q14.78,1.16,28.3,3.42Zm1.83,2.39-.94,6.8A232.74,232.74,0,0,0,415,176.69v-6.41A268,268,0,0,1,441.79,174.14Zm-59.23-7.29q-16.79,0-32,1.4l-2.32-14.74c10.93-1,22.39-1.57,34.3-1.64Zm-35.76,1.76q-12.76,1.3-24.35,3.56l-4.07-14.45c8.8-1.7,18.08-3,27.77-4ZM318.57,173q-9.09,1.93-17.42,4.48l-5.84-14.08c6.64-2,13.65-3.73,21-5.22Zm-21.93,5.93q-6,2-11.58,4.35l-7.12-13.74q7.26-3,15.29-5.5Zm-14.34,7.73,3.58,6.57a95.08,95.08,0,0,0-11.16,6.52l-3.86-7.26Q276.31,189.33,282.3,186.62Zm-9.23,14.24q-2.69,1.92-5.11,4l-5.36-7.21q1.13-.78,2.28-1.53c1.38-.9,2.8-1.77,4.25-2.63Zm-9.29-6.44q-1.2.78-2.37,1.59L252,183.42q4.17-2.91,8.79-5.56l7.36,13.83C266.69,192.58,265.22,193.48,263.78,194.42Zm-4,2.75c-2.12,1.51-4.14,3.08-6.08,4.7L242.61,190.8q3.67-3.24,7.8-6.23Zm-7.61,6-.76.66-3.15-4.57Zm1.41,1.42,7.22,7.21q-1.82,2-3.44,4.2l-8.74-6.77Q251,206.84,253.57,204.59Zm2.59,13c-.41.59-.81,1.18-1.2,1.78l-10.19-6c.78-.9,1.6-1.79,2.44-2.67ZM244,211.19,238.62,204l7,5.41C245.06,210,244.53,210.6,244,211.19Zm-2.22.38-11.83-7q1.61-2.18,3.37-4.26Zm-7.4,3.16-8.85-3.54q1.4-2.35,3-4.63Zm-3.77,5.86L221.9,218c.75-1.59,1.54-3.15,2.39-4.69Zm-4.22,6.21-7.65-1c.62-1.79,1.31-3.55,2-5.28Zm-4.08,6.12-5.64-.26c.36-1.42.75-2.82,1.18-4.21Zm2.11,2.1,3.37,3.36c-.19.52-.36,1.05-.53,1.57l-4.92.18-5.09-5.44Zm2.21,7c-.2.7-.4,1.4-.59,2.1l-1.89-2Zm-2.76,2.71-5.35.6L216,242.37l5.51-.2Zm-7.76.87-1.76.2c.07-.67.14-1.33.22-2Zm3.3,8.3-5.59,1.33q0-3.13.25-6.19Zm-5.59,4.71,5.93,4.79-5.62,1.91C214,263.08,213.86,260.84,213.82,258.57Zm7.77,6.28,1.63,1.32c0,1.83.06,3.62.17,5.37l-1.27.58L215.33,267Zm2.18,11c.15,1.29.32,2.55.52,3.79l-2,1.17L216,277.05l5.82-2.62Zm.89,5.9c0,.18.07.36.1.54l-.51-.3Zm.67,3.22c.24,1.05.5,2.09.78,3.11l-1.65,1.21-5.91-3.95,3.74-2.2Zm-2.58,5.59-2.48,1.82c-.61-1.51-1.19-3.06-1.72-4.63Zm2.6,8L223.89,300c-.61-1.12-1.19-2.25-1.74-3.4Zm3.76,7.13-1,1.15c-.59-.85-1.17-1.7-1.72-2.57Zm5.06,7.1-.59.92c-.65-.72-1.29-1.46-1.91-2.21Zm4.09,5.62,0,.05-.14-.13Zm1.59,1.22.26-.43,4.45,1.9c.39.43.79.85,1.18,1.25l.43.45Zm8.5,2.39,10.94-25q2.2,2.63,4.71,5.13l-8.95,25.93A89.07,89.07,0,0,1,248.35,322.07Zm18.39,14.07,6.09-26.22a113.21,113.21,0,0,0,9.32,6.47L278,340.74c-2.75-.91-5.42-1.87-8-2.89C269.65,337.68,268.48,337.12,266.74,336.14ZM284,317.52c3.47,2.09,6.94,4,10.32,5.62l-1.77,21.7c-4.4-1-8.61-2.2-12.6-3.47Zm8.74,2.59,14.68-12.72c.93.86,1.89,1.69,2.92,2.48l-11.86,13C296.6,322,294.68,321.11,292.73,320.11ZM312,311.06l.18.13a38.43,38.43,0,0,0,3.12,2.83l-8.8,12.33c-1.93-.78-4-1.63-6.08-2.57Zm4.88,4.2c1.13.84,2.33,1.63,3.59,2.39l-6.24,11.55q-2.65-.9-5.81-2.1Zm5.33,3.39a58.16,58.16,0,0,0,6.68,3.13l-4,11.15s-3.95-1.53-8.7-3.08Zm1.47,16,19.05,24.68-19.11,22.78-11.94-10.52,4.07-1.06-.18-20.87-4.38-.87Zm-14.5,37.41,12.3,10.83a177.12,177.12,0,0,0-41.74,13.35l-1.56-16.86c3.92-1.32,7.69-2.45,11.23-3.4Q298.76,373.85,309.14,372.09Zm-50.73,15.39,3.83,18.45A117.71,117.71,0,0,0,250,415.07l-5.73-19.6A135.82,135.82,0,0,1,258.41,387.48Zm-14.07,5.58.19-1.54,2.63-.19C246.21,391.89,245.28,392.47,244.34,393.06Zm-2.19,1.42-1.17.79-4.85.53q3-1.77,6.29-3.45Zm-10,3.77,5.5-.6q-2.2,1.62-4.34,3.36l-.89.1-1-2.42Zm-1.79,3.11-3.42.41c.92-.66,1.86-1.31,2.81-1.95Zm-12.41,15.27c-1.1,1.42-2.16,2.87-3.16,4.34l-1.46.35-2.65-3.63,7.17-1.23Zm-6.73,5.19-5.89,1.4q1.68-2.37,3.53-4.62Zm-4.7,8.09-6.39,1.57c1-1.74,2-3.45,3.05-5.11Zm-3,9.18-8.25,2.8c1-2.51,2-4.94,3.23-7.31Zm-3,10-8.7,3.5c.67-2.6,1.43-5.14,2.29-7.6Zm-.89,10.44-10.1,4.55q.62-4.34,1.55-8.44Zm-10.52,7.77,5.43,1.68-5.92,3.41C188.72,470.69,188.88,469,189.08,467.32Zm-.68,8.19,6.26,1.69-6.44,4Q188.25,478.31,188.4,475.51ZM200.35,486l.27,2.23-11.87,7.38c-.33-3.71-.51-7.51-.54-11.38Zm2.16,13.25c.15.69.31,1.36.47,2l-12.21,8.32q-1.12-5.47-1.75-11.22Zm3.4,12.28c.27.8.55,1.59.83,2.37l-12.16,9.74a112.38,112.38,0,0,1-3.18-11.18Zm4.55,11.3c.34.74.7,1.47,1.07,2.19l-11.66,11.29A104.52,104.52,0,0,1,195.44,526Zm5.17,9.6q1.17,1.9,2.41,3.77l-11.55,11.5a105.18,105.18,0,0,1-5.51-9.24Zm5.84,8.57q1.92,2.53,4,5l-11,12.26a105.13,105.13,0,0,1-6.78-8.68Zm5.35,6.48.56.62-4,3.22Zm-3.71-7.51,8.69-5.42c1.51,2.12,3.13,4.16,4.82,6.12l-7.73,6.22Q225.83,543.5,223.11,539.92Zm14.84,2.2c1.45,1.61,3,3.15,4.54,4.65l-6.37,7.29q-3.08-2.79-5.88-5.74Zm14.34,12.82c2.34,1.72,4.75,3.34,7.24,4.89l-3.95,8.49q-4.4-2.61-8.45-5.47Zm9,5.95q4.2,2.52,8.63,4.74L267,574.4q-5-2.4-9.64-5.07Zm-4.17,10.49-2.32,3.49,1.76-3.8Zm1.74,1c2.44,1.34,5,2.62,7.54,3.86l-5.16,15.56q-5.94-2.71-11.45-5.76Zm13.26,6.46q6.35,2.74,13.23,5.1l-3.74,15.79q-9.6-3.15-18.31-7Zm18.82,6.92q7.29,2.26,15.15,4.12l-2,16q-10.63-2.39-20.38-5.47Zm20.51,5.32q11.57,2.48,24.26,4.09L334.32,611q-14.73-1.77-28.1-4.66ZM340,595.67q7.36.83,15.1,1.39l-.32,15.83q-9.39-.63-18.31-1.64Zm17.1,1.53q12.42.82,25.76.94v15.71q-13.45-.06-26.09-.83Zm27.76-8.71a361.29,361.29,0,0,0,38-2.25l.45,7.5a328,328,0,0,1-38.47,2.42Zm65.4,2.87,5.34,16.42q-13.95,2.63-29.19,4.13l-1-16.41C433.17,594.52,441.55,593.18,450.23,591.36Zm5.06-1.1c5.28-1.2,10.65-2.59,16-4.19l6.92,16.47q-9.86,2.75-20.53,4.84Zm21.07-5.73c4.7-1.5,9.4-3.18,14.06-5L499,595.69q-8.88,3.43-18.62,6.25Zm19.14-7.12q4.06-1.74,7.9-3.62l10.52,15.34q-6.18,3.06-12.88,5.75Zm12.43-5.91c2.72-1.42,5.34-2.91,7.88-4.44l10.83,15q-5.16,3.2-10.78,6.07Zm-.88-1.78-3.41-6.63q4.88-2.75,9.27-5.75l3.83,6.84C513.66,566.1,510.42,568,507.05,569.72Zm7.51-13.52q3.62-2.58,6.86-5.34l5.08,6.64c-2.56,1.94-5.26,3.8-8.07,5.61Zm8.38-6.66c1.47-1.3,2.9-2.63,4.25-4,.32-.31.61-.65.92-1l6.57,6.12c-2.09,1.92-4.3,3.77-6.6,5.58Zm6.55-6.42q2.67-2.91,5-6l7.92,5.71c-2,2.23-4,4.39-6.27,6.5ZM544,544l14.41,10.39a107.61,107.61,0,0,1-7.61,8.6l-13.24-12.32Q541,547.4,544,544Zm3.37-4.08q1.67-2.13,3.2-4.33l15.57,7.65a104,104,0,0,1-6.39,9.42Zm7-10.22c.76-1.28,1.48-2.57,2.17-3.89l16,4.85a104.7,104.7,0,0,1-5.27,10.61Zm5.59-11.1c.46-1.11.9-2.22,1.32-3.34l15.94,2.18a106.92,106.92,0,0,1-3.75,11Zm4.21-12.46c.21-.78.41-1.57.6-2.36h15.39q-.88,5.76-2.3,11.24Zm5-11.6,12.14-.7c-.19,2.47-.45,4.92-.77,7.32ZM570,486l11.71-1.78q0,3.56-.22,7Zm-1.16-11.24,12.32-3.54q.48,5,.55,10.18ZM460.16,348.19l-14.85-14.3a88.72,88.72,0,0,0,31.3-10.39l1.91,20.91C472.75,345.85,466.65,347.11,460.16,348.19Zm49-14.67c1.06-.72,2.1-1.45,3.11-2.19v.07h1C512,332.13,510.58,332.83,509.2,333.52ZM524.81,324l-.6-1.23,3.38-.93c-.26.21-.51.43-.78.64C526.16,323,525.48,323.5,524.81,324Zm12.58-11.7-1.1-1.49,3.28-1.15C538.87,310.56,538.14,311.43,537.39,312.3Zm15.7-30.53-5.18-2.66,6.55-3.61C554.07,277.64,553.62,279.73,553.09,281.77ZM531.59,195l-14.1,12.13q-1.83-1.72-3.78-3.39l10.46-15.43A98,98,0,0,1,531.59,195Zm-19-14.91-10.08,15.23c-.21-.13-.42-.28-.63-.42q-3-2-6.24-3.77l7.78-16.22.32.16Q508.32,177.42,512.55,180.05ZM414,152.88l-.88,15.22q-13.72-1.2-28.52-1.25v-15h.4Q399.95,151.86,414,152.88ZM266,175c3.19-1.66,6.53-3.22,10-4.71l5.48,14.49q-6,2.73-11.54,5.87l-7.36-13.82Q264.24,175.93,266,175Zm-25,17.23,8.93,12.93c-1,.92-2,1.85-2.9,2.8l-12.19-9.44Q237.7,195.31,241,192.26Zm-21.29,48-4.64.17c.23-1.44.51-2.86.81-4.27Zm-5.23,28.59,5.58,4.23-4.67,2.1Q214.82,272,214.46,268.82ZM220.35,282l-3,1.79c-.39-1.4-.75-2.83-1.08-4.27Zm26,43.17,4.89,2.45c1.26,1.1,2.5,2.11,3.7,3.05A96.33,96.33,0,0,1,246.32,325.16Zm48.19,20.15,1.73-21.24a161.82,161.82,0,0,0,25.62,9.6l-12.8,14.51C304,347.33,299.14,346.38,294.51,345.31Zm15.93,5.38,2.95,1.08.3,17.36c-.71.08-1.81.22-3.25.43ZM251.15,389l-2.19.16q4.62-2.1,9.63-4C256.11,386.38,253.62,387.66,251.15,389ZM222.91,404.8l1.24,2.81-5.74,1Q220.59,406.66,222.91,404.8Zm-7.86,7,1.68,2.85-5.26.9Q213.2,413.62,215.05,411.77Zm.92,148,12.78-10.29q2.92,3.09,6.11,6l-10.81,12.37A113.81,113.81,0,0,1,216,559.81Zm21.14,18.39,9-13.76c2.77,1.95,5.67,3.83,8.69,5.61L247.85,585q-3.37-1.94-6.59-4C239.84,580.07,238.47,579.14,237.11,578.2Zm147.72,35.66v-15.7h.2A326.34,326.34,0,0,0,421.08,596l3.17,16.09c-12.51,1.16-25.63,1.75-39.29,1.75ZM528.44,581l-9.05-16.14q4.33-2.79,8.28-5.78l11.15,14.58C535.54,576.18,532.09,578.63,528.44,581Zm11.95-8.57-11.14-14.58q3.59-2.82,6.85-5.8l13.29,12.38Q545.16,568.54,540.39,572.39Z"/></g></svg>