<svg xmlns="http://www.w3.org/2000/svg" viewBox="0 0 767.13 767.13"><defs><style>.cls-1{fill:#292c35;}</style></defs><g id="Layer_2" data-name="Layer 2"><path class="cls-1" d="M537.72,215.17C501,172.44,447.9,149.86,384.16,149.86c-64,0-117.32,22.58-154.12,65.31-35.49,41.2-54.24,99.07-54.24,167.37,0,68.58,18.75,126.65,54.24,167.93,36.77,42.78,90.07,65.39,154.12,65.39,63.77,0,116.87-22.61,153.56-65.39,35.43-41.31,54.16-99.38,54.16-167.93C591.88,314.27,573.15,256.4,537.72,215.17Zm-16,328.05,2.6,3.11-3.06-2.61Zm-2-.8-8-6.79q1.74-2,3.44-4.11,2.76-3.43,5.35-7l9.15,6.25c-1.37,1.77-2.75,3.51-4.18,5.2Q522.68,539.26,519.72,542.42Zm-9.51,15.46L508.4,556l.3-.25ZM230.37,547.75q-5.44-6.46-10.35-13.47l11.78-8.06q4.08,5.7,8.56,11l0,0Zm-20.86-30.18L222,510.9q3.48,6.08,7.34,11.78l-10.55,9.86Q213.86,525.33,209.51,517.57Zm36.62-295-2.94-3.63,3.5,3Zm2.08.69,6.23,5.14c-1.72,2-3.4,4-5,6-1.38,1.74-2.71,3.52-4,5.34L238,235.07c1.47-1.87,3-3.72,4.5-5.52C244.37,227.39,246.27,225.29,248.21,223.24Zm10-14.65,1.22,1.32-.19.16Zm266.45,17.27,4.37-3.35-3.67,4.14C525.07,226.39,524.84,226.12,524.61,225.86Zm.57,3.69q4,4.71,7.64,9.76c-3,1.85-6.66,4.16-8.25,5.13q-3.47-5.19-7.27-10c-.31-.39-.63-.77-.95-1.16l6.72-6.12C523.78,227.93,524.48,228.73,525.18,229.55ZM543.49,514l4.27,3.62-4.84-2.67Zm-2.34,0-10.51-5.41q3.78-6.72,7.08-13.94l11.39,4.68Q545.41,506.92,541.15,514ZM517.6,525.07l-36.89-28.46c2.08-3,4.07-6.15,5.94-9.43L526.33,512Q522.24,518.83,517.6,525.07Zm-11,13.34L473,506.6c1.59-1.84,3.14-3.73,4.64-5.69.67-.88,1.33-1.77,2-2.68l36.84,28.45q-1.36,1.82-2.79,3.59Q510.22,534.49,506.56,538.41ZM493.32,565,488,557.76q5.67-4.25,10.94-9l6.52,7.09Q499.65,560.7,493.32,565Zm-15.14,9.12-4-7.17q6.31-3.7,12.22-8l5.23,7.15Q485.15,570.41,478.18,574.1ZM445,587.39l-1.79-6.66q7.44-2.38,14.45-5.41l2.89,6.85Q452.94,585.1,445,587.39Zm-18.66,4.37L425,585.48q8.37-1.72,16.3-4.16L443,588Q434.87,590.19,426.29,591.76Zm-20.07,2.74-.56-6.1c5.91-.6,11.7-1.44,17.33-2.53l1.33,6.24C418.42,593.14,412.4,593.94,406.22,594.5ZM356.47,594l.83-6q5.63.69,11.41,1.08l-.4,6C364.31,594.76,360.36,594.43,356.47,594Zm-20.07-3.2,1.26-6.32q8.61,2,17.66,3.21l-.84,6.07Q345.23,592.64,336.4,590.79ZM318.1,586l2.15-6.55q7.53,2.61,15.46,4.54l-1.26,6.36Q326.07,588.53,318.1,586Zm-16.85-6.23-.06,0,3-6.82c4.58,2.17,9.3,4.11,14.16,5.86l-2.17,6.61Q308.52,582.91,301.25,579.79Zm-15.9-7.89L289.5,565q6.25,3.84,12.91,7.09l-3,6.89Q292.14,575.72,285.35,571.9Zm-14.77-9.43,5.61-6.73q5.6,4.37,11.61,8.17l-4.19,7Q276.88,567,270.58,562.47Zm-13.64-11,7.19-6.18q5,4.88,10.48,9.21L269,561.3Q262.71,556.68,256.94,551.47Zm-26.28-26.89-1.53,1,1.37-1.29C230.56,524.42,230.61,524.5,230.66,524.58ZM223.81,510l10.33-4.75q3.5,6.5,7.43,12.54l-9.23,5.69Q227.83,517,223.81,510Zm-2.78-.86-3.23,1.72,2.93-2.27Zm-5.51-15.4,11.07-4.19q3.07,7.19,6.62,13.93l-10.39,4.77Q218.92,501.26,215.52,493.75Zm-7.46-208.54L203,282.48l5.52,1.6C208.34,284.45,208.2,284.83,208.06,285.21Zm2.35-.57,10.73,3.11a239.3,239.3,0,0,0-6.53,23.05l-11.75-2.5A229.38,229.38,0,0,1,210.41,284.64Zm5.11-17L210.2,264l6,2.41C215.94,266.82,215.73,267.24,215.52,267.67Zm2.49-.53,9.63,3.89q-3.16,7.17-5.85,14.83l-10.66-3.1Q214.28,274.71,218,267.14Zm6.48-16-3.76-3.07,4.24,2.3Zm2.25.17,8.51,4.39q-3.62,6.51-6.79,13.52l-9.56-3.86Q222.56,258.08,226.74,251.29ZM256,229.67l36.34,32.66c-.64.79-1.28,1.59-1.91,2.4-1.51,2-3,4-4.37,6.08l-39.87-28.73c1.56-2.2,3.16-4.35,4.81-6.43S254.26,231.61,256,229.67ZM274.33,201l4.07,5.57a140.72,140.72,0,0,0-11.15,8.94l-5-5.42Q268.08,205.26,274.33,201ZM289,192.13,292,197.9q-6.19,3.48-12,7.53l-4-5.54Q282.27,195.74,289,192.13ZM341.06,174l1.23,6.14q-8.6,1.6-16.68,3.93L324,178C329.57,176.43,335.25,175.07,341.06,174Zm20-2.83.67,6.31c-6,.54-11.8,1.32-17.47,2.31L343,173.6Q351.85,172,361.06,171.13Zm35.78-.72v6.44q-5.89-.32-12-.35v-6.43Q390.92,170.1,396.84,170.41Zm33.74,4.32L429.07,181q-8.51-1.78-17.51-2.87l1.16-6.33Q421.86,172.91,430.58,174.73Zm18,4.69-2.09,6.18q-7.5-2.41-15.46-4.19l1.52-6.26Q440.75,177,448.57,179.42Zm32.53,13.9-3.76,6q-6.24-3.68-12.93-6.77l3-6Q474.47,189.63,481.1,193.32Zm14.72,9.29-4.69,6a138.82,138.82,0,0,0-12.08-8.23l3.79-6.07Q489.56,198.17,495.82,202.61Zm3-.33-.11-.08.66-.8Zm10.27,10.84-5.68,6a140.11,140.11,0,0,0-10.69-9.28l4.74-6.06Q503.49,208.16,509.09,213.12Zm6.64,22.53q4,5.15,7.7,10.69h0l.12.18Q540.3,272,548.8,305.82l-45.92,13c-1.29-5.21-2.76-10.25-4.4-15.08l17-68.45C515.55,235.44,515.64,235.54,515.73,235.65Zm29.79,19.7,4.54-2.32L546,256.2C545.83,255.91,545.67,255.63,545.52,255.35Zm5.69,15.55-10.51,3.89q-3-7.19-6.46-13.9l9.49-4.65Q547.73,263.32,551.21,270.9Zm2.72,1.13,5.05-1.87L554.35,273Zm6.82,23.6-11.86,2.77a213.69,213.69,0,0,0-7.43-21.76l10.59-3.91A217.8,217.8,0,0,1,560.75,295.63Zm9.09,27.89,4.76-.76-4.6,1.63C570,324.1,569.89,323.81,569.84,323.52Zm1.85,27.07-13.48,1q-1.11-13.32-3.19-25.72l12.84-2.05Q570.37,336.79,571.69,350.59ZM573.2,383q0,10.82-.68,21.22l-13.67-.73q.58-10,.61-20.39ZM535.61,494.44l-42.15-20.92a163.22,163.22,0,0,0,5.94-15.78l44.47,15.87A207.58,207.58,0,0,1,535.61,494.44Zm-49.49-10.19-6.35-6.07c1.58-2.94,3-6,4.38-9l6.89,5.24Q488.73,479.51,486.12,484.25Zm-6.81,11-5.92-6.66q2.89-4.19,5.39-8.62l6.33,6.05Q482.36,490.85,479.31,495.28Zm-7.62,9.84-5.39-7.49a91.93,91.93,0,0,0,5.91-7.33l5.92,6.65Q475.05,501.23,471.69,505.12ZM480,561l-25.3-37.61q4.14-3,8-6.4l29.77,34.78A146,146,0,0,1,480,561Zm-14.78,8.57-21-39.55a102.22,102.22,0,0,0,8.87-5.49l25.26,37.57A146.84,146.84,0,0,1,465.17,569.58Zm-16.05,7L432.84,535.4q4.92-2,9.55-4.42l21,39.5q-2,1-4.12,1.94C456,573.91,452.57,575.28,449.12,576.56Zm-16.85,5.2-11.5-42.27Q426,538,431,536.13l16.26,41.11Q440,579.82,432.27,581.76Zm-17,3.41-7.3-42.87q5.58-.91,10.9-2.29l11.48,42.22Q423,584,415.24,585.17Zm-12.91,1.53-3.51-43.21q3.63-.35,7.15-.87l7.29,42.85C409.67,586,406,586.38,402.33,586.7Zm-36.65.09L370,543.51c4,.37,8.08.59,12.26.63l.26,43.36Q373.92,587.46,365.68,586.79Zm-15.82-1.91,8.05-43c3.29.6,6.64,1.09,10.07,1.46l-4.29,43.29C359,586.2,354.39,585.61,349.86,584.88Zm-16-3.31,12.36-42.42q4.74,1.36,9.71,2.35l-8.05,43.06Q340.74,583.33,333.87,581.57Zm-38.7-15.48,23.13-39.32c2.15,1.35,4.36,2.61,6.61,3.8l-19.82,40.67Q300,568.84,295.17,566.09Zm-8.3-5.08,26-37.93c1.24.9,2.49,1.76,3.77,2.6l-23.19,39.41Q290.09,563.13,286.87,561Zm19.95-44.33-52.3,11.94L513,236.85l-16.5,66.49ZM214,440.16l47.55-9.62q1.47,8.43,3.52,16.21l-46.39,13.89Q216,450.73,214,440.16Zm5.89-141.82,46.62,15.54q-2.41,8.42-4.19,17.48L214.51,320.9Q216.76,309.22,219.9,298.34Zm8.08-23,44.67,20.8q-3.11,7.59-5.58,15.86l-46.6-15.54A214.16,214.16,0,0,1,228,275.3Zm7.78-16.37,42.85,24.34c-1.85,3.52-3.59,7.18-5.19,11l-44.66-20.79Q232,265.92,235.76,258.93Zm50.62,14.95,5.75,6.71q-2.73,4.1-5.22,8.69l-5.77-6.54Q283.63,278.15,286.38,273.88Zm7.28-10,5.53,7.31c-2,2.41-4,5-5.9,7.72l-5.75-6.72Q289.69,269,292,266C292.54,265.24,293.1,264.54,293.66,263.84Zm-11.5-57.45L310,245q-4.12,3.18-8,6.79l-31.92-36.18A140.9,140.9,0,0,1,282.16,206.39Zm14.85-8.9L320,238.2q-4.31,2.61-8.34,5.6l-27.8-38.53A140.88,140.88,0,0,1,297,197.49Zm16-7.17,17.88,42.1q-4.75,2.16-9.22,4.76l-22.9-40.61A151.76,151.76,0,0,1,313,190.32ZM329.65,185l12.88,42.88q-5,1.65-9.81,3.74l-17.83-42Q322,187,329.65,185Zm17.3-3.67,8.24,43.15q-5.51,1.17-10.75,2.8L331.59,184.5Q339.06,182.61,347,181.32Zm17.8-2.11,3.73,43.16q-5.79.62-11.33,1.7L348.93,181C354.07,180.23,359.34,179.62,364.75,179.21Zm36.43-.08-4,43c-4.07-.35-8.23-.55-12.48-.56l.12-43.05Q393.2,178.55,401.18,179.13ZM417,180.86l-7.68,42.83c-3.3-.59-6.67-1.05-10.11-1.4l4-43Q410.22,179.85,417,180.86Zm15.47,2.94-12.06,42.36c-3-.81-6-1.53-9.11-2.13L419,181.15Q425.87,182.25,432.44,183.8ZM279.17,451c-3.53-13.05-24-96.27,8.6-159.1,18.19-35,47.82-48,69.48-52.79,32.56-7.15,69.95,0,93.48,17.73Zm-4.81-153.79,6.42,5.06a155.8,155.8,0,0,0-5.2,14.75l-6.67-4.21Q271.32,304.68,274.36,297.21Zm-6,17.6L275,319c-1.5,5.28-2.73,10.59-3.72,15.87l-7-2.95Q266,323.06,268.33,314.81ZM263.88,334l7,2.95c-1.08,6-1.85,12-2.39,17.89l-7.3-1.94Q262.21,343.1,263.88,334Zm4.45,64.3q.21,2.81.48,5.52l-8.31,1.35q-.74-10.41-.77-21.58h7.85C267.71,388.72,268,393.65,268.33,398.25ZM261,354.87l7.33,1.94c-.71,8.61-.91,16.94-.78,24.73h-7.83Q259.77,367.73,261,354.87Zm8,50.89c.7,6.93,1.6,13.36,2.55,19.11l-8.4,3.12q-1.64-10-2.5-20.87Zm2.89,21.12c1,5.55,1.94,10.41,2.83,14.39l-7.8,4.62q-2-7.63-3.43-15.9ZM311,246.65l4.63,9c-2.42,1.81-4.82,3.76-7.17,5.89l-5.2-8.15Q307,249.78,311,246.65Zm9.74-6.78,4.07,9.65q-3.79,2.22-7.55,4.9l-4.66-9Q316.58,242.43,320.77,239.87Zm10.77-5.74L335,244.31q-4.19,1.86-8.4,4.22l-4.09-9.69Q326.9,236.27,331.54,234.13Zm11.5-4.48,2.79,10.48c-2.94,1-5.95,2.07-9,3.37l-3.45-10.18Q338.08,231.28,343,229.65Zm12.49-3.3,1.78,10.7-.49.1c-2.9.64-5.94,1.42-9.08,2.38L345,229.06Q350.1,227.47,355.53,226.35Zm13.14-2,1.05,10.74q-5.28.57-10.45,1.58L357.49,226Q362.94,224.93,368.67,224.33Zm14.05-.77.11,10.81c-3.72,0-7.43.19-11.12.52l-1-10.76C374.58,223.78,378.61,223.59,382.72,223.56Zm26.21,2.09-2.13,10.87q-4.49-.83-9.06-1.33L399,224.28Q404.05,224.79,408.93,225.65Zm10.95,2.44-2.52,10.81c-2.82-.77-5.69-1.44-8.59-2L410.89,226C414,226.59,417,227.29,419.88,228.09Zm10.69,3.5L427.16,242c-2.57-.94-5.2-1.8-7.87-2.57l2.51-10.8Q426.29,230,430.57,231.59Zm9.92,4.37-4,10c-2.42-1.16-4.9-2.23-7.46-3.22l3.4-10.41C435.18,233.43,437.86,234.64,440.49,236Zm9.43,5.33-4.61,9.44q-3.37-2.07-7-3.9l4-10Q446.2,238.91,449.92,241.29ZM395.75,235c-3.62-.35-7.27-.54-10.92-.59l-.11-10.84c4.18,0,8.26.21,12.27.55Zm56.31,20.35c-1.62-1.22-3.3-2.4-5.05-3.52l4.6-9.43q3.74,2.48,7.26,5.24Zm-9-20.29,20.41-40.67q5.85,2.7,11.35,5.86l-24,39.31C448.36,237.94,445.76,236.43,443.1,235Zm-1.78-.91q-4-2-8.23-3.7l15.68-42c4.43,1.51,8.73,3.21,12.91,5.07Zm5.55-46.3-15.63,41.86q-4.37-1.66-8.93-3l12.08-42.45Q440.8,185.84,446.87,187.83Zm-64.16,33.73q-6.24.06-12.24.61l-3.73-43.12q7.86-.54,16.08-.56Zm-80.88,33.22,5.18,8.1c-2.21,2.09-4.38,4.32-6.48,6.72L295,262.26Q298.27,258.32,301.83,254.78ZM285.9,291.17c-1.56,3-3,6.08-4.32,9.18l-6.44-5.06c1.56-3.69,3.23-7.23,5-10.65Zm-71.77,31.7L262,333.31q-1.73,9.29-2.75,19.18l-48.48-5.71Q212,334.45,214.13,322.87Zm-3.59,25.9,48.49,5.7q-1.26,13-1.31,27.06L209,380.89Q209.06,364.29,210.54,348.77Zm47.19,34.76q0,11.31.79,21.86l-48.45,5Q209,397,209,382.89Zm.95,23.85q.87,11,2.55,21.18l-47.58,9.64q-2.24-12.49-3.4-25.79Zm16.51,35.94c1.14,4.95,2.05,8.25,2.4,9.47L271.24,460q-2.08-5.82-3.79-12.11Zm-3.41,19.07,189.08-214L512.05,235,254,526.24Zm282-131.76-46.94,8q-1.41-9.24-3.45-17.84l45.92-13Q552,318.77,553.75,330.63Zm-55.43,124.3-7.4-5c1.47-5.26,2.69-10.56,3.68-15.84l8.07,3.76Q500.81,446.76,498.32,454.93Zm-50.58,56c-36.08,23.14-70,21.1-92.09,15.31a124.62,124.62,0,0,1-38.94-17.71L488.63,315.23c3.09,11.19,9.63,47.79,7.65,86.94C494.43,438.78,484.51,487.37,447.74,511Zm5.89,10.69L449,512.53a83.06,83.06,0,0,0,7.51-5.48l5,8.36Q457.69,518.73,453.63,521.65Zm-10.35,6.52-4.11-9.89q4-2.14,8.11-4.67l4.69,9.2Q447.77,525.71,443.28,528.17Zm-11.13,5.28-3.29-10.29c2.82-1.18,5.67-2.49,8.53-4l4.12,9.92C438.49,530.71,435.36,532.15,432.15,533.45Zm-11.89,4-2.41-10.36c3-.92,6.07-2,9.15-3.21l3.29,10.27Q425.42,536.07,420.26,537.49Zm-12.64,2.81-1.55-10.24q4.85-.93,9.86-2.36l2.4,10.32C414.86,538.93,411.28,539.68,407.62,540.3Zm-9,1.19-.91-10.15c2.09-.24,4.22-.55,6.36-.92l1.54,10.2Q402.21,541.13,398.65,541.49Zm-28.49,0,1-10.28q5.42.66,11.33.8l-.28,10.11Q376.06,542.08,370.16,541.52Zm-23.41-4.31,2.65-10.66c1.84.58,3.72,1.13,5.66,1.64.95.25,1.92.48,2.91.72l-1.69,10.61Q351.42,538.55,346.75,537.21Zm-10.62-3.64L339.55,523c2.49,1,5.15,2,7.95,2.92l-2.66,10.69C341.87,535.72,339,534.7,336.13,533.57Zm-8.63-3.91,4.05-10.19c1.91.92,4,1.86,6.14,2.78l-3.42,10.56C332,531.84,329.71,530.79,327.5,529.66ZM319.26,525l4.49-9.62c1.77,1,3.78,2.09,6,3.21l-4,10.16Q322.41,527,319.26,525Zm-5.37-3.62,4.77-9.08c1,.61,2.08,1.31,3.35,2.07l-4.44,9.55C316.32,523.09,315.1,522.24,313.89,521.37Zm46,8c2.94.65,6,1.21,9.28,1.66l-1,10.34q-5.07-.54-9.93-1.44Zm24.6,2.73h.34c3.52,0,7.16-.17,10.89-.53l.91,10.11c-4.05.34-8.18.52-12.42.52ZM497.79,363.13l9.44-2.33q.67,9.79.71,20.16l-9.34.19C498.49,374.91,498.2,368.87,497.79,363.13Zm-.14-2c-.44-5.7-1-11.09-1.61-16.07l9.14-3.82c.82,5.68,1.44,11.54,1.9,17.57ZM495.78,343c-.83-6.37-1.75-12-2.64-16.74l8.36-4.62q2,8.47,3.37,17.58Zm7.3,92.89L495,432.09c1.35-7.58,2.25-15.07,2.81-22.22l8.82,1.81A239.51,239.51,0,0,1,503.08,435.87Zm3.72-26.18-8.87-1.83c.14-1.89.26-3.76.35-5.59.33-6.5.43-12.91.35-19.12L508,383Q507.94,396.88,506.8,409.69Zm.31-69.07,46.94-8q1.53,10.51,2.37,21.66l-47.36,4.2C508.59,352.34,508,346.38,507.11,340.62Zm-14.37-16.44c-.95-4.8-1.85-8.46-2.54-10.72l6.84-7.69c1.48,4.45,2.8,9.08,4,13.86ZM315.38,510.07c.39.28.92.65,1.6,1.11l-4.72,9c-1.17-.89-2.33-1.79-3.47-2.72Zm11.3,21.43c2.26,1.15,4.57,2.21,6.92,3.2l-16.15,41.74c-3.34-1.24-6.63-2.57-9.84-4l-.71-.33Zm-7.35,45.62,16.12-41.66c2.89,1.15,5.84,2.18,8.87,3.1l-12.38,42.49Q325.49,579.31,319.33,577.12Zm65.15,10.38-.26-43.32q6.45,0,12.61-.52l3.51,43.2Q392.55,587.46,384.48,587.5ZM463,514.06l-4.94-8.31a86,86,0,0,0,6.88-6.61l5.4,7.51Q466.81,510.57,463,514.06Zm22-46.81A147.93,147.93,0,0,0,490.34,452l7.36,4.94a163.31,163.31,0,0,1-5.83,15.58Zm59.55,4.46L500,455.83q2.56-8.34,4.49-17.34l46.13,10.69Q548,460.85,544.5,471.71Zm6.55-24.49-46.16-10.69A243.37,243.37,0,0,0,508.54,412l47.17,5.42A282.22,282.22,0,0,1,551.05,447.22Zm4.87-31.8L508.74,410Q509.92,397,510,383l47.51.1Q557.45,399.75,555.92,415.42Zm-46-34.47q0-10.54-.73-20.5l47.35-4.2q.84,12,.89,24.8Zm44.74-57q-2.14-12.27-5.26-23.59l11.92-2.78a247.44,247.44,0,0,1,6.14,24.31Zm8.6-26.87,2.88-.81-2.74,1.27C563.37,297.35,563.32,297.2,563.28,297.05ZM460.54,246.41q-3.87-3.09-8-5.8l24-39.37a140.47,140.47,0,0,1,36.64,31.33Zm2-54.66c-4.58-2-9.31-3.9-14.19-5.53l2.09-6.21q7.78,2.53,15.14,5.7Zm-53-13.87q-5.26-.58-10.73-.92v-6.44c4,.25,8,.58,11.9,1Zm-26.75-1.39q-9.81,0-19.1.79l-.67-6.33q9.69-.84,19.79-.88Zm-59.14,8.09q-7.35,2.19-14.26,5L307,183.78q7.38-2.91,15.15-5.23Zm-16.11,5.75a152.36,152.36,0,0,0-13.81,6.59l-3-5.73q7-3.65,14.37-6.66Zm-38.91,26.6,32,36.25q-3.69,3.62-7.07,7.63L257.3,228.18A141.78,141.78,0,0,1,268.66,216.93ZM245,243.73l39.89,28.74q-2.84,4.35-5.38,9l-42.83-24.33Q240.61,250.15,245,243.73Zm-44.94,67.33-5.42-2.33,5.72,1.11Zm2.27-.82,11.79,2.5q-2.68,12-4.37,24.93L197.21,336Q199.21,322.72,202.36,310.24ZM194.9,338l-1.66-.45,1.7.21A2,2,0,0,0,194.9,338Zm2,0,12.61,1.61c-.77,6.21-1.37,12.58-1.79,19.07l-13-.79Q195.54,347.79,196.92,338.05Zm-2.28,21.89,13,.79q-.59,9.87-.63,20.15L193.9,381Q193.95,370.28,194.64,359.94ZM207,382.88q0,14.24,1.12,27.74l-12.93,1.27q-1.23-14-1.26-28.87Zm1.3,29.74q1.17,13.36,3.43,25.94l-12.62,2.06q-2.43-12.94-3.74-26.74Zm-11.16,28.3-4.21.58,4.06-1.35Zm15-.4q2.26,12.21,5.54,23.59l-12,3.3a250,250,0,0,1-6.18-24.82Zm-8.35,27.41-3.6.93,3.41-1.56C203.57,467.51,203.63,467.72,203.7,467.93Zm14.45-1.9a217.88,217.88,0,0,0,7.67,21.68l-11.13,4.22a217.9,217.9,0,0,1-8.48-22.6Zm-5.33,26.61-5.27,2,4.79-3.15Zm6.41-30.07,46.37-13.89q1.89,6.9,4.23,13.26l-18.46,66.15C237.14,509.86,226.36,487.79,219.23,462.57Zm87.88,56.09c1.35,1.12,2.73,2.2,4.12,3.25l-26,38a148.69,148.69,0,0,1-31.61-29Zm63.59,70.47q5.83.33,11.83.37l.26,6q-6.32,0-12.48-.36Zm14.09,6.35-.26-6q9.78,0,19.13-.89l.56,6.06Q394.71,595.44,384.79,595.48Zm74.66-21,.64-.28q6.38-2.88,12.4-6.31L476.4,575c-3.28,1.69-6.63,3.29-10.07,4.77-1.31.57-2.64,1.11-4,1.65Zm34.5-24-29.81-34.81q3.9-3.57,7.5-7.6l33.56,31.79A150.08,150.08,0,0,1,494,550.49Zm33.39-40.2-39.73-24.84q2.68-4.87,5.05-10.11l42.11,20.92Q531.31,503.54,527.34,510.29Zm25.06-13.21,5.12,3.78-5.7-2.55C552,497.9,552.21,497.49,552.4,497.08Zm-2.42.44-11.43-4.7q3.09-6.94,5.73-14.31l12.28,3.56Q553.54,490,550,497.52Zm9.65-17.94,5.3,2.89-5.75-1.69C559.32,480.38,559.48,480,559.63,479.58Zm-2.38.64-12.3-3.6a237.15,237.15,0,0,0,6.66-22.84l13,2.41A233.72,233.72,0,0,1,557.25,480.22Zm10-26.25,3.71,1.46-3.87-.79C567.16,454.41,567.21,454.19,567.26,454Zm-2.12.28-13.06-2.42q2.79-12.1,4.54-25.05l13.45,1.61Q568.18,441.76,565.14,454.25Zm5.2-27.84-13.47-1.62q1.2-9.46,1.86-19.35l13.67.72Q571.68,416.51,570.34,426.41Zm-10.89-45.36q-.06-14.18-1.08-27.45l13.51-1q1.25,13.8,1.31,28.37Zm14.43-28.63.31,0-.31.07Zm-.19-2q-1.2-12.36-3.31-24.06l14-5q2.6,13.56,4,27.91Zm-4.23-28.89q-2.28-11.4-5.46-22.11l13.4-6.21q3.84,12.58,6.52,26Zm-6.77-26.41q-3.33-10.51-7.54-20.29l12.59-7.72a234.23,234.23,0,0,1,9,24Zm-9.6-24.94c-1.92-4.18-4-8.27-6.13-12.23l11.72-9.12q4.38,7.88,8.17,16.26Zm-8.58-16.59q-3.42-5.9-7.21-11.43l11.25-9.68q4.8,7,9.05,14.44Zm-8.36-13.09c-.15-.2-.29-.42-.44-.62l3.75-2.23Zm6.57,14-9.41,4.6q-3.59-6.75-7.66-13c.88-.5,2.18-1.31,4.15-2.54l4.2-2.61Q538.62,247.45,542.72,254.51Zm-27.63-22.82a147.66,147.66,0,0,0-10.24-11.2l5.72-6a157.22,157.22,0,0,1,11.18,11.18ZM512,213l3.11-3.22-2.54,3.74Zm-1.49-1.34c-3.23-2.87-6.59-5.59-10-8.18l8.09-13.05Q515,195.32,521,200.8ZM497.08,201q-5.67-4-11.7-7.57l7.06-13.88q7.43,4.44,14.37,9.56Zm-14.91-9.42q-6.71-3.75-13.84-6.91l6.66-14.3c5.37,2.46,10.57,5.18,15.62,8.12Zm-15.68-7.71q-7.47-3.21-15.37-5.79l5.1-15.11q8.7,2.93,16.94,6.6Zm-17.28-6.39Q441.31,175,433,173.2l3.29-15.75q9.24,2.09,18.05,4.94ZM431,172.77q-8.77-1.85-18-3l1.89-16.07q9.91,1.23,19.41,3.27Zm-20-3.21q-6-.67-12.11-1l1.44-16.15c4.24.27,8.42.63,12.55,1.11Zm-14.11-1.15q-6-.3-12.1-.34l-.05-16.2c4.59,0,9.12.15,13.59.39Zm-14.1-.34q-10.18,0-20,.89l-1.42-16.1q10.45-.93,21.35-1Zm-22,1.07q-9.3.88-18.2,2.5l-2.81-15.84q9.58-1.77,19.59-2.75ZM340.69,172c-5.86,1.12-11.58,2.49-17.16,4.07l-4-15.45q9-2.6,18.38-4.44Zm-19.08,4.62q-7.92,2.34-15.44,5.33L300,167.39c5.71-2.33,11.58-4.42,17.61-6.23Zm-17.29,6.08c-5,2-9.83,4.27-14.53,6.73l-7.31-13.8q7.61-4.08,15.65-7.47ZM286.94,191q-6.24,3.42-12.12,7.32l-9.09-12.47c4.8-3.3,9.79-6.36,14.92-9.19Zm-15.29,9.47q-5.53,3.89-10.75,8.19l-10.28-11.18c4.29-3.69,8.76-7.15,13.37-10.4Zm-10.92,11,5,5.47q-5.2,4.74-10,10l-6.17-5.08Q254.94,216.31,260.73,211.38Zm-16.52,30q-4.22,6-8,12.57l-8.44-4.35c2.83-4.47,5.81-8.79,9-12.94Zm-10.62-3.77-5.67-7.07,7.2,5C234.6,236.22,234.1,236.91,233.59,237.6Zm-1.23,1.66q-3.3,4.56-6.32,9.4l-12.84-7q4.55-7.41,9.64-14.3Zm-8.9,13.6q-3.37,5.7-6.42,11.73l-13.41-5.43q3.93-8,8.44-15.57Zm-8.8,16.65q-2.91,6.19-5.46,12.69l-13.78-4q3.32-8.76,7.25-17Zm-7.3,17.59q-3.66,10.06-6.46,20.8l-14-2.72a249.83,249.83,0,0,1,7.71-24.9ZM199.62,313Q197,324.1,195.23,335.8l-14-1.66q2-13.8,5.22-26.8Zm-5,27q-1.17,8.73-1.84,17.79l-14.08-.8q.76-10.57,2.19-20.75Zm-2.09,21.6q-.6,9.54-.64,19.42l-14.09.15q0-11.24.76-22.06Zm-.65,21.42q0,14,1.12,27.29l-13.93,2.43q-1.25-14.43-1.28-29.57Zm1.45,31q1.16,12.39,3.25,24.12l-13.49,4.5q-2.5-13.5-3.83-27.78Zm4.13,28.85q2.28,11.58,5.45,22.48L190,471.27a267.47,267.47,0,0,1-6.49-26.45Zm6.81,27q3.21,10.26,7.26,19.82l-12,7.86a239.59,239.59,0,0,1-8.93-24.17Zm9.36,24.62q2.88,6.34,6.11,12.36l-11.33,8.8c-2.84-5.18-5.48-10.55-7.94-16.07Zm28.24,41.46q-4.4-5.19-8.4-10.8l9.2-5.67q3.69,5.55,7.76,10.69l-7.22,7.31C242.78,537,242.32,536.45,241.88,535.93Zm9.81-4.2a155.74,155.74,0,0,0,11,12.16l-7.24,6.22q-5.72-5.28-10.93-11.14Zm14.42,29.92-7.57,13a175.22,175.22,0,0,1-13.45-11.39l10.38-10.44Q260.6,557.46,266.11,561.65Zm3.22,2.38q5.85,4.2,12.08,7.9l-6.89,13.63c-4.92-3-9.67-6.19-14.27-9.61Zm15,9.58q6.9,3.9,14.24,7.16l-6.47,14.11q-8.13-3.76-15.76-8.27Zm16.06,8,.09,0q7.34,3.15,15.1,5.68l-5.05,15c-5.68-2-11.23-4.13-16.61-6.55Zm17.1,6.33q8.05,2.54,16.55,4.41l-3.74,15.58c-6.1-1.42-12.07-3.08-17.87-5Zm18.5,4.82q8.89,1.86,18.23,3l-2.33,16.07q-10-1.31-19.64-3.44ZM356.19,596q5.9.66,12,1c-.83,10-1.19,14.35-1.29,16.29q-6.6-.45-13-1.24Zm14,1.13q6.27.35,12.7.37l.28,16.37c-4.83,0-9.6-.18-14.31-.45C369.07,610.44,369.79,601.69,370.16,597.11Zm14.7.37q10,0,19.54-.83l1.48,16.28q-10.17.87-20.74.92Zm21.54-1c6.24-.56,12.34-1.38,18.29-2.41l2.7,16q-9.54,1.74-19.52,2.69Zm20.26-2.76q8.67-1.61,16.91-3.86l4.62,15.33c-6.12,1.77-12.39,3.29-18.83,4.52Zm18.83-4.41Q453.6,587,461.27,584l6.12,14.54q-8.4,3.42-17.27,6.1Zm17.65-6q2-.81,4-1.65,5.24-2.26,10.26-4.87l7.86,13.42q-7.77,4.17-16,7.62Zm17.23-8.08q6.44-3.47,12.46-7.48l8.84,12.48q-7.05,4.83-14.59,9Zm15.4-9.46q5.75-4,11.1-8.46l10.4,10.89q-6.67,5.76-13.88,10.82ZM507,554.52l-6.57-7.14q5.19-4.86,10-10.25l7.92,6.73Q512.92,549.49,507,554.52Zm14.64-31.68q4.22-6,8-12.52l10.45,5.38c-2.89,4.66-6,9.16-9.2,13.45Zm12,5.93,5.12,5.71-6.23-4.2C532.94,529.78,533.3,529.28,533.67,528.77Zm1.21-1.64q3.64-5.08,7-10.49l12.76,7q-4.59,7.56-9.77,14.57Zm9.63-14.91q3.4-5.88,6.44-12.11l13.27,5.95q-3.93,8.12-8.45,15.72Zm8.74-17q2.79-6.14,5.23-12.58l14,4.15q-3.32,8.88-7.28,17.25Zm7-17.56q3.59-10.19,6.31-21.08l14.31,2.92a252.38,252.38,0,0,1-7.71,25.21ZM567.72,452q2.61-11.34,4.34-23.36l14.51,1.88q-2,13.83-5.14,26.87Zm4.83-27.09q1.19-9.14,1.85-18.63l14.64.87q-.76,10.85-2.19,21.27Zm2-20.63q.66-10.45.68-21.34h14.67c0,7.54-.25,14.94-.71,22.21Zm.67-23.34q-.06-13.54-1.14-26.47l14.47-3q1.28,14.37,1.34,29.48ZM547.28,230.72l-12.74,7.55c-2.51-3.45-5.11-6.8-7.84-10l-.07-.08,10-11.23Q542.23,223.54,547.28,230.72Zm-12.14-15.45-11.85,9.08q-4.47-4.93-9.27-9.45l8.56-12.62Q529.15,208.42,535.14,215.27ZM249,198.84l8.66,12.53q-5,4.37-9.59,9.13l-11.29-9.81Q242.63,204.45,249,198.84Zm-17.44,17.63q1.83-2.13,3.72-4.18L244.75,224q-1.91,2.07-3.75,4.22c-1.58,1.86-3.13,3.78-4.64,5.71l-12.12-8.42C226.6,222.44,229,219.41,231.56,216.47Zm.18,332.91L243,540.26q5.24,5.9,11,11.22L243.64,561.9Q237.43,556,231.74,549.38Zm287.15,17.37-8.67-12.34q5-4.41,9.64-9.25l11.3,9.62Q525.28,561.08,518.89,566.75Zm17.31-17.58c-1.17,1.36-2.35,2.69-3.55,4l-9.58-11.45q2-2.22,4-4.51,2.21-2.62,4.3-5.36l12.17,8.21Q540,544.73,536.2,549.17Z"/></g></svg>