<svg xmlns="http://www.w3.org/2000/svg" viewBox="0 0 767.13 767.13"><defs><style>.cls-1{fill:#292c35;}</style></defs><g id="Layer_2" data-name="Layer 2"><path class="cls-1" d="M512.3,392.56q-17.17-7-40-9V364.21a136.72,136.72,0,0,0,19.42-3.88c18.74-4.36,33.07-9.9,44.44-17.13l.13,0,0-.08q3.58-2.28,6.8-4.8c19.09-15,28.38-36.76,28.38-66.47,0-37.65-16.89-68.81-48.85-90.11-31.25-20.84-76.23-31.85-130.07-31.85-60.39,0-107.83,12.66-141,37.64-35.7,26.88-53.84,67.41-53.92,120.45v1l13.56,5.76H290v-1c0-29.55,6.9-48,22.37-59.86,15.7-12,41.5-17.62,81.2-17.62,30.25,0,51.79,4.37,65.54,13.64h0c12.74,8.6,18.78,21.42,18.78,38.91,0,28.85-11.05,42.95-36.95,47.17-2.93.48-6.12.83-9.47,1.07-2.32.16-4.79.26-7.35.3h-.78l-2.15,0H358.31v73.68h62.86c43.43,0,62.8,17.9,62.8,58,0,20.44-8.22,35.91-24.43,46-15.19,9.44-37.4,14.23-66,14.23-79.88,0-109.58-26.5-109.58-97.76v-1h-78.7l-14,5.05v1c.07,62.18,19.28,108.91,57.1,138.91,33.7,26.74,82.23,40.3,144.22,40.3,54.92,0,101-11.4,133.27-33,34-22.75,52-56.62,52-97.95C577.91,427.22,549.85,404.34,512.3,392.56Zm63.61,92.38q0,4.19-.26,8.26L564.4,487l11.51-2.17ZM523.69,557l-5.23-6,1.06-1.06c1.21-1.25,2.45-2.6,3.68-4l6.65,5.86C527.87,553.6,525.81,555.35,523.69,557Zm-96.47,39.35-.37-1.83.22,0ZM206.09,437.3h66.27l-44.34,43-21.58-27.51A154.51,154.51,0,0,1,206.09,437.3ZM204.27,450l-10-12.69h9.77C204,440.46,204,444.79,204.27,450Zm264.2-28.13c1.15.71,2.26,1.48,3.33,2.27l-.6.19Q469.9,423,468.47,421.86Zm-2.72-169.22,5.84-9.58c.48.44.94.9,1.4,1.35L467,253.86C466.62,253.45,466.19,253,465.75,252.64Zm-6.39-4.93c-1.11-.71-2.28-1.39-3.49-2.05l5.36-9.8c1.28.69,2.5,1.4,3.67,2.15C462.7,242,460.35,246.12,459.36,247.71Zm-203.2-37.78-2.76-4,3.23,3.53Zm1.85,1,3.18,3.2c-1.26,1.17-2.5,2.37-3.7,3.61-1,1-2,2.09-2.9,3.13l-3.51-3.18,1.24-1.29Q255.08,213.59,258,210.94Zm262.88-4.6-4.77,5.07c-.35-.36-.68-.73-1-1.09-1.57-1.57-3.24-3.09-5-4.56L514,200.7C516.4,202.5,518.69,204.39,520.89,206.34Zm-5.66-7.22L525.36,186q4.41,3.18,8.41,6.64l-11.51,12.22C520,202.89,517.67,201,515.23,199.12Zm32,132.19-6,1.48-.93-1.88,5.74-1.42Zm-22.6,15.74-5.7,1.37c.94-.6,1.87-1.22,2.78-1.85l2.59-.6Zm-53,15.22L458.5,350a102.67,102.67,0,0,0,35.38-14.21l1.76,21.26c-1.5.48-3,.94-4.57,1.37C485.06,359.83,478.6,361.1,471.63,362.27Zm73.48,48.51q1.42,1.08,2.79,2.22h-3.63l.58-2.41C544.93,410.66,545,410.71,545.11,410.78Zm3,7.36-1.93-.31c-.73-1-1.49-1.91-2.26-2.83h5.31Zm.38,114.26,8,7.06L546.8,535C547.37,534.14,547.92,533.27,548.45,532.4ZM545,534.13l-10.44-5.24c.94-1.84,1.83-3.77,2.67-5.77l12.23,3.52A86,86,0,0,1,545,534.13Zm-3.12,7.64,6.9,7.28-8.45-5.37C540.86,543.05,541.37,542.41,541.88,541.77Zm-3.21.84-8.73-5.7c1.28-2,2.52-4,3.7-6.25l10.25,5.15C542.25,538.17,540.5,540.43,538.67,542.61Zm-18.56,3.79-36.59-31c.59-.77,1.15-1.56,1.7-2.37l39.22,28.19C523,543.08,521.55,544.81,520.11,546.4Zm-6.51,6.46-33.17-33.78c.64-.69,1.25-1.4,1.85-2.12l36.47,30.91-.66.69Q515.93,550.78,513.6,552.86Zm-38.1,38.71-2.83-6.78,1.14-.36Zm-20.08,5.32L453.07,590l1.19-.27Zm-38.39-11-3.71-42.44c5.43-.39,10.59-.94,15.45-1.65l8.76,42Q427.72,585.24,417,585.93Zm25-46.62L453.82,581q-6.9,1.5-14.31,2.61l-8.76-42Q436.66,540.6,442,539.31ZM453.4,536l15.94,40.9q-6.51,2-13.56,3.66l-11.85-41.69Q448.92,537.56,453.4,536Zm.67,47v4.78c-8.81,2-17.31,3.47-25.08,4.53v-5.34A235.64,235.64,0,0,0,454.07,583Zm2-.45q8.32-1.89,15.89-4.38l1.35,4.41c-5.79,1.83-11.57,3.41-17.24,4.74Zm19.14-.58-1.35-4.42a143.18,143.18,0,0,0,14.71-5.93L491,576C485.77,578.23,480.49,580.19,475.21,581.92Zm16.54-4.1,2.74,7.81-4.08-7.25Zm1.05-2.58-2.43-4.54q4.72-2.33,9.06-4.94l2.46,5.15Q497.41,573.22,492.8,575.24Zm-19-50.1,28.71,36.29c-2.74,1.83-5.63,3.57-8.64,5.2l-24.27-38.52C471.08,527.16,472.49,526.17,473.82,525.14ZM503.66,570l-2.51-5.28q4.07-2.57,7.78-5.39l3.5,5.62Q508.14,567.63,503.66,570Zm.53-9.69-28.82-36.42q1.94-1.62,3.68-3.36l33,33.66Q508.36,557.39,504.19,560.3Zm21.45-20.69L486.3,511.34q1.2-1.92,2.23-4L531,531.24A85.1,85.1,0,0,1,525.64,539.61Zm-32.3-64.44c0,2.74-.13,5.4-.36,8l-7.39-6.56a71.78,71.78,0,0,0,.38-7.44Zm-22.79-54.35,12.29-14q3.18,1.31,6.19,2.7l-15.14,13.68C472.81,422.37,471.71,421.57,470.55,420.82Zm-33.3-50.51L432.67,339q4-.3,7.67-.82l5.4,21.83Zm28.6-40.38,10,12.88q-2.67,1.08-5.36,2l-7.9-13.11C463.72,331.13,464.81,330.55,465.85,329.93Zm2.7,15.51q-2.74.87-5.48,1.54l-6.16-12.85c1.33-.5,2.62-1,3.87-1.59Zm-7.48,2c-1.71.38-3.4.7-5.09.95h0l-4.3-12.57c1.14-.32,2.25-.67,3.34-1Zm-6.79,2.2-6.95,8.44-5-20.22c2.57-.42,5-.93,7.39-1.52Zm1.85.89,13,12.13-6.76.89v20.28L469,385l-13.48,10.85-17.68-23.16Zm15.45,35c4.81.8,9.64,1.66,14.43,2.62l-1.27,17.3A203.07,203.07,0,0,0,458,396.51Zm15.1,20.74L488,388.54c4.57.94,9.12,2,13.58,3.11l-2.45,20.71Q493.27,409.12,486.68,406.26Zm-32.1-8.36,1.42.17h0l1.25.32-5.71,14.18q-3.26-.87-6.73-1.53L450,391.85Zm4.62,1c1.87.51,3.72,1,5.53,1.56l-7.46,13.88c-1.24-.44-2.5-.85-3.79-1.24Zm7.48,2.16c2,.62,4,1.27,6,1.93l-9,14c-1.45-.69-2.93-1.34-4.48-1.94Zm7.9,2.6q3.23,1.14,6.29,2.36l-12,13.72c-1.09-.66-2.21-1.29-3.37-1.89Zm-26.15-13.82-5.59,20.83q-3.63-.62-7.52-1c.61-4.17,3.27-21.6,4.69-30.87ZM491,410.42q3.66,1.75,7.06,3.64l-19.51,13.2c-.94-.93-1.9-1.83-2.92-2.69l-.15-.12Zm9,4.74c1.93,1.11,3.8,2.24,5.6,3.42l-23,13.13c-.82-1-1.69-2-2.59-3Zm7.46,4.66q3.31,2.26,6.33,4.67l-27.46,12.68q-1.2-2-2.55-3.85Zm8,6.09a86.71,86.71,0,0,1,7,6.59l-33.29,10.19c-.59-1.3-1.22-2.55-1.89-3.78Zm8.53,8.22a79.37,79.37,0,0,1,5,6.23l-37.58,8.09c-.45-1.34-.95-2.64-1.47-3.91ZM542.23,413h-.09q-1.64-1.81-3.39-3.53l4.23.33Zm8,14.9.26.51-15.19,18.06c-.47-.83-1-1.67-1.46-2.52l13.89-20.26Q549.08,425.75,550.26,427.9Zm-9.94,78.31-46.53-14.43q.51-2.64.86-5.41l47.21,9.27A95.88,95.88,0,0,1,540.32,506.21Zm-45-30.42L542.11,480c0,.29,0,.58,0,.84l.06,1.5a110,110,0,0,1-.17,11.27l-47.14-9.26C495.15,481.62,495.31,478.76,495.34,475.79Zm58.65-40-16.52,14.86c-.35-.77-.73-1.54-1.13-2.31l15.18-18Q552.89,433.08,554,435.82Zm2.29,6.46-16.91,12.86c-.32-.84-.67-1.69-1-2.55l16.43-14.78C555.32,439.31,555.83,440.8,556.28,442.28Zm-14.63,19.91,17.27-8.91c.45,2.58.78,5.07,1,7.43l-17,7.45C542.63,466.28,542.21,464.28,541.65,462.19Zm-.55-2c-.3-1-.64-2.06-1-3.12l16.8-12.78c.66,2.35,1.2,4.66,1.65,6.91Zm-1.19,3.24L494.67,463c-.22-1.83-.51-3.61-.84-5.36l42.65-4.23A65.9,65.9,0,0,1,539.91,463.46Zm.48,2A74.78,74.78,0,0,1,542,478l-46.69-4.22c0-3-.18-6-.46-8.82Zm3.2,32.94,15.56-1.7c-.32,2.12-.69,4.2-1.13,6.23H543C543.2,501.46,543.41,499.94,543.59,498.4Zm15.85-3.74-15.64,1.71c.15-1.55.26-3.13.34-4.74l15.93-3.75Q559.86,491.35,559.44,494.66Zm.95-16.81c0,1,0,1.82,0,2.47,0,1.86-.05,3.68-.13,5.48l-16,3.76c.07-2.37.07-4.79,0-7.28l0-1.48c0-1-.07-2.29-.15-3.71l16.5-4.45C560.47,474.65,560.43,476.41,560.39,477.85Zm-16.55-2.8c-.12-1.48-.3-3.1-.55-4.85l16.83-7.39c.22,2.82.32,5.43.35,7.77Zm17.09-21.9,10,2.56-9.08,4.13C561.63,457.7,561.33,455.46,560.93,453.15Zm-2.3-10,9.84,2.62-8.09,4.48Q559.67,446.76,558.63,443.14Zm-.68-2.26c-.49-1.51-1-3-1.61-4.56l1.3-1.38,7.22,1.73L558.23,441Zm-3.36-8.73c-.53-1.18-1.09-2.36-1.7-3.54l1.16-1.69,6.78,1.69L557,432.72Zm-2.76-5.52c-.05-.11-.11-.2-.17-.31l.32.08Zm-5.26-4.74L532.7,442.11c-.22-.33-.43-.67-.66-1l-.12-.17L543,417.05Q544.88,419.39,546.57,421.89Zm-5-6.52-11,23.67q-1.61-2.21-3.39-4.32L536.37,410A71.15,71.15,0,0,1,541.56,415.37Zm-11.24,26.76.06.1a67,67,0,0,1,5.24,9.21l-42.17,4.18c-.39-1.81-.86-3.55-1.37-5.26Zm-37,51.61,46.53,14.44a90.15,90.15,0,0,1-3,10.37l-44.77-20C492.57,497,493,495.37,493.37,493.74Zm-1.91,6.68,44.69,20a84.24,84.24,0,0,1-4.15,9.06l-42.6-23.92C490.16,503.91,490.85,502.2,491.46,500.42Zm62.86,20.66,9.49,7.49-11.48-3.2Q553.38,523.26,554.32,521.08Zm-3.9,3.75L538,521.25q1.29-3.29,2.36-6.86l13.78,1.93A91.76,91.76,0,0,1,550.42,524.83Zm-9.53-12.38c.66-2.41,1.24-4.92,1.72-7.52h15a93.92,93.92,0,0,1-2.77,9.47Zm17.65-3.32,10.23,7.22-11.94-1.67C557.46,512.86,558,511,558.54,509.13Zm2.56-12,10.54,6L560.07,503C560.47,501.05,560.8,499.11,561.1,497.15Zm1-9.15L573,494l-11.49.52C561.74,492.38,561.93,490.2,562.08,488Zm.26-7.68c0-.54,0-1.23,0-2l11.18,4.95-11.33,2.13C562.3,483.7,562.34,482,562.34,480.32Zm-.21-17.48,10.66,4.07L562.46,470C562.42,467.82,562.33,465.42,562.13,462.84Zm1.45-1.58,9.61-4.37c.59,2.77,1.09,5.64,1.49,8.59Zm-1.25-9.82,8.18-4.53q1.14,3.46,2,7.15Zm-1.5-9.79,6.06-3.91q1.41,3,2.59,6.22Zm-1.62-8.39,3.32-3.55q1.53,2.44,2.89,5Zm-4-8.1,2-2.84q1.65,2,3.13,4.1Zm-2.07-.51-2.93-.74c-.45-.73-.91-1.46-1.38-2.18l.48-1.35,6.07,1Zm-16-17.3.39-1.6c1,.6,2,1.22,2.95,1.86Zm-1.83-1c-.53-.45-1.07-.9-1.62-1.34l1.93.08Zm-.6,2.15L525.7,433c-1-1.1-2-2.18-3-3.24l7-25.36C531.41,405.71,533.13,407.1,534.77,408.55ZM521,428.16c-1.94-1.85-4-3.63-6.16-5.36L519,397.85a79.78,79.78,0,0,1,8.91,5.33Zm-3.94-31.26-4,24.5a111,111,0,0,0-12.06-8l2.52-21.25q4.53,1.2,8.94,2.61C514.05,395.46,515.59,396.17,517.09,396.9ZM464.35,382V365.4l6-.9v18.74Zm9.94-58.43,16,12.05c-1.81,1.07-3.66,2.08-5.51,3L472,325.64C472.79,325,473.56,324.32,474.29,323.61Zm8.5-69.19,42.55-27.18a72.43,72.43,0,0,1,4,8.69l-44.93,22C483.94,256.7,483.38,255.55,482.79,254.42Zm-2-3.48,40.56-30.12c1.07,1.52,2.07,3.09,3,4.69l-42.5,27.15C481.5,252.07,481.13,251.51,480.76,250.94Zm-2.39-3.4,37.68-33.29c1.45,1.6,2.8,3.26,4.08,5l-40.48,30.06C479.24,248.68,478.81,248.1,478.37,247.54Zm-2.78-3.22,35.59-35c.85.78,1.69,1.57,2.49,2.37.35.35.67.71,1,1.07L477.09,246C476.6,245.43,476.11,244.86,475.59,244.32Zm-2.95-2.86,31.58-37.77q2.86,2.09,5.46,4.34l-35.49,34.86C473.69,242.41,473.17,241.93,472.64,241.46Zm-5.07-4,27.35-39.72q4,2.26,7.66,4.76l-31.44,37.62C470,239.22,468.81,238.34,467.57,237.49Zm-5.42-3.33L484,192.43q4.8,2.06,9.15,4.37l-27.24,39.57C464.72,235.6,463.45,234.86,462.15,234.16Zm-7.1-3.36,18.14-42.43q4.67,1.55,9,3.3l-21.77,41.56C458.68,232.37,456.91,231.57,455.05,230.8Zm-7.15-2.57,14.16-43.09c3.18.81,6.24,1.69,9.22,2.63l-18.09,42.3C451.49,229.42,449.73,228.8,447.9,228.23Zm-11-2.83,9.37-43.59q7.2,1.24,13.82,2.86l-14.12,43Q441.69,226.4,436.92,225.4Zm-16.41-2.52,5.08-43.77q9.8.9,18.73,2.37L435,225C430.45,224.13,425.64,223.42,420.51,222.88Zm-27.34-47.27-.16-6.87q11.61,0,22.43.75l-.27,6.82Q404.61,175.67,393.17,175.61Zm-28.35,47c-.25-3-1-12.43-1.8-21.84-1.16-14.07-1.62-19.62-1.88-21.88,10.44-.95,20.57-1.31,29.94-1.31h.1l-.48,44Q376.78,221.61,364.82,222.63Zm-19.48,2.58-8.66-43c7.55-1.4,15.11-2.42,22.52-3.14.45,5.14,2.47,29.54,3.63,43.72Q353.5,223.7,345.34,225.21Zm-13.46,3.22-13.17-42.11c5.29-1.45,10.64-2.69,16-3.73l8.67,43Q337.3,226.81,331.88,228.43ZM323,231.51l-17.51-41c3.71-1.34,7.49-2.55,11.3-3.64L330,229C327.54,229.78,325.22,230.62,323,231.51Zm-8.36,3.91L293,195.59q5.18-2.39,10.56-4.4l17.54,41.09Q317.74,233.74,314.63,235.42Zm-7,4.36L281.5,201.62c3.15-1.86,6.4-3.59,9.72-5.18l21.67,40Q310.13,238,307.62,239.78Zm-35.23-34.67-3.08-3.36q4.28-3.12,8.84-5.95l1.92,4.34Q276.13,202.48,272.39,205.11ZM290.31,189l1.66,4.86c-3.47,1.61-6.87,3.35-10.16,5.24l-1.94-4.38C283.24,192.73,286.72,190.81,290.31,189Zm18.83-7.93,1,5.72a162.8,162.8,0,0,0-16.32,6.23l-1.66-4.9A168.33,168.33,0,0,1,309.14,181.1Zm20.59-6,.44,6.35c-6.1,1.29-12.17,2.85-18.14,4.71l-1-5.76A192.48,192.48,0,0,1,329.73,175.13Zm29-4.81c.14,3.64.22,5.64.3,6.78a263.81,263.81,0,0,0-26.9,4l-.45-6.39A240.28,240.28,0,0,1,358.75,170.32Zm32.33,5.28c-9.4,0-19.57.36-30.05,1.31-.07-1.49-.2-4.43-.29-6.78q14.49-1.41,30.25-1.39l.18,6.86Zm24.44-8.11h-.1l.13-.78Zm1.91,2.14q7.4.54,14.42,1.41l-.51,6.65q-6.87-.78-14.17-1.26Zm75,24.54,2-5.56c2.88,1.44,5.65,3,8.34,4.56l-2.6,5.37Q496.47,196.23,492.42,194.17Zm.19-6.43-2,5.53a127.24,127.24,0,0,0-13.75-5.73l1.81-5.68Q486,184.53,492.61,187.74Zm-15.25-8.48-.35-.12,1-2.34Zm-.57,1.92-1.8,5.7q-7.65-2.59-16.23-4.59l1.57-6Q468.93,178.41,476.79,181.18Zm-18-7.37-.92-.21,1.78-4.9Zm-.41,2-1.59,6.09a237.35,237.35,0,0,0-23.49-3.94l.5-6.64A235.88,235.88,0,0,1,458.4,175.77Zm78.17,44.59,10.09-5.28-8.08,8C537.93,222.2,537.27,221.28,536.57,220.36Zm2.6,7.24-9.39,4.09q-1.26-2.83-2.74-5.52l7.78-4.83C536.39,223.43,537.83,225.51,539.17,227.6ZM541,336.84,535.4,338l-.64-1.54,5.34-1.31ZM521.9,310.65l10.16,24.48a79.06,79.06,0,0,1-7,6.4L517.45,316C519,314.24,520.51,312.46,521.9,310.65Zm3.52-5,11.77,23.6c-.11.14-.22.28-.34.41l-.08,0v.06c-1,1.29-2.11,2.54-3.22,3.75l-10.27-24.77C524,307.74,524.74,306.71,525.42,305.68Zm7.47,31.45.51,1.24-2.25.46C531.74,338.27,532.32,337.71,532.89,337.13Zm2.82-3c.77-.87,1.53-1.76,2.27-2.66l.27-.07.93,1.87Zm-9-30.41c.36-.59.71-1.18,1.06-1.77l13.94,21c-1,1.55-2.05,3.06-3.14,4.52Zm3.88-70.21,9.69-4.21c1.39,2.26,2.64,4.51,3.78,6.74l-11.59,2.55Q531.6,236,530.57,233.52ZM545,237.9c1.21,2.49,2.27,4.95,3.2,7.35l-13.57,1c-.45-2-.94-3.89-1.51-5.77ZM554.39,288l-18.27-7.89c.28-1.5.48-3,.63-4.49l18.1,6.07A62.17,62.17,0,0,1,554.39,288Zm-1.37,7.8L535,284.9c.25-.93.47-1.86.68-2.79l18.4,7.95C553.83,291.86,553.47,293.79,553,295.81Zm-1.71,6.45c0,.16-.11.33-.16.5l-17.6-13.18c.32-.89.63-1.78.9-2.68l18.09,11c-.34,1.33-.71,2.69-1.14,4.08l-.2.09Zm-2.54,7.11-16.32-16.89c.12-.31.26-.63.38-.94l17.66,13.23C550,306.28,549.4,307.82,548.77,309.37Zm6-30.29,0,.5-17.88-6c0-.72.06-1.45.08-2.17l17.7,4.4C554.79,277.1,554.81,278.2,554.8,279.08Zm-17.74-9.71c0-1,0-2,0-3l17.22,3.22c.18,1.49.3,2.86.39,4.11Zm-.12-5c-.12-2.67-.3-5.29-.59-7.82l15.68.94A100.79,100.79,0,0,1,554,267.53Zm-.87-9.84c-.29-2.13-.62-4.22-1-6.26l13.86-1.05c1,2.85,1.89,5.6,2.6,8.24Zm-1.64,3-46.6,12c-.25-1.41-.54-2.79-.88-4.13l46.13-16.77C533.66,251.54,534.1,254.49,534.43,257.54Zm.19,2c.14,1.59.25,3.2.32,4.83l-46.48,9.54c-.09-.79-.17-1.59-.28-2.36Zm.39,6.86c0,1.24.06,2.48.06,3.74a53.19,53.19,0,0,1-.36,5.77l-45.81,4.55c0-1.55-.12-3.07-.24-4.55Zm-46.07,16.07,45.5-4.52a59.23,59.23,0,0,1-2.78,11l-43,.74q.27-3.37.27-7C489,282.62,488.94,282.55,488.94,282.48Zm42.67,12,16.32,16.89c-.58,1.31-1.2,2.63-1.86,3.95L530.8,296.2C531.07,295.63,531.35,295.07,531.61,294.49Zm-1.78,3.7,15.23,19.09c-.69,1.29-1.42,2.58-2.21,3.87l-14-21.14C529.19,299.41,529.52,298.8,529.83,298.19ZM546.42,319l1.86,2.33-3.73.9C545.2,321.13,545.83,320.06,546.42,319Zm1.66-1.12,4.75-1.41,2.95,3.05-5.36,1.29Zm0-2.09c.47-.95.91-1.9,1.33-2.85l1.84,1.91Zm2.35-4.67,5.77-2.05,4.11,3.08-6.9,2.05Zm.74-2.39c.35-.9.68-1.8,1-2.69l2.12,1.59Zm1.66-4.68c.07-.22.13-.44.2-.66l4.84-2.28,5.47,3.32-6.8,2.4Zm1-3.23c.18-.63.34-1.25.5-1.86l1.51.91Zm1-3.9c.28-1.21.52-2.38.74-3.52l2.85-1.46,7.42,3.21-7.83,3.7Zm1.17-6v0h0Zm.3-2.08c.06-.47.12-.93.17-1.38l5.88-3.24,4.1,1.38-8.1,4.13Zm.4-3.79c.07-1,.12-1.85.14-2.67l2.94,1Zm.37-4.71,4.64-2.78,5.92,1.47-5.47,3Zm-.26-2.17c0-.55,0-1.17,0-1.84l2.2.55Zm-.15-3.92c-.08-1.29-.19-2.72-.36-4.28l11.32,1.71-6.23,3.74Zm-2.53-16.64,12.51.75-10.92,7.27C555.32,263.15,554.81,260.46,554.12,257.6ZM551,247.06l13-.78L553.18,254C552.56,251.76,551.83,249.44,551,247.06Zm-4-9.61,12.55-2.84-9.94,8.76Q548.4,240.45,547,237.45Zm-4.82-8.89,11.77-4.38-9.38,8.52Q543.41,230.65,542.14,228.56Zm-12.07,9.25a79.92,79.92,0,0,1,2.56,8.91l-46.21,16.79c-.37-1.28-.79-2.53-1.25-3.75Zm-43.15,43.3-7.09,5.66c0-1-.08-2-.14-2.95l7.06-6.55C486.84,278.53,486.89,279.81,486.92,281.11Zm-7.05,8.18,7.06-5.63c0,2.21-.12,4.36-.3,6.43l-7,5.18Q479.85,292.39,479.87,289.29Zm8.62,2.41,42.42-.73a72,72,0,0,1-5,10.14l-38.29-3.56Q488.18,294.72,488.49,291.7Zm-1.24,7.82L524.79,303a85.34,85.34,0,0,1-5,7.08l-33.46-7C486.67,301.94,487,300.75,487.25,299.52Zm-1.5,5.52,32.63,6.8q-2.42,2.94-5.16,5.78l-28.73-9.18C484.94,307.33,485.37,306.21,485.75,305Zm23.43,16.57c-.94.87-1.9,1.72-2.87,2.56l-24.06-11c.51-.94,1-1.9,1.46-2.89l27.94,8.93C510.84,320,510,320.82,509.18,321.61Zm-10.1,8.27-19.77-12c.68-.94,1.33-1.91,1.94-2.92l23.36,10.67Q501.91,327.83,499.08,329.88Zm-21-10.43,19.2,11.69q-2.55,1.77-5.18,3.39L475.7,322.18C476.54,321.3,477.35,320.39,478.11,319.45Zm17.67,15.13A112.77,112.77,0,0,0,508.42,325l4,25a97.14,97.14,0,0,1-14.79,6.47Zm14.42-11.2.34-.31c1.88-1.74,3.64-3.52,5.33-5.34l7.47,25.13a83.48,83.48,0,0,1-9.1,6Zm18.05,18.08,5.93-1.2.51,1.23-9,2.09C526.55,342.89,527.41,342.19,528.25,341.46Zm7.93-1.61,2-.41-1.72,1.17Zm5.91-5.22,3.24-.8c-.83.74-1.69,1.45-2.57,2.15ZM540,328.91q1.5-2,2.89-4.09l1.92,2.9Zm4.87-4.72,4.78-1.15,2.32,2.9-5.1,1.27Zm6.93-1.67,4.44-1.07c-.81,1.18-1.65,2.33-2.53,3.46ZM555,315.8l5.57-1.65c-.82,1.61-1.71,3.16-2.65,4.68Zm3.49-7.55L564,306.3q-.88,2.38-1.91,4.65Zm1.57-8.18,6.78-3.2c-.51,2.15-1.11,4.21-1.76,6.24Zm7.44-6.4-6.76-2.93,7.89-4C568.32,289.1,567.94,291.41,567.49,293.67Zm1.39-9.38-4.16-1.39,4.48-2.47C569.11,281.74,569,283,568.88,284.29Zm.51-6.89-5.26-1.31,5.36-3.22C569.48,274.4,569.45,275.92,569.39,277.4ZM556,267.9a.25.25,0,0,1,0-.08l12.81-8.54c.37,3.49.59,7,.64,10.65Zm-1.68-12.29,12.39-8.84c.72,3.17,1.31,6.4,1.75,9.69Zm-3.71-10.53L563,234.2a100.53,100.53,0,0,1,3.1,9.94Zm-4.59-9.47c-.18-.36-.37-.72-.56-1.08l12.58-11.43a97.41,97.41,0,0,1,4.07,8.87Zm-5-8.78c-.43-.68-.87-1.35-1.32-2l12.13-12.07q2.75,4,5.07,8.2Zm-5.72-8.08c-.75-.95-1.53-1.91-2.33-2.86l11-13.16c2.31,2.61,4.49,5.3,6.5,8.08Zm-3.65-4.4c-.34-.39-.69-.77-1-1.16l6.12-4.91Zm1.9,5.41L526,224.44c-1-1.66-2-3.28-3.13-4.85l6.19-5.13Q531.47,217.09,533.58,219.76ZM521.71,218c-1.32-1.76-2.72-3.47-4.22-5.12l4.88-5.18c1.14,1,2.25,2.1,3.33,3.19.7.7,1.37,1.41,2,2.11Zm-13.16-13.49c-2.11-1.7-4.35-3.31-6.71-4.86l2.64-5.42q4.11,2.52,7.9,5.29Zm-13.4-17.74,6.31-14.53c3.71,1.71,7.3,3.53,10.74,5.45l-8.46,13.76Q499.59,189,495.15,186.75ZM491.58,185q-5.93-2.76-12.33-5.09l4.1-14.89q8.41,2.83,16.12,6.26Zm-16.47-6.54q-6.9-2.33-14.36-4.19l2.52-14.94c6.24,1.46,12.27,3.12,18,5Zm-19.19-5.34q-10.46-2.37-21.92-3.86l1.5-14.87q13.37,1.68,25.63,4.44Zm-25.84-4.35c-4.09-.47-8.29-.85-12.57-1.16l.72-14.89q7.72.54,15.16,1.42Zm-16.67-1.44q-9.9-.6-20.44-.62l-.34-14.88q12,0,23.41.74ZM391,166.73h-.65q-15.45,0-29.66,1.39l-1-14.89q14.83-1.29,31-1.36Zm-32.31,1.59a241.65,241.65,0,0,0-27.23,4.36l-3-15.1a291.42,291.42,0,0,1,29.3-4.16Zm-29.17,4.81a193.58,193.58,0,0,0-18.91,5.35l-4.85-15.33q9.92-3,20.7-5.19Zm-20.8,6a166.19,166.19,0,0,0-17.25,7.13l-6.29-15.67a195.18,195.18,0,0,1,18.66-6.86Zm-19.05,8Q284.13,189.86,279,193l-8.34-15.32q6.09-3.33,12.66-6.24ZM277.26,194c-3.18,2-6.25,4.05-9.23,6.22l-10.62-14.42q5.49-3.79,11.48-7.19Zm-9.56,9,3,3.33q-4.19,3.07-8.06,6.53l-3.17-3.19Q263.46,206.13,267.7,202.94Zm28.19,47.88L259.8,218.27q2.59-2.61,5.37-5l32.74,35.18C297.22,249.22,296.54,250,295.89,250.82Zm-3,4.05-39.67-29.32c1.56-1.93,3.26-3.89,5.14-5.85l36.27,32.71Q293.77,253.61,292.93,254.87ZM289,261.68,245.8,236.41a88.53,88.53,0,0,1,6.22-9.29l39.83,29.44Q290.33,259,289,261.68Zm-7.75,28L261.64,286l-17.59-18.69,38.82,12.6Q281.88,284.6,281.26,289.7ZM264,288.49,281,291.7q-.69,6.68-.79,14.1ZM283.31,278,241.2,264.3l-4.09-4.36a53.18,53.18,0,0,1,2.22-9.2l45.9,20.33C284.51,273.29,283.87,275.58,283.31,278Zm-69.17,6.1-9.68-6.1h11.2C215.09,280.05,214.59,282.09,214.14,284.06Zm3.54-5.95,2.86.48-4.4,5.65C216.59,282.26,217.11,280.21,217.68,278.11Zm4.25-1.31-3.71-.63c1.18-4.12,2.6-8.43,4.3-12.86l8.85,1.38Zm8.43-34.62-10-9.49,13,4.62C232.28,238.93,231.3,240.56,230.36,242.18Zm4.82-4.1,5.91,2.9a73.39,73.39,0,0,0-3.73,9.26c-1.22-.42-3.5-1.12-7.83-2.41C231.24,244.59,233.12,241.33,235.18,238.08Zm2.59-7.41-9-9.54,11.47,6.24C239.37,228.46,238.56,229.57,237.77,230.67Zm4.19-2.31,4.72,2.78a80.63,80.63,0,0,0-4.7,8.05l-5.71-2.8Q238.91,232.34,242,228.36ZM223.39,256,213,246l13.6,3.16C225.47,251.42,224.39,253.72,223.39,256Zm-4.87,12.52-10.1-6.81,12.07,1.35Q219.44,265.81,218.52,268.51Zm14.25-5.62-9.5-1.49c1.54-3.85,3.31-7.79,5.33-11.76,2.81.84,6.54,2,8.17,2.51a47.1,47.1,0,0,0-1.67,7.75Zm53.1,6.28L240,248.84c.17-.45.34-.92.52-1.39a76.25,76.25,0,0,1,4.32-9.29l43.33,25.33Q286.9,266.24,285.87,269.17Zm-32.6-46.78q-3.06,3.6-5.47,7.09l-4.6-2.71q3.06-3.86,6.51-7.61Zm-6.7-2.74-6.71-8.16,8.32,6.39C247.63,218.47,247.1,219.06,246.57,219.65Zm-1.34,1.52q-2,2.28-3.78,4.6l-16-8.69a123,123,0,0,1,8-10.17Zm-8.64,11.17q-1.12,1.62-2.19,3.24l-16.76-6a122.89,122.89,0,0,1,6.41-10.52ZM229.35,244c-.62,1.11-1.21,2.21-1.78,3.32l-16.46-3.83q2.43-6,5.36-11.66Zm-6.81,14c-.45,1.06-.88,2.12-1.3,3.17l-15.47-1.73q1.89-6.94,4.36-13.45Zm-4.67,12.54q-.9,2.79-1.66,5.48h-14q1.19-7.24,2.92-14.09Zm-4.19,15.65c-.09.43-.19.86-.27,1.28H200.68q.45-4.47,1.08-8.8Zm-1.58,3.28-2.59,3.33-6-3.33Zm.41,2.74c-.12.7-.24,1.38-.34,2l-.88-.48Zm-.67,4.15c-.64,4.39-1,8.12-1.19,11h-9.93l9.32-12Zm3.33-7.58,21-26.91,42.79,45.48H212.65A147.17,147.17,0,0,1,215.17,288.73Zm69.48-7.53,5.89,5.43c-.64,2.89-1.15,5.93-1.55,9.1l-5.8-5.23Q283.75,285.64,284.65,281.2Zm.49-2.27q.76-3.36,1.74-6.47l5.87,6.18q-.93,2.78-1.68,5.75Zm2.45-8.63c.63-1.82,1.32-3.59,2.06-5.28l5.64,7.19q-1,2.1-1.79,4.32Zm3-7.32q1.22-2.53,2.63-4.88l5.53,7.7c-.89,1.41-1.73,2.89-2.5,4.41Zm3.77-6.71c.52-.79,1.05-1.55,1.6-2.31l5.58,7.84c-.55.72-1.1,1.45-1.62,2.21Zm2.87-4c.6-.76,1.22-1.51,1.86-2.24l5.3,8.35c-.53.58-1,1.17-1.55,1.78Zm2-5.31L266.7,212c1.74-1.44,3.53-2.84,5.36-4.18l29.85,36.6C301,245.23,300.11,246.09,299.26,247Zm-25.57-40.35c2-1.39,4-2.72,6.08-4L306,241c-.9.68-1.77,1.39-2.61,2.11Zm32.4,36.77c.3-.24.61-.47.92-.7l4.55,9.24c-.66.49-1.29,1-1.92,1.51l-5.09-8.77C305.05,244.25,305.57,243.82,306.09,243.4Zm2.55-1.91c1.63-1.16,3.35-2.27,5.16-3.31l4.56,9.35a60,60,0,0,0-5.16,3.22Zm6.91-4.29q3-1.62,6.33-3l3.58,9.94q-2.77,1.17-5.34,2.49Zm8.17-3.82c2.19-.87,4.47-1.69,6.86-2.44l3.21,10.13q-3.37,1.05-6.47,2.26Zm8.77-3c3.54-1,7.32-2,11.31-2.78L346.21,238q-5.55,1.08-10.5,2.51Zm13.28-3.17q8-1.5,17.24-2.37l1.07,10.66q-8.49.79-15.91,2.15ZM365,224.63q11.78-1,25.63-1.08l-.56,10.7q-12.94.1-24,1Zm28.17-47q16.1.07,30.42,1.32l-5.07,43.76c-7.9-.76-16.49-1.15-25.83-1.15Zm41.26,49.31L431,237.29q-6.36-1.22-13.6-1.95l2.72-10.5Q427.75,225.64,434.44,226.92Zm2,.39c3.1.64,6.06,1.37,8.86,2.18l-4.36,10.15q-3.78-1.09-7.95-2Zm10.79,2.76q2.69.84,5.19,1.78l-4.61,10.08c-1.58-.61-3.24-1.17-5-1.7Zm7.05,2.51c1.81.74,3.55,1.53,5.2,2.35l-5.35,9.78c-1.42-.71-2.92-1.38-4.47-2Zm12.56,6.7c1.13.79,2.19,1.62,3.23,2.48l-5.82,9.53c-1-.86-2.11-1.67-3.23-2.46.83-1.27,2.38-4,5.57-9.72Zm7.59,6.59c.47.52.95,1,1.4,1.56l-6.47,8.93c-.29-.34-.56-.69-.86-1Zm2.67,3.17c.41.53.79,1.08,1.17,1.62l-6.68,8.54c-.3-.42-.6-.83-.92-1.24Zm2.32,3.35c.32.52.63,1.05.93,1.58l-6.7,8.44c-.28-.5-.59-1-.9-1.46Zm2,3.51c.52,1,1,2.09,1.45,3.18L476,267.13c-.4-1-.83-1.89-1.3-2.81Zm-4.57,13.36,6.83-8c.38,1.08.73,2.19,1.05,3.32l-7.1,7.11C477.32,270.84,477.06,270,476.78,269.26Zm1.39,4.61,7.07-7.08c.28,1.2.52,2.44.73,3.69l-7.09,6.76C478.68,276.1,478.44,275,478.17,273.87Zm8.17-1c.07.6.14,1.22.21,1.83l-7.08,6.56c-.06-.55-.13-1.11-.2-1.65Zm-6.88,25,6.89-5.13c-.21,1.76-.5,3.47-.84,5.12L479,302C479.17,300.67,479.33,299.31,479.46,297.92Zm-.93,6.7,6.35-4c-.21.85-.45,1.68-.7,2.5l-6.12,3.66C478.23,306.1,478.38,305.37,478.53,304.62Zm-1.19,5,5.85-3.5c-.3.82-.63,1.63-1,2.42l-5.46,3C477,310.87,477.16,310.23,477.34,309.58Zm-1.65,4.78,5.05-2.77c-.25.47-.53.93-.79,1.39l-4.49,1.92C475.54,314.72,475.62,314.54,475.69,314.36Zm-1.53,3.27,3.91-1.67c-.32.45-.65.88-1,1.32l-3,.51ZM472.78,320l2.38-.4q-.66.74-1.35,1.44l-1.49-.34C472.47,320.51,472.63,320.28,472.78,320Zm-.69,2.7c-.62.56-1.25,1.11-1.91,1.65l-.5-.16c.48-.55.94-1.13,1.39-1.72Zm-1.67,4.15,12.49,12.76c-1.7.84-3.42,1.62-5.14,2.36l-10.2-13.13C468.55,328.25,469.51,327.59,470.42,326.89Zm-39.75,12.24,4.76,32.56-11,0-2.16-32.35Q426.6,339.37,430.67,339.13Zm5.42,34.56,2.23,2.92c-2.85,18.65-4.52,29.68-5,32.9-3.56-.29-7.25-.44-11.1-.45l2.16-35.32Zm37.63,51.92c.65.52,1.28,1.05,1.89,1.6L473.7,427c-.31-.36-.62-.73-.94-1.08Zm4.24,3.88c.49.5,1,1,1.44,1.54L476,430l-.57-.76Zm3.75,4.37q.89,1.17,1.71,2.4l-4.77-2.06c-.3-.54-.61-1.07-.93-1.6Zm3.53,5.36c.47.84.93,1.68,1.36,2.55L481,439.06c-.29-.7-.58-1.39-.89-2.07Zm2.67,5.4c.41.95.79,1.92,1.15,2.91l-6.3-3.34c-.24-.82-.5-1.63-.77-2.41Zm2.09,5.67c.44,1.42.83,2.88,1.18,4.38l-6.83-4c-.25-1.3-.54-2.57-.85-3.81Zm1.76,7c.29,1.48.54,3,.75,4.54l-7.2-4.88q-.21-1.92-.51-3.75Zm1.06,7.17q.4,3.88.49,8.06l-7.38-6.05q-.07-3.58-.36-6.93ZM485.27,479l7.44,6.59c-.2,1.66-.44,3.3-.74,4.89l-7.45-7.17C484.82,481.87,485.07,480.43,485.27,479Zm6.21,13.78c-.34,1.52-.72,3-1.15,4.43L482.64,490c.5-1.43.94-2.91,1.33-4.42Zm-1.83,6.54q-.84,2.47-1.88,4.8l-7.47-8.58c.57-1.15,1.09-2.33,1.57-3.53Zm-2.82,6.77c-.65,1.28-1.34,2.53-2.08,3.74l-7.47-9c.72-1.11,1.41-2.23,2-3.39Zm-3.2,5.52c-.51.75-1,1.5-1.56,2.22l-7.26-9.56c.44-.56.89-1.12,1.3-1.7Zm-2.85,3.82c-.55.67-1.11,1.33-1.7,2l-7.14-9.79c.54-.57,1.06-1.15,1.57-1.75Zm-3.08,3.46q-1.69,1.7-3.56,3.27l-6.66-10.36c1.06-.89,2.07-1.8,3-2.75Zm-5.12,4.54q-1.93,1.51-4.07,2.91l-6.43-10.51c1.33-.88,2.62-1.8,3.84-2.75Zm-4.65,5.77,24.19,38.41q-4.44,2.31-9.24,4.35L463,531.9Q465.55,530.61,467.93,529.17ZM481,572.69c-3.15,1.27-6.4,2.47-9.77,3.57l-16-41c2.05-.78,4-1.62,5.91-2.5Zm-26.56-39.33-5.13-10.93c1.83-.74,3.61-1.52,5.31-2.35l5.6,10.82C458.39,531.77,456.47,532.59,454.46,533.36Zm-1.88.69q-4.4,1.58-9.3,2.84L439,526c3-.83,5.82-1.75,8.52-2.77Zm-11.25,3.32q-5.24,1.26-11,2.18l-2.76-11c3.3-.59,6.46-1.29,9.48-2.08Zm-13,2.49q-7.21,1.07-15.28,1.63l-2.14-10.84q7.71-.6,14.66-1.76Zm-17,3.76L415,586.05q-10.48.62-21.77.57l-.72-42.44h0Q402.46,544.18,411.32,543.62Zm-44.57,50.59.41-6.7q11.64,1,24.07,1.1l-.29,6.43Q378.45,595,366.75,594.21Zm-23.82-2.66.54-7.08q10.45,1.85,21.7,2.88l-.41,6.7Q353.47,593.18,342.93,591.55Zm-22.64-4.66,1.08-7.46q9.64,2.76,20.12,4.7l-.53,7.09Q330.22,589.46,320.29,586.89Zm-20.43-6.45,2.22-7.7a176.85,176.85,0,0,0,17.35,6.14l-1.09,7.51A193,193,0,0,1,299.86,580.44Zm-13.94-6L289.8,567c3,1.54,6,3,9.17,4.4.41.19.84.35,1.26.53L298,579.72Q291.77,577.29,285.92,574.45Zm-12.1-19.61,27.68-33.71c.95.82,1.92,1.63,2.93,2.4L280.2,559.18Q276.91,557.08,273.82,554.84Zm-8-6.36L297.11,517c.93,1,1.9,1.91,2.9,2.83L272.2,553.65C270,552,267.85,550.26,265.78,548.48ZM252,534.42l37.19-27.53q1.16,1.8,2.4,3.51L257.83,541Q254.79,537.79,252,534.42Zm-5.91-7.87,40-24.89c.64,1.2,1.31,2.38,2,3.53l-37.39,27.68Q248.26,529.7,246.11,526.55Zm-16.6,2.33-8.3,3.85,6.77-6.17C228.48,527.34,229,528.11,229.51,528.88Zm-5-12.1,11.74-3.34c1.43,3,3.07,6,5,9.18l-9.9,5.37Q227.56,522.42,224.51,516.78Zm2.43-34.64s0,.1,0,.15l-15.41,1.44A166.38,166.38,0,0,1,208,466.6h6.76Zm27.34-24.53,20.18-2.86q.57,7.74,1.67,14.71L229.31,481.8Zm-21.54,41.7,46.11-16.77q1.09,4.14,2.46,8l-44,20.39A106.37,106.37,0,0,1,232.74,499.31Zm-.59-1.9a86.19,86.19,0,0,1-3-13.51l47.31-12.46q.81,4.76,1.9,9.15Zm-22.63-13.55-8.56.32c3-1.66,6-3.37,7.59-4.21C208.85,481.25,209.18,482.55,209.52,483.86Zm17.66.42a88.07,88.07,0,0,0,3.06,13.7l-13.05,3.07a155.28,155.28,0,0,1-5.12-15.36Zm-12,17.09-9.66,1,8.06-5.32C214.08,498.51,214.62,499.94,215.18,501.37Zm15.66-1.48a105.91,105.91,0,0,0,4.56,11.71L223.55,515c-2.11-4-4-8.05-5.61-12.05Zm-9.22,15.71-8.92,3.26,7.28-6.51C220.51,513.43,221.06,514.52,221.62,515.6Zm16.5-2.89L282,492.4q1.49,3.9,3.25,7.47l-40.23,25A107.25,107.25,0,0,1,238.12,512.71Zm54.7-.71c.94,1.21,1.91,2.37,2.93,3.51l-31.48,31.66c-1.74-1.55-3.42-3.15-5-4.78ZM306,524.73q1.92,1.39,4,2.67l-21,37c-2.44-1.31-4.8-2.68-7.1-4.1ZM318.5,532l-17.57,38.08-1.08-.45q-4.68-2.05-9.09-4.37l20.94-36.83C313.86,529.71,316.13,530.91,318.5,532Zm9.6,3.85-13.24,39.5c-4.17-1.38-8.19-2.88-12.09-4.5l17.55-38Q324,534.47,328.1,535.86Zm14.34,3.92-8.84,40.69q-8.73-2-16.83-4.51L330,536.49A127.75,127.75,0,0,0,342.44,539.78Zm20.06,3.05-3.93,41.82q-12-1.38-23-3.74l8.84-40.73Q352.86,541.88,362.5,542.83Zm28,1.34.72,42.44q-16-.14-30.7-1.74L364.5,543C372.55,543.75,381.22,544.12,390.54,544.17Zm-25.85-3.12,1.13-11q11.4,1.15,24.7,1.27v10.87C381.18,542.12,372.59,541.76,364.69,541.05Zm-2-.18c-6.42-.62-12.36-1.48-17.89-2.57l2.45-11.13a166.82,166.82,0,0,0,16.57,2.64Zm-19.85-3a123.41,123.41,0,0,1-12.23-3.21l3.87-11q5.11,1.71,10.82,3Zm-14.13-3.84c-2.67-.92-5.22-1.91-7.64-3l4.33-10.9q3.43,1.56,7.19,2.9Zm-9.46-3.82q-3.48-1.65-6.63-3.53l5.18-10.5c1.85,1.1,3.77,2.14,5.79,3.11Zm-8.34-4.59q-2-1.24-3.8-2.6l6-9.87c1,.68,2,1.34,3,2Zm-5.4-3.82c-.89-.69-1.76-1.4-2.6-2.13l-.22-.19L309,510c.82.69,1.65,1.36,2.51,2Zm-4.31-3.68c-.95-.88-1.86-1.81-2.76-2.75l6.5-9.12c.81.82,1.66,1.61,2.53,2.38Zm-4.13-4.26q-1.45-1.65-2.82-3.44l6.6-8.67c.86,1,1.75,2.06,2.67,3Zm-4.05-5.1c-.77-1.08-1.52-2.18-2.24-3.32l7-7.78c.59.84,1.2,1.67,1.82,2.47Zm-3.32-5.09q-1-1.68-1.89-3.45l6.65-7.78q1,1.8,2.13,3.51Zm-2.85-5.35c-1.09-2.28-2.11-4.66-3-7.15l6.89-6.36c.84,2,1.76,3.92,2.73,5.76Zm-3.76-9.14c-.86-2.47-1.64-5-2.35-7.71l6.6-6q1.15,3.83,2.55,7.35Zm-2.9-9.9c-.68-2.8-1.28-5.7-1.8-8.73l6.47-5.14q.83,4.13,1.87,7.93Zm-2.16-11c-.7-4.49-1.23-9.21-1.59-14.19l6.27-4q.63,6.89,1.73,13.08Zm-3.71-15.57-17.61,2.49,17.12-16.59Q273.9,446,274.33,452.75ZM213.19,464.6H207.7c-.4-2.88-.72-5.63-1-8.22Zm-7.5,0H198l2.38-1.21c2.37-1.21,3.88-2,4.87-2.53C205.35,462.08,205.51,463.33,205.69,464.6Zm.29,2c.55,3.63,1.24,7.44,2.12,11.39-1.35.66-4.18,2.24-10.51,5.78q-1.64-8.32-2.65-17.17Zm4.07,19.24c.83,3,1.78,6.15,2.85,9.3l-10.75,7.08q-2.33-7.71-4.06-15.93Zm5.89,17.46c1,2.38,2,4.78,3.14,7.17l-10.51,9.4q-3.15-7.32-5.67-15.18Zm6.63,14.09q2,3.74,4.32,7.46L216,534.78q-3.5-6.1-6.44-12.65Zm8.08,13.16q2.44,3.53,5.2,7L225.28,549a138.79,138.79,0,0,1-8.1-12.16Zm6.47,8.55c.41.5.82,1,1.24,1.48l-6.76,4.5Zm-4.67-9.46,9.82-5.32a110.87,110.87,0,0,0,6.82,9.66l-9,5.52C237.31,536.27,234.78,533,232.45,529.64Zm17.9,5.91q2.88,3.5,6,6.78l-7,7c-2.5-2.39-4.93-4.87-7.24-7.45l-.76-.87Zm-2.8,14.81.38.36-2.64,2.4Zm1.84,1.74q3.71,3.43,7.66,6.62l-9.36,13.7a137.48,137.48,0,0,1-10.31-9.4Zm9.25,7.84.1.08-.7.8Zm-7.79-9.22,6.93-7c2.39,2.41,4.9,4.74,7.53,7L260,558.44Q255.22,554.77,250.85,550.72Zm16,1.28q4.38,3.57,9.16,6.82l-4.74,7.51c-3.36-2.11-6.61-4.32-9.73-6.67Zm10.81,7.94q5,3.25,10.36,6.16l-3.9,7.46q-5.79-2.89-11.18-6.17Zm5.54,15.4-7.63,15.14q-6.6-3.33-12.68-7.12l9-14.28C275.52,571.3,279.31,573.38,283.21,575.34Zm1.8.89q6,2.89,12.34,5.4l-6.14,15.8q-7.17-2.79-13.84-6Zm14.21,6.1a193.59,193.59,0,0,0,18.73,6l-4.34,16.32a206.32,206.32,0,0,1-20.53-6.52Zm20.66,6.53q10,2.58,20.83,4.35l-2.9,16.55q-11.58-1.86-22.26-4.58Zm22.8,4.67q10.6,1.65,22,2.52L364,612.82q-12.54-.95-24.19-2.75Zm24,2.68q11.72.82,24.23.83l-.34,16.8q-12.68-.06-24.58-.88Zm26.58-7.58h1.59q17,0,32.17-1.5v5.39A297.68,297.68,0,0,1,392.94,595Zm57.88,1.78,5.92,17.4q-12.75,2.6-26.56,4.09l-1.41-17.65C435.93,593.32,443.37,592.07,451.11,590.41Zm5.1-1.14c4.78-1.13,9.65-2.42,14.54-3.9l7.18,17.23q-9,2.7-18.77,4.77Zm19.51-5.45c4.13-1.35,8.25-2.83,12.34-4.47l.49-.2,9.22,16.4Q489.28,599.09,480,602Zm17.87-6.8q4-1.77,7.79-3.66l10.12,15.73q-5.64,3-11.72,5.6Zm11-5.29q4.65-2.46,8.94-5.14L523.61,582q-4.93,3.22-10.27,6.13Zm9.58-7.86-3.61-5.79q3.42-2.72,6.52-5.66l5.08,5.84Q518.22,561.22,514.12,563.87Zm10.37-19.5c1.46-1.79,2.92-3.72,4.34-5.8l8.51,5.56q-2.88,3.27-6,6.27Zm9.1,6.56,4.17,5.3-5-4.52Zm1.44-1.41q2.07-2.12,4-4.31l14.55,9.26a110.29,110.29,0,0,1-7.62,8.95Zm8.1-9.34c.88-1.15,1.72-2.32,2.54-3.51l15.12,7a105.2,105.2,0,0,1-5.86,9Zm6.38-9.52c.66-1.14,1.29-2.3,1.91-3.47l15.46,4.32A107.25,107.25,0,0,1,562,541.62Zm5.63-11.48c.35-.85.66-1.72,1-2.58l15.25,2.14q-1.53,5.35-3.55,10.46Zm4-12.1c.18-.7.34-1.42.5-2.13l14.73.28q-.9,5.61-2.29,11Zm4.73-10.67,11.62-.52c-.18,2.28-.43,4.52-.74,6.74Zm-1.41-20.28c0-1.21.05-2.56.05-4.05L575,468.32q.74,6.58.86,13.76Zm-8-56.93-4.41-.73,1-2.71Q552.82,417.43,554.46,419.2ZM532.64,403l-1.62-.07c-1.1-.81-2.23-1.59-3.39-2.35Q530.18,401.75,532.64,403Zm-19.08-51.43.19.13.83-.2c-.92.35-1.85.68-2.79,1Zm12.91-5.2-.25-.87,3.44-.8C528.62,345.28,527.56,345.83,526.47,346.38Zm22.48-16L548,329l2.85-.71C550.26,329,549.61,329.66,549,330.35Zm-6.42-129.26-13.24,10.62c-.71-.75-1.42-1.5-2.17-2.25-1.1-1.1-2.23-2.17-3.38-3.23L535.28,194C537.84,196.26,540.25,198.64,542.53,201.09Zm-18.81-16.23-10.12,13q-3.92-2.85-8.15-5.46l8.49-13.79q3.93,2.26,7.61,4.71C522.29,183.86,523,184.36,523.72,184.86ZM252.79,189.1c1-.74,2-1.46,3-2.18l10.66,14.46c-2.86,2.16-5.62,4.43-8.29,6.78l-12.31-13.43C248.07,192.79,250.38,190.91,252.79,189.1Zm-8.61,7.08,10.5,15.13c-1.29,1.22-2.57,2.45-3.81,3.72-.45.46-.88.92-1.32,1.38L235,205.23A126.55,126.55,0,0,1,244.18,196.18ZM200.44,290l7.83,4.31-8.57,11Q199.81,297.51,200.44,290Zm10.1,19.26c-.06,1.2-.09,2.18-.11,2.91l-6.85-2.91Zm1.89,3.42c0-.75,0-1.9.11-3.42h69.69v-1c0-5.43.23-10.53.7-15.34l5.78,5.21a144.75,144.75,0,0,0-.75,14.55Zm93.39-55.81-5.32-8.39c.81-.85,1.65-1.68,2.52-2.48l5.08,8.73C307.32,255.47,306.56,256.18,305.82,256.91Zm86.26-22.67.56-10.7c9.22,0,17.69.37,25.46,1.1l-2.73,10.5c-6.71-.6-14-.9-21.85-.9Zm68,14,.07,0h0Zm8.06,77.65.05,0-.24.17Zm-47.94,13.52,2.15,32.36-28.12.11-32.53-32.47Zm-27.77,33.5-32.15,34.63V340.79ZM361.6,409.06l32.69-35.21,28.09-.11-2.16,35.32ZM460.4,516.9l6.41,10.48c-1.52.92-3.11,1.81-4.77,2.65l-5.63-10.88C457.78,518.43,459.12,517.68,460.4,516.9Zm-51.51,13.91L411,541.63q-8.73.55-18.44.55h-.07V531.31h1Q401.55,531.31,408.89,530.81ZM282.54,447.89l-6.25,4q-.44-7.14-.46-15l6.12-3.58C282,438.4,282.18,443.25,282.54,447.89Zm-8-12.59H206.17c.05-1.21.12-2.14.16-2.75h72.93ZM204.3,433c-.05.6-.09,1.36-.13,2.28H198Zm.2,20.5c.13,1.68.28,3.42.47,5.24-1.52.8-6.4,3.29-10.31,5.28q-1.24-12-1.36-24.81Zm22.16,97.24,13-8.65,1,1.1c1.77,2,3.6,3.88,5.48,5.75l-10.25,12.51A134.27,134.27,0,0,1,226.66,550.76Zm22.68,23,11-12.52c3.17,2.38,6.48,4.63,9.89,6.78l-9,14.25q-6.08-3.91-11.61-8.28Zm143.21,40.09.33-16.83a297.2,297.2,0,0,0,32-2.24l3.5,17.33a357.61,357.61,0,0,1-35.77,1.74Zm132.73-33-10.11-15.36q4.27-2.76,8.2-5.75l11.37,14.08Q530.24,577.51,525.28,580.87Zm11-8.3-11.34-14.05c2.23-1.76,4.35-3.57,6.38-5.44L544.45,565Q540.6,568.93,536.28,572.57Z"/></g></svg>